<svg xmlns="http://www.w3.org/2000/svg" width="1000" height="1000" viewBox="0 0 1000 1000"><path d="M81.1 856.4a13.5 13.5 0 0 0-2.9-6.3 27.8 27.8 0 0 1-20.2 9.4c-18.4 0-33.4-15.7-33.4-34.6s15-34.6 33.4-34.6a27.8 27.8 0 0 1 20.2 9.4 11.8 11.8 0 0 0 2.9-6.3h3v23.9h-3.2c-2.9-14.4-11.8-22-22.9-22-15 0-19.3 15.9-19.3 29.6S43 854.5 58 854.5c11.1 0 20-7.9 22.9-22h3.2v23.9zm22.8-11.5c-2.8 5.9-1.1 8.3 8.5 8.3v3.2H86.3v-3.2c7.4 0 10-1.8 13.3-9.6l23.6-54.6h2.2l23.7 54.6c3.1 7 4.6 9.6 13.3 9.6v3.2h-34.8v-3.2c10 0 11.3-2.4 8.5-8.3l-4.8-10.2h-22.8zm16.7-35.2l-8.7 20.6h17.7zm97 29.5c9.8 10.7 14.1 13.1 20.9 14v3.2h-22.2l-20.2-28.2h-3.3v12.6c0 10.6 1.5 12.6 10.9 12.6v3h-37v-3.2c9.6 0 10.9-1.8 10.9-12.6v-33.7c0-11.1-1.3-12.9-10.9-12.9v-2.8h37.4c13.7 0 22.4 8.3 22.4 18.3s-7.6 17.4-19.8 18.4zm-5.4-28.4c0-7.2-4.4-13.1-13.5-13.1h-5.9v26.1h5.9c9.1 0 13.5-5.9 13.5-13zm30.6 45.6v-3.2c9.6 0 10.9-1.8 10.9-12.6v-33.5c0-10.9-1.3-12.6-10.9-12.6v-3.3h34.8v3.3c-9.3 0-10.9 1.7-10.9 12.6v33.5c0 10.8 1.6 12.6 10.9 12.6v3.2zm454.4-3c9.5 0 10.8-2 10.8-12.6v-33.9c0-10.7-1.3-12.7-10.8-12.7v-3h58.9l.9 15.2h-2.6l-.7-2.2c-1.5-6-2.6-8.6-13-8.6h-17.4v23.9h6.1c10.8 0 12.3-1.6 12.3-10.9h3.3v28.3h-3.3c0-9.6-1.5-10.9-12.3-10.9h-6.1v12.8c0 11.3 1.5 13.3 10.8 13.3h10.3c10.4 0 11.7-2.6 13-8.7l.7-2.2h2.8l-1.1 15.2h-62.6zm126.1-46.3c0-10.9-1.6-12.6-10.9-12.6v-3.3h26.1v3.3c-9.6 0-10.9 1.7-10.9 12.6v51.5h-3l-44.8-53.3v36.1c-.4 10.9 1.1 12.8 10.9 12.8v2.2h-26.1v-3.2c9.5 0 10.8-1.8 10.8-12.6v-33.5c0-10.9-1.3-12.6-10.8-12.6v-3.3h20.8l37.9 43.5zm38-11.5c-10.6 0-11.7 2.6-13.2 8.4l-.7 2.4h-3.7l1.1-15.2h48v.4l-35 60.5h20.5c10.4 0 11.5-2.6 13.2-8.7l.5-2.2h3.2l-1.1 15.2h-51.3l35-60.8zm55.7 49.3c-2.9 5.9-1.1 8.3 8.4 8.3v3.2h-26v-3.2c7.4 0 10-1.8 13.2-9.6l23.7-54.6h2.2l23.7 54.6c3 7 4.6 9.6 13.2 9.6v3.2h-34.7v-3.2c10 0 11.3-2.4 8.4-8.3l-4.7-10.2h-22.9zm15.6-35.2l-8.9 20.6h17.6zM757 372.1a41.8 41.8 0 0 0-5-7.4 43.6 43.6 0 0 0-6.6-6.3 51 51 0 0 0-15.6-7.9l-4.4-1-.8 4.1a35 35 0 0 0-.7 4.5 36.2 36.2 0 0 0-.2 4.6 52.6 52.6 0 0 0 .7 8.9 41.5 41.5 0 0 0 6.5 17 37.6 37.6 0 0 0 5.6 6.9 30.9 30.9 0 0 0 7 5.5 54.5 54.5 0 0 0 7.6 3.9l3.9 1.5a25.4 25.4 0 0 0 5.4.9 11.7 11.7 0 0 0 .9-2.4c.2-.7.4-2.4.7-3.1a25 25 0 0 0 .2-4.3 48.5 48.5 0 0 0-.5-8.5 51.9 51.9 0 0 0-4.7-16.9zm-15.9 2.6h-.4l14.1 26.7-2.2-.9a64.2 64.2 0 0 1-6.5-4.1 31.2 31.2 0 0 1-5.7-5.2 25.9 25.9 0 0 1-4.3-6.1 37.8 37.8 0 0 1-4.4-14.3 49.5 49.5 0 0 1 0-7.7l.5-3a34.8 34.8 0 0 1 9.1 4.4 50.8 50.8 0 0 1 5.7 4.7 31.8 31.8 0 0 1 4.5 5.9 45 45 0 0 1 5.5 14.1c.4 2.6.6 5.3.8 7.9v2.8zM289.3 858.6h-3v-23.9h3.3c1.9 11.7 11 19.1 19.7 19.1a10 10 0 0 0 10.9-9 6 6 0 0 0 0-1.9c0-3.9-2.8-8.2-8-11l-10.2-5.5c-9.2-4.5-14.8-9.8-14.8-20.4s8.4-16.3 18.9-16.3a20.2 20.2 0 0 1 13.2 4.3 8.3 8.3 0 0 0 3.1-5h3v23.9h-3c-.9-8.7-4.4-18.7-15.7-18.7a8.6 8.6 0 0 0-8.7 8.3v.4c0 3.3 2.9 8.3 8.5 11.3l10.5 5.3c7.8 4.1 13.9 10.6 13.9 19.3s-10.3 19.8-21.6 19.8c-8 0-13.2-4.4-16.7-5.2a10.6 10.6 0 0 0-3.3 5.2zm50 0h-3v-23.9h3.3c1.9 11.7 11 19.1 19.7 19.1a10 10 0 0 0 10.9-9 6 6 0 0 0 0-1.9c0-3.9-2.8-8.2-8-11l-10.2-5.5c-9.2-4.5-14.8-9.8-14.8-20.4s8.4-16.3 18.9-16.3a20.2 20.2 0 0 1 13.2 4.3 8.3 8.3 0 0 0 3.1-5h3v23.9h-3c-.9-8.7-4.4-18.7-15.7-18.7a8.6 8.6 0 0 0-8.7 8.3v.4c0 3.3 2.9 8.3 8.5 11.3l10.5 5.3c7.8 4.1 13.9 10.6 13.9 19.3s-10.3 19.8-21.6 19.8c-8 0-13.2-4.4-16.7-5.2a10.6 10.6 0 0 0-3.3 5.2zm60.3-13.7c-2.9 5.9-1.1 8.3 8.4 8.3v3.2h-26v-3.2c7.3 0 10-1.8 13.2-9.6l23.7-54.6h2.2l23.7 54.6c3 7 4.5 9.6 13.2 9.6v3.2h-34.7v-3.2c10 0 11.3-2.4 8.4-8.3l-4.7-10.2h-22.9zm16.9-35.2l-8.9 20.6h17.6zm67.6-14.8v-3.7h34.8v1.3c-9.3 0-10.9 2-10.9 13.3v33c0 11.3 1.6 13.3 10.9 13.3H532c10.4 0 11.7-2.6 13-8.7l.7-2.2h5l-.9 15.2h-65.7v-3c9.6 0 10.9-2 10.9-12.6v-33.3c0-10.9-1.3-12.6-10.9-12.6zm101.6 64.4c-20.3 0-36.6-15.7-36.6-34.6s16.3-34.8 36.6-34.8 36.3 15.7 36.3 34.8-16.3 34.6-36.3 34.6zm0-64.2c-15.7 0-21.8 16.3-21.8 29.6S570 854 585.7 854s21.7-16.3 21.7-29.3-6.3-29.6-21.7-29.6zm89.1 44.1c9.6 10.7 13.7 13.1 20.2 14v3.2h-24.3l-20.3-28.2h-3.2v12.6c0 10.6 1.5 12.6 10.8 12.6v3h-32.6v-2.2c7.9 0 9.2-1.9 8.7-12.8v-33.7a11.7 11.7 0 0 0-8.7-12.8v-3.7h36.1c13.5 0 22 8.3 22 18.3s-7.4 17.4-19.1 18.4zm-6.1-28.4c0-7.2-4.3-13.1-13.5-13.1h-5.8v26.1h5.8c9.2 0 13.5-5.9 13.5-13zm-167.2-82.2c-150.3-.1-272-121.9-272.2-272.2h60.3c-3.8 117.1 88.1 215.1 205.2 218.9S710 587.1 713.7 470c.1-4.5.1-9.1 0-13.6h60.2c0 150.2-122.2 272.2-272.4 272.2z"/><path d="M508 580.3v-72.4c17.2-1.7 34.4-8 45.7-16.5v-16.3a87.8 87.8 0 0 1-45.7 18.5v-39.4h-15.2v39.6c-37.4-2.8-63.9-31.7-63.9-73.9s29.4-74.1 69.8-74.1a84.7 84.7 0 0 1 55 18.9v-16.6c-13.5-10-35.2-16.9-55-16.9-46.5 0-85.7 33.7-85.7 88.7s35.9 85.6 79.8 88.3v87.3h97.9v-15.2z"/><path d="M767.8 331.6l-1.9-2.4-2.6-3a62.1 62.1 0 0 0-6.3-5.2 41.3 41.3 0 0 0-15-7.4 27.4 27.4 0 0 0-8.5-1.3 40.1 40.1 0 0 0-8.5.6 50.4 50.4 0 0 0-15.9 6.1l-1.7 1.1a243.8 243.8 0 0 0-13.7-22.4 125.7 125.7 0 0 0-8.5-11.1 41.5 41.5 0 0 0 17.4 2.6 37.6 37.6 0 0 0 9.4-1.5 41.4 41.4 0 0 0 8.7-3.7 71 71 0 0 0 7.6-5l3.4-3a16 16 0 0 0 4-4.6 9.6 9.6 0 0 0-1.8-2.2l-2.4-2.1-3.7-2.7c-2.6-1.5-5.2-3-8-4.3a47.9 47.9 0 0 0-17.8-4.3 61.9 61.9 0 0 0-9.6.6 41.7 41.7 0 0 0-9.1 2.8 57.7 57.7 0 0 0-14.4 9.4l-1.3-1.3a216 216 0 0 0-22.4-19.2 51.2 51.2 0 0 0 18.3-.6 58 58 0 0 0 9.8-3.7 78.6 78.6 0 0 0 8.7-5.4c2.6-2.2 5-4.6 7.4-7l3-3.9a33.6 33.6 0 0 0 3.5-5.7 8.8 8.8 0 0 0-2.4-1.9l-3.1-2-4.5-2.1-9.4-3.1a57.2 57.2 0 0 0-20.2-1.3 43.3 43.3 0 0 0-10 2.6 39 39 0 0 0-9.3 4.8 61.2 61.2 0 0 0-14.8 13.9c-6.5-3.9-13.1-7.4-19.8-10.6l-15-6.8a49.5 49.5 0 0 0 18.5-3.9 41.1 41.1 0 0 0 9.3-5.4 44.5 44.5 0 0 0 7.8-7.2 57.3 57.3 0 0 0 6.4-8.3c.9-1.4 1.8-3 2.6-4.5a37.1 37.1 0 0 0 2.4-6.6 11.7 11.7 0 0 0-2.7-1.5l-3.4-1.5-5-1.1a57.5 57.5 0 0 0-10-1.5 56.7 56.7 0 0 0-20.9 2.2 45 45 0 0 0-10 4.5 51.1 51.1 0 0 0-8.7 6.6 58.8 58.8 0 0 0-12.6 17.1l-.9 1.6a296.2 296.2 0 0 0-33.5-7.9l-3.7-.6a51.8 51.8 0 0 0 13.5-9.6 45.9 45.9 0 0 0 6.5-8.7 59.3 59.3 0 0 0 4.8-9.8 50.9 50.9 0 0 0 2.6-10.2c.5-1.7.5-3.5.9-5.2a29.9 29.9 0 0 0-.2-6.7 10.8 10.8 0 0 0-3.1-.7h-3.9l-5 .7a71 71 0 0 0-9.8 2.6 52.9 52.9 0 0 0-18.4 10.2 46.8 46.8 0 0 0-7.6 7.8 57.8 57.8 0 0 0-5.7 9.6 70.9 70.9 0 0 0-4.8 16.9H487a220 220 0 0 0-29.2 2.6 55.4 55.4 0 0 0 7.9-10.8 58.4 58.4 0 0 0 4.3-10.7 54.7 54.7 0 0 0 2-11.3 68.6 68.6 0 0 0-.3-11.1 49.5 49.5 0 0 0-.6-5.4 24.8 24.8 0 0 0-2.2-7 10.5 10.5 0 0 0-3 .5l-3.9 1.1-5 2.3a67.9 67.9 0 0 0-9.4 5.5 63.7 63.7 0 0 0-15.9 15.6 76.4 76.4 0 0 0-5.2 10.3 48.7 48.7 0 0 0-3.2 11.3 73.8 73.8 0 0 0-.3 18.2 240.7 240.7 0 0 0-30.2 12.6 53.7 53.7 0 0 0 4.6-11.7 57.9 57.9 0 0 0 2.2-13.1 71.1 71.1 0 0 0-.9-13 75.3 75.3 0 0 0-3.1-12.2l-2.1-5.8a23.7 23.7 0 0 0-4.2-7 8.3 8.3 0 0 0-3.4 1.3l-3.9 2.2-4.8 3.9a59.7 59.7 0 0 0-8.9 8.5 67.1 67.1 0 0 0-13.5 21.7 73 73 0 0 0-3.3 12.8 65.9 65.9 0 0 0-.6 13.3 75.6 75.6 0 0 0 5 21.5 251.7 251.7 0 0 0-29.2 24.4 70 70 0 0 0 3.1-19.8 79.1 79.1 0 0 0-1.8-13.7 60.9 60.9 0 0 0-4.5-12.6 66.3 66.3 0 0 0-6.5-11.3l-4-5.2a30.5 30.5 0 0 0-6-5.9 10.3 10.3 0 0 0-3.1 2.4l-3.3 3.5-3.9 5.2c-2.1 3.7-4.3 7.4-6.3 11.3a71.4 71.4 0 0 0-7.1 25.6 57 57 0 0 0 .4 13.7 50.8 50.8 0 0 0 3.3 13.3 79.9 79.9 0 0 0 13.2 22.8 245.1 245.1 0 0 0-25.6 39.8 62.7 62.7 0 0 0-9.6-39.1 55.6 55.6 0 0 0-8.3-10.5 65.8 65.8 0 0 0-9.8-8.4l-5.2-3.7a38 38 0 0 0-7.8-3.3 12.9 12.9 0 0 0-2.2 3l-1.9 4.6-2 6.1c-1 4.2-1.8 8.5-2.4 12.8a73.7 73.7 0 0 0 1.5 26.5 66 66 0 0 0 12.2 24.4 75.7 75.7 0 0 0 20.2 17.2l1.8 1.1a210.9 210.9 0 0 0-12.6 63.9h11.7a206.8 206.8 0 0 1 11.7-61.3l2.2.8 6.5 2.4 6.6 1.5a65.3 65.3 0 0 0 13.2 1.6 59.3 59.3 0 0 0 26.6-4.8 58.2 58.2 0 0 0 11.7-6.5 65.6 65.6 0 0 0 10-9 72.4 72.4 0 0 0 7.8-10.4c1.3-1.9 2.2-3.7 3.3-5.6a23.3 23.3 0 0 0 3-8.1 11.8 11.8 0 0 0-3.2-1.9l-4.4-1.8-6.1-1.7a103.4 103.4 0 0 0-12.6-2 65.1 65.1 0 0 0-25.9 2.9 46.5 46.5 0 0 0-12.3 5.4 68.1 68.1 0 0 0-11.1 8 58 58 0 0 0-5.9 6.3 252.1 252.1 0 0 1 28.5-45.8l2.6 2.4 5.2 3.9a89.8 89.8 0 0 0 11.5 6.9 65.1 65.1 0 0 0 26.3 6.3 45.6 45.6 0 0 0 13.3-1.3 61.9 61.9 0 0 0 12.6-4.1 59.4 59.4 0 0 0 11.3-6.3 48.7 48.7 0 0 0 5.2-3.7 34.1 34.1 0 0 0 5.9-6.1 14.6 14.6 0 0 0-2.2-3.3 25.8 25.8 0 0 0-3.2-3.4l-5-3.9a67.9 67.9 0 0 0-10.7-7 64.9 64.9 0 0 0-25-8 53.7 53.7 0 0 0-13.3-.3 57.9 57.9 0 0 0-12.3 2.9 224.6 224.6 0 0 1 28-24.4l1.1-1.1.6.9a6 6 0 0 1 .9 1.5l4.1 5a87.8 87.8 0 0 0 9.2 9.1 64.6 64.6 0 0 0 22.8 12.2 42.8 42.8 0 0 0 12.8 2 53.1 53.1 0 0 0 12.6-.9 83.6 83.6 0 0 0 12.2-3l5.7-2.4a27.1 27.1 0 0 0 6.9-4.2 18.2 18.2 0 0 0-1.3-3.7l-2.4-3.6a58.6 58.6 0 0 0-3.7-5 90.4 90.4 0 0 0-8.5-9 64 64 0 0 0-21.3-13.4 58.1 58.1 0 0 0-12.4-3.3 68.4 68.4 0 0 0-9.1-.7 261.8 261.8 0 0 1 32.4-14.7 27 27 0 0 0 2 5.4 26.1 26.1 0 0 0 2.4 5.4 56.2 56.2 0 0 0 6.3 10.5 59.6 59.6 0 0 0 17.8 16.1 53.8 53.8 0 0 0 11.1 4.5 45 45 0 0 0 11.5 2.2 49.2 49.2 0 0 0 11.5-.2 37 37 0 0 0 5.7-.7 29.7 29.7 0 0 0 7.1-2.4 13.2 13.2 0 0 0-.4-3.4c-.4-.9-.9-3.1-1.3-4.2s-1.4-3.5-2.2-5.2a100.4 100.4 0 0 0-5.6-10 69.9 69.9 0 0 0-16.1-16.9 73.2 73.2 0 0 0-10.7-5.7 56.2 56.2 0 0 0-11.5-3.3h-.2a176.6 176.6 0 0 1 37-4.5h5.4v1.5a35.3 35.3 0 0 0 0 4.6l.6 5.6a68.5 68.5 0 0 0 2.4 10.9 56.7 56.7 0 0 0 10.9 19.3 48.4 48.4 0 0 0 8.3 7.4 69 69 0 0 0 9.5 5.5 72.6 72.6 0 0 0 10 3.2l5 1.1a27.3 27.3 0 0 0 7 0 8 8 0 0 0 .6-3 26.7 26.7 0 0 0 0-4 31.2 31.2 0 0 0-.4-5.2 73.4 73.4 0 0 0-2-10.4 54.9 54.9 0 0 0-9.1-19.6 44.3 44.3 0 0 0-7.4-8.2 54.2 54.2 0 0 0-9.1-6.6h-.7l7.7 1.1a279 279 0 0 1 37.3 8.3l-.6 2.2a34.5 34.5 0 0 0-1.1 5.4 69.2 69.2 0 0 0-.9 11.1 54.9 54.9 0 0 0 4.4 21.9 51.8 51.8 0 0 0 13 17.7 72.3 72.3 0 0 0 8.5 6l4.6 2.7a18.4 18.4 0 0 0 6.5 2.1 8.4 8.4 0 0 0 1.5-2.6c.2-.9 1.1-2.8 1.3-3.7a43.6 43.6 0 0 0 1.1-5.2 72.1 72.1 0 0 0 1.3-10.4 61.9 61.9 0 0 0-2.6-21.8 48.4 48.4 0 0 0-4.8-10 30.8 30.8 0 0 0-3.7-5.2l8.3 3.5c6.5 3 12.8 6.3 19.1 10l1.3.6v.5a40.4 40.4 0 0 0-2.6 4.5c-.8 1.5-1.5 3-2.2 4.6a85.1 85.1 0 0 0-3 9.8 48.4 48.4 0 0 0-.4 20.4 37.5 37.5 0 0 0 3.2 9.8 66.6 66.6 0 0 0 4.8 8.7 76.5 76.5 0 0 0 6.5 7.4l3.5 3.3a35.8 35.8 0 0 0 5.2 3.4 10 10 0 0 0 2-2.1l1.9-3.1 2.2-4.3c1.1-3.1 2.2-6.1 3.1-9.2a54.7 54.7 0 0 0 1.9-19.7 52.5 52.5 0 0 0-2.2-10.3 64.1 64.1 0 0 0-4.1-9.3l-2.6-3.7a259 259 0 0 1 27.2 22l1.1 1 1.5 2-1.1 1.1-2.2 2.8-2.6 3.9a53.3 53.3 0 0 0-4.1 8.3 42.5 42.5 0 0 0-3.5 18.2 70.3 70.3 0 0 0 1.3 9.2 46.6 46.6 0 0 0 3.3 8.5 49 49 0 0 0 4.5 7.6l2.6 3.4a27.9 27.9 0 0 0 4.4 4l1.9-1.8 2.2-2.4 2.4-3.5a74.4 74.4 0 0 0 4.4-7.8 49.7 49.7 0 0 0 4.5-17.4 39.7 39.7 0 0 0-.4-9.1 43.1 43.1 0 0 0-2.4-8.7c2.8 3.3 5.4 6.5 8 10a228.3 228.3 0 0 1 14.2 22.4l-2.6 2.2a17.7 17.7 0 0 0-3.1 3 30.6 30.6 0 0 0-5.4 6.5 41.4 41.4 0 0 0-7 16.3 63.6 63.6 0 0 0-.6 8.7 48.5 48.5 0 0 0 1.3 8.5 45 45 0 0 0 2.6 8.1l1.7 3.7a22.4 22.4 0 0 0 3.3 4.3 4.7 4.7 0 0 0 2.2-.9l2.4-1.9 3-2.6a81.4 81.4 0 0 0 5.4-6.3 45.2 45.2 0 0 0 7.6-15 38 38 0 0 0 1.6-8.7 65.6 65.6 0 0 0-.3-8.9 54.9 54.9 0 0 0-1.7-7 44.3 44.3 0 0 0 5.4 4.3 39.9 39.9 0 0 0 15.9 6.3 28.3 28.3 0 0 0 8.7.5 39.1 39.1 0 0 0 8.3-1.5 56.4 56.4 0 0 0 7.8-2.9l3.5-1.9a22.4 22.4 0 0 0 4.3-3.3 12.8 12.8 0 0 0-1.1-2.4zm-504.5 1.1a52.9 52.9 0 0 1-2.7 11.1 19.6 19.6 0 0 1-1.3 4.1 49.6 49.6 0 0 1-12.1-9.8 54.2 54.2 0 0 1-11.3-19.1 63.9 63.9 0 0 1-2.9-23c.3-4 .7-8 1.3-12 .3-.6.5-2.2.9-3.5l15.9 43.1h.6L240.2 279l2.8 2.4a54.3 54.3 0 0 1 8.3 8.3 43.3 43.3 0 0 1 6.5 9.5 52.4 52.4 0 0 1 4.4 10.7 60.3 60.3 0 0 1 1.1 22.8zm23 26.1a48.7 48.7 0 0 1 8.9-12.6 54.4 54.4 0 0 1 8.5-7.4 70.6 70.6 0 0 1 9.8-5.2 60.1 60.1 0 0 1 22.6-3.9 63.6 63.6 0 0 1 11.5.8l3.5.7-41.3 18.3h.2v.4l43-13.9-2.1 3a54.5 54.5 0 0 1-7.9 8.7 45.1 45.1 0 0 1-9.1 7.2 47.5 47.5 0 0 1-10.2 4.8 55.7 55.7 0 0 1-22.2 2.4 72.6 72.6 0 0 1-11.1-2.2l-4.1-1.3zm34.1-114.1a58.1 58.1 0 0 1-6.3 21.9 94.1 94.1 0 0 1-5.8 9.6 14.7 14.7 0 0 0-2.4 3.7 43.1 43.1 0 0 1-8.7-13.3 57.2 57.2 0 0 1-3.5-10.6 59.7 59.7 0 0 1 3.5-34.2 86.6 86.6 0 0 1 5.2-10.6 32.1 32.1 0 0 1 1.9-3.1l1.1 44h.5v2.1h.4l3.3-46.1 1.9 3.1a86.6 86.6 0 0 1 5.2 10.6 65.4 65.4 0 0 1 3.1 11.3 56.1 56.1 0 0 1 .6 11.6zm14.8 39.5a77.6 77.6 0 0 1 10.7-3.2 63.6 63.6 0 0 1 43.4 10.4l3.1 2h-45.2v.4l45 5a25.9 25.9 0 0 1-3.3 1.7 63.9 63.9 0 0 1-10.6 5 49.1 49.1 0 0 1-22.4 3.1 53.6 53.6 0 0 1-21.3-7 66.3 66.3 0 0 1-9.2-6.5 23 23 0 0 1-3.4-2.8 48.4 48.4 0 0 1 13.2-8.1zm63.3-44.1a41.6 41.6 0 0 1 10.4 2 53.7 53.7 0 0 1 19.4 10.4 65.4 65.4 0 0 1 8.2 7.6l2.4 2.6-41.9-11.1v.5l40.6 15.2-3.3 1.1a101.6 101.6 0 0 1-11 2.1 58.8 58.8 0 0 1-11.1-.2 38.1 38.1 0 0 1-10.5-2.4 49.8 49.8 0 0 1-18.2-11.5 80.8 80.8 0 0 1-7.2-8.3 26.2 26.2 0 0 1-2.4-3.4 41.4 41.4 0 0 1 14.1-4.4 61.4 61.4 0 0 1 10.5-.2zm-7.2-47.4a40.4 40.4 0 0 1-2.4 10.7 58.4 58.4 0 0 1-11.5 18.7 79.1 79.1 0 0 1-8.1 7.1l-3.4 2.6a45.6 45.6 0 0 1-4.2-14.5 66.3 66.3 0 0 1-.4-10.9 42.3 42.3 0 0 1 2-10.6 72.5 72.5 0 0 1 17.8-28.3l2.6-2.4-11.1 42.8h.7l15.4-41.5a22.1 22.1 0 0 0 .9 3.5 72.1 72.1 0 0 1 1.9 11.3 63.1 63.1 0 0 1-.2 11.5zm67.4 26.1a41.5 41.5 0 0 1 9.1 4.1 56 56 0 0 1 15 13.7 65.4 65.4 0 0 1 5.9 8.9 15.9 15.9 0 0 1 1.5 2.9L455 229h-.4l33.2 23.1h-3.2a50.5 50.5 0 0 1-10.3-.7 58.2 58.2 0 0 1-10-2.4 68.4 68.4 0 0 1-8.9-4.6 53.3 53.3 0 0 1-13.9-14.5 55 55 0 0 1-4.5-9.1 18.2 18.2 0 0 1-1.3-3.7 43 43 0 0 1 13.4-.7 74.8 74.8 0 0 1 9.6 2.4zm-13.5-23.5a53.6 53.6 0 0 1-8.5 4.6l-3.2 1.3a39.8 39.8 0 0 1-.7-13.3 47.3 47.3 0 0 1 1.8-9.1 58.6 58.6 0 0 1 3.9-8.9 54.1 54.1 0 0 1 12.8-14.6 39 39 0 0 1 8.3-5.6l2.6-1.6-18.1 34.4h.5l21.5-32.4v3.3a48.1 48.1 0 0 1-.7 10 31.6 31.6 0 0 1-2.4 9.5 30.7 30.7 0 0 1-4.3 8.7 43.1 43.1 0 0 1-13.5 13.7zm77.4 22.4a44.6 44.6 0 0 1 6.7 6.3 52.5 52.5 0 0 1 9.2 16.5 51.9 51.9 0 0 1 2.4 9.4 28 28 0 0 1 .6 2.8l-25.2-27.4h-.4l22.4 30-2.9-.9a75.3 75.3 0 0 1-8.9-3.6 51 51 0 0 1-7.8-5.3 41.2 41.2 0 0 1-6.5-6.7 47.5 47.5 0 0 1-7.9-16.7 73.3 73.3 0 0 1-1.3-9.4c-.1-1.2-.2-2.5-.2-3.7a36.4 36.4 0 0 1 12 3.7 35.7 35.7 0 0 1 7.8 5zm-6.9-26.9a68.5 68.5 0 0 1-9 1.9h-3.4a42.5 42.5 0 0 1 2.8-12.2 65.5 65.5 0 0 1 3.9-8 56.1 56.1 0 0 1 5.9-7 46.5 46.5 0 0 1 15.4-10 44.8 44.8 0 0 1 8.7-3l2.8-.4-25 26.5h.2l27.9-23.9c-.2 1-.4 2-.7 3a66.5 66.5 0 0 1-3 8.9 41.2 41.2 0 0 1-4.8 8.1 30.8 30.8 0 0 1-6.1 6.9 45.7 45.7 0 0 1-15.6 9.2zm57.3 12.8a40.9 40.9 0 0 1 7.2-10.2 54.3 54.3 0 0 1 6.8-5.9 32.3 32.3 0 0 1 7.8-4.1 44.4 44.4 0 0 1 18-3.5 73 73 0 0 1 9.4.6l2.8.5-33 15h.2l34.3-11.3-1.7 2.4a69.1 69.1 0 0 1-6.1 7.1 40.6 40.6 0 0 1-7.4 5.7 30.1 30.1 0 0 1-8.3 3.9 41.4 41.4 0 0 1-17.8 2 66.4 66.4 0 0 1-8.7-1.6l-3.5-1.1zm19.8 38.5a50.3 50.3 0 0 1 3.7 18.4 63.8 63.8 0 0 1-.4 9.8c-.2.7-.2 1.8-.4 3.1L580 239.2h-.4l12.1 35.7-2.6-1.8a38.6 38.6 0 0 1-7.1-6.3 34.9 34.9 0 0 1-5.9-7.4 28.5 28.5 0 0 1-4.1-8.4 46.4 46.4 0 0 1-.9-27.6 22.2 22.2 0 0 1 .9-3.7 40.4 40.4 0 0 1 16.3 14.1 44.4 44.4 0 0 1 4.5 8.3zm46.3 30.8a50.8 50.8 0 0 1-.4 17.4 41.3 41.3 0 0 1-2.4 8.5 6.2 6.2 0 0 1-.9 2.6l-7.1-33.5h-.5l3.7 34.2-1.7-2a30.7 30.7 0 0 1-5.2-7.2 37.9 37.9 0 0 1-3.9-7.8 47.8 47.8 0 0 1-2-8.3 43.9 43.9 0 0 1 1.5-16.9 57.3 57.3 0 0 1 3.3-8.1 15.1 15.1 0 0 1 1.5-2.8 37.1 37.1 0 0 1 7.8 8.5 40.2 40.2 0 0 1 3.9 7.4 29.4 29.4 0 0 1 2.4 8zm-2.6-36.9l-3-1.6a37.6 37.6 0 0 1 8.5-8.4 43.5 43.5 0 0 1 7.4-4.6 34 34 0 0 1 8.2-2.6 43.5 43.5 0 0 1 17.6-.2 37 37 0 0 1 8.7 2.2l2.6.8-33.9 8.7h.2l34.6-5-2 2a48.7 48.7 0 0 1-7.1 5.8 33.3 33.3 0 0 1-7.9 4.2 30 30 0 0 1-8.4 2.4 43.3 43.3 0 0 1-17.2-1.1 40 40 0 0 1-8.3-2.6zm39.4 87.1a45 45 0 0 1-3.3 7.4l-1.3 2.2-1.3-30.6h-.4l-1.8 30.6a8 8 0 0 1-1.3-2.2 32 32 0 0 1-3.7-7.1 29.7 29.7 0 0 1-2.1-7.6 40.1 40.1 0 0 1-.7-7.7 41.1 41.1 0 0 1 3.9-15c1.3-2.2 2.6-4.4 4.1-6.5a3.6 3.6 0 0 0 .9-2.4h2.2c1.5 3.5 2.2 4.4 4.3 8.7a36.4 36.4 0 0 1 2.6 7.2 65.6 65.6 0 0 1 .9 7.6 42.6 42.6 0 0 1-3 15.4zm4.5-47.3l-2.6-2a30.7 30.7 0 0 1 8.9-6.3 31.6 31.6 0 0 1 7.2-2.8 30 30 0 0 1 7.8-1.1 37.2 37.2 0 0 1 15.9 2.6 50.9 50.9 0 0 1 7.6 3.2l2.2 1.4-31.7 2.3 31.9 1.1-2.2 1.3a50.9 50.9 0 0 1-7.1 4.2 73 73 0 0 1-7.9 2.6 33.8 33.8 0 0 1-7.8.6 33.3 33.3 0 0 1-15.4-3.7 43.2 43.2 0 0 1-6.8-3.4zm29.4 79.7a38.9 38.9 0 0 1-5.9 13.5 34.3 34.3 0 0 1-4.5 6.1l-1.6 1.7 5-28.9h-.4l-7.8 28.5-.9-2.2a57.4 57.4 0 0 1-2-7.4c-.2-2.6-.4-5-.4-7.6a42 42 0 0 1 1.1-7.1 37.4 37.4 0 0 1 6.5-13.1l5-5.2a18.4 18.4 0 0 0 2.2-1.7 27.5 27.5 0 0 1 3.5 9.3 23.5 23.5 0 0 1 .8 7 41.7 41.7 0 0 1-.6 7.1zm51.5-21.3l-2.2 1.1a44.1 44.1 0 0 1-7.1 2 32.8 32.8 0 0 1-14.4 0 34.1 34.1 0 0 1-12.8-6.3 63.9 63.9 0 0 1-5.4-5 12.4 12.4 0 0 1-1.8-2.2 30.5 30.5 0 0 1 9.1-3.9 39.6 39.6 0 0 1 6.8-.9 25 25 0 0 1 7.2.5 36.4 36.4 0 0 1 13.4 5.4 33.7 33.7 0 0 1 6.1 4.6l1.8 1.5-28.5-4.4v.5h-.2z"/></svg>