<svg id="Layer_1" data-name="Layer 1" xmlns="http://www.w3.org/2000/svg" width="1000" height="1000" viewBox="0 0 1000 1000"><title>lettslaw-1</title><path d="M433.7,522.8c2,12.5,12.3,21,26.3,21a55.1,55.1,0,0,0,30.1-9.4v19.1a65.4,65.4,0,0,1-31.5,7.9c-25.4,0-44.3-18.6-44.3-45s18.4-44.8,43.2-44.8,41,18.7,41,41.4a39.8,39.8,0,0,1-1.2,9.8Zm-.1-14.8h46.3c-.3-12.1-9.9-20.3-22.5-20.3S434.8,496.8,433.6,508Z" fill="#20406c"/><path d="M516.7,559.4V489.8H502.2V473.3h15.5V453.2L536,449v24.3h15.5v16.5H536v69.6Z" fill="#20406c"/><path d="M571.8,559.4V489.8H557.3V473.3h15.6V453.2l18.2-4.2v24.3h15.6v16.5H591.1v69.6Z" fill="#20406c"/><path d="M663.2,494.5a36.7,36.7,0,0,0-19.4-6.1c-7.4,0-11.2,3.6-11.2,8.4s2.2,5.6,6.5,8.2l13.8,8.2c10.7,6.5,14.3,14.4,14.3,22.8,0,14.8-11.3,25.4-30.8,25.4a57.8,57.8,0,0,1-22.4-4.9V536.7c4.4,3.8,13.5,8,21.4,8s11.9-3.8,11.9-8.9c0-3.5-1.9-6.3-7.4-9.5l-14.7-8.7c-8.9-5.3-12.4-13-12.4-21.4,0-14.3,10.8-24.6,30.5-24.6a60.4,60.4,0,0,1,19.9,3.5Z" fill="#20406c"/><path d="M764.7,477a60.1,60.1,0,0,1,24.7-5.4c21.4,0,35.2,10.3,35.2,34.6v53.2H805.3v-7.9c-4.3,5.8-11.9,9.9-21,9.9-18.9,0-29.2-13.4-29.2-28.4s12.1-28.2,29.6-28.2c8.4,0,16.3,3.7,20.6,8.2v-7.1c0-12.3-8.4-17.2-18-17.2a43.3,43.3,0,0,0-22.6,6.8Zm24.9,69.8c8.6,0,15.6-6.1,15.6-13.8s-7-14-15.6-14-15.4,6.3-15.4,14S781.2,546.8,789.6,546.8Z" fill="#20406c"/><path d="M849.8,473.3l17.5,62.5,17.9-51.3L881,473.3h19.2l23.6,62.5,17.4-62.5h20.1L935,559.4H914.9l-20.3-52.7-18.5,52.7H855.8l-26.1-86.1Z" fill="#20406c"/><polygon points="397.5 438.6 397.5 559.4 378.2 559.4 378.2 443 397.5 438.6" fill="#20406c"/><polygon points="743 438.6 743 559.4 723.8 559.4 723.8 443 743 438.6" fill="#20406c"/><polygon points="244.4 644.2 142.7 644.2 142.7 379.7 38.7 379.7 38.7 691.7 180.4 691.7 244.4 644.2" fill="#20406c"/><polygon points="70.7 355.8 172.4 355.8 172.4 620.3 276.4 620.3 276.4 308.3 134.7 308.3 70.7 355.8" fill="#20406c"/></svg>