<svg height="1000" viewBox="0 0 1000 1000" width="1000" xmlns="http://www.w3.org/2000/svg"><g fill="#20406c"><path d="m433.7 522.8c2 12.5 12.3 21 26.3 21a55.1 55.1 0 0 0 30.1-9.4v19.1a65.4 65.4 0 0 1 -31.5 7.9c-25.4 0-44.3-18.6-44.3-45s18.4-44.8 43.2-44.8 41 18.7 41 41.4a39.8 39.8 0 0 1 -1.2 9.8zm-.1-14.8h46.3c-.3-12.1-9.9-20.3-22.5-20.3s-22.6 9.1-23.8 20.3z"/><path d="m516.7 559.4v-69.6h-14.5v-16.5h15.5v-20.1l18.3-4.2v24.3h15.5v16.5h-15.5v69.6z"/><path d="m571.8 559.4v-69.6h-14.5v-16.5h15.6v-20.1l18.2-4.2v24.3h15.6v16.5h-15.6v69.6z"/><path d="m663.2 494.5a36.7 36.7 0 0 0 -19.4-6.1c-7.4 0-11.2 3.6-11.2 8.4s2.2 5.6 6.5 8.2l13.8 8.2c10.7 6.5 14.3 14.4 14.3 22.8 0 14.8-11.3 25.4-30.8 25.4a57.8 57.8 0 0 1 -22.4-4.9v-19.8c4.4 3.8 13.5 8 21.4 8s11.9-3.8 11.9-8.9c0-3.5-1.9-6.3-7.4-9.5l-14.7-8.7c-8.9-5.3-12.4-13-12.4-21.4 0-14.3 10.8-24.6 30.5-24.6a60.4 60.4 0 0 1 19.9 3.5z"/><path d="m764.7 477a60.1 60.1 0 0 1 24.7-5.4c21.4 0 35.2 10.3 35.2 34.6v53.2h-19.3v-7.9c-4.3 5.8-11.9 9.9-21 9.9-18.9 0-29.2-13.4-29.2-28.4s12.1-28.2 29.6-28.2c8.4 0 16.3 3.7 20.6 8.2v-7.1c0-12.3-8.4-17.2-18-17.2a43.3 43.3 0 0 0 -22.6 6.8zm24.9 69.8c8.6 0 15.6-6.1 15.6-13.8s-7-14-15.6-14-15.4 6.3-15.4 14 7 13.8 15.4 13.8z"/><path d="m849.8 473.3 17.5 62.5 17.9-51.3-4.2-11.2h19.2l23.6 62.5 17.4-62.5h20.1l-26.3 86.1h-20.1l-20.3-52.7-18.5 52.7h-20.3l-26.1-86.1z"/><path d="m397.5 438.6v120.8h-19.3v-116.4z"/><path d="m743 438.6v120.8h-19.2v-116.4z"/><path d="m244.4 644.2h-101.7v-264.5h-104v312h141.7z"/><path d="m70.7 355.8h101.7v264.5h104v-312h-141.7z"/></g></svg>