<svg height="300" viewBox="0 0 300 300" width="300" xmlns="http://www.w3.org/2000/svg"><g fill="#91b050"><path d="m149.7 157.4h-6.5v-5.3h19.1v5.3h-6.5v18.1h-6.1z"/><path d="m174.3 167.6h-3.1v7.9h-6v-23.4h11.7c5.1 0 8.1 3.5 8.1 7.8s-2.5 6.2-4.7 7l4.8 8.6h-6.9zm1.7-10.4h-4.8v5.3h4.8a2.7 2.7 0 1 0 0-5.3z"/><path d="m187.6 152.1h6.1v23.4h-6.1z"/><path d="m217.7 159.7-6 15.8h-2.6l-5.9-15.8v15.8h-6v-23.4h8.3l4.9 13.3 4.9-13.3h8.4v23.4h-6z"/><path d="m233.2 161.4v14.1h-6v-23.4h6.2l9.5 13.5v-13.5h6v23.4h-5.8z"/><path d="m268.1 172h-9.7l-1.2 3.5h-6.5l8.7-23.4h7.6l8.8 23.4h-6.5zm-8.1-5.1h6.5l-3.3-9.5z"/><path d="m277.6 152.1h6v18.1h9.4v5.3h-15.4z"/><path d="m146.7 119.8h-9.6v-7.6h28v7.6h-9.6v26.6h-8.8z"/><path d="m179.7 132.6-13-20.4h9.9l7.5 12.6 7.3-12.6h10l-12.9 20.4v13.8h-8.8z"/><path d="m203.9 112.2h8.8v26.5h13.8v7.7h-22.6z"/><path d="m230 112.2h25.2v7.4h-16.3v5.7h15.9v7.5h-15.9v6.2h16.3v7.4h-25.2z"/><path d="m272.6 134.8h-4.5v11.6h-8.8v-34.2h17.1c7.6 0 11.9 5 11.9 11.4s-3.6 9.1-6.8 10.2l6.9 12.6h-10.1zm2.5-15.2h-7v7.7h7a3.9 3.9 0 1 0 0-7.7z"/><path d="m72 70.2-65 79.7 64.9 79.9 61.1-79.9zm-.3 147.4-55-67.7 55.1-67.6 51.9 67.6z"/><path d="m93.6 127.5-2.9 2.8-14.5-16.4-12.9 13-10.1-6.2-23.1 28.8 4 5.1h73.7l4-5.1z"/><path d="m100.3 164.4h-58.7l-4-5.1h66.7z"/><path d="m92.6 174.5h-43.3l-3.9-5.1h51.1z"/><path d="m84.8 184.6h-27.7l-3.9-5.1h35.6z"/></g></svg>