<svg id="artwork" xmlns="http://www.w3.org/2000/svg" width="15in" height="15in" viewBox="0 0 1080 1080"><title>alternite-logo-blue</title><path d="M122.4,957.8c3.5,21.9,21.7,37.1,46.5,37.1,20.1,0,39.9-7.4,53.3-16.7v33.7c-13.1,7.5-32.9,14-55.8,14-44.9,0-78.3-32.8-78.3-79.6,0-44.9,32.5-79.3,76.5-79.3S237,900.2,237,940.4a69.4,69.4,0,0,1-2.2,17.4Zm-.3-26.4h82.1c-.6-21.3-17.7-35.9-40-35.9S124.3,911.6,122.1,931.4Z" fill="#1f406c"/><path d="M269.2,1022.5V899.2H243.5V870.1h27.6V834.5l32.2-7.4v43h27.5v29.1H303.3v123.3Z" fill="#1f406c"/><path d="M366.8,1022.5V899.2H341.1V870.1h27.5V834.5l32.2-7.4v43h27.6v29.1H400.8v123.3Z" fill="#1f406c"/><path d="M528.4,907.6c-9.9-6.5-22.6-10.8-34.4-10.8s-19.8,6.5-19.8,14.8c0,6.5,4,9.9,11.5,14.6l24.4,14.5c18.9,11.5,25.4,25.4,25.4,40.3,0,26.3-20.1,44.9-54.5,44.9a101.8,101.8,0,0,1-39.6-8.7v-35c7.7,6.8,23.8,14.3,37.8,14.3s21-6.9,21-15.8c0-6.2-3.4-11.2-13-16.8l-26-15.4c-15.8-9.3-22-23-22-37.8,0-25.4,19.2-43.7,53.9-43.7a110.7,110.7,0,0,1,35.3,6.2Z" fill="#1f406c"/><path d="M708,876.6a107.5,107.5,0,0,1,43.6-9.6c37.8,0,62.3,18.3,62.3,61.3v94.2H779.8v-14c-7.7,10.3-21,17.4-37.1,17.4-33.5,0-51.7-23.6-51.7-50.2s21.3-49.8,52.3-49.8c14.8,0,28.8,6.5,36.5,14.5V927.7c0-21.7-14.8-30.3-31.9-30.3-13.9,0-28.1,4.6-39.9,12Zm44,123.6c15.1,0,27.5-10.9,27.5-24.5s-12.4-24.8-27.5-24.8-27.3,11.2-27.3,24.8S737.1,1000.2,752,1000.2Z" fill="#1f406c"/><path d="M858.5,870.1l30.9,110.6L921,889.9l-7.4-19.8h34l41.9,110.6,30.6-110.6h35.6l-46.4,152.4H973.7l-36-93.2-32.8,93.2H869L822.9,870.1Z" fill="#1f406c"/><polygon points="58.3 808.8 58.3 1022.5 24.3 1022.5 24.3 816.6 58.3 808.8" fill="#1f406c"/><polygon points="669.6 808.8 669.6 1022.5 635.5 1022.5 635.5 816.6 669.6 808.8" fill="#1f406c"/><polygon points="693.6 648.3 513.8 648.3 513.8 180.4 329.8 180.4 329.8 732.3 580.5 732.3 693.6 648.3" fill="#1f406c"/><polygon points="386.4 138.1 566.2 138.1 566.2 606.1 750.2 606.1 750.2 54.1 499.5 54.1 386.4 138.1" fill="#1f406c"/></svg>