<svg id="artwork" xmlns="http://www.w3.org/2000/svg" width="23.9in" height="10.9in" viewBox="0 0 1724.2 788"><title>lettslaw-logo-blue</title><path d="M744.9,434.4c3.4,22,21.7,37.2,46.4,37.2,20.2,0,40-7.5,53.3-16.8v33.8c-13,7.4-32.8,13.9-55.7,13.9-44.9,0-78.4-32.8-78.4-79.6,0-44.8,32.5-79.2,76.5-79.2s72.5,33.1,72.5,73.4a73.5,73.5,0,0,1-2.2,17.3Zm-.3-26.3h82c-.6-21.4-17.6-35.9-39.9-35.9S746.8,388.3,744.6,408.1Z" fill="#1f406c"/><path d="M891.7,499.1V375.9H866V346.8h27.5V311.2l32.2-7.5v43.1h27.6v29.1H925.7V499.1Z" fill="#1f406c"/><path d="M989.2,499.1V375.9H963.5V346.8h27.6V311.2l32.2-7.5v43.1h27.5v29.1h-27.5V499.1Z" fill="#1f406c"/><path d="M1150.8,384.2c-9.9-6.5-22.6-10.8-34.3-10.8s-19.9,6.5-19.9,14.9c0,6.5,4.1,9.9,11.5,14.5l24.5,14.6c18.9,11.4,25.4,25.4,25.4,40.2,0,26.3-20.2,44.9-54.5,44.9a102,102,0,0,1-39.7-8.6v-35c7.8,6.8,23.9,14.2,37.8,14.2s21.1-6.8,21.1-15.8c0-6.2-3.4-11.1-13-16.7l-26.1-15.5c-15.8-9.3-21.9-22.9-21.9-37.8,0-25.4,19.2-43.6,53.8-43.6a110.7,110.7,0,0,1,35.3,6.2Z" fill="#1f406c"/><path d="M1330.4,353.3a106.8,106.8,0,0,1,43.7-9.6c37.8,0,62.2,18.2,62.2,61.3v94.1h-34V485.2c-7.8,10.2-21.1,17.3-37.2,17.3-33.4,0-51.7-23.5-51.7-50.1s21.4-49.9,52.3-49.9c14.9,0,28.8,6.5,36.6,14.6V404.4c0-21.7-14.9-30.4-31.9-30.4-14,0-28.2,4.7-40,12.1Zm44,123.5c15.2,0,27.6-10.8,27.6-24.4s-12.4-24.8-27.6-24.8-27.2,11.1-27.2,24.8S1359.5,476.8,1374.4,476.8Z" fill="#1f406c"/><path d="M1480.9,346.8l31,110.5,31.6-90.7-7.5-19.8h34.1l41.8,110.5,30.7-110.5h35.6l-46.5,152.3h-35.6l-35.9-93.2-32.8,93.2h-36l-46.1-152.3Z" fill="#1f406c"/><polygon points="680.8 285.5 680.8 499.1 646.7 499.1 646.7 293.2 680.8 285.5" fill="#1f406c"/><polygon points="1292 285.5 1292 499.1 1258 499.1 1258 293.2 1292 285.5" fill="#1f406c"/><polygon points="410 649.1 230.1 649.1 230.1 181.1 46.1 181.1 46.1 733.1 296.8 733.1 410 649.1" fill="#1f406c"/><polygon points="102.7 138.9 282.5 138.9 282.5 606.8 466.6 606.8 466.6 54.9 215.8 54.9 102.7 138.9" fill="#1f406c"/></svg>