<?xml version="1.0" encoding="utf-8"?>
<!-- Generator: Adobe Illustrator 24.1.1, SVG Export Plug-In . SVG Version: 6.00 Build 0)  -->
<svg version="1.1" id="Layer_1" xmlns="http://www.w3.org/2000/svg" xmlns:xlink="http://www.w3.org/1999/xlink" x="0px" y="0px"
	 viewBox="0 0 815 438" style="enable-background:new 0 0 815 438;" xml:space="preserve">
<style type="text/css">
	.st0{clip-path:url(#SVGID_2_);fill:#75BF1E;}
</style>
<path d="M26.5,25.5L328.3,26l130.9,147.3L785.9,25.5l0.5,384.5h-65.5l-0.2-275.2L435.3,265.1L287.4,99.6h-180v81.8h130.9v65.5H107.4
	v163.6H25.6L26.5,25.5z"/>
<g id="black-fm-logo_1_">
	<g>
		<g>
			<defs>
				<rect id="SVGID_1_" x="943" y="53" width="83.3" height="42.9"/>
			</defs>
			<clipPath id="SVGID_2_">
				<use xlink:href="#SVGID_1_"  style="overflow:visible;"/>
			</clipPath>
			<polygon class="st0" points="946.2,54.6 976.8,54.7 990,69.9 1023.1,54.6 1023.1,94.3 1016.5,94.3 1016.5,65.9 987.6,79.3 
				972.6,62.3 954.4,62.3 954.4,70.7 967.7,70.7 967.7,77.5 954.4,77.5 954.4,94.3 946.1,94.3 			"/>
		</g>
	</g>
</g>
</svg>
