<svg xmlns="http://www.w3.org/2000/svg" id="Behance" viewBox="0 0 128 128" width="128" height="128"><style>.st0{fill:#fff}</style><path d="M48.6 66.5H37.1v12.1h11.3c3.9 0 7-1.2 7-5.8-.1-4.5-2.6-6.3-6.8-6.3zm35.3-6.9c-5.6 0-7.2 3.1-7.3 5.6H91c-.8-4.5-2.8-5.6-7.1-5.6zM53.8 54c0-4.3-3.2-5.1-6.7-5.1h-10v10.3h10.7c3.4 0 6-1.5 6-5.2z" class="st0"/><path d="M64 0C28.7 0 0 28.7 0 64s28.7 64 64 64 64-28.7 64-64S99.3 0 64 0zm11.9 44.4h17.8v5.9H75.9v-5.9zM49.7 85.7H28.2V41.4h20.9c8.5 0 14.2 3 14.2 11.2 0 4.3-2.2 7.3-6 9.2 5.4 1.5 8.1 5.7 8.1 11.1 0 8.9-7.7 12.8-15.7 12.8zm50.2-14.8H76.6c.2 5.5 3 9.1 7.9 9.1 3.6 0 6.8-2.9 7.4-4.9h7.8c-2.5 7.5-8.2 11.5-15.4 11.5-10.1 0-16.5-6.9-16.5-16.8 0-9.5 6.8-16.8 16.5-16.8 11 0 16.3 8.1 15.6 17.9z" class="st0"/></svg>