<svg xmlns="http://www.w3.org/2000/svg" id="Instagram" viewBox="0 0 128 128" width="128" height="128"><style>.st0{fill:#2f83b2}.st1{fill:#fff}</style><path d="M-421.9-89.8h327v280h-327z" class="st0"/><path d="M85.4 58.5c.5 1.8.7 3.6.7 5.5 0 12.2-9.9 22.1-22.1 22.1S41.9 76.2 41.9 64c0-1.9.3-3.8.7-5.5h-6.2v30.3c0 1.5 1.2 2.8 2.8 2.8h49.6c1.5 0 2.8-1.2 2.8-2.8V58.5h-6.2z" class="st1"/><circle cx="64" cy="64" r="13.8" class="st1"/><path d="M80.5 50.3h8.3c1.5 0 2.8-1.2 2.8-2.8v-8.3c0-1.5-1.2-2.8-2.8-2.8h-8.3c-1.5 0-2.8 1.2-2.8 2.8v8.3c0 1.5 1.2 2.8 2.8 2.8z" class="st1"/><path d="M64 0C28.7 0 0 28.7 0 64s28.7 64 64 64 64-28.7 64-64S99.3 0 64 0zm35.8 91.5c0 4.6-3.7 8.3-8.2 8.3H36.4c-4.6 0-8.3-3.7-8.3-8.3V36.4c0-4.6 3.7-8.3 8.3-8.3h55.1c4.6 0 8.3 3.7 8.3 8.3v55.1z" class="st1"/></svg>