<svg xmlns="http://www.w3.org/2000/svg" id="Facebook" viewBox="0 0 128 128" width="128" height="128"><style>.st0{fill:#65737e}.st1{fill:#fff}</style><circle id="facebook-back" cx="64" cy="64" r="64" class="st0"/><path id="facebook-facebook" d="M95.1 29H32.9c-2.1 0-3.9 1.7-3.9 3.9v62.3c0 2.1 1.7 3.9 3.9 3.9h33.5V71.9h-9.1V61.3h9.1v-7.8c0-9 5.5-14 13.6-14 3.9 0 7.2.3 8.2.4v9.4h-5.6c-4.4 0-5.2 2.1-5.2 5.1v6.7h10.5l-1.4 10.6h-9.1V99h17.8c2.1 0 3.9-1.7 3.9-3.9V32.9c-.1-2.2-1.8-3.9-4-3.9z" class="st1"/></svg>