<svg height="128" viewBox="0 0 128 128" width="128" xmlns="http://www.w3.org/2000/svg"><path d="m-421.9-89.8h327v280h-327z" fill="#2f83b2"/><g fill="#fff"><path d="m85.4 58.5c.5 1.8.7 3.6.7 5.5 0 12.2-9.9 22.1-22.1 22.1s-22.1-9.9-22.1-22.1c0-1.9.3-3.8.7-5.5h-6.2v30.3c0 1.5 1.2 2.8 2.8 2.8h49.6c1.5 0 2.8-1.2 2.8-2.8v-30.3z"/><circle cx="64" cy="64" r="13.8"/><path d="m80.5 50.3h8.3c1.5 0 2.8-1.2 2.8-2.8v-8.3c0-1.5-1.2-2.8-2.8-2.8h-8.3c-1.5 0-2.8 1.2-2.8 2.8v8.3c0 1.5 1.2 2.8 2.8 2.8z"/><path d="m64 0c-35.3 0-64 28.7-64 64s28.7 64 64 64 64-28.7 64-64-28.7-64-64-64zm35.8 91.5c0 4.6-3.7 8.3-8.2 8.3h-55.2c-4.6 0-8.3-3.7-8.3-8.3v-55.1c0-4.6 3.7-8.3 8.3-8.3h55.1c4.6 0 8.3 3.7 8.3 8.3z"/></g></svg>