<svg enable-background="new 0 0 128 128" viewBox="0 0 128 128" xmlns="http://www.w3.org/2000/svg"><circle cx="64" cy="64" fill="#f8f3ec" r="64"/><path d="m64 33.7c9.9 0 11.1 0 15 .2 3.6.2 5.6.8 6.9 1.3 1.7.7 3 1.5 4.3 2.8s2.1 2.5 2.8 4.3c.5 1.3 1.1 3.3 1.3 6.9.2 3.9.2 5.1.2 15s0 11.1-.2 15c-.2 3.6-.8 5.6-1.3 6.9-.7 1.7-1.5 3-2.8 4.3s-2.5 2.1-4.3 2.8c-1.3.5-3.3 1.1-6.9 1.3-3.9.2-5.1.2-15 .2s-11.1 0-15-.2c-3.6-.2-5.6-.8-6.9-1.3-1.7-.7-3-1.5-4.3-2.8s-2.1-2.5-2.8-4.3c-.5-1.3-1.1-3.3-1.3-6.9-.2-3.9-.2-5.1-.2-15s0-11.1.2-15c.2-3.6.8-5.6 1.3-6.9.7-1.7 1.5-3 2.8-4.3s2.5-2.1 4.3-2.8c1.3-.5 3.3-1.1 6.9-1.3 3.9-.2 5.1-.2 15-.2m0-6.7c-10.1 0-11.3 0-15.3.2-3.9.2-6.6.8-9 1.7s-4.5 2.2-6.6 4.3-3.3 4.1-4.3 6.6c-.9 2.4-1.5 5-1.7 9-.1 3.9-.1 5.1-.1 15.2s0 11.3.2 15.3c.2 3.9.8 6.6 1.7 9s2.2 4.5 4.3 6.6 4.1 3.3 6.6 4.3c2.4.9 5 1.5 9 1.7 3.9.2 5.2.2 15.3.2s11.3 0 15.3-.2c3.9-.2 6.6-.8 9-1.7s4.5-2.2 6.6-4.3 3.3-4.1 4.3-6.6c.9-2.4 1.5-5 1.7-9 .2-3.9.2-5.2.2-15.3s0-11.3-.2-15.3c-.2-3.9-.8-6.6-1.7-9s-2.2-4.5-4.3-6.6-4.1-3.3-6.6-4.3c-2.4-.9-5-1.5-9-1.7-4.1-.1-5.3-.1-15.4-.1z"/><path d="m64 45c-10.5 0-19 8.5-19 19s8.5 19 19 19 19-8.5 19-19-8.5-19-19-19zm0 31.3c-6.8 0-12.3-5.5-12.3-12.3s5.5-12.3 12.3-12.3 12.3 5.5 12.3 12.3-5.5 12.3-12.3 12.3z"/><circle cx="83.8" cy="44.2" r="4.4"/></svg>