<svg height="128" viewBox="0 0 128 128" width="128" xmlns="http://www.w3.org/2000/svg"><circle cx="64" cy="64" fill="#65737e" r="64"/><path clip-rule="evenodd" d="m91.6 58.5h-6.2c.5 1.8.7 3.6.7 5.5 0 12.2-9.9 22.1-22.1 22.1s-22.1-9.9-22.1-22.1c0-1.9.3-3.8.7-5.5h-6.2v30.3c0 1.5 1.2 2.8 2.8 2.8h49.6c1.5 0 2.8-1.2 2.8-2.8zm0-19.3c0-1.5-1.2-2.8-2.8-2.8h-8.3c-1.5 0-2.8 1.2-2.8 2.8v8.3c0 1.5 1.2 2.8 2.8 2.8h8.3c1.5 0 2.8-1.2 2.8-2.8zm-27.6 11c-7.6 0-13.8 6.2-13.8 13.8s6.2 13.8 13.8 13.8 13.8-6.2 13.8-13.8-6.2-13.8-13.8-13.8m27.6 49.6h-55.2c-4.6 0-8.3-3.7-8.3-8.3v-55.1c0-4.6 3.7-8.3 8.3-8.3h55.1c4.6 0 8.3 3.7 8.3 8.3v55.1c0 4.6-3.7 8.3-8.2 8.3" fill="#fff" fill-rule="evenodd"/></svg>