<?xml version="1.0" encoding="utf-8"?>
<!-- Generator: Adobe Illustrator 23.0.2, SVG Export Plug-In . SVG Version: 6.00 Build 0)  -->
<svg version="1.1" id="Layer_1" xmlns="http://www.w3.org/2000/svg" xmlns:xlink="http://www.w3.org/1999/xlink" x="0px" y="0px"
	 viewBox="0 0 128 128" style="enable-background:new 0 0 128 128;" xml:space="preserve">
<style type="text/css">
	.st0{fill:#65737E;}
	.st1{fill:#FFFFFF;}
</style>
<circle class="st0" cx="64" cy="64" r="64"/>
<g>
	<path class="st1" d="M64,33.7c9.9,0,11.1,0,15,0.2c3.6,0.2,5.6,0.8,6.9,1.3c1.7,0.7,3,1.5,4.3,2.8c1.3,1.3,2.1,2.5,2.8,4.3
		c0.5,1.3,1.1,3.3,1.3,6.9c0.2,3.9,0.2,5.1,0.2,15s0,11.1-0.2,15c-0.2,3.6-0.8,5.6-1.3,6.9c-0.7,1.7-1.5,3-2.8,4.3
		c-1.3,1.3-2.5,2.1-4.3,2.8c-1.3,0.5-3.3,1.1-6.9,1.3c-3.9,0.2-5.1,0.2-15,0.2s-11.1,0-15-0.2c-3.6-0.2-5.6-0.8-6.9-1.3
		c-1.7-0.7-3-1.5-4.3-2.8c-1.3-1.3-2.1-2.5-2.8-4.3c-0.5-1.3-1.1-3.3-1.3-6.9c-0.2-3.9-0.2-5.1-0.2-15s0-11.1,0.2-15
		c0.2-3.6,0.8-5.6,1.3-6.9c0.7-1.7,1.5-3,2.8-4.3c1.3-1.3,2.5-2.1,4.3-2.8c1.3-0.5,3.3-1.1,6.9-1.3C52.9,33.7,54.1,33.7,64,33.7
		 M64,27c-10.1,0-11.3,0-15.3,0.2c-3.9,0.2-6.6,0.8-9,1.7c-2.4,0.9-4.5,2.2-6.6,4.3c-2.1,2.1-3.3,4.1-4.3,6.6c-0.9,2.4-1.5,5-1.7,9
		C27,52.7,27,53.9,27,64c0,10.1,0,11.3,0.2,15.3c0.2,3.9,0.8,6.6,1.7,9c0.9,2.4,2.2,4.5,4.3,6.6c2.1,2.1,4.1,3.3,6.6,4.3
		c2.4,0.9,5,1.5,9,1.7c3.9,0.2,5.2,0.2,15.3,0.2s11.3,0,15.3-0.2c3.9-0.2,6.6-0.8,9-1.7c2.4-0.9,4.5-2.2,6.6-4.3
		c2.1-2.1,3.3-4.1,4.3-6.6c0.9-2.4,1.5-5,1.7-9c0.2-3.9,0.2-5.2,0.2-15.3s0-11.3-0.2-15.3c-0.2-3.9-0.8-6.6-1.7-9
		c-0.9-2.4-2.2-4.5-4.3-6.6c-2.1-2.1-4.1-3.3-6.6-4.3c-2.4-0.9-5-1.5-9-1.7C75.3,27,74.1,27,64,27L64,27z"/>
	<path class="st1" d="M64,45c-10.5,0-19,8.5-19,19s8.5,19,19,19s19-8.5,19-19S74.5,45,64,45z M64,76.3c-6.8,0-12.3-5.5-12.3-12.3
		c0-6.8,5.5-12.3,12.3-12.3c6.8,0,12.3,5.5,12.3,12.3C76.3,70.8,70.8,76.3,64,76.3z"/>
	<circle class="st1" cx="83.8" cy="44.2" r="4.4"/>
</g>
</svg>
