<?xml version="1.0" encoding="utf-8"?>
<!-- Generator: Adobe Illustrator 24.1.3, SVG Export Plug-In . SVG Version: 6.00 Build 0)  -->
<svg version="1.1" id="Capa_1" xmlns="http://www.w3.org/2000/svg" xmlns:xlink="http://www.w3.org/1999/xlink" x="0px" y="0px"
	 viewBox="0 0 512 512" style="enable-background:new 0 0 512 512;" xml:space="preserve">
<g>
	<path d="M252.1,246.1c36.2,2.3,66.1-27.6,63.8-63.8c-1.9-29.9-26.1-54-56-55.9c-36.2-2.3-66.1,27.6-63.8,63.8
		C198,220,222.2,244.2,252.1,246.1z M253.6,156.3c18.5-1.5,33.8,13.9,32.4,32.4c-1.2,14.5-12.9,26.3-27.5,27.5
		c-18.5,1.5-33.8-13.9-32.3-32.3C227.3,169.2,239,157.5,253.6,156.3z"/>
	<path d="M426.7,345h-58.3c-7.9,0-11.9-9.6-6.3-15.2c40.3-39.9,73.8-82,73.8-149.8C436,77.1,358.7,0,256,0C153.1,0,76,77.3,76,180
		c0,68.5,34.3,110.8,75.1,151.1c5.2,5.1,1.6,13.9-5.7,13.9h-56c-9.1,0-17.2,5.9-20,14.5L26.3,483.7c-3.5,10.5,4.4,21.3,15.4,21.3
		h430.7c10.5,0,18-10.3,14.7-20.3l-44.4-128.2C440.4,349.7,434,345,426.7,345z M102,180c0-83.7,62.5-149.3,144.5-153.7
		c94.7-5.1,171.1,73.3,162.9,167.8c-7,80.5-78.1,121.5-139.4,189.9c-7.5,8.4-20.5,8.4-28,0.1c-16.2-18.1-36-36.1-52.5-51.7
		C141.2,286.3,102,247,102,180L102,180z M75,445h83.6c7.4,0,13.3-6,13.3-13.3v-5c0-6.4-5.2-11.7-11.7-11.7H89.3
		c-7.7,0-13.1-7.5-10.7-14.8l4.4-13.4c2.3-7,8.9-11.8,16.3-11.8H196v-0.7c23.2,23,36.5,39.3,45.5,51.3c7.3,9.7,21.8,9.7,29.1,0
		c8.9-11.9,22.2-28.1,45.5-51.2v0.7h98c6.7,0,12.6,4.3,14.6,10.6l4.3,13c2.7,8.1-3.4,16.4-11.9,16.4h-70.8
		c-5.6,0-10.2,4.6-10.2,10.2v7c0,7.1,5.7,12.8,12.8,12.8h83.8c6.9,0,13,4.4,15.1,11l3.8,11.6c2.3,7.1-3,14.5-10.5,14.5H65
		c-6.5,0-11.2-6.4-9.1-12.6l4.5-13.8C62.5,449.3,68.4,445,75,445z"/>
</g>
</svg>
