<svg enable-background="new 0 0 1920 1080" viewBox="0 0 1920 1080" xmlns="http://www.w3.org/2000/svg"><g fill="#fff"><path d="m204.7 594.9c1.4 0 2.6.1 3.6.4s1.8.7 2.5 1.3 1.3 1.3 1.9 2.1 1.3 2 2.1 3.4c-.3.8-.8 1.5-1.5 1.9s-1.3.8-1.9 1c-.6.3-1.4.5-2.5.6s-1.8.4-2.1.6c-3.9 1.1-9.8 2.8-17.6 5s-13.8 3.9-18 5c-5.9 1.7-16.1 4.9-30.6 9.6-.3 0-3.2 1.1-8.8 3.4-1.7 5-3.9 12-6.7 20.8s-4.8 14.6-5.9 17.4c3.4 3.6 5 5.6 5 5.9 7.6 8.1 11.6 12.6 12.2 13.4 7.8 10.6 10.8 22.2 8.8 34.8-2.5 14.3-8.3 27.4-17.2 39.4-1.7 2.5-5.5 6.7-11.3 12.6-6.2 5.9-14.3 7.7-24.3 5.5-12-3.1-19-9.4-21-18.9-1.4-5.9-1.8-12-1.3-18.5 1.1-15.7 6-40.3 14.7-73.8.3-.3.8-2.8 1.7-7.6-1.1-1.1-2.5-2.2-4-3.1-1.5-1-3.4-2-5.7-3.1-2.2-1.1-3.8-2-4.6-2.5-7-3.6-13-7-18-10.1-3.9-2.5-5.6-5.3-5-8.4.8-2.2 3.8-4.3 8.8-6.3 3.9-1.1 10.5-3.1 19.7-5.9.8-.3 8.9-2.7 24.3-7.1 2.2-5.6 3.5-8.5 3.8-8.8 14.8-41.4 35.5-88.8 62.1-142.2 3.1-6.4 8.5-16.4 16.4-29.8 3.6-6.4 7.4-10.6 11.3-12.6 6.1-.6 10.8 2 13.8 7.6-3.1 9-4.6 13.7-4.6 14.3-5.3 13.2-12.9 32.2-22.9 57.1-9.9 24.9-17 42.7-21.2 53.3-5 12.6-10.8 27.4-17.2 44.5-.3 0-.8 2.2-1.7 6.7 8.7-1.7 13.3-2.5 13.8-2.5 19-3.6 31-5.9 36.1-6.7 3.4-.7 7.7-.5 13 .3zm-114.1 52.9c1.1-3.9 1.7-6.3 1.7-7.1-3.1 0-4.8.1-5 .4-.3 0-2.2.6-5.9 1.7 1.9 2.4 5 4.1 9.2 5zm30.6 60c.6-5.9-.7-11.9-3.8-18-.8-2-2.1-2.8-3.8-2.5-8.1 29.4-12.7 50.6-13.8 63.8.3.3.6.5 1 .6s.8.2 1 .2l2.5-2.5c9.4-12.4 15-26.3 16.9-41.6z"/><path d="m333.1 563.8c1.7 1.1 3.4 3.2 5 6.3-2.5 2.2-5.7 2.7-9.6 1.3-3.1-1.1-7-2.8-11.7-5-.8-.6-4.8-2.9-11.7-7.1-3.4 1.1-7.4 4.3-12.2 9.6-8.4 9.5-18.5 24.5-30.2 44.9-5.9 10.4-11.6 19.9-17.2 28.5 0 .6-2.4 3.9-7.1 10.1h-13c-7.6-4.5-11.9-8-13-10.7s-.8-8 .8-16.2c1.4-5.6 4.5-16.9 9.2-34 5.6-20.4 10.2-36.9 13.8-49.5 1.7-6.1 3.5-11.2 5.5-15.1 2.5-5.3 6.9-7.2 13.2-5.7s10.1 4.8 11.5 9.9c-.8 3.9-2.2 9.5-4.2 16.8s-3.4 12.6-4.2 15.9c.3 0 .7.3 1.3.8.6-.3 1.1-.8 1.7-1.5s1.1-1.3 1.7-1.9 1-1.1 1.3-1.7c5.6-5.9 8.5-8.9 8.8-9.2 5.3-5.3 10.6-8.3 15.9-9s11.3.8 18 4.4l8 5.5c9.2 6.5 15.3 10.7 18.4 12.6z"/><path d="m446.8 669.6c.3 0 .8 1.3 1.7 3.8-3.4 1.7-7.4 1.1-12.2-1.7-9-5.3-15.2-12.9-18.9-22.7-3.1-8.4-5.6-19.6-7.6-33.6 0-1.1-.3-3.8-.8-8-.8-.6-1.6-.6-2.3-.2s-1.1.7-1.3.8c-.1.1-.4.6-.8 1.3s-.8 1-1 1c-15.7 19.9-23.6 29.9-23.9 30.2-6.2 7.3-12.2 12.7-18 16.4-6.7 4.2-13.5 5.6-20.3 4.2-6.9-1.4-12.7-5.3-17.4-11.7-2.5-3.1-3.4-7.1-2.5-12.2 1.4-7.8 2.8-13.7 4.2-17.6 10.3-29.9 24.8-56.8 43.2-80.6 3.6-4.8 11.5-13.1 23.5-25.2 3.1-3.1 6.6-5.5 10.5-7.1 5.3-2.5 10.1-2.2 14.3.8 4.2 3.1 6.1 7.7 5.9 13.8l-.8 4.6c-1.7.6-3.1.6-4.2 0s-2.2-1.5-3.1-2.7c-1-1.3-1.9-2-2.7-2.3-10.1 10.6-21.5 28-34.4 52-12.9 24.1-19.4 40.6-19.7 49.5 12-13.1 21.7-25.9 28.9-38.2 1.1-1.7 8.4-15.2 21.8-40.7 5.3-1.4 10.8-1 16.6 1.3 5.7 2.2 9.7 5.7 12 10.5 1.4 2.5 2 5.6 1.7 9.2 0 3.1-.4 7.5-1 13.2-.7 5.7-1 9.9-1 12.4-1.7 21.5-1 41.1 2.1 58.7.9 8.6 3.6 15.5 7.5 20.8z"/><path d="m600.8 649.9c4.5 2.2 6.7 5.5 6.7 9.6-4.2 1.4-6.4 2.1-6.7 2.1-9.5.3-18.6-2.4-27.3-8-14.5-9.2-25.9-20.7-34-34.4-2.8-4.5-5-9.4-6.7-14.7-.3-.8-1.5-6.7-3.8-17.6-9.2 10.1-14.1 15.4-14.7 15.9-2.8 3.4-6.9 8.3-12.4 14.9s-9.6 11.5-12.4 14.9c-2.8 3.1-6.4 6.9-10.9 11.3-10.4 10.1-20.6 10.2-30.6.4 0-.3-1.4-1.8-4.2-4.6-.3-3.6.8-8.9 3.4-15.9 2.2-7 4.8-14.6 7.6-22.9 2.8-8.2 5.8-17 9-26.2s5.9-16.8 8.2-22.7c.6-2.2 1.3-4.5 2.1-6.9s1.7-5 2.7-7.8 1.7-5 2.3-6.7c1.7-5 3.2-8.1 4.6-9.2 4.2 0 7.5.6 9.9 1.7s4.1 2.8 5.2 5 1.8 5.5 2.1 9.6c0 4.2.1 9.5.4 15.9l-.4 2.5c-.6.3-1.5.8-2.7 1.5-1.3.7-2.2 1.3-2.7 1.9-.6 1.7-1.3 4.1-2.3 7.3s-1.9 6.4-2.7 9.4c-.8 3.1-1.8 6.3-2.9 9.7 3.9-3.4 6-5.2 6.3-5.5 2-2.2 4.3-4.8 7.1-7.6s5.3-5.5 7.6-8c2.2-2.5 4.6-5 7.1-7.6 2.5-2.5 5-5.1 7.6-7.8 2.5-2.7 4.9-5.2 7.1-7.8 7.8-7.8 16.2-9.6 25.2-5.5 11.7 5.9 17.2 13.8 16.4 23.9-1.4 17.6-2.5 30.4-3.4 38.2-1.1 8.1-1 15.5.4 22.2 3.1 14 11 22.8 23.9 26.4 3.8 1.4 6.5 2.2 7.9 3.1z"/><path d="m686.8 613.4c2.2 2.2 2.7 5.9 1.3 10.9-1.7 5.3-4.6 9.8-8.8 13.4-9 7.8-17.6 13.8-26 18-11.5 5.9-22.9 8-34.4 6.3-12.9-2.2-22.5-9.4-28.9-21.4-3.6-6.1-3.9-13.4-.8-21.8 5-14.5 9.4-26.1 13-34.8 9.2-20.7 18.7-36.9 28.5-48.7 3.1-3.6 7.8-8 14.3-13 4.8-4.2 11.3-5.5 19.7-3.8s14.7 6.3 18.9 13.8c1.7 2.5 2.4 4.9 2.1 7.1-1.7 10.9-3.9 18.6-6.7 23.1-3.9.3-6.4-1.8-7.6-6.3 0-.8-1-6.4-2.9-16.8-3.1 2.5-4.8 3.8-5 3.8-7.6 9.5-15.2 22.8-23.1 39.9-9 19-15.1 35.2-18.5 48.7-1.4 5-1.5 9-.4 11.7 9.5-1.7 19.7-5.9 30.6-12.6 2.2-1.4 5.5-3.5 9.7-6.3s7.3-4.8 9.2-5.9c5.7-3.8 11-5.6 15.8-5.3z"/><path d="m776.1 519.4c10.9-1.4 20.3 2.3 28.1 11.1s11 18.3 9.7 28.3c-1.4 10.6-3.4 19.3-5.9 26-11.5 31.6-31.6 58.3-60.4 80.1-2.2 1.7-4.6 3.2-7.1 4.6-3.4 1.7-5.6 2.5-6.7 2.5-.6 0-2-.1-4.4-.4s-3.9-.5-4.6-.6-2-.4-4-.6c-2-.3-3.4-.6-4.4-1s-2.2-.9-3.6-1.5-2.7-1.3-4-2.3-2.4-2-3.6-3.1c-9.5-10.3-13.3-22.4-11.3-36.1 1.7-12.3 4.5-23.4 8.4-33.1 9.2-23.2 22.1-44.9 38.6-65 2.8-3.4 6-6.7 9.6-10.1s6.9-5.2 9.9-5.7c2.9-.4 6.6.6 11.1 3.1.3.3 1.8 1.5 4.6 3.8zm9.7 28.9c.3-.3.4-2.7.4-7.1-6.7 3.1-12.3 7.8-16.8 14.3-3.6 5.9-8.3 9.1-13.8 9.6-1.4 3.1-4 8.5-7.8 16.2s-6.6 13.6-8.6 17.6c-2 4.1-4.1 9.3-6.5 15.7s-4.3 12.6-5.7 18.5c3.1-2 4.8-2.9 5-2.9 15.9-14.8 28.8-29.9 38.6-45.3 7.4-12.1 12.4-24.3 15.2-36.6z"/><path d="m885.2 636c4.2-2.2 7.7-3.2 10.5-2.9l.4 4.6c0 1.1-.4 2.5-1.3 4.2-3.6 7-10.1 13.4-19.3 19.1s-18.6 7.8-28.1 6.1c-15.7-2.5-26.3-11.5-31.9-26.9-2.8-8.1-3.4-17.3-1.7-27.7 2-11.7 6.6-27 13.8-45.7 7.6-19.3 15.1-35 22.7-47 2.5-3.6 4.2-6 5-7.1 2.2-2.8 5-4.5 8.4-5 3.4-.6 6.6.1 9.7 2.1 2.5 1.7 4.1 3.7 4.8 6.1s.2 4.7-1.5 6.9c-1.1 1.7-2.2 3.6-3.1 5.7-1 2.1-1.8 3.9-2.3 5.5-.6 1.5-1.3 3.5-2.1 5.9s-1.5 4.3-2.1 5.7c-9 23.8-16.2 46.9-21.8 69.2-3.1 11.2-4.3 20.7-3.8 28.5.3 5.6 1.8 9.4 4.6 11.3 5.3.3 11.9-2.1 19.7-7.1 8.2-5.2 14.7-9 19.4-11.5zm38.6-209.4c2.5.6 4.3 1.8 5.2 3.8 1 2 .8 3.9-.6 5.9-.8 1.1-2.5 2.8-5 5-2.5 2-5.9 4.8-10.3 8.4-4.3 3.6-7.5 6.3-9.4 8-4.2 3.4-6.9 5.7-8 7.1-.8.8-4.3 5-10.5 12.6.8 3.6 1.3 5.6 1.3 5.9l-.4 1.3c-5.3.8-10.2.2-14.7-1.9s-7.8-5.4-10.1-9.9c-1.7-3.4-1.5-6.3.4-8.8 1.7-2.5 3.5-4.8 5.5-6.7 10.3-9.8 23.8-19 40.3-27.7 5-2.8 10.4-3.8 16.3-3z"/><path d="m1002.7 619.2c3.6 6.2 5.1 12.1 4.4 17.8s-4.3 11.5-10.7 17.4c-7.8 7.3-18.7 13.8-32.7 19.7-13.2 5.3-24.5 8.5-34 9.6-2.5.3-7.1.1-13.8-.4-.6 0-1.7-.3-3.4-.8-1.7-.6-2.9-1-3.8-1.3-5.3-.3-9.6-2-13-5-3.4-3.1-6.9-7.4-10.5-13-2.5-4.5-2.8-8.9-.8-13.4 4.5-9.2 7.7-15.2 9.7-18 1.1-1.7 8.7-11.5 22.7-29.4.6-.6 1-1 1.3-1.5.3-.4.7-1 1.3-1.7s1-1.2 1.3-1.5c-9.5-8.4-14.5-12.9-15.1-13.4-2-2.2-4.2-4.9-6.7-8s-5.2-7.1-8-12.2c-2.8-5-4.8-9.8-5.9-14.3-1.1-8.1 1-15.8 6.3-23.1 3.9-5.3 7.4-9.4 10.5-12.2 15.4-14 33.1-22.2 53.3-24.8 14.8-2 26.9 2.9 36.1 14.7 5.3 7 5.7 14 1.3 21-.3.3-2.2 3.1-5.9 8.4-4.5-1.4-7.1-2.8-8-4.2-.8-1.4-1.1-5.5-.8-12.2-5 0-11.1 2.8-18 8.4-17.6 14.3-28.8 28.4-33.6 42.4 2.5 2.8 8 5.7 16.4 8.8 9.8-7.6 15.1-11.6 15.9-12.2 7.6-5.9 14.1-9.4 19.7-10.5l5.9-.4v6.3c-.8 3.9-3.4 8.1-7.6 12.6-.3.3-3.9 4.1-10.9 11.3.3 1.1.8 2 1.7 2.7.8.7 2 1.4 3.4 2.1s2.2 1.2 2.5 1.5c12.9 7.3 22.2 15.8 28.1 25.6 0 .3.1.7.4 1.3.3.8.7 1.4 1 1.9zm-42.8 11.8c5-4.5 8.4-9.2 10.1-14.3-9.5-4.8-18.3-7.7-26.4-8.8-7.6 7-14.3 15.2-20.3 24.8-6 9.5-9.7 17.6-11.1 24.3 20.6-7 36.5-15.7 47.7-26z"/><path d="m1232.2 516c10.3 7.3 14.3 16.5 11.7 27.7-4.2 17.1-7.6 29.5-10.1 37.3-10.6 34.1-17.8 60.1-21.4 78-.8 4.5-1.5 8.7-2.1 12.6-.8 5-2.1 8.5-3.8 10.5-3.6.6-7-.8-10.1-4.2-4.2-5-6.3-9.8-6.3-14.3.3-12 .7-20.1 1.3-24.3 2.8-22.7 8-50.1 15.5-82.2l.4-6.3c-4.5 3.4-6.7 5.2-6.7 5.5-8.4 7.8-18.6 19.7-30.6 35.7-5.6 7.8-9.5 12.9-11.7 15.1-.3.6-3.4 3.5-9.2 8.8-10.9 0-19.3-3.8-25.2-11.3-3.1-3.6-4.8-8-5-13-.3-5 0-9.8.8-14.3-1.1.3-2.2.8-3.1 1.5-1 .7-1.6 1.3-1.9 1.7s-.8 1.3-1.7 2.5c-.8 1.3-1.4 1.9-1.7 1.9-1.1 1.4-6.2 8.2-15.1 20.3-9 12.2-15.8 21.3-20.6 27.5-4.5 5.9-9.5 11.9-15.1 18-7 7.8-15.2 9.5-24.8 5-4.2-2-7.8-5.5-10.7-10.5s-4.1-9.8-3.6-14.3c.8-6.7 2.1-12.9 3.8-18.5 3.9-12.6 8.9-28.2 15.1-47 3.6-10.9 7.8-23.1 12.6-36.5 2-5.6 4.1-10.3 6.3-14.3 2.8-5.3 7.3-7.3 13.4-5.9 4.8 1.1 8.2 3.4 10.5 6.9 2.2 3.5 2.8 7.6 1.7 12.4 0 .6-.1 1.4-.2 2.5s-.3 2-.4 2.7-.3 1.5-.4 2.3-.4 1.7-.6 2.5c-.3.8-.6 1.6-1 2.3s-.9 1.5-1.5 2.3-1.1 1.5-1.7 2.1c-.6.3-1.3 2-2.1 5-5 16.2-9.5 30.5-13.4 42.8l.4 2.9c7-9.5 10.8-14.5 11.3-15.1 16.5-22.4 31.3-40.1 44.5-53.3l2.9-2.9c5.9-6.7 12.4-8.4 19.7-5 10.6 4.5 16.2 11.2 16.8 20.1 0 .8-.4 4.8-1.3 11.7 0 .3-.4 2.8-1.3 7.6 1.1-.3 2.1-.6 2.9-1s1.5-.9 1.9-1.5 1-1.3 1.7-2.1 1.2-1.4 1.5-1.7c12-14.5 23.5-25.7 34.4-33.6 2-1.4 3.4-2.4 4.2-2.9 9.9-6.4 19.6-6.4 29.1.3z"/><path d="m1308.5 636c4.2-2.2 7.7-3.2 10.5-2.9l.4 4.6c0 1.1-.4 2.5-1.3 4.2-3.6 7-10.1 13.4-19.3 19.1s-18.6 7.8-28.1 6.1c-15.7-2.5-26.3-11.5-31.9-26.9-2.8-8.1-3.4-17.3-1.7-27.7 2-11.7 6.6-27 13.8-45.7 7.6-19.3 15.1-35 22.7-47 2.5-3.6 4.2-6 5-7.1 2.2-2.8 5-4.5 8.4-5 3.4-.6 6.6.1 9.7 2.1 2.5 1.7 4.1 3.7 4.8 6.1s.2 4.7-1.5 6.9c-1.1 1.7-2.2 3.6-3.1 5.7-1 2.1-1.8 3.9-2.3 5.5-.6 1.5-1.3 3.5-2.1 5.9s-1.5 4.3-2.1 5.7c-9 23.8-16.2 46.9-21.8 69.2-3.1 11.2-4.3 20.7-3.8 28.5.3 5.6 1.8 9.4 4.6 11.3 5.3.3 11.9-2.1 19.7-7.1 8.2-5.2 14.7-9 19.4-11.5zm38.6-209.4c2.5.6 4.3 1.8 5.2 3.8 1 2 .8 3.9-.6 5.9-.8 1.1-2.5 2.8-5 5-2.5 2-5.9 4.8-10.3 8.4-4.3 3.6-7.5 6.3-9.4 8-4.2 3.4-6.9 5.7-8 7.1-.8.8-4.3 5-10.5 12.6.8 3.6 1.3 5.6 1.3 5.9l-.4 1.3c-5.3.8-10.2.2-14.7-1.9s-7.8-5.4-10.1-9.9c-1.7-3.4-1.5-6.3.4-8.8 1.7-2.5 3.5-4.8 5.5-6.7 10.3-9.8 23.8-19 40.3-27.7 5-2.8 10.5-3.8 16.3-3z"/><path d="m1298.2 407.4c-2.2-.1-4.2-.5-5.8-.9-1.7-.5-3.1-1.3-4.3-2.4s-2.2-2.5-3.1-4.3c-.9-1.7-1.6-3.9-2.3-6.5 3.8-1.8 5.8-2.7 6.1-2.7 16.2-2.9 26.6-4.5 31.4-5 10.7-.9 29.8-2.3 57.4-4.2.6 0 6 .1 16.4.2 3.1-5.5 7.2-13.4 12.2-23.8s7.8-16.2 8.4-17.5c1-1.7 3.6-7.6 8-17.5s8.3-17.3 11.7-22.3c7.9-1.6 14.5.4 19.8 5.9 2.9 2.8 4.1 5.7 3.4 8.9-.6 3.2-1.3 5.8-2 7.8-5.6 18-11.4 33.7-17.2 47.3-.3.2-1.6 3.4-4 9.4 2.7 1.2 9.8 1.7 21.3 1.5s18.5-.2 21 0c1.9.1 15.4.4 40.3 1 1.5-1.7 3.8-5.6 7-11.6.7-1.8 2-4.6 4.1-8.6s3.7-7.1 5-9.4c1.6-3 3-4.8 4.3-5.3 1.3-.6 4-.5 8.2.3 3.9.8 7.3 2.4 10.2 4.9 3.7 3.1 4.8 6.6 3.1 10.6-.6 1-1.4 2.5-2.4 4.5s-1.6 3.5-2 4.5c-.6 1.3-2.1 4.4-4.4 9.4.8 1.3 2.7 2.2 5.7 2.7 1.9.1 6.2.4 12.8.8s11.7.7 15.3 1c12 1.3 23.1 3.2 33.3 5.9 6.1 1.7 11.5 4.3 16.3 8 3.7 2.8 5.8 5.5 6.2 8.1-.7 2.5-2.7 3.6-6.1 3.1-1.7-.4-7.9-1.5-18.7-3.5-12.5-2.3-27.4-3.4-44.8-3.2-1.4-.1-6.7-.2-16-.2-1.4-.1-5.9-.2-13.4-.5-2.6 5.3-3.9 8-3.9 8.3-12.1 27.9-24.9 61.8-38.3 101.7-9.3 27-16.3 51.8-21 74.2-5.1 22.7-6 41.8-2.8 57.5.4 2.1 1.1 4.3 2.1 6.7 0 .3.6 1.1 1.9 2.4 4.2.5 9-.3 14.5-2.6 7.7-2.9 14.5-6.3 20.4-10.3 2.1-1.7 4.6-3.7 7.7-6.1s6.1-4.7 9-6.8 5.6-4 7.9-5.7c3.2-2.4 8.9-5.8 17-10.2 0-.3 2.2-1 6.5-2.3.6 3.1 1 4.8.9 5.1-.7 5.9-3.2 11.5-7.8 16.9-11.2 13.2-24.3 23.5-39.3 30.8-13 6.7-26.6 7.9-40.6 3.7-17.3-5-27.8-15.3-31.3-31-4-16.5-3.7-40.9-.3-55.7.4-1.8 3.1-6.9 9.2-32.8-4.1 7-6.3 10.7-6.6 11.2-19 31.1-30.3 49.2-33.7 54.4-12 16.8-26 33.2-42.2 49.2-2.4 2.2-5.3 4.6-8.9 7.2-6.4 4.5-12.6 6.4-18.4 5.8-1.4-.1-2.4 0-3 .2-1.7.7-3.4.9-5.1.8s-3-.2-4-.2c-1-.1-2.4-.5-4.3-1.4s-3.1-1.4-3.5-1.6-1.8-1-4.3-2.4c-2.7-1.5-5.1-3.2-7-5.1-2-1.9-3.5-4-4.7-6.3-1.1-2.3-2-4.6-2.7-6.9-.7-2.4-1.2-5.1-1.6-8.2-.9-12.4-.8-22.9.3-31.3 3.1-17.9 6.9-34.1 11.5-48.8 11.1-33.6 26.3-70.6 45.6-111 5.8-12 12.2-25.6 19.4-40.6l2-4.9c-.7-1.6-2.7-2.4-5.7-2.3-5.3.2-14.1.5-26.3.9s-21.6.7-28 .8c-5.9.3-13.8.3-23 .3zm41.6 222c-.3.5-.8 6.5-1.6 18.1.3 0 .6.1 1 .3s.8.2 1 .3c6.2-5.3 9.5-8.2 9.8-8.7 13.8-15.1 23-25.5 27.6-31.2 11.6-14.8 26.7-37.3 45.4-67.6 3.4-5.5 7.2-11.6 11.2-18.3 4.1-6.7 8.4-13.8 13.1-21.2 4.7-7.5 8.4-13.5 11.2-18.3 1.2-2 2.7-4.3 4.4-7.1 1.7-2.7 3.3-5.1 4.7-7.3 1.4-2.1 2.9-4.5 4.7-7.3 1.7-2.7 3.2-5.2 4.5-7.5 6.9-11.2 15.3-25.5 25.4-42.9 0-.3.9-2.5 2.5-6.8-35 .1-62 .5-80.8 1.1-3.2 6.5-4.8 9.9-4.8 10.1-14.4 33.2-21.8 49.9-22 50.1-21.4 46.4-37.4 87.2-48 122.4-3.9 13.4-7 27.3-9.3 41.8z"/><path d="m1606.8 636c4.2-2.2 7.7-3.2 10.5-2.9l.4 4.6c0 1.1-.4 2.5-1.3 4.2-3.6 7-10.1 13.4-19.3 19.1s-18.6 7.8-28.1 6.1c-15.7-2.5-26.3-11.5-31.9-26.9-2.8-8.1-3.4-17.3-1.7-27.7 2-11.7 6.6-27 13.8-45.7 7.6-19.3 15.1-35 22.7-47 2.5-3.6 4.2-6 5-7.1 2.2-2.8 5-4.5 8.4-5 3.4-.6 6.6.1 9.7 2.1 2.5 1.7 4.1 3.7 4.8 6.1s.2 4.7-1.5 6.9c-1.1 1.7-2.2 3.6-3.1 5.7-1 2.1-1.8 3.9-2.3 5.5-.6 1.5-1.3 3.5-2.1 5.9s-1.5 4.3-2.1 5.7c-9 23.8-16.2 46.9-21.8 69.2-3.1 11.2-4.3 20.7-3.8 28.5.3 5.6 1.8 9.4 4.6 11.3 5.3.3 11.9-2.1 19.7-7.1 8.2-5.2 14.7-9 19.4-11.5zm38.6-209.4c2.5.6 4.3 1.8 5.2 3.8 1 2 .8 3.9-.6 5.9-.8 1.1-2.5 2.8-5 5-2.5 2-5.9 4.8-10.3 8.4-4.3 3.6-7.5 6.3-9.4 8-4.2 3.4-6.9 5.7-8 7.1-.8.8-4.3 5-10.5 12.6.8 3.6 1.3 5.6 1.3 5.9l-.4 1.3c-5.3.8-10.2.2-14.7-1.9s-7.8-5.4-10.1-9.9c-1.7-3.4-1.5-6.3.4-8.8 1.7-2.5 3.5-4.8 5.5-6.7 10.3-9.8 23.8-19 40.3-27.7 5-2.8 10.5-3.8 16.3-3z"/><path d="m1753.7 649.9c4.5 2.2 6.7 5.5 6.7 9.6-4.2 1.4-6.4 2.1-6.7 2.1-9.5.3-18.6-2.4-27.3-8-14.5-9.2-25.9-20.7-34-34.4-2.8-4.5-5-9.4-6.7-14.7-.3-.8-1.5-6.7-3.8-17.6-9.2 10.1-14.1 15.4-14.7 15.9-2.8 3.4-6.9 8.3-12.4 14.9s-9.6 11.5-12.4 14.9c-2.8 3.1-6.4 6.9-10.9 11.3-10.4 10.1-20.6 10.2-30.6.4 0-.3-1.4-1.8-4.2-4.6-.3-3.6.8-8.9 3.4-15.9 2.2-7 4.8-14.6 7.6-22.9 2.8-8.2 5.8-17 9-26.2s5.9-16.8 8.2-22.7c.6-2.2 1.3-4.5 2.1-6.9s1.7-5 2.7-7.8 1.7-5 2.3-6.7c1.7-5 3.2-8.1 4.6-9.2 4.2 0 7.5.6 9.9 1.7s4.1 2.8 5.2 5 1.8 5.5 2.1 9.6c0 4.2.1 9.5.4 15.9l-.4 2.5c-.6.3-1.5.8-2.7 1.5-1.3.7-2.2 1.3-2.7 1.9-.6 1.7-1.3 4.1-2.3 7.3s-1.9 6.4-2.7 9.4c-.8 3.1-1.8 6.3-2.9 9.7 3.9-3.4 6-5.2 6.3-5.5 2-2.2 4.3-4.8 7.1-7.6s5.3-5.5 7.6-8c2.2-2.5 4.6-5 7.1-7.6 2.5-2.5 5-5.1 7.6-7.8 2.5-2.7 4.9-5.2 7.1-7.8 7.8-7.8 16.2-9.6 25.2-5.5 11.7 5.9 17.2 13.8 16.4 23.9-1.4 17.6-2.5 30.4-3.4 38.2-1.1 8.1-1 15.5.4 22.2 3.1 14 11 22.8 23.9 26.4 3.8 1.4 6.5 2.2 7.9 3.1z"/><path d="m1866.5 619.2c3.6 6.2 5.1 12.1 4.4 17.8s-4.3 11.5-10.7 17.4c-7.8 7.3-18.7 13.8-32.7 19.7-13.2 5.3-24.5 8.5-34 9.6-2.5.3-7.1.1-13.8-.4-.6 0-1.7-.3-3.4-.8-1.7-.6-2.9-1-3.8-1.3-5.3-.3-9.6-2-13-5-3.4-3.1-6.9-7.4-10.5-13-2.5-4.5-2.8-8.9-.8-13.4 4.5-9.2 7.7-15.2 9.7-18 1.1-1.7 8.7-11.5 22.7-29.4.6-.6 1-1 1.3-1.5.3-.4.7-1 1.3-1.7s1-1.2 1.3-1.5c-9.5-8.4-14.5-12.9-15.1-13.4-2-2.2-4.2-4.9-6.7-8s-5.2-7.1-8-12.2c-2.8-5-4.8-9.8-5.9-14.3-1.1-8.1 1-15.8 6.3-23.1 3.9-5.3 7.4-9.4 10.5-12.2 15.4-14 33.1-22.2 53.3-24.8 14.8-2 26.9 2.9 36.1 14.7 5.3 7 5.7 14 1.3 21-.3.3-2.2 3.1-5.9 8.4-4.5-1.4-7.1-2.8-8-4.2-.8-1.4-1.1-5.5-.8-12.2-5 0-11.1 2.8-18 8.4-17.6 14.3-28.8 28.4-33.6 42.4 2.5 2.8 8 5.7 16.4 8.8 9.8-7.6 15.1-11.6 15.9-12.2 7.6-5.9 14.1-9.4 19.7-10.5l5.9-.4v6.3c-.8 3.9-3.4 8.1-7.6 12.6-.3.3-3.9 4.1-10.9 11.3.3 1.1.8 2 1.7 2.7.8.7 2 1.4 3.4 2.1s2.2 1.2 2.5 1.5c12.9 7.3 22.2 15.8 28.1 25.6 0 .3.1.7.4 1.3.3.8.7 1.4 1 1.9zm-42.8 11.8c5-4.5 8.4-9.2 10.1-14.3-9.5-4.8-18.3-7.7-26.4-8.8-7.6 7-14.3 15.2-20.3 24.8-6 9.5-9.7 17.6-11.1 24.3 20.5-7 36.5-15.7 47.7-26z"/></g></svg>