<svg enable-background="new 0 0 720.1 722.3" viewBox="0 0 720.1 722.3" xmlns="http://www.w3.org/2000/svg"><g fill="#e53e51"><path d="m110.4 692.8v.4c0 1.6 1.4 2.8 3.3 2.8s3.1-1.1 3.1-2.6c0-.7-.3-1.4-.9-1.9-.9-.6-1.9-1-3-1.3-5.2-1.9-7.1-3.9-7.1-7.6s3.2-7.3 7.9-7.3 7.8 2.8 8.1 7.4h-4.9c-.2-2-1.2-3-3.2-3s-2.9 1-2.9 2.5c0 1 .5 1.9 1.4 2.3.9.5 1.9.9 2.9 1.2 1.8.6 3.5 1.5 5 2.7 1.2 1.2 1.9 2.9 1.9 4.6 0 4.4-3.3 7.3-8.3 7.3s-8.2-2.8-8.1-7.5z"/><path d="m145.5 691.7c-.1 4.9-4.1 8.9-9 8.8h-.1c-4.8.2-8.9-3.5-9.1-8.3 0-.2 0-.5 0-.7 0-5.3 3.7-8.9 9.1-8.9 4.9-.2 8.9 3.6 9.1 8.5.1.2.1.4 0 .6zm-13.6-.2c0 2.9 1.8 4.9 4.5 4.9 2.5 0 4.5-2 4.5-4.5 0-.1 0-.2 0-.3 0-3-1.7-4.9-4.5-4.9s-4.5 1.9-4.5 4.8z"/><path d="m165.9 683.2v10.5c0 2.5-.5 3.9-1.9 5-1.5 1.2-3.4 1.9-5.4 1.8-2 .1-4-.6-5.6-1.9-1.2-1.1-1.7-2.7-1.7-4.9v-10.5h4.5v10.3c-.1 1.6 1.1 3 2.7 3.1h.1c1.4.1 2.7-1 2.7-2.5 0-.1 0-.3 0-.4v-10.5z"/><path d="m177.6 695c0 .8.3 1 1.3 1.1h.8v3.8h-3.6c-2.2-.1-3.1-1-3-3.2v-9.7h-1.9v-3.9h1.9v-4.5h4.5v4.5h2.1v3.9h-2.1z"/><path d="m190.5 685c1-1.5 2.8-2.4 4.6-2.4 1.5 0 2.9.5 4 1.5 1.1 1.1 1.5 2.4 1.5 4.8v11h-4.6v-10.4c0-1.9-1-3-2.5-3-.8-.1-1.5.2-2 .8-.8.6-1.1 1.6-1 2.6v10h-4.6v-24.1h4.6z"/><path d="m211.4 692.6c.3 2.2 2.2 3.9 4.4 3.8 1.6 0 3.1-.8 3.9-2.2l4.2 1.2c-1.5 3.1-4.6 5.1-8.1 5.1-4.8.2-8.9-3.5-9.1-8.3 0-.2 0-.5 0-.7-.2-4.7 3.4-8.7 8.1-8.9h.7c5.3 0 9 3.7 9 9.1v.9zm8.4-2.6c-.3-2.1-2.2-3.6-4.3-3.5-2.2 0-3.6 1.2-4.1 3.5z"/><path d="m249.6 683.2v2c.9-1.7 2.7-2.7 4.6-2.6 1.5 0 3 .5 4.1 1.5 1.1 1.1 1.5 2.5 1.5 5.2v10.6h-4.6v-10.4c.1-.7-.1-1.3-.4-1.9-.5-.7-1.3-1.1-2.2-1.1-1.6-.1-2.9 1.2-3 2.8v.4 10.2h-4.6v-16.7z"/><path d="m285.6 699.9h-4.9v-24.1h4.9v10.5l6.9-10.5h5.7l-7.8 11.6 7.8 12.5h-5.8l-6.8-10.7z"/><path d="m308.2 678.4c-.3 1.4-1.6 2.3-3.1 2-1-.2-1.8-1-2-2-.1-1.4 1-2.5 2.4-2.6h.2c1.3-.1 2.4 1 2.5 2.3.1.1.1.2 0 .3zm-.2 21.5h-4.6v-16.7h4.6z"/><path d="m320 695c0 .8.3 1 1.3 1.1h.8v3.8h-3.6c-2.3-.1-3.1-1-3.1-3.2v-9.7h-1.9v-3.9h1.9v-4.5h4.6v4.5h2.1v3.9h-2.1z"/><path d="m342.2 698c-1.7 1.6-4 2.5-6.4 2.5-4.8.1-8.8-3.7-8.9-8.5 0-.1 0-.3 0-.4-.2-4.7 3.4-8.8 8.2-9h.7c2.5 0 4.9 1 6.7 2.8l-3.1 2.7c-.9-.9-2.1-1.4-3.4-1.4-2.5 0-4.5 2.1-4.4 4.6v.2c-.3 2.5 1.5 4.7 4 4.9 1.4.1 2.8-.4 3.8-1.4z"/><path d="m352.1 685c1-1.5 2.8-2.4 4.6-2.4 1.5 0 2.9.6 4 1.5 1 1.1 1.4 2.4 1.4 4.8v11h-4.5v-10.4c0-1.9-1-3-2.5-3-.8 0-1.5.3-2.1.8-.7.7-1 1.6-.9 2.6v10h-4.6v-24.1h4.6z"/><path d="m371.6 692.6c.3 2.2 2.2 3.9 4.4 3.8 1.6 0 3.1-.8 3.9-2.2l4.2 1.2c-1.5 3.1-4.6 5.1-8.1 5.1-4.8.2-8.9-3.5-9.1-8.3 0-.2 0-.5 0-.7-.2-4.7 3.4-8.7 8.1-8.9h.7c5.3 0 9 3.7 9 9.1v.9zm8.4-2.6c-.5-2.3-2.8-3.8-5.1-3.3-1.6.4-2.9 1.6-3.3 3.3z"/><path d="m394 683.2v2c.8-1.7 2.6-2.7 4.5-2.6 1.5 0 3 .5 4.2 1.5 1 1.1 1.4 2.5 1.4 5.2v10.6h-4.5v-10.4c0-.7-.1-1.3-.4-1.9-.5-.7-1.3-1.1-2.2-1.1-1.6-.1-2.9 1.2-3 2.8v.4 10.2h-4.6v-16.7z"/><path d="m447.6 699.9h-5.3l-1.8-2.4c-2.6 2.1-4.7 3-6.9 3-3.8.2-6.9-2.7-7.1-6.5 0-.1 0-.3 0-.4 0-3.1 1.3-4.8 5.3-7.4-1.5-2.2-2-3.3-2-4.9s2.5-5.1 6-5.1 5.9 2.1 5.9 5.1c0 1.4-.5 2.7-1.4 3.7-.7.8-1.6 1.5-2.6 2.1l3.3 4.4c1.3-1 2.5-2.2 3.6-3.5l3 2.7c-1.3 1.4-2.6 2.8-4 4.1zm-13.5-10.5c-2.3 1.5-3 2.5-3 3.8 0 1.7 1.3 3 3 3.1 1.5-.1 2.8-.8 3.7-2zm3.4-8.1c0-.9-.7-1.6-1.6-1.6-.9-.1-1.7.7-1.8 1.6v.1c0 .8.3 1.4 1.3 2.6 1.6-.9 2.1-1.7 2.1-2.7z"/><path d="m471.9 699.9h-4.9v-24.1h7.4c6 0 9.2 2.6 9.2 7.6.2 3.5-2.2 6.6-5.7 7.2l6.6 9.3h-6l-6.6-9.6zm2.3-12.5c2.8 0 4.4-1.3 4.4-3.8s-1.5-3.7-4-3.7h-2.7v7.5z"/><path d="m502.8 683.2h4.6v16.7h-4.6v-2.3c-1.3 1.9-3.5 3-5.8 2.9-4.7 0-8-3.7-8-8.8s3.5-9.1 8.4-9.1c2.1-.1 4.2 1 5.4 2.7zm-8.9 8.4c0 3 1.9 5.2 4.4 5.2s4.6-2.4 4.6-5.3-1.9-5-4.6-5-4.4 2.1-4.4 5.1z"/><path d="m538.7 683.2-5.5 16.7h-4.7l-3-10.3-3 10.3h-4.8l-5.4-16.7h4.6l3.4 10.1 2.9-10.1h4.4l3 10.1 3.4-10.1z"/><path d="m565.2 675.8c2.9 0 4.8.4 6.1 1.4 1.5 1.2 2.4 3.1 2.3 5.1 0 1.5-.5 3-1.5 4.1-.7.7-1.5 1.2-2.5 1.4 1 .1 2 .6 2.8 1.3 1.2 1.2 1.8 2.8 1.7 4.4.1 2-.8 4-2.4 5.2-1.3.9-2.8 1.2-5.4 1.2h-8.9v-24.1zm-2.9 10.2h2c3 0 4.3-1 4.3-3.3 0-1.1-.5-2.1-1.4-2.7-1-.3-2.1-.5-3.1-.4h-1.8zm0 10.2h2.5c1.7 0 2.5-.1 3.2-.6.8-.6 1.3-1.6 1.2-2.6.1-1.1-.4-2.2-1.4-2.7-.8-.5-1.5-.6-3.3-.6h-2.2z"/><path d="m593.3 683.2h4.6v16.7h-4.6v-2.3c-1.3 1.9-3.5 3-5.8 2.9-4.7 0-8-3.7-8-8.8s3.5-9.1 8.4-9.1c2.1 0 4.2 1 5.4 2.7zm-8.9 8.4c0 3 1.9 5.2 4.4 5.2s4.6-2.4 4.6-5.3-1.9-5-4.6-5-4.4 2.1-4.4 5.1z"/><path d="m609.7 683.2v2.4c.3-.9.8-1.6 1.5-2.2.8-.5 1.7-.8 2.7-.8h.5v4.7h-.9c-1.2 0-2.4.6-3.1 1.6-.6.7-.7 1.4-.7 3v8.1h-4.6v-16.8z"/><path d="m196.3 658.5c0 1.7-1.9 3.2-3.9 3.2h-32.2c-2.6 0-4.3-1.5-4.3-3.2s4.3-3.3 4.3-7.4c0-2-13-35.4-13-35.4l-6.9 4.3c-.6.4-.8 1-.8 2.1v20.8c0 7.5 8 11.7 8 15.6 0 1.7-1.5 3.2-4.1 3.2h-32.7c-2.6 0-4.1-1.5-4.1-3.2 0-3.9 8-8.1 8-15.6v-102.9c0-7.4-8-11.7-8-15.6 0-1.7 1.5-3.2 4.1-3.2l56.4-.2c12.4 0 20.2 5.6 20.2 17.9v43.7c0 8-8.3 12.9-16.9 18.3 7.6 21.9 15.5 41.6 16.8 44.1 5.5 9.8 9.1 9.4 9.1 13.5zm-56.8-116.8v52.3l18.4-12.7c4.1-2.8 4.5-4.3 4.5-5.6v-31.6c0-1.7-.7-2.4-2.6-2.4z"/><path d="m292.7 646.4v-34c0-3.4 2.2-5.4 4.8-5.4s13.9 6.9 16.9 9.1 3.2 2.8 3.2 7.6v17.5h19.1v-25.8c0-2.4-.9-4.1-3.3-5.8l-30.7-21.2c-5.4-3.7-10-7.6-10-15.8v-37c0-9.3 7.8-14.4 17.6-14.4h31.1c11.2 0 18.4 7.7 18.4 15.3v28.8c0 3.4-2.2 5.6-4.1 5.6-4.4 0-14.5-7.1-17.6-9.1s-3.2-2.8-3.2-7.6v-12.5h-17.3v22.9c0 2.6.5 4.1 3.5 6.3l31.1 21.4c6.1 4.1 9.5 7.8 9.5 15.8v38.3c0 7.7-8.8 15.3-17.7 15.3h-32.9c-11 0-18.4-7.6-18.4-15.3z"/><path d="m405.8 642.9c0 7.5 8 11.7 8 15.6 0 1.7-1.5 3.2-4.1 3.2h-32.8c-2.6 0-4.1-1.5-4.1-3.2 0-3.9 8-8.1 8-15.6v-102.9c0-7.4-8-11.7-8-15.6 0-1.7 1.5-3.2 4.1-3.2h32.8c2.6 0 4.1 1.5 4.1 3.2 0 3.9-8 8.2-8 15.6z"/><path d="m425.3 661.7c-2.6 0-4.1-1.5-4.1-3.2 0-3.9 8-8.1 8-15.6v-102.9c0-7.4-8-11.7-8-15.6 0-1.7 1.5-3.2 4.1-3.2h65.1c4.5 0 6.4 1.9 6.4 6.4v21.2c0 2.8-.6 3.7-2.1 4.8s-17.5 12.1-19.7 12.1c-1.8-.2-3.2-1.7-3.2-3.5v-20.5h-15.2c-1.3 0-2.3 1-2.4 2.2v45.6l16.5-10.4c1.4-1.1 3.1-1.7 4.9-1.9 2 0 3.6 1.7 3.5 3.7v.2 17.2c0 3.1-.8 4.6-3.5 6.3l-21.4 13.6v20.8c.1 1.3 1.1 2.3 2.4 2.2h15.2v-11.7c0-2.8.6-3.7 2.1-4.8 3-2.3 17.5-12.1 19.7-12.1 1.8.2 3.2 1.7 3.2 3.5v39.3c0 4.4-1.9 6.3-6.4 6.3z"/><path d="m503.8 564.4c.1-1.9 1.2-3.7 3-4.5 5.8-3.3 6.2-6.3 6.2-9.6v-3.2c0-3.2-4.5-2.1-4.5-5.4v-15.8c0-3.4 1.3-4.7 4.5-4.7h16.7c3.2 0 4.6 1.3 4.6 4.7v15.4c0 14.2-14.1 27-25.8 27-3.2 0-4.7-1.9-4.7-3.9z"/><path d="m545.1 646.4v-34c0-3.4 2.3-5.4 4.9-5.4s13.9 6.9 16.9 9.1 3.2 2.8 3.2 7.6v17.5h19.1v-25.8c0-2.4-.9-4.1-3.3-5.8l-30.7-21.2c-5.4-3.7-10.1-7.6-10.1-15.8v-37c0-9.3 7.9-14.4 17.7-14.4h31.1c11.1 0 18.4 7.7 18.4 15.3v28.8c0 3.4-2.2 5.6-4.1 5.6-4.5 0-14.5-7.1-17.7-9.1-1.6-1.1-3.1-2.8-3.1-7.6v-12.5h-17.3v22.9c0 2.6.5 4.1 3.5 6.3l31.1 21.4c6.1 4.1 9.5 7.8 9.5 15.8v38.3c0 7.7-8.8 15.3-17.7 15.3h-32.9c-11 0-18.5-7.6-18.5-15.3z"/><path d="m235.1 683.2v2.4c.3-.9.8-1.6 1.5-2.2.8-.5 1.7-.8 2.7-.8h.5v4.7h-.9c-1.2 0-2.4.6-3.1 1.6-.6.7-.7 1.4-.7 3v8.1h-4.6v-16.8z"/><path d="m203.7 646.6v-110.3c0-9.9 7.8-15.1 17.7-15.1h36.6c11.2 0 18.5 7.8 18.5 16v108.5c0 7.6-7.1 16-18.5 16h-36.6c-10.1 0-17.7-5.4-17.7-15.1zm26.3-5.4h20.2c.7 0 1.3-.6 1.3-1.3v-96.9c0-.7-.6-1.3-1.3-1.3h-20.2c-.7 0-1.3.6-1.3 1.3v96.9c0 .8.6 1.3 1.3 1.3z"/><path d="m282.5 240.1c-7 13.4-21.7 18.5-34.4 14.9-6.9-2.6-20.7-8.6-22.3-29.2 1-11.8.4-27.1 19.1-50.6 0 0-60.5 10.1-65.6 77-1.1 45.8 21.5 48.8 34.6 84.1 1.8 7 9.1 14.5 44.7-8.2s33.5-21.6 56.6-17.1 32.1-6 32.1-6-15 49.5-32.1 52.2c0 0 37.4 1.8 39.6 35.7.9 14.4 1.1 25.3 48.4 31.3 8.2 1.1 23.9 0 15.7 29.1s-23.2 31.3-23.2 31.3 53.7 14.6 115.9-36.4c44.9-36.9 40.5-104.4-5.2-134.6 0 0 9.7 13.1 10 28.2.3 13.1-4.4 36.7-26.2 41.4-43.2-2.2-25.9-52.9-9.5-76s46.6-91.8-13.9-134.9c0 0 12.7 10.2 12.2 25.7-.5 15.6-13.2 34.4-37.3 31 0 0 13.6-36.6-39.2-77.5-10.7-8.2-19.3-18-22.5-24-35.8-66.8 14.8-106 14.8-106s-39.7-.9-77.2 28.6c0 0-49.1 35.2-49.8 100.4-.2 15.7 2.9 34.9 9.6 51.4 3.6 9 14 21.1 5.1 38.2z"/></g><circle cx="399.8" cy="153.1" fill="none" r="131.8" stroke="#00dfe4" stroke-dasharray="6.0027 6.0027" stroke-miterlimit="10"/><circle cx="417.1" cy="354.1" fill="none" r="131.8" stroke="#00dfe4" stroke-dasharray="6.0027 6.0027" stroke-miterlimit="10"/><circle cx="421.1" cy="240.5" fill="none" r="81.8" stroke="#00dfe4" stroke-dasharray="5.98 5.98" stroke-miterlimit="10"/><circle cx="260.8" cy="255.8" fill="none" r="81.8" stroke="#00dfe4" stroke-dasharray="5.98 5.98" stroke-miterlimit="10"/><circle cx="307.3" cy="228.6" fill="none" r="81.8" stroke="#00dfe4" stroke-dasharray="5.98 5.98" stroke-miterlimit="10"/><circle cx="461.1" cy="381.8" fill="none" r="81.8" stroke="#00dfe4" stroke-dasharray="5.98 5.98" stroke-miterlimit="10"/><ellipse cx="448.6" cy="83.1" fill="none" rx="81.8" ry="81.8" stroke="#00dfe4" stroke-dasharray="5.98 5.98" stroke-miterlimit="10" transform="matrix(.7071 -.7071 .7071 .7071 72.6582 341.573)"/><ellipse cx="392.1" cy="216.5" fill="none" rx="50.9" ry="50.9" stroke="#00dfe4" stroke-dasharray="5.9186 5.9186" stroke-miterlimit="10" transform="matrix(.7071 -.7071 .7071 .7071 -38.2528 340.7)"/><ellipse cx="465.5" cy="344.1" fill="none" rx="50.9" ry="50.9" stroke="#00dfe4" stroke-dasharray="5.9186 5.9186" stroke-miterlimit="10" transform="matrix(.1602 -.9871 .9871 .1602 51.2509 748.4316)"/><circle cx="447.1" cy="197.8" fill="none" r="31.7" stroke="#00dfe4" stroke-dasharray="5.8647 5.8647" stroke-miterlimit="10"/><ellipse cx="256" cy="226.4" fill="none" rx="29.7" ry="29.7" stroke="#00dfe4" stroke-dasharray="5.8253 5.8253" stroke-miterlimit="10" transform="matrix(.5257 -.8507 .8507 .5257 -71.2078 325.1746)"/><ellipse cx="487.5" cy="359" fill="none" rx="24.1" ry="24.1" stroke="#00dfe4" stroke-dasharray="5.8312 5.8312" stroke-miterlimit="10" transform="matrix(.1602 -.9871 .9871 .1602 54.9932 782.7172)"/><path d="m-477.3-57.4h430.5v265.6h-430.5z" fill="none" stroke="#000" stroke-miterlimit="10" stroke-width="1.6391"/><circle cx="-345.3" cy="75.2" fill="none" r="131.7" stroke="#000" stroke-miterlimit="10" stroke-width="1.6391"/><circle cx="-130.6" cy="24.6" fill="none" r="81.8" stroke="#000" stroke-miterlimit="10" stroke-width="1.6391"/><circle cx="-98" cy="157.2" fill="none" r="50.9" stroke="#000" stroke-miterlimit="10" stroke-width="1.6391"/><circle cx="-181.2" cy="176.9" fill="none" r="31.7" stroke="#000" stroke-miterlimit="10" stroke-width="1.6391"/><circle cx="-192.9" cy="125.5" fill="none" r="19.5" stroke="#000" stroke-miterlimit="10" stroke-width="1.6391"/><circle cx="-161.3" cy="118.3" fill="none" r="11.7" stroke="#000" stroke-miterlimit="10" stroke-width="1.6391"/></svg>