<svg id="black_logo" data-name="black logo" xmlns="http://www.w3.org/2000/svg" width="700" height="700" viewBox="0 0 700 700"><title>rosies-logo-black</title><path d="M100.4,681.7v.4c0,1.6,1.4,2.8,3.3,2.8s3.1-1.1,3.1-2.6a2.5,2.5,0,0,0-.9-1.9,11.3,11.3,0,0,0-3-1.3c-5.2-1.9-7.1-3.9-7.1-7.6s3.2-7.3,7.9-7.3,7.8,2.8,8.1,7.4h-4.9c-.2-2-1.2-3-3.2-3s-2.9,1-2.9,2.5a2.5,2.5,0,0,0,1.4,2.3,21.3,21.3,0,0,0,2.9,1.2,14.8,14.8,0,0,1,5,2.7,6.4,6.4,0,0,1,1.9,4.6c0,4.4-3.3,7.3-8.3,7.3s-8.2-2.8-8.1-7.5Z" fill="#1c1514"/><path d="M135.5,680.6a8.9,8.9,0,0,1-9.1,8.8,8.7,8.7,0,0,1-9.1-9c0-5.3,3.7-8.9,9.1-8.9A8.8,8.8,0,0,1,135.5,680.6Zm-13.6-.2c0,2.9,1.8,4.9,4.5,4.9a4.5,4.5,0,0,0,4.5-4.8c0-3-1.7-4.9-4.5-4.9S121.9,677.5,121.9,680.4Z" fill="#1c1514"/><path d="M155.9,672.1v10.5c0,2.5-.5,3.9-1.9,5a8.3,8.3,0,0,1-5.4,1.8,8.2,8.2,0,0,1-5.6-1.9c-1.2-1.1-1.7-2.7-1.7-4.9V672.1h4.5v10.3a2.9,2.9,0,0,0,2.8,3.1,2.6,2.6,0,0,0,2.7-2.9V672.1Z" fill="#1c1514"/><path d="M167.6,683.9c0,.8.3,1,1.3,1.1h.8v3.8h-3.6c-2.2-.1-3.1-1-3-3.2v-9.7h-1.9V672h1.9v-4.5h4.5V672h2.1v3.9h-2.1Z" fill="#1c1514"/><path d="M180.5,673.9a5.6,5.6,0,0,1,4.6-2.4,6.2,6.2,0,0,1,4,1.5c1.1,1.1,1.5,2.4,1.5,4.8v11H186V678.4c0-1.9-1-3-2.5-3a2.4,2.4,0,0,0-2,.8,2.9,2.9,0,0,0-1,2.6v10h-4.6V664.7h4.6Z" fill="#1c1514"/><path d="M201.4,681.5a4.3,4.3,0,0,0,4.4,3.8,4.5,4.5,0,0,0,3.9-2.2l4.2,1.2a9,9,0,0,1-8.1,5.1,8.7,8.7,0,0,1-9.1-9,8.5,8.5,0,0,1,8.8-8.9c5.3,0,9,3.7,9,9.1v.9Zm8.4-2.6a4.1,4.1,0,0,0-4.3-3.5c-2.2,0-3.6,1.2-4.1,3.5Z" fill="#1c1514"/><path d="M225.1,672.1v2.4a4.3,4.3,0,0,1,1.5-2.2,4.8,4.8,0,0,1,2.7-.8h.5v4.7h-.9a3.6,3.6,0,0,0-3.1,1.6c-.6.7-.7,1.4-.7,3v8.1h-4.6V672.1Z" fill="#1c1514"/><path d="M239.6,672.1v2a4.8,4.8,0,0,1,4.6-2.6,6.4,6.4,0,0,1,4.1,1.5c1.1,1.1,1.5,2.5,1.5,5.2v10.6h-4.6V678.4a3.2,3.2,0,0,0-.4-1.9,2.7,2.7,0,0,0-2.2-1.1,2.9,2.9,0,0,0-3,3.2v10.2H235V672.1Z" fill="#1c1514"/><path d="M275.6,688.8h-4.9V664.7h4.9v10.5l6.9-10.5h5.7l-7.8,11.6,7.8,12.5h-5.8l-6.8-10.7Z" fill="#1c1514"/><path d="M298.2,667.3a2.6,2.6,0,0,1-5.1,0,2.5,2.5,0,0,1,2.6-2.6A2.4,2.4,0,0,1,298.2,667.3Zm-.2,21.5h-4.6V672.1H298Z" fill="#1c1514"/><path d="M310,683.9c0,.8.3,1,1.3,1.1h.8v3.8h-3.6c-2.3-.1-3.1-1-3.1-3.2v-9.7h-1.9V672h1.9v-4.5H310V672h2.1v3.9H310Z" fill="#1c1514"/><path d="M332.2,686.9a9.1,9.1,0,0,1-6.4,2.5,8.7,8.7,0,0,1-8.9-8.9,8.6,8.6,0,0,1,8.9-9,9.7,9.7,0,0,1,6.7,2.8l-3.1,2.7a4.5,4.5,0,0,0-3.4-1.4,4.5,4.5,0,0,0-4.4,4.8,4.5,4.5,0,0,0,7.8,3.5Z" fill="#1c1514"/><path d="M342.1,673.9a5.6,5.6,0,0,1,4.6-2.4,6.4,6.4,0,0,1,4,1.5c1,1.1,1.4,2.4,1.4,4.8v11h-4.5V678.4c0-1.9-1-3-2.5-3a2.8,2.8,0,0,0-2.1.8,3.1,3.1,0,0,0-.9,2.6v10h-4.6V664.7h4.6Z" fill="#1c1514"/><path d="M361.6,681.5a4.3,4.3,0,0,0,4.4,3.8,4.4,4.4,0,0,0,3.9-2.2l4.2,1.2a9,9,0,0,1-8.1,5.1,8.7,8.7,0,0,1-9.1-9,8.5,8.5,0,0,1,8.8-8.9c5.3,0,9,3.7,9,9.1v.9Zm8.4-2.6a4.3,4.3,0,0,0-8.4,0Z" fill="#1c1514"/><path d="M384,672.1v2a4.7,4.7,0,0,1,4.5-2.6,6.7,6.7,0,0,1,4.2,1.5c1,1.1,1.4,2.5,1.4,5.2v10.6h-4.5V678.4a4.1,4.1,0,0,0-.4-1.9,2.7,2.7,0,0,0-2.2-1.1,2.9,2.9,0,0,0-3,3.2v10.2h-4.6V672.1Z" fill="#1c1514"/><path d="M437.6,688.8h-5.3l-1.8-2.4c-2.6,2.1-4.7,3-6.9,3a6.8,6.8,0,0,1-7.1-6.9c0-3.1,1.3-4.8,5.3-7.4-1.5-2.2-2-3.3-2-4.9s2.5-5.1,6-5.1,5.9,2.1,5.9,5.1a6.1,6.1,0,0,1-1.4,3.7,10.5,10.5,0,0,1-2.6,2.1l3.3,4.4a23.9,23.9,0,0,0,3.6-3.5l3,2.7a52.6,52.6,0,0,1-4,4.1Zm-13.5-10.5c-2.3,1.5-3,2.5-3,3.8a3.1,3.1,0,0,0,3,3.1,4.8,4.8,0,0,0,3.7-2Zm3.4-8.1a1.6,1.6,0,0,0-1.6-1.6,1.7,1.7,0,0,0-1.8,1.7c0,.8.3,1.4,1.3,2.6C427,672,427.5,671.2,427.5,670.2Z" fill="#1c1514"/><path d="M461.9,688.8H457V664.7h7.4c6,0,9.2,2.6,9.2,7.6a6.9,6.9,0,0,1-5.7,7.2l6.6,9.3h-6l-6.6-9.6Zm2.3-12.5c2.8,0,4.4-1.3,4.4-3.8s-1.5-3.7-4-3.7h-2.7v7.5Z" fill="#1c1514"/><path d="M492.8,672.1h4.6v16.7h-4.6v-2.3a6.7,6.7,0,0,1-5.8,2.9c-4.7,0-8-3.7-8-8.8s3.5-9.1,8.4-9.1a6.4,6.4,0,0,1,5.4,2.7Zm-8.9,8.4c0,3,1.9,5.2,4.4,5.2s4.6-2.4,4.6-5.3-1.9-5-4.6-5S483.9,677.5,483.9,680.5Z" fill="#1c1514"/><path d="M528.7,672.1l-5.5,16.7h-4.7l-3-10.3-3,10.3h-4.8l-5.4-16.7h4.6l3.4,10.1,2.9-10.1h4.4l3,10.1,3.4-10.1Z" fill="#1c1514"/><path d="M555.2,664.7c2.9,0,4.8.4,6.1,1.4a6.1,6.1,0,0,1,2.3,5.1,5.9,5.9,0,0,1-1.5,4.1,5,5,0,0,1-2.5,1.4,4.9,4.9,0,0,1,2.8,1.3,5.7,5.7,0,0,1,1.7,4.4,6.2,6.2,0,0,1-2.4,5.2c-1.3.9-2.8,1.2-5.4,1.2h-8.9V664.7Zm-2.9,10.2h2c3,0,4.3-1,4.3-3.3a3.2,3.2,0,0,0-1.4-2.7,8.3,8.3,0,0,0-3.1-.4h-1.8Zm0,10.2h2.5c1.7,0,2.5-.1,3.2-.6a3,3,0,0,0,1.2-2.6,2.8,2.8,0,0,0-1.4-2.7c-.8-.5-1.5-.6-3.3-.6h-2.2Z" fill="#1c1514"/><path d="M583.3,672.1h4.6v16.7h-4.6v-2.3a6.7,6.7,0,0,1-5.8,2.9c-4.7,0-8-3.7-8-8.8s3.5-9.1,8.4-9.1a6.5,6.5,0,0,1,5.4,2.7Zm-8.9,8.4c0,3,1.9,5.2,4.4,5.2s4.6-2.4,4.6-5.3-1.9-5-4.6-5S574.4,677.5,574.4,680.5Z" fill="#1c1514"/><path d="M599.7,672.1v2.4a4.3,4.3,0,0,1,1.5-2.2,4.8,4.8,0,0,1,2.7-.8h.5v4.7h-.9a3.6,3.6,0,0,0-3.1,1.6c-.6.7-.7,1.4-.7,3v8.1h-4.6V672.1Z" fill="#1c1514"/><path d="M186.3,647.4c0,1.7-1.9,3.2-3.9,3.2H150.2c-2.6,0-4.3-1.5-4.3-3.2s4.3-3.3,4.3-7.4c0-2-13-35.4-13-35.4l-6.9,4.3c-.6.4-.8,1-.8,2.1v20.8c0,7.5,8,11.7,8,15.6,0,1.7-1.5,3.2-4.1,3.2H100.7c-2.6,0-4.1-1.5-4.1-3.2,0-3.9,8-8.1,8-15.6V528.9c0-7.4-8-11.7-8-15.6,0-1.7,1.5-3.2,4.1-3.2l56.4-.2c12.4,0,20.2,5.6,20.2,17.9v43.7c0,8-8.3,12.9-16.9,18.3,7.6,21.9,15.5,41.6,16.8,44.1C182.7,643.7,186.3,643.3,186.3,647.4ZM129.5,530.6v52.3l18.4-12.7c4.1-2.8,4.5-4.3,4.5-5.6V533c0-1.7-.7-2.4-2.6-2.4Z" fill="#1c1514"/><path d="M193.7,635.5V525.2c0-9.9,7.8-15.1,17.7-15.1H248c11.2,0,18.5,7.8,18.5,16V634.6c0,7.6-7.1,16-18.5,16H211.4C201.3,650.6,193.7,645.2,193.7,635.5Zm26.3-5.4h20.2a1.3,1.3,0,0,0,1.3-1.3V531.9a1.3,1.3,0,0,0-1.3-1.3H220a1.3,1.3,0,0,0-1.3,1.3v96.9A1.3,1.3,0,0,0,220,630.1Z" fill="#1c1514"/><path d="M282.7,635.3v-34c0-3.4,2.2-5.4,4.8-5.4s13.9,6.9,16.9,9.1,3.2,2.8,3.2,7.6v17.5h19.1V604.3c0-2.4-.9-4.1-3.3-5.8l-30.7-21.2c-5.4-3.7-10-7.6-10-15.8v-37c0-9.3,7.8-14.4,17.6-14.4h31.1c11.2,0,18.4,7.7,18.4,15.3v28.8c0,3.4-2.2,5.6-4.1,5.6-4.4,0-14.5-7.1-17.6-9.1s-3.2-2.8-3.2-7.6V530.6H307.6v22.9c0,2.6.5,4.1,3.5,6.3l31.1,21.4c6.1,4.1,9.5,7.8,9.5,15.8v38.3c0,7.7-8.8,15.3-17.7,15.3H301.1C290.1,650.6,282.7,643,282.7,635.3Z" fill="#1c1514"/><path d="M395.8,631.8c0,7.5,8,11.7,8,15.6,0,1.7-1.5,3.2-4.1,3.2H366.9c-2.6,0-4.1-1.5-4.1-3.2,0-3.9,8-8.1,8-15.6V528.9c0-7.4-8-11.7-8-15.6,0-1.7,1.5-3.2,4.1-3.2h32.8c2.6,0,4.1,1.5,4.1,3.2,0,3.9-8,8.2-8,15.6Z" fill="#1c1514"/><path d="M415.3,650.6c-2.6,0-4.1-1.5-4.1-3.2,0-3.9,8-8.1,8-15.6V528.9c0-7.4-8-11.7-8-15.6,0-1.7,1.5-3.2,4.1-3.2h65.1c4.5,0,6.4,1.9,6.4,6.4v21.2c0,2.8-.6,3.7-2.1,4.8s-17.5,12.1-19.7,12.1a3.5,3.5,0,0,1-3.2-3.5V530.6H446.6a2.4,2.4,0,0,0-2.4,2.2v45.6L460.7,568a9.8,9.8,0,0,1,4.9-1.9,3.6,3.6,0,0,1,3.5,3.9v17.2c0,3.1-.8,4.6-3.5,6.3l-21.4,13.6v20.8a2.3,2.3,0,0,0,2.4,2.2h15.2V618.4c0-2.8.6-3.7,2.1-4.8,3-2.3,17.5-12.1,19.7-12.1a3.5,3.5,0,0,1,3.2,3.5v39.3c0,4.4-1.9,6.3-6.4,6.3Z" fill="#1c1514"/><path d="M493.8,553.3a5.2,5.2,0,0,1,3-4.5c5.8-3.3,6.2-6.3,6.2-9.6V536c0-3.2-4.5-2.1-4.5-5.4V514.8c0-3.4,1.3-4.7,4.5-4.7h16.7c3.2,0,4.6,1.3,4.6,4.7v15.4c0,14.2-14.1,27-25.8,27C495.3,557.2,493.8,555.3,493.8,553.3Z" fill="#1c1514"/><path d="M535.1,635.3v-34c0-3.4,2.3-5.4,4.9-5.4s13.9,6.9,16.9,9.1,3.2,2.8,3.2,7.6v17.5h19.1V604.3c0-2.4-.9-4.1-3.3-5.8l-30.7-21.2c-5.4-3.7-10.1-7.6-10.1-15.8v-37c0-9.3,7.9-14.4,17.7-14.4h31.1c11.1,0,18.4,7.7,18.4,15.3v28.8c0,3.4-2.2,5.6-4.1,5.6-4.5,0-14.5-7.1-17.7-9.1-1.6-1.1-3.1-2.8-3.1-7.6V530.6H560.1v22.9c0,2.6.5,4.1,3.5,6.3l31.1,21.4c6.1,4.1,9.5,7.8,9.5,15.8v38.3c0,7.7-8.8,15.3-17.7,15.3H553.6C542.6,650.6,535.1,643,535.1,635.3Z" fill="#1c1514"/><path d="M501.9,305.8s15.5,59.8-21.8,66.3c-42.1,7.4-25.9-52.9-9.5-76s42-88.2-6.3-130c0,0,7.5,54.7-32.4,52.5,0,0,16.6-32.5-39.5-78.2a116.1,116.1,0,0,1-14.6-14.1,79.6,79.6,0,0,1,6.6-114.5c1.2-.7,1.7-1.1,1.2-1.1h0S345.9,8.2,309.4,36l-2,1.5-.2.2a129.1,129.1,0,0,0-48.7,86.5h0c-.2,1.5-.3,3-.4,4.5s-.1,1.4-.2,2.1q-.3,4.3-.3,8.7a129.8,129.8,0,0,0,10.1,50.3l1.7,4.2s7.8,19.7,2,34.6a25.8,25.8,0,0,1-48.2.2c-8.2-17.1-8.2-44.4,12.9-65.5,0,0-85.1,20.4-61.4,103,9.1,31.6,19.1,21.1,29.1,58.9,1.8,7,9.1,14.5,44.7-8.2s33.5-21.6,56.6-17.1,32.1-6,32.1-6-15,49.5-32.1,52.2c0,0,37.4,1.8,39.6,35.7.9,14.4,1.1,25.3,48.4,31.3,8.2,1.1,23.9,0,15.7,29.1s-23.2,31.3-23.2,31.3,53.7,14.6,115.9-36.4C546.4,400.2,540.4,336.8,501.9,305.8Z" fill="#1c1514"/></svg>