<svg id="Layer_1" data-name="Layer 1" xmlns="http://www.w3.org/2000/svg" width="1000" height="1000" viewBox="0 0 1000 1000"><title>rosies-4logo</title><path d="M114.7,429.6h0a1.8,1.8,0,0,0,3.5.2,1.4,1.4,0,0,0-.6-1.1l-1.5-.7c-2.9-1-3.9-2.1-3.9-4.1s1.7-3.9,4.3-3.9a4,4,0,0,1,4.4,4h-2.7a1.6,1.6,0,0,0-1.7-1.7,1.4,1.4,0,0,0-1.6,1.4,1.2,1.2,0,0,0,.8,1.2l1.5.7a7.2,7.2,0,0,1,2.7,1.4,3.6,3.6,0,0,1,1.1,2.6c0,2.4-1.8,4-4.5,4s-4.5-1.6-4.5-4.1Z" fill="#221f1c"/><path d="M133.7,428.9a4.8,4.8,0,0,1-4.9,4.8,4.9,4.9,0,1,1,0-9.7A4.7,4.7,0,0,1,133.7,428.9Zm-7.3,0a2.4,2.4,0,1,0,2.4-2.7A2.5,2.5,0,0,0,126.4,428.9Z" fill="#221f1c"/><path d="M144.9,424.3v5.8a3.1,3.1,0,0,1-1.1,2.7,4.4,4.4,0,0,1-2.9.9,4.5,4.5,0,0,1-3.1-1,3.4,3.4,0,0,1-.9-2.6v-5.8h2.5v5.6a1.5,1.5,0,0,0,1.5,1.7,1.4,1.4,0,0,0,1.5-1.5v-5.8Z" fill="#221f1c"/><path d="M151.2,430.7c0,.5.2.6.7.6h.5v2.1h-2c-1.2,0-1.7-.5-1.7-1.7v-5.3h-1v-2.1h1v-2.5h2.5v2.5h1.2v2.1h-1.2Z" fill="#221f1c"/><path d="M158.2,425.3a3.1,3.1,0,0,1,2.5-1.3,3.3,3.3,0,0,1,2.2.8,3.3,3.3,0,0,1,.8,2.6v6h-2.5v-5.6c0-1.1-.5-1.7-1.3-1.7a2.1,2.1,0,0,0-1.2.4,1.8,1.8,0,0,0-.5,1.5v5.4h-2.5V420.3h2.5Z" fill="#221f1c"/><path d="M169.6,429.5a2.3,2.3,0,0,0,2.4,2,2.4,2.4,0,0,0,2.1-1.2l2.3.6a4.8,4.8,0,0,1-4.5,2.8,4.7,4.7,0,0,1-4.9-4.9,4.6,4.6,0,0,1,4.8-4.8,4.7,4.7,0,0,1,4.9,5v.5Zm4.5-1.5a2.1,2.1,0,0,0-2.3-1.9,2.1,2.1,0,0,0-2.2,1.9Z" fill="#221f1c"/><path d="M182.5,424.3v1.3a2.1,2.1,0,0,1,.8-1.2,3.3,3.3,0,0,1,1.4-.4h.3v2.6h-.5a2,2,0,0,0-1.7.9c-.3.4-.3.8-.3,1.6v4.4H180v-9.1Z" fill="#221f1c"/><path d="M190.3,424.3v1.1a2.8,2.8,0,0,1,2.5-1.4,3.6,3.6,0,0,1,2.3.8,4.1,4.1,0,0,1,.8,2.8v5.8h-2.5v-5.6a3.1,3.1,0,0,0-.2-1.1,1.6,1.6,0,0,0-1.2-.6,1.7,1.7,0,0,0-1.7,1.8v5.5h-2.4v-9.1Z" fill="#221f1c"/><path d="M209.9,433.4h-2.7V420.3h2.7V426l3.7-5.7h3.2l-4.3,6.3,4.3,6.8h-3.2l-3.7-5.8Z" fill="#221f1c"/><path d="M222.2,421.7a1.4,1.4,0,1,1-1.4-1.4A1.4,1.4,0,0,1,222.2,421.7Zm-.1,11.7h-2.5v-9.1h2.5Z" fill="#221f1c"/><path d="M228.6,430.7c0,.5.2.6.7.6h.5v2.1h-2c-1.2,0-1.7-.5-1.7-1.7v-5.3h-1v-2.1h1v-2.5h2.5v2.5h1.2v2.1h-1.2Z" fill="#221f1c"/><path d="M240.7,432.4a5.3,5.3,0,0,1-3.5,1.3,4.9,4.9,0,0,1,0-9.7,5.3,5.3,0,0,1,3.6,1.5l-1.6,1.5a2.9,2.9,0,0,0-1.9-.8,2.4,2.4,0,0,0-2.4,2.6,2.5,2.5,0,0,0,2.5,2.7,2.6,2.6,0,0,0,1.8-.8Z" fill="#221f1c"/><path d="M246,425.3a3,3,0,0,1,5.5,2.1v6H249v-5.6c0-1.1-.5-1.7-1.3-1.7a1.6,1.6,0,0,0-1.1.4,1.9,1.9,0,0,0-.6,1.5v5.4h-2.4V420.3H246Z" fill="#221f1c"/><path d="M256.7,429.5a2.3,2.3,0,0,0,2.4,2,2.4,2.4,0,0,0,2.1-1.2l2.2.6a4.9,4.9,0,0,1-9.3-2.1,4.6,4.6,0,0,1,4.8-4.8,4.7,4.7,0,0,1,4.9,5v.5Zm4.5-1.5a2.1,2.1,0,0,0-2.3-1.9,2.1,2.1,0,0,0-2.2,1.9Z" fill="#221f1c"/><path d="M268.8,424.3v1.1a2.8,2.8,0,0,1,2.5-1.4,3.1,3.1,0,0,1,2.2.8,3.6,3.6,0,0,1,.8,2.8v5.8h-2.5v-5.6a1.8,1.8,0,0,0-.2-1.1,1.3,1.3,0,0,0-1.2-.6,1.6,1.6,0,0,0-1.6,1.8v5.5h-2.5v-9.1Z" fill="#221f1c"/><path d="M298,433.4h-2.9l-1-1.3a5.9,5.9,0,0,1-3.7,1.6,3.7,3.7,0,0,1-3.9-3.7c0-1.7.7-2.6,2.9-4a4,4,0,0,1-1.1-2.7c0-1.6,1.4-2.8,3.3-2.8a3,3,0,0,1,3.2,2.8,3.4,3.4,0,0,1-.8,2,6,6,0,0,1-1.4,1.2l1.8,2.4a11.9,11.9,0,0,0,1.9-2l1.7,1.5a22.8,22.8,0,0,1-2.2,2.2Zm-7.4-5.7c-1.2.8-1.6,1.3-1.6,2.1a1.8,1.8,0,0,0,1.7,1.7,3.1,3.1,0,0,0,2-1.1Zm1.9-4.4a.9.9,0,0,0-.9-.9,1,1,0,0,0-1,.9c0,.5.2.8.7,1.5S292.5,423.9,292.5,423.3Z" fill="#221f1c"/><path d="M311.2,433.4h-2.7V420.3h4c3.3,0,5,1.4,5,4.1a3.7,3.7,0,0,1-3.1,4l3.6,5h-3.2l-3.6-5.2Zm1.2-6.8c1.5,0,2.4-.7,2.4-2a2,2,0,0,0-2.2-2.1h-1.4v4.1Z" fill="#221f1c"/><path d="M328,424.3h2.5v9.1H328v-1.3a3.8,3.8,0,0,1-3.2,1.6c-2.5,0-4.3-2-4.3-4.7s1.9-5,4.5-5a3.4,3.4,0,0,1,3,1.5Zm-4.9,4.6a2.6,2.6,0,0,0,2.4,2.8,2.7,2.7,0,0,0,2.5-2.9,2.5,2.5,0,0,0-2.5-2.7A2.5,2.5,0,0,0,323.1,428.9Z" fill="#221f1c"/><path d="M347.5,424.3l-3,9.1h-2.6l-1.6-5.6-1.6,5.6h-2.6l-3-9.1h2.6l1.8,5.5,1.6-5.5h2.4l1.6,5.5,1.8-5.5Z" fill="#221f1c"/><path d="M361.9,420.3a4.9,4.9,0,0,1,3.3.8,3.4,3.4,0,0,1,1.3,2.7,3.2,3.2,0,0,1-.9,2.3,2.6,2.6,0,0,1-1.3.7,4.2,4.2,0,0,1,1.5.7,3.3,3.3,0,0,1,1,2.4,3.7,3.7,0,0,1-1.4,2.9,5.5,5.5,0,0,1-2.9.6h-4.8V420.3Zm-1.6,5.6h1.1q2.4,0,2.4-1.8a1.7,1.7,0,0,0-.8-1.5,4,4,0,0,0-1.7-.3h-1Zm0,5.5h1.4a3.4,3.4,0,0,0,1.7-.3,1.7,1.7,0,0,0,.6-1.4,1.6,1.6,0,0,0-.7-1.5c-.4-.3-.8-.3-1.8-.3h-1.2Z" fill="#221f1c"/><path d="M377.2,424.3h2.5v9.1h-2.5v-1.3a3.9,3.9,0,0,1-3.2,1.6,4.5,4.5,0,0,1-4.4-4.7,4.7,4.7,0,0,1,4.6-5,3.6,3.6,0,0,1,3,1.5Zm-4.9,4.6a2.5,2.5,0,0,0,2.4,2.8,2.7,2.7,0,0,0,2.5-2.9,2.5,2.5,0,0,0-2.5-2.7A2.5,2.5,0,0,0,372.3,428.9Z" fill="#221f1c"/><path d="M386.1,424.3v1.3a2.1,2.1,0,0,1,.8-1.2,3.3,3.3,0,0,1,1.5-.4h.3v2.6h-.6a1.7,1.7,0,0,0-1.6.9,2.4,2.4,0,0,0-.4,1.6v4.4h-2.5v-9.1Z" fill="#221f1c"/><path d="M161.4,410.9c0,.9-1.1,1.7-2.2,1.7H141.7c-1.4,0-2.3-.8-2.3-1.7s2.3-1.8,2.3-4-7-19.2-7-19.2l-3.8,2.3c-.3.2-.4.5-.4,1.1v11.3c0,4.1,4.4,6.4,4.4,8.5s-.9,1.7-2.3,1.7H114.8c-1.4,0-2.2-.8-2.2-1.7s4.4-4.4,4.4-8.5V346.5c0-4-4.4-6.4-4.4-8.5s.8-1.7,2.2-1.7h30.7c6.7,0,11,3,11,9.7v23.8c0,4.3-4.6,6.9-9.2,9.9,4.1,11.9,8.4,22.6,9.1,23.9C159.4,408.9,161.4,408.7,161.4,410.9Zm-30.9-63.5v28.4l10-6.8c2.2-1.6,2.4-2.4,2.4-3.1V348.7c0-.9-.4-1.3-1.4-1.3Z" fill="#221f1c"/><path d="M165.4,404.5v-60c0-5.4,4.2-8.2,9.6-8.2h19.9c6.1,0,10,4.2,10,8.7v58.9c0,4.2-3.8,8.7-10,8.7H175C169.5,412.6,165.4,409.7,165.4,404.5Zm14.3-3h11a.8.8,0,0,0,.7-.7V348.1a.7.7,0,0,0-.7-.7h-11a.7.7,0,0,0-.7.7v52.7A.8.8,0,0,0,179.7,401.5Z" fill="#221f1c"/><path d="M213.7,404.4V385.8a2.7,2.7,0,0,1,2.7-2.9c2,0,7.6,3.8,9.2,5s1.7,1.5,1.7,4.1v9.5h10.4v-14a3.5,3.5,0,0,0-1.8-3.2l-16.7-11.5c-2.9-2-5.5-4.1-5.5-8.6V344.1c0-5.1,4.3-7.8,9.6-7.8h16.9c6.1,0,10.1,4.1,10.1,8.3v15.7a2.8,2.8,0,0,1-2.3,3c-2.4,0-7.9-3.9-9.6-5s-1.7-1.5-1.7-4.1v-6.8h-9.4v12.5c0,1.4.3,2.2,1.9,3.4l16.9,11.6c3.3,2.2,5.2,4.3,5.2,8.6v20.9c0,4.1-4.8,8.2-9.6,8.2H223.8C217.8,412.6,213.7,408.5,213.7,404.4Z" fill="#221f1c"/><path d="M275.2,402.4c0,4.1,4.4,6.4,4.4,8.5s-.8,1.7-2.2,1.7H259.6c-1.5,0-2.3-.8-2.3-1.7s4.4-4.4,4.4-8.5V346.5c0-4-4.4-6.4-4.4-8.5s.8-1.7,2.3-1.7h17.8c1.4,0,2.2.8,2.2,1.7s-4.4,4.5-4.4,8.5Z" fill="#221f1c"/><path d="M285.9,412.6c-1.5,0-2.3-.8-2.3-1.7s4.4-4.4,4.4-8.5V346.5c0-4-4.4-6.4-4.4-8.5s.8-1.7,2.3-1.7h35.4c2.4,0,3.4,1,3.4,3.4v11.6c0,1.5-.3,2-1.1,2.6s-9.5,6.6-10.7,6.6a2,2,0,0,1-1.8-2V347.4h-8.3a1.3,1.3,0,0,0-1.3,1.2v24.8l9-5.7a5.3,5.3,0,0,1,2.7-1,2,2,0,0,1,1.9,2.2v9.3a3.3,3.3,0,0,1-1.9,3.4L301.5,389v11.3a1.2,1.2,0,0,0,1.3,1.2h8.3v-6.4c0-1.5.3-2,1.2-2.6s9.5-6.6,10.7-6.6a2,2,0,0,1,1.7,2v21.3c0,2.4-1,3.4-3.4,3.4Z" fill="#221f1c"/><path d="M328.5,359.7a2.7,2.7,0,0,1,1.7-2.4c3.1-1.8,3.3-3.4,3.3-5.2v-1.8c0-1.7-2.4-1.1-2.4-2.9v-8.6c0-1.8.7-2.5,2.4-2.5h9.1c1.7,0,2.5.7,2.5,2.5v8.4c0,7.7-7.7,14.7-14,14.7C329.3,361.9,328.5,360.9,328.5,359.7Z" fill="#221f1c"/><path d="M351,404.4V385.8a2.7,2.7,0,0,1,2.6-2.9c2,0,7.6,3.8,9.2,5s1.7,1.5,1.7,4.1v9.5H375v-14a3.6,3.6,0,0,0-1.9-3.2l-16.7-11.5c-2.9-2-5.4-4.1-5.4-8.6V344.1c0-5.1,4.2-7.8,9.6-7.8h16.9c6.1,0,10,4.1,10,8.3v15.7c0,1.8-1.2,3-2.2,3s-7.9-3.9-9.6-5-1.8-1.5-1.8-4.1v-6.8h-9.4v12.5c0,1.4.3,2.2,2,3.4l16.8,11.6c3.4,2.2,5.2,4.3,5.2,8.6v20.9c0,4.1-4.7,8.2-9.6,8.2H361C355,412.6,351,408.5,351,404.4Z" fill="#221f1c"/><path d="M332.9,225.2s8.4,32.5-11.8,36.1c-22.9,4-14.1-28.8-5.2-41.3s22.8-48-3.4-70.7c0,0,4,29.7-17.7,28.5,0,0,9.1-17.6-21.4-42.5a64.2,64.2,0,0,1-7.9-7.6A43.2,43.2,0,0,1,269,65.4c.7-.4,1-.6.7-.6h0a67.9,67.9,0,0,0-41.4,13.8l-1.1.8h-.1a70,70,0,0,0-26.5,47h0a19.4,19.4,0,0,0-.2,2.4,4.9,4.9,0,0,0-.1,1.2c-.1,1.6-.2,3.1-.2,4.7a70.8,70.8,0,0,0,5.5,27.3l.9,2.4s4.3,10.6,1.1,18.8a14.1,14.1,0,0,1-26.2.1c-4.4-9.3-4.4-24.2,7-35.6,0,0-46.2,11-33.3,56,4.9,17.1,10.4,11.4,15.8,32,1,3.8,4.9,7.8,24.3-4.5s18.2-11.7,30.8-9.3,17.4-3.3,17.4-3.3-8.2,26.9-17.4,28.4c0,0,20.3,1,21.4,19.5.5,7.8.6,13.7,26.4,17,4.4.5,12.9,0,8.5,15.8s-12.6,17-12.6,17,29.2,7.9,63-19.8A45.9,45.9,0,0,0,332.9,225.2Z" fill="#dc263f"/><rect x="500" width="500" height="500" fill="#dc263f"/><path d="M614.7,429.6h0a1.8,1.8,0,0,0,3.5.2,1.4,1.4,0,0,0-.6-1.1l-1.5-.7c-2.9-1-3.9-2.1-3.9-4.1s1.7-3.9,4.3-3.9a4,4,0,0,1,4.4,4h-2.7a1.6,1.6,0,0,0-1.7-1.7,1.4,1.4,0,0,0-1.6,1.4,1.2,1.2,0,0,0,.8,1.2l1.5.7a7.2,7.2,0,0,1,2.7,1.4,3.6,3.6,0,0,1,1.1,2.6c0,2.4-1.8,4-4.5,4s-4.5-1.6-4.5-4.1Z" fill="#fff"/><path d="M633.7,428.9a4.8,4.8,0,0,1-4.9,4.8,4.9,4.9,0,1,1,0-9.7A4.7,4.7,0,0,1,633.7,428.9Zm-7.3,0a2.4,2.4,0,1,0,2.4-2.7A2.5,2.5,0,0,0,626.4,428.9Z" fill="#fff"/><path d="M644.9,424.3v5.8a3.1,3.1,0,0,1-1.1,2.7,4.4,4.4,0,0,1-2.9.9,4.5,4.5,0,0,1-3.1-1,3.4,3.4,0,0,1-.9-2.6v-5.8h2.5v5.6a1.5,1.5,0,0,0,1.5,1.7,1.4,1.4,0,0,0,1.5-1.5v-5.8Z" fill="#fff"/><path d="M651.2,430.7c0,.5.2.6.7.6h.5v2.1h-2c-1.2,0-1.7-.5-1.7-1.7v-5.3h-1v-2.1h1v-2.5h2.5v2.5h1.2v2.1h-1.2Z" fill="#fff"/><path d="M658.2,425.3a3.1,3.1,0,0,1,2.5-1.3,3.3,3.3,0,0,1,2.2.8,3.3,3.3,0,0,1,.8,2.6v6h-2.5v-5.6c0-1.1-.5-1.7-1.3-1.7a2.1,2.1,0,0,0-1.2.4,1.8,1.8,0,0,0-.5,1.5v5.4h-2.5V420.3h2.5Z" fill="#fff"/><path d="M669.6,429.5a2.3,2.3,0,0,0,2.4,2,2.4,2.4,0,0,0,2.1-1.2l2.3.6a4.8,4.8,0,0,1-4.5,2.8,4.7,4.7,0,0,1-4.9-4.9,4.6,4.6,0,0,1,4.8-4.8,4.7,4.7,0,0,1,4.9,5v.5Zm4.5-1.5a2.1,2.1,0,0,0-2.3-1.9,2.1,2.1,0,0,0-2.2,1.9Z" fill="#fff"/><path d="M682.5,424.3v1.3a2.1,2.1,0,0,1,.8-1.2,3.3,3.3,0,0,1,1.4-.4h.3v2.6h-.5a2,2,0,0,0-1.7.9c-.3.4-.3.8-.3,1.6v4.4H680v-9.1Z" fill="#fff"/><path d="M690.3,424.3v1.1a2.8,2.8,0,0,1,2.5-1.4,3.6,3.6,0,0,1,2.3.8,4.1,4.1,0,0,1,.8,2.8v5.8h-2.5v-5.6a3.1,3.1,0,0,0-.2-1.1,1.6,1.6,0,0,0-1.2-.6,1.7,1.7,0,0,0-1.7,1.8v5.5h-2.4v-9.1Z" fill="#fff"/><path d="M709.9,433.4h-2.7V420.3h2.7V426l3.7-5.7h3.2l-4.3,6.3,4.3,6.8h-3.2l-3.7-5.8Z" fill="#fff"/><path d="M722.2,421.7a1.4,1.4,0,1,1-1.4-1.4A1.4,1.4,0,0,1,722.2,421.7Zm-.1,11.7h-2.5v-9.1h2.5Z" fill="#fff"/><path d="M728.6,430.7c0,.5.2.6.7.6h.5v2.1h-2c-1.2,0-1.7-.5-1.7-1.7v-5.3h-1v-2.1h1v-2.5h2.5v2.5h1.2v2.1h-1.2Z" fill="#fff"/><path d="M740.7,432.4a5.3,5.3,0,0,1-3.5,1.3,4.9,4.9,0,0,1,0-9.7,5.3,5.3,0,0,1,3.6,1.5l-1.6,1.5a2.9,2.9,0,0,0-1.9-.8,2.4,2.4,0,0,0-2.4,2.6,2.5,2.5,0,0,0,2.5,2.7,2.6,2.6,0,0,0,1.8-.8Z" fill="#fff"/><path d="M746,425.3a3,3,0,0,1,5.5,2.1v6H749v-5.6c0-1.1-.5-1.7-1.3-1.7a1.6,1.6,0,0,0-1.1.4,1.9,1.9,0,0,0-.6,1.5v5.4h-2.4V420.3H746Z" fill="#fff"/><path d="M756.7,429.5a2.3,2.3,0,0,0,2.4,2,2.4,2.4,0,0,0,2.1-1.2l2.2.6a4.9,4.9,0,0,1-9.3-2.1,4.6,4.6,0,0,1,4.8-4.8,4.7,4.7,0,0,1,4.9,5v.5Zm4.5-1.5a2.1,2.1,0,0,0-2.3-1.9,2.1,2.1,0,0,0-2.2,1.9Z" fill="#fff"/><path d="M768.8,424.3v1.1a2.8,2.8,0,0,1,2.5-1.4,3.1,3.1,0,0,1,2.2.8,3.6,3.6,0,0,1,.8,2.8v5.8h-2.5v-5.6a1.8,1.8,0,0,0-.2-1.1,1.3,1.3,0,0,0-1.2-.6,1.6,1.6,0,0,0-1.6,1.8v5.5h-2.5v-9.1Z" fill="#fff"/><path d="M798,433.4h-2.9l-1-1.3a5.9,5.9,0,0,1-3.7,1.6,3.7,3.7,0,0,1-3.9-3.7c0-1.7.7-2.6,2.9-4a4,4,0,0,1-1.1-2.7c0-1.6,1.4-2.8,3.3-2.8a3,3,0,0,1,3.2,2.8,3.4,3.4,0,0,1-.8,2,6,6,0,0,1-1.4,1.2l1.8,2.4a11.9,11.9,0,0,0,1.9-2l1.7,1.5a22.8,22.8,0,0,1-2.2,2.2Zm-7.4-5.7c-1.2.8-1.6,1.3-1.6,2.1a1.8,1.8,0,0,0,1.7,1.7,3.1,3.1,0,0,0,2-1.1Zm1.9-4.4a.9.9,0,0,0-.9-.9,1,1,0,0,0-1,.9c0,.5.2.8.7,1.5S792.5,423.9,792.5,423.3Z" fill="#fff"/><path d="M811.2,433.4h-2.7V420.3h4c3.3,0,5,1.4,5,4.1a3.7,3.7,0,0,1-3.1,4l3.6,5h-3.2l-3.6-5.2Zm1.2-6.8c1.5,0,2.4-.7,2.4-2a2,2,0,0,0-2.2-2.1h-1.4v4.1Z" fill="#fff"/><path d="M828,424.3h2.5v9.1H828v-1.3a3.8,3.8,0,0,1-3.2,1.6c-2.5,0-4.3-2-4.3-4.7s1.9-5,4.5-5a3.4,3.4,0,0,1,3,1.5Zm-4.9,4.6a2.6,2.6,0,0,0,2.4,2.8,2.7,2.7,0,0,0,2.5-2.9,2.5,2.5,0,0,0-2.5-2.7A2.5,2.5,0,0,0,823.1,428.9Z" fill="#fff"/><path d="M847.5,424.3l-3,9.1h-2.6l-1.6-5.6-1.6,5.6h-2.6l-3-9.1h2.6l1.8,5.5,1.6-5.5h2.4l1.6,5.5,1.8-5.5Z" fill="#fff"/><path d="M861.9,420.3a4.9,4.9,0,0,1,3.3.8,3.4,3.4,0,0,1,1.3,2.7,3.2,3.2,0,0,1-.9,2.3,2.6,2.6,0,0,1-1.3.7,4.2,4.2,0,0,1,1.5.7,3.3,3.3,0,0,1,1,2.4,3.7,3.7,0,0,1-1.4,2.9,5.5,5.5,0,0,1-2.9.6h-4.8V420.3Zm-1.6,5.6h1.1q2.4,0,2.4-1.8a1.7,1.7,0,0,0-.8-1.5,4,4,0,0,0-1.7-.3h-1Zm0,5.5h1.4a3.4,3.4,0,0,0,1.7-.3,1.7,1.7,0,0,0,.6-1.4,1.6,1.6,0,0,0-.7-1.5c-.4-.3-.8-.3-1.8-.3h-1.2Z" fill="#fff"/><path d="M877.2,424.3h2.5v9.1h-2.5v-1.3a3.9,3.9,0,0,1-3.2,1.6,4.5,4.5,0,0,1-4.4-4.7,4.7,4.7,0,0,1,4.6-5,3.6,3.6,0,0,1,3,1.5Zm-4.9,4.6a2.5,2.5,0,0,0,2.4,2.8,2.7,2.7,0,0,0,2.5-2.9,2.5,2.5,0,0,0-2.5-2.7A2.5,2.5,0,0,0,872.3,428.9Z" fill="#fff"/><path d="M886.1,424.3v1.3a2.1,2.1,0,0,1,.8-1.2,3.3,3.3,0,0,1,1.5-.4h.3v2.6h-.6a1.7,1.7,0,0,0-1.6.9,2.4,2.4,0,0,0-.4,1.6v4.4h-2.5v-9.1Z" fill="#fff"/><path d="M661.4,410.9c0,.9-1.1,1.7-2.2,1.7H641.7c-1.4,0-2.3-.8-2.3-1.7s2.3-1.8,2.3-4-7-19.2-7-19.2l-3.8,2.3c-.3.2-.4.5-.4,1.1v11.3c0,4.1,4.4,6.4,4.4,8.5s-.9,1.7-2.3,1.7H614.8c-1.4,0-2.2-.8-2.2-1.7s4.4-4.4,4.4-8.5V346.5c0-4-4.4-6.4-4.4-8.5s.8-1.7,2.2-1.7h30.7c6.7,0,11,3,11,9.7v23.8c0,4.3-4.6,6.9-9.2,9.9,4.1,11.9,8.4,22.6,9.1,23.9C659.4,408.9,661.4,408.7,661.4,410.9Zm-30.9-63.5v28.4l10-6.8c2.2-1.6,2.4-2.4,2.4-3.1V348.7c0-.9-.4-1.3-1.4-1.3Z" fill="#fff"/><path d="M665.4,404.5v-60c0-5.4,4.2-8.2,9.6-8.2h19.9c6.1,0,10,4.2,10,8.7v58.9c0,4.2-3.8,8.7-10,8.7H675C669.5,412.6,665.4,409.7,665.4,404.5Zm14.3-3h11a.8.8,0,0,0,.7-.7V348.1a.7.7,0,0,0-.7-.7h-11a.7.7,0,0,0-.7.7v52.7A.8.8,0,0,0,679.7,401.5Z" fill="#fff"/><path d="M713.7,404.4V385.8a2.7,2.7,0,0,1,2.7-2.9c2,0,7.6,3.8,9.2,5s1.7,1.5,1.7,4.1v9.5h10.4v-14a3.5,3.5,0,0,0-1.8-3.2l-16.7-11.5c-2.9-2-5.5-4.1-5.5-8.6V344.1c0-5.1,4.3-7.8,9.6-7.8h16.9c6.1,0,10.1,4.1,10.1,8.3v15.7a2.8,2.8,0,0,1-2.3,3c-2.4,0-7.9-3.9-9.6-5s-1.7-1.5-1.7-4.1v-6.8h-9.4v12.5c0,1.4.3,2.2,1.9,3.4l16.9,11.6c3.3,2.2,5.2,4.3,5.2,8.6v20.9c0,4.1-4.8,8.2-9.6,8.2H723.8C717.8,412.6,713.7,408.5,713.7,404.4Z" fill="#fff"/><path d="M775.2,402.4c0,4.1,4.4,6.4,4.4,8.5s-.8,1.7-2.2,1.7H759.6c-1.5,0-2.3-.8-2.3-1.7s4.4-4.4,4.4-8.5V346.5c0-4-4.4-6.4-4.4-8.5s.8-1.7,2.3-1.7h17.8c1.4,0,2.2.8,2.2,1.7s-4.4,4.5-4.4,8.5Z" fill="#fff"/><path d="M785.9,412.6c-1.5,0-2.3-.8-2.3-1.7s4.4-4.4,4.4-8.5V346.5c0-4-4.4-6.4-4.4-8.5s.8-1.7,2.3-1.7h35.4c2.4,0,3.4,1,3.4,3.4v11.6c0,1.5-.3,2-1.1,2.6s-9.5,6.6-10.7,6.6a2,2,0,0,1-1.8-2V347.4h-8.3a1.3,1.3,0,0,0-1.3,1.2v24.8l9-5.7a5.3,5.3,0,0,1,2.7-1,2,2,0,0,1,1.9,2.2v9.3a3.3,3.3,0,0,1-1.9,3.4L801.5,389v11.3a1.2,1.2,0,0,0,1.3,1.2h8.3v-6.4c0-1.5.3-2,1.2-2.6s9.5-6.6,10.7-6.6a2,2,0,0,1,1.7,2v21.3c0,2.4-1,3.4-3.4,3.4Z" fill="#fff"/><path d="M828.5,359.7a2.7,2.7,0,0,1,1.7-2.4c3.1-1.8,3.3-3.4,3.3-5.2v-1.8c0-1.7-2.4-1.1-2.4-2.9v-8.6c0-1.8.7-2.5,2.4-2.5h9.1c1.7,0,2.5.7,2.5,2.5v8.4c0,7.7-7.7,14.7-14,14.7C829.3,361.9,828.5,360.9,828.5,359.7Z" fill="#fff"/><path d="M851,404.4V385.8a2.7,2.7,0,0,1,2.6-2.9c2,0,7.6,3.8,9.2,5s1.7,1.5,1.7,4.1v9.5H875v-14a3.6,3.6,0,0,0-1.9-3.2l-16.7-11.5c-2.9-2-5.4-4.1-5.4-8.6V344.1c0-5.1,4.2-7.8,9.6-7.8h16.9c6.1,0,10,4.1,10,8.3v15.7c0,1.8-1.2,3-2.2,3s-7.9-3.9-9.6-5-1.8-1.5-1.8-4.1v-6.8h-9.4v12.5c0,1.4.3,2.2,2,3.4l16.8,11.6c3.4,2.2,5.2,4.3,5.2,8.6v20.9c0,4.1-4.7,8.2-9.6,8.2H861C855,412.6,851,408.5,851,404.4Z" fill="#fff"/><path d="M832.9,225.2s8.4,32.5-11.8,36.1c-22.9,4-14.1-28.8-5.2-41.3s22.8-48-3.4-70.7c0,0,4,29.7-17.7,28.5,0,0,9.1-17.6-21.4-42.5a64.2,64.2,0,0,1-7.9-7.6A43.2,43.2,0,0,1,769,65.4c.7-.4,1-.6.7-.6h0a67.9,67.9,0,0,0-41.4,13.8l-1.1.8h-.1a70,70,0,0,0-26.5,47h0a19.4,19.4,0,0,0-.2,2.4,4.9,4.9,0,0,0-.1,1.2c-.1,1.6-.2,3.1-.2,4.7a70.8,70.8,0,0,0,5.5,27.3l.9,2.4s4.3,10.6,1.1,18.8a14.1,14.1,0,0,1-26.2.1c-4.4-9.3-4.4-24.2,7-35.6,0,0-46.2,11-33.3,56,4.9,17.1,10.4,11.4,15.8,32,1,3.8,4.9,7.8,24.3-4.5s18.2-11.7,30.8-9.3,17.4-3.3,17.4-3.3-8.2,26.9-17.4,28.4c0,0,20.3,1,21.4,19.5.5,7.8.6,13.7,26.4,17,4.4.5,12.9,0,8.5,15.8s-12.6,17-12.6,17,29.2,7.9,63-19.8A45.9,45.9,0,0,0,832.9,225.2Z" fill="#fff"/><path d="M614.7,929.6h0a1.8,1.8,0,0,0,3.5.2,1.4,1.4,0,0,0-.6-1.1l-1.5-.7c-2.9-1-3.9-2.1-3.9-4.1s1.7-3.9,4.3-3.9a4,4,0,0,1,4.4,4h-2.7a1.6,1.6,0,0,0-1.7-1.7,1.4,1.4,0,0,0-1.6,1.4,1.2,1.2,0,0,0,.8,1.2l1.5.7a7.2,7.2,0,0,1,2.7,1.4,3.6,3.6,0,0,1,1.1,2.6c0,2.4-1.8,4-4.5,4s-4.5-1.6-4.5-4.1Z" fill="#221f1c"/><path d="M633.7,928.9a4.8,4.8,0,0,1-4.9,4.8,4.9,4.9,0,1,1,0-9.7A4.7,4.7,0,0,1,633.7,928.9Zm-7.3,0a2.4,2.4,0,1,0,2.4-2.7A2.5,2.5,0,0,0,626.4,928.9Z" fill="#221f1c"/><path d="M644.9,924.3v5.8a3.1,3.1,0,0,1-1.1,2.7,4.4,4.4,0,0,1-2.9.9,4.5,4.5,0,0,1-3.1-1,3.4,3.4,0,0,1-.9-2.6v-5.8h2.5v5.6a1.5,1.5,0,0,0,1.5,1.7,1.4,1.4,0,0,0,1.5-1.5v-5.8Z" fill="#221f1c"/><path d="M651.2,930.7c0,.5.2.6.7.6h.5v2.1h-2c-1.2,0-1.7-.5-1.7-1.7v-5.3h-1v-2.1h1v-2.5h2.5v2.5h1.2v2.1h-1.2Z" fill="#221f1c"/><path d="M658.2,925.3a3.1,3.1,0,0,1,2.5-1.3,3.3,3.3,0,0,1,2.2.8,3.3,3.3,0,0,1,.8,2.6v6h-2.5v-5.6c0-1.1-.5-1.7-1.3-1.7a2.1,2.1,0,0,0-1.2.4,1.8,1.8,0,0,0-.5,1.5v5.4h-2.5V920.3h2.5Z" fill="#221f1c"/><path d="M669.6,929.5a2.3,2.3,0,0,0,2.4,2,2.4,2.4,0,0,0,2.1-1.2l2.3.6a4.8,4.8,0,0,1-4.5,2.8,4.7,4.7,0,0,1-4.9-4.9,4.6,4.6,0,0,1,4.8-4.8,4.7,4.7,0,0,1,4.9,5v.5Zm4.5-1.5a2.1,2.1,0,0,0-2.3-1.9,2.1,2.1,0,0,0-2.2,1.9Z" fill="#221f1c"/><path d="M682.5,924.3v1.3a2.1,2.1,0,0,1,.8-1.2,3.3,3.3,0,0,1,1.4-.4h.3v2.6h-.5a2,2,0,0,0-1.7.9c-.3.4-.3.8-.3,1.6v4.4H680v-9.1Z" fill="#221f1c"/><path d="M690.3,924.3v1.1a2.8,2.8,0,0,1,2.5-1.4,3.6,3.6,0,0,1,2.3.8,4.1,4.1,0,0,1,.8,2.8v5.8h-2.5v-5.6a3.1,3.1,0,0,0-.2-1.1,1.6,1.6,0,0,0-1.2-.6,1.7,1.7,0,0,0-1.7,1.8v5.5h-2.4v-9.1Z" fill="#221f1c"/><path d="M709.9,933.4h-2.7V920.3h2.7V926l3.7-5.7h3.2l-4.3,6.3,4.3,6.8h-3.2l-3.7-5.8Z" fill="#221f1c"/><path d="M722.2,921.7a1.4,1.4,0,1,1-1.4-1.4A1.4,1.4,0,0,1,722.2,921.7Zm-.1,11.7h-2.5v-9.1h2.5Z" fill="#221f1c"/><path d="M728.6,930.7c0,.5.2.6.7.6h.5v2.1h-2c-1.2,0-1.7-.5-1.7-1.7v-5.3h-1v-2.1h1v-2.5h2.5v2.5h1.2v2.1h-1.2Z" fill="#221f1c"/><path d="M740.7,932.4a5.3,5.3,0,0,1-3.5,1.3,4.9,4.9,0,0,1,0-9.7,5.3,5.3,0,0,1,3.6,1.5l-1.6,1.5a2.9,2.9,0,0,0-1.9-.8,2.4,2.4,0,0,0-2.4,2.6,2.5,2.5,0,0,0,2.5,2.7,2.6,2.6,0,0,0,1.8-.8Z" fill="#221f1c"/><path d="M746,925.3a3,3,0,0,1,5.5,2.1v6H749v-5.6c0-1.1-.5-1.7-1.3-1.7a1.6,1.6,0,0,0-1.1.4,1.9,1.9,0,0,0-.6,1.5v5.4h-2.4V920.3H746Z" fill="#221f1c"/><path d="M756.7,929.5a2.3,2.3,0,0,0,2.4,2,2.4,2.4,0,0,0,2.1-1.2l2.2.6a4.9,4.9,0,0,1-9.3-2.1,4.6,4.6,0,0,1,4.8-4.8,4.7,4.7,0,0,1,4.9,5v.5Zm4.5-1.5a2.1,2.1,0,0,0-2.3-1.9,2.1,2.1,0,0,0-2.2,1.9Z" fill="#221f1c"/><path d="M768.8,924.3v1.1a2.8,2.8,0,0,1,2.5-1.4,3.1,3.1,0,0,1,2.2.8,3.6,3.6,0,0,1,.8,2.8v5.8h-2.5v-5.6a1.8,1.8,0,0,0-.2-1.1,1.3,1.3,0,0,0-1.2-.6,1.6,1.6,0,0,0-1.6,1.8v5.5h-2.5v-9.1Z" fill="#221f1c"/><path d="M798,933.4h-2.9l-1-1.3a5.9,5.9,0,0,1-3.7,1.6,3.7,3.7,0,0,1-3.9-3.7c0-1.7.7-2.6,2.9-4a4,4,0,0,1-1.1-2.7c0-1.6,1.4-2.8,3.3-2.8a3,3,0,0,1,3.2,2.8,3.4,3.4,0,0,1-.8,2,6,6,0,0,1-1.4,1.2l1.8,2.4a11.9,11.9,0,0,0,1.9-2l1.7,1.5a22.8,22.8,0,0,1-2.2,2.2Zm-7.4-5.7c-1.2.8-1.6,1.3-1.6,2.1a1.8,1.8,0,0,0,1.7,1.7,3.1,3.1,0,0,0,2-1.1Zm1.9-4.4a.9.9,0,0,0-.9-.9,1,1,0,0,0-1,.9c0,.5.2.8.7,1.5S792.5,923.9,792.5,923.3Z" fill="#221f1c"/><path d="M811.2,933.4h-2.7V920.3h4c3.3,0,5,1.4,5,4.1a3.7,3.7,0,0,1-3.1,4l3.6,5h-3.2l-3.6-5.2Zm1.2-6.8c1.5,0,2.4-.7,2.4-2a2,2,0,0,0-2.2-2.1h-1.4v4.1Z" fill="#221f1c"/><path d="M828,924.3h2.5v9.1H828v-1.3a3.8,3.8,0,0,1-3.2,1.6c-2.5,0-4.3-2-4.3-4.7s1.9-5,4.5-5a3.4,3.4,0,0,1,3,1.5Zm-4.9,4.6a2.6,2.6,0,0,0,2.4,2.8,2.7,2.7,0,0,0,2.5-2.9,2.5,2.5,0,0,0-2.5-2.7A2.5,2.5,0,0,0,823.1,928.9Z" fill="#221f1c"/><path d="M847.5,924.3l-3,9.1h-2.6l-1.6-5.6-1.6,5.6h-2.6l-3-9.1h2.6l1.8,5.5,1.6-5.5h2.4l1.6,5.5,1.8-5.5Z" fill="#221f1c"/><path d="M861.9,920.3a4.9,4.9,0,0,1,3.3.8,3.4,3.4,0,0,1,1.3,2.7,3.2,3.2,0,0,1-.9,2.3,2.6,2.6,0,0,1-1.3.7,4.2,4.2,0,0,1,1.5.7,3.3,3.3,0,0,1,1,2.4,3.7,3.7,0,0,1-1.4,2.9,5.5,5.5,0,0,1-2.9.6h-4.8V920.3Zm-1.6,5.6h1.1q2.4,0,2.4-1.8a1.7,1.7,0,0,0-.8-1.5,4,4,0,0,0-1.7-.3h-1Zm0,5.5h1.4a3.4,3.4,0,0,0,1.7-.3,1.7,1.7,0,0,0,.6-1.4,1.6,1.6,0,0,0-.7-1.5c-.4-.3-.8-.3-1.8-.3h-1.2Z" fill="#221f1c"/><path d="M877.2,924.3h2.5v9.1h-2.5v-1.3a3.9,3.9,0,0,1-3.2,1.6,4.5,4.5,0,0,1-4.4-4.7,4.7,4.7,0,0,1,4.6-5,3.6,3.6,0,0,1,3,1.5Zm-4.9,4.6a2.5,2.5,0,0,0,2.4,2.8,2.7,2.7,0,0,0,2.5-2.9,2.5,2.5,0,0,0-2.5-2.7A2.5,2.5,0,0,0,872.3,928.9Z" fill="#221f1c"/><path d="M886.1,924.3v1.3a2.1,2.1,0,0,1,.8-1.2,3.3,3.3,0,0,1,1.5-.4h.3v2.6h-.6a1.7,1.7,0,0,0-1.6.9,2.4,2.4,0,0,0-.4,1.6v4.4h-2.5v-9.1Z" fill="#221f1c"/><path d="M661.4,910.9c0,.9-1.1,1.7-2.2,1.7H641.7c-1.4,0-2.3-.8-2.3-1.7s2.3-1.8,2.3-4-7-19.2-7-19.2l-3.8,2.3c-.3.2-.4.5-.4,1.1v11.3c0,4.1,4.4,6.4,4.4,8.5s-.9,1.7-2.3,1.7H614.8c-1.4,0-2.2-.8-2.2-1.7s4.4-4.4,4.4-8.5V846.5c0-4-4.4-6.4-4.4-8.5s.8-1.7,2.2-1.7h30.7c6.7,0,11,3,11,9.7v23.8c0,4.3-4.6,6.9-9.2,9.9,4.1,11.9,8.4,22.6,9.1,23.9C659.4,908.9,661.4,908.7,661.4,910.9Zm-30.9-63.5v28.4l10-6.8c2.2-1.6,2.4-2.4,2.4-3.1V848.7c0-.9-.4-1.3-1.4-1.3Z" fill="#221f1c"/><path d="M665.4,904.5v-60c0-5.4,4.2-8.2,9.6-8.2h19.9c6.1,0,10,4.2,10,8.7v58.9c0,4.2-3.8,8.7-10,8.7H675C669.5,912.6,665.4,909.7,665.4,904.5Zm14.3-3h11a.8.8,0,0,0,.7-.7V848.1a.7.7,0,0,0-.7-.7h-11a.7.7,0,0,0-.7.7v52.7A.8.8,0,0,0,679.7,901.5Z" fill="#221f1c"/><path d="M713.7,904.4V885.8a2.7,2.7,0,0,1,2.7-2.9c2,0,7.6,3.8,9.2,5s1.7,1.5,1.7,4.1v9.5h10.4v-14a3.5,3.5,0,0,0-1.8-3.2l-16.7-11.5c-2.9-2-5.5-4.1-5.5-8.6V844.1c0-5.1,4.3-7.8,9.6-7.8h16.9c6.1,0,10.1,4.1,10.1,8.3v15.7a2.8,2.8,0,0,1-2.3,3c-2.4,0-7.9-3.9-9.6-5s-1.7-1.5-1.7-4.1v-6.8h-9.4v12.5c0,1.4.3,2.2,1.9,3.4l16.9,11.6c3.3,2.2,5.2,4.3,5.2,8.6v20.9c0,4.1-4.8,8.2-9.6,8.2H723.8C717.8,912.6,713.7,908.5,713.7,904.4Z" fill="#221f1c"/><path d="M775.2,902.4c0,4.1,4.4,6.4,4.4,8.5s-.8,1.7-2.2,1.7H759.6c-1.5,0-2.3-.8-2.3-1.7s4.4-4.4,4.4-8.5V846.5c0-4-4.4-6.4-4.4-8.5s.8-1.7,2.3-1.7h17.8c1.4,0,2.2.8,2.2,1.7s-4.4,4.5-4.4,8.5Z" fill="#221f1c"/><path d="M785.9,912.6c-1.5,0-2.3-.8-2.3-1.7s4.4-4.4,4.4-8.5V846.5c0-4-4.4-6.4-4.4-8.5s.8-1.7,2.3-1.7h35.4c2.4,0,3.4,1,3.4,3.4v11.6c0,1.5-.3,2-1.1,2.6s-9.5,6.6-10.7,6.6a2,2,0,0,1-1.8-2V847.4h-8.3a1.3,1.3,0,0,0-1.3,1.2v24.8l9-5.7a5.3,5.3,0,0,1,2.7-1,2,2,0,0,1,1.9,2.2v9.3a3.3,3.3,0,0,1-1.9,3.4L801.5,889v11.3a1.2,1.2,0,0,0,1.3,1.2h8.3v-6.4c0-1.5.3-2,1.2-2.6s9.5-6.6,10.7-6.6a2,2,0,0,1,1.7,2v21.3c0,2.4-1,3.4-3.4,3.4Z" fill="#221f1c"/><path d="M828.5,859.7a2.7,2.7,0,0,1,1.7-2.4c3.1-1.8,3.3-3.4,3.3-5.2v-1.8c0-1.7-2.4-1.1-2.4-2.9v-8.6c0-1.8.7-2.5,2.4-2.5h9.1c1.7,0,2.5.7,2.5,2.5v8.4c0,7.7-7.7,14.7-14,14.7C829.3,861.9,828.5,860.9,828.5,859.7Z" fill="#221f1c"/><path d="M851,904.4V885.8a2.7,2.7,0,0,1,2.6-2.9c2,0,7.6,3.8,9.2,5s1.7,1.5,1.7,4.1v9.5H875v-14a3.6,3.6,0,0,0-1.9-3.2l-16.7-11.5c-2.9-2-5.4-4.1-5.4-8.6V844.1c0-5.1,4.2-7.8,9.6-7.8h16.9c6.1,0,10,4.1,10,8.3v15.7c0,1.8-1.2,3-2.2,3s-7.9-3.9-9.6-5-1.8-1.5-1.8-4.1v-6.8h-9.4v12.5c0,1.4.3,2.2,2,3.4l16.8,11.6c3.4,2.2,5.2,4.3,5.2,8.6v20.9c0,4.1-4.7,8.2-9.6,8.2H861C855,912.6,851,908.5,851,904.4Z" fill="#221f1c"/><path d="M832.9,725.2s8.4,32.5-11.8,36.1c-22.9,4-14.1-28.8-5.2-41.3s22.8-48-3.4-70.7c0,0,4,29.7-17.7,28.5,0,0,9.1-17.6-21.4-42.5a64.2,64.2,0,0,1-7.9-7.6,43.2,43.2,0,0,1,3.5-62.3c.7-.4,1-.6.7-.6h0a67.9,67.9,0,0,0-41.4,13.8l-1.1.8a.1.1,0,0,0-.1.1,70,70,0,0,0-26.5,47h0a19.4,19.4,0,0,0-.2,2.4,4.9,4.9,0,0,0-.1,1.2c-.1,1.6-.2,3.1-.2,4.7a70.8,70.8,0,0,0,5.5,27.3l.9,2.4s4.3,10.6,1.1,18.8a14.1,14.1,0,0,1-26.2.1c-4.4-9.3-4.4-24.2,7-35.6,0,0-46.2,11-33.3,56,4.9,17.1,10.4,11.4,15.8,32,1,3.8,4.9,7.8,24.3-4.5s18.2-11.7,30.8-9.3,17.4-3.3,17.4-3.3-8.2,26.9-17.4,28.4c0,0,20.3,1,21.4,19.5.5,7.8.6,13.7,26.4,17,4.4.5,12.9,0,8.5,15.8s-12.6,17-12.6,17,29.2,7.9,63-19.8A45.9,45.9,0,0,0,832.9,725.2Z" fill="#221f1c"/><rect y="500" width="500" height="500" fill="#221f1c"/><path d="M114.7,929.6h0a1.8,1.8,0,0,0,3.5.2,1.4,1.4,0,0,0-.6-1.1l-1.5-.7c-2.9-1-3.9-2.1-3.9-4.1s1.7-3.9,4.3-3.9a4,4,0,0,1,4.4,4h-2.7a1.6,1.6,0,0,0-1.7-1.7,1.4,1.4,0,0,0-1.6,1.4,1.2,1.2,0,0,0,.8,1.2l1.5.7a7.2,7.2,0,0,1,2.7,1.4,3.6,3.6,0,0,1,1.1,2.6c0,2.4-1.8,4-4.5,4s-4.5-1.6-4.5-4.1Z" fill="#fff"/><path d="M133.7,928.9a4.8,4.8,0,0,1-4.9,4.8,4.9,4.9,0,1,1,0-9.7A4.7,4.7,0,0,1,133.7,928.9Zm-7.3,0a2.4,2.4,0,1,0,2.4-2.7A2.5,2.5,0,0,0,126.4,928.9Z" fill="#fff"/><path d="M144.9,924.3v5.8a3.1,3.1,0,0,1-1.1,2.7,4.4,4.4,0,0,1-2.9.9,4.5,4.5,0,0,1-3.1-1,3.4,3.4,0,0,1-.9-2.6v-5.8h2.5v5.6a1.5,1.5,0,0,0,1.5,1.7,1.4,1.4,0,0,0,1.5-1.5v-5.8Z" fill="#fff"/><path d="M151.2,930.7c0,.5.2.6.7.6h.5v2.1h-2c-1.2,0-1.7-.5-1.7-1.7v-5.3h-1v-2.1h1v-2.5h2.5v2.5h1.2v2.1h-1.2Z" fill="#fff"/><path d="M158.2,925.3a3.1,3.1,0,0,1,2.5-1.3,3.3,3.3,0,0,1,2.2.8,3.3,3.3,0,0,1,.8,2.6v6h-2.5v-5.6c0-1.1-.5-1.7-1.3-1.7a2.1,2.1,0,0,0-1.2.4,1.8,1.8,0,0,0-.5,1.5v5.4h-2.5V920.3h2.5Z" fill="#fff"/><path d="M169.6,929.5a2.3,2.3,0,0,0,2.4,2,2.4,2.4,0,0,0,2.1-1.2l2.3.6a4.8,4.8,0,0,1-4.5,2.8,4.7,4.7,0,0,1-4.9-4.9,4.6,4.6,0,0,1,4.8-4.8,4.7,4.7,0,0,1,4.9,5v.5Zm4.5-1.5a2.1,2.1,0,0,0-2.3-1.9,2.1,2.1,0,0,0-2.2,1.9Z" fill="#fff"/><path d="M182.5,924.3v1.3a2.1,2.1,0,0,1,.8-1.2,3.3,3.3,0,0,1,1.4-.4h.3v2.6h-.5a2,2,0,0,0-1.7.9c-.3.4-.3.8-.3,1.6v4.4H180v-9.1Z" fill="#fff"/><path d="M190.3,924.3v1.1a2.8,2.8,0,0,1,2.5-1.4,3.6,3.6,0,0,1,2.3.8,4.1,4.1,0,0,1,.8,2.8v5.8h-2.5v-5.6a3.1,3.1,0,0,0-.2-1.1,1.6,1.6,0,0,0-1.2-.6,1.7,1.7,0,0,0-1.7,1.8v5.5h-2.4v-9.1Z" fill="#fff"/><path d="M209.9,933.4h-2.7V920.3h2.7V926l3.7-5.7h3.2l-4.3,6.3,4.3,6.8h-3.2l-3.7-5.8Z" fill="#fff"/><path d="M222.2,921.7a1.4,1.4,0,1,1-1.4-1.4A1.4,1.4,0,0,1,222.2,921.7Zm-.1,11.7h-2.5v-9.1h2.5Z" fill="#fff"/><path d="M228.6,930.7c0,.5.2.6.7.6h.5v2.1h-2c-1.2,0-1.7-.5-1.7-1.7v-5.3h-1v-2.1h1v-2.5h2.5v2.5h1.2v2.1h-1.2Z" fill="#fff"/><path d="M240.7,932.4a5.3,5.3,0,0,1-3.5,1.3,4.9,4.9,0,0,1,0-9.7,5.3,5.3,0,0,1,3.6,1.5l-1.6,1.5a2.9,2.9,0,0,0-1.9-.8,2.4,2.4,0,0,0-2.4,2.6,2.5,2.5,0,0,0,2.5,2.7,2.6,2.6,0,0,0,1.8-.8Z" fill="#fff"/><path d="M246,925.3a3,3,0,0,1,5.5,2.1v6H249v-5.6c0-1.1-.5-1.7-1.3-1.7a1.6,1.6,0,0,0-1.1.4,1.9,1.9,0,0,0-.6,1.5v5.4h-2.4V920.3H246Z" fill="#fff"/><path d="M256.7,929.5a2.3,2.3,0,0,0,2.4,2,2.4,2.4,0,0,0,2.1-1.2l2.2.6a4.9,4.9,0,0,1-9.3-2.1,4.6,4.6,0,0,1,4.8-4.8,4.7,4.7,0,0,1,4.9,5v.5Zm4.5-1.5a2.1,2.1,0,0,0-2.3-1.9,2.1,2.1,0,0,0-2.2,1.9Z" fill="#fff"/><path d="M268.8,924.3v1.1a2.8,2.8,0,0,1,2.5-1.4,3.1,3.1,0,0,1,2.2.8,3.6,3.6,0,0,1,.8,2.8v5.8h-2.5v-5.6a1.8,1.8,0,0,0-.2-1.1,1.3,1.3,0,0,0-1.2-.6,1.6,1.6,0,0,0-1.6,1.8v5.5h-2.5v-9.1Z" fill="#fff"/><path d="M298,933.4h-2.9l-1-1.3a5.9,5.9,0,0,1-3.7,1.6,3.7,3.7,0,0,1-3.9-3.7c0-1.7.7-2.6,2.9-4a4,4,0,0,1-1.1-2.7c0-1.6,1.4-2.8,3.3-2.8a3,3,0,0,1,3.2,2.8,3.4,3.4,0,0,1-.8,2,6,6,0,0,1-1.4,1.2l1.8,2.4a11.9,11.9,0,0,0,1.9-2l1.7,1.5a22.8,22.8,0,0,1-2.2,2.2Zm-7.4-5.7c-1.2.8-1.6,1.3-1.6,2.1a1.8,1.8,0,0,0,1.7,1.7,3.1,3.1,0,0,0,2-1.1Zm1.9-4.4a.9.9,0,0,0-.9-.9,1,1,0,0,0-1,.9c0,.5.2.8.7,1.5S292.5,923.9,292.5,923.3Z" fill="#fff"/><path d="M311.2,933.4h-2.7V920.3h4c3.3,0,5,1.4,5,4.1a3.7,3.7,0,0,1-3.1,4l3.6,5h-3.2l-3.6-5.2Zm1.2-6.8c1.5,0,2.4-.7,2.4-2a2,2,0,0,0-2.2-2.1h-1.4v4.1Z" fill="#fff"/><path d="M328,924.3h2.5v9.1H328v-1.3a3.8,3.8,0,0,1-3.2,1.6c-2.5,0-4.3-2-4.3-4.7s1.9-5,4.5-5a3.4,3.4,0,0,1,3,1.5Zm-4.9,4.6a2.6,2.6,0,0,0,2.4,2.8,2.7,2.7,0,0,0,2.5-2.9,2.5,2.5,0,0,0-2.5-2.7A2.5,2.5,0,0,0,323.1,928.9Z" fill="#fff"/><path d="M347.5,924.3l-3,9.1h-2.6l-1.6-5.6-1.6,5.6h-2.6l-3-9.1h2.6l1.8,5.5,1.6-5.5h2.4l1.6,5.5,1.8-5.5Z" fill="#fff"/><path d="M361.9,920.3a4.9,4.9,0,0,1,3.3.8,3.4,3.4,0,0,1,1.3,2.7,3.2,3.2,0,0,1-.9,2.3,2.6,2.6,0,0,1-1.3.7,4.2,4.2,0,0,1,1.5.7,3.3,3.3,0,0,1,1,2.4,3.7,3.7,0,0,1-1.4,2.9,5.5,5.5,0,0,1-2.9.6h-4.8V920.3Zm-1.6,5.6h1.1q2.4,0,2.4-1.8a1.7,1.7,0,0,0-.8-1.5,4,4,0,0,0-1.7-.3h-1Zm0,5.5h1.4a3.4,3.4,0,0,0,1.7-.3,1.7,1.7,0,0,0,.6-1.4,1.6,1.6,0,0,0-.7-1.5c-.4-.3-.8-.3-1.8-.3h-1.2Z" fill="#fff"/><path d="M377.2,924.3h2.5v9.1h-2.5v-1.3a3.9,3.9,0,0,1-3.2,1.6,4.5,4.5,0,0,1-4.4-4.7,4.7,4.7,0,0,1,4.6-5,3.6,3.6,0,0,1,3,1.5Zm-4.9,4.6a2.5,2.5,0,0,0,2.4,2.8,2.7,2.7,0,0,0,2.5-2.9,2.5,2.5,0,0,0-2.5-2.7A2.5,2.5,0,0,0,372.3,928.9Z" fill="#fff"/><path d="M386.1,924.3v1.3a2.1,2.1,0,0,1,.8-1.2,3.3,3.3,0,0,1,1.5-.4h.3v2.6h-.6a1.7,1.7,0,0,0-1.6.9,2.4,2.4,0,0,0-.4,1.6v4.4h-2.5v-9.1Z" fill="#fff"/><path d="M161.4,910.9c0,.9-1.1,1.7-2.2,1.7H141.7c-1.4,0-2.3-.8-2.3-1.7s2.3-1.8,2.3-4-7-19.2-7-19.2l-3.8,2.3c-.3.2-.4.5-.4,1.1v11.3c0,4.1,4.4,6.4,4.4,8.5s-.9,1.7-2.3,1.7H114.8c-1.4,0-2.2-.8-2.2-1.7s4.4-4.4,4.4-8.5V846.5c0-4-4.4-6.4-4.4-8.5s.8-1.7,2.2-1.7h30.7c6.7,0,11,3,11,9.7v23.8c0,4.3-4.6,6.9-9.2,9.9,4.1,11.9,8.4,22.6,9.1,23.9C159.4,908.9,161.4,908.7,161.4,910.9Zm-30.9-63.5v28.4l10-6.8c2.2-1.6,2.4-2.4,2.4-3.1V848.7c0-.9-.4-1.3-1.4-1.3Z" fill="#fff"/><path d="M165.4,904.5v-60c0-5.4,4.2-8.2,9.6-8.2h19.9c6.1,0,10,4.2,10,8.7v58.9c0,4.2-3.8,8.7-10,8.7H175C169.5,912.6,165.4,909.7,165.4,904.5Zm14.3-3h11a.8.8,0,0,0,.7-.7V848.1a.7.7,0,0,0-.7-.7h-11a.7.7,0,0,0-.7.7v52.7A.8.8,0,0,0,179.7,901.5Z" fill="#fff"/><path d="M213.7,904.4V885.8a2.7,2.7,0,0,1,2.7-2.9c2,0,7.6,3.8,9.2,5s1.7,1.5,1.7,4.1v9.5h10.4v-14a3.5,3.5,0,0,0-1.8-3.2l-16.7-11.5c-2.9-2-5.5-4.1-5.5-8.6V844.1c0-5.1,4.3-7.8,9.6-7.8h16.9c6.1,0,10.1,4.1,10.1,8.3v15.7a2.8,2.8,0,0,1-2.3,3c-2.4,0-7.9-3.9-9.6-5s-1.7-1.5-1.7-4.1v-6.8h-9.4v12.5c0,1.4.3,2.2,1.9,3.4l16.9,11.6c3.3,2.2,5.2,4.3,5.2,8.6v20.9c0,4.1-4.8,8.2-9.6,8.2H223.8C217.8,912.6,213.7,908.5,213.7,904.4Z" fill="#fff"/><path d="M275.2,902.4c0,4.1,4.4,6.4,4.4,8.5s-.8,1.7-2.2,1.7H259.6c-1.5,0-2.3-.8-2.3-1.7s4.4-4.4,4.4-8.5V846.5c0-4-4.4-6.4-4.4-8.5s.8-1.7,2.3-1.7h17.8c1.4,0,2.2.8,2.2,1.7s-4.4,4.5-4.4,8.5Z" fill="#fff"/><path d="M285.9,912.6c-1.5,0-2.3-.8-2.3-1.7s4.4-4.4,4.4-8.5V846.5c0-4-4.4-6.4-4.4-8.5s.8-1.7,2.3-1.7h35.4c2.4,0,3.4,1,3.4,3.4v11.6c0,1.5-.3,2-1.1,2.6s-9.5,6.6-10.7,6.6a2,2,0,0,1-1.8-2V847.4h-8.3a1.3,1.3,0,0,0-1.3,1.2v24.8l9-5.7a5.3,5.3,0,0,1,2.7-1,2,2,0,0,1,1.9,2.2v9.3a3.3,3.3,0,0,1-1.9,3.4L301.5,889v11.3a1.2,1.2,0,0,0,1.3,1.2h8.3v-6.4c0-1.5.3-2,1.2-2.6s9.5-6.6,10.7-6.6a2,2,0,0,1,1.7,2v21.3c0,2.4-1,3.4-3.4,3.4Z" fill="#fff"/><path d="M328.5,859.7a2.7,2.7,0,0,1,1.7-2.4c3.1-1.8,3.3-3.4,3.3-5.2v-1.8c0-1.7-2.4-1.1-2.4-2.9v-8.6c0-1.8.7-2.5,2.4-2.5h9.1c1.7,0,2.5.7,2.5,2.5v8.4c0,7.7-7.7,14.7-14,14.7C329.3,861.9,328.5,860.9,328.5,859.7Z" fill="#fff"/><path d="M351,904.4V885.8a2.7,2.7,0,0,1,2.6-2.9c2,0,7.6,3.8,9.2,5s1.7,1.5,1.7,4.1v9.5H375v-14a3.6,3.6,0,0,0-1.9-3.2l-16.7-11.5c-2.9-2-5.4-4.1-5.4-8.6V844.1c0-5.1,4.2-7.8,9.6-7.8h16.9c6.1,0,10,4.1,10,8.3v15.7c0,1.8-1.2,3-2.2,3s-7.9-3.9-9.6-5-1.8-1.5-1.8-4.1v-6.8h-9.4v12.5c0,1.4.3,2.2,2,3.4l16.8,11.6c3.4,2.2,5.2,4.3,5.2,8.6v20.9c0,4.1-4.7,8.2-9.6,8.2H361C355,912.6,351,908.5,351,904.4Z" fill="#fff"/><path d="M332.9,725.2s8.4,32.5-11.8,36.1c-22.9,4-14.1-28.8-5.2-41.3s22.8-48-3.4-70.7c0,0,4,29.7-17.7,28.5,0,0,9.1-17.6-21.4-42.5a64.2,64.2,0,0,1-7.9-7.6,43.2,43.2,0,0,1,3.5-62.3c.7-.4,1-.6.7-.6h0a67.9,67.9,0,0,0-41.4,13.8l-1.1.8a.1.1,0,0,0-.1.1,70,70,0,0,0-26.5,47h0a19.4,19.4,0,0,0-.2,2.4,4.9,4.9,0,0,0-.1,1.2c-.1,1.6-.2,3.1-.2,4.7a70.8,70.8,0,0,0,5.5,27.3l.9,2.4s4.3,10.6,1.1,18.8a14.1,14.1,0,0,1-26.2.1c-4.4-9.3-4.4-24.2,7-35.6,0,0-46.2,11-33.3,56,4.9,17.1,10.4,11.4,15.8,32,1,3.8,4.9,7.8,24.3-4.5s18.2-11.7,30.8-9.3,17.4-3.3,17.4-3.3-8.2,26.9-17.4,28.4c0,0,20.3,1,21.4,19.5.5,7.8.6,13.7,26.4,17,4.4.5,12.9,0,8.5,15.8s-12.6,17-12.6,17,29.2,7.9,63-19.8A45.9,45.9,0,0,0,332.9,725.2Z" fill="#fff"/></svg>