<svg xmlns="http://www.w3.org/2000/svg" width="1000" height="1000" viewBox="0 0 1000 1000"><path fill="#221f1c" d="M114.7 429.6a1.8 1.8 0 0 0 3.5.2 1.4 1.4 0 0 0-.6-1.1l-1.5-.7c-2.9-1-3.9-2.1-3.9-4.1s1.7-3.9 4.3-3.9a4 4 0 0 1 4.4 4h-2.7a1.6 1.6 0 0 0-1.7-1.7 1.4 1.4 0 0 0-1.6 1.4 1.2 1.2 0 0 0 .8 1.2l1.5.7a7.2 7.2 0 0 1 2.7 1.4 3.6 3.6 0 0 1 1.1 2.6c0 2.4-1.8 4-4.5 4s-4.5-1.6-4.5-4.1zm19-.7a4.8 4.8 0 0 1-4.9 4.8 4.9 4.9 0 1 1 0-9.7 4.7 4.7 0 0 1 4.9 4.9zm-7.3 0a2.4 2.4 0 1 0 2.4-2.7 2.5 2.5 0 0 0-2.4 2.7zm18.5-4.6v5.8a3.1 3.1 0 0 1-1.1 2.7 4.4 4.4 0 0 1-2.9.9 4.5 4.5 0 0 1-3.1-1 3.4 3.4 0 0 1-.9-2.6v-5.8h2.5v5.6a1.5 1.5 0 0 0 1.5 1.7 1.4 1.4 0 0 0 1.5-1.5v-5.8zm6.3 6.4c0 .5.2.6.7.6h.5v2.1h-2c-1.2 0-1.7-.5-1.7-1.7v-5.3h-1v-2.1h1v-2.5h2.5v2.5h1.2v2.1h-1.2zm7-5.4a3.1 3.1 0 0 1 2.5-1.3 3.3 3.3 0 0 1 2.2.8 3.3 3.3 0 0 1 .8 2.6v6h-2.5v-5.6c0-1.1-.5-1.7-1.3-1.7a2.1 2.1 0 0 0-1.2.4 1.8 1.8 0 0 0-.5 1.5v5.4h-2.5v-13.1h2.5zm11.4 4.2a2.3 2.3 0 0 0 2.4 2 2.4 2.4 0 0 0 2.1-1.2l2.3.6a4.8 4.8 0 0 1-4.5 2.8 4.7 4.7 0 0 1-4.9-4.9 4.6 4.6 0 0 1 4.8-4.8 4.7 4.7 0 0 1 4.9 5v.5zm4.5-1.5a2.1 2.1 0 0 0-2.3-1.9 2.1 2.1 0 0 0-2.2 1.9zm8.4-3.7v1.3a2.1 2.1 0 0 1 .8-1.2 3.3 3.3 0 0 1 1.4-.4h.3v2.6h-.5a2 2 0 0 0-1.7.9c-.3.4-.3.8-.3 1.6v4.4H180v-9.1zm7.8 0v1.1a2.8 2.8 0 0 1 2.5-1.4 3.6 3.6 0 0 1 2.3.8 4.1 4.1 0 0 1 .8 2.8v5.8h-2.5v-5.6a3.1 3.1 0 0 0-.2-1.1 1.6 1.6 0 0 0-1.2-.6 1.7 1.7 0 0 0-1.7 1.8v5.5h-2.4v-9.1zm19.6 9.1h-2.7v-13.1h2.7v5.7l3.7-5.7h3.2l-4.3 6.3 4.3 6.8h-3.2l-3.7-5.8zm12.3-11.7a1.4 1.4 0 1 1-1.4-1.4 1.4 1.4 0 0 1 1.4 1.4zm-.1 11.7h-2.5v-9.1h2.5zm6.5-2.7c0 .5.2.6.7.6h.5v2.1h-2c-1.2 0-1.7-.5-1.7-1.7v-5.3h-1v-2.1h1v-2.5h2.5v2.5h1.2v2.1h-1.2zm12.1 1.7a5.3 5.3 0 0 1-3.5 1.3 4.9 4.9 0 0 1 0-9.7 5.3 5.3 0 0 1 3.6 1.5l-1.6 1.5a2.9 2.9 0 0 0-1.9-.8 2.4 2.4 0 0 0-2.4 2.6 2.5 2.5 0 0 0 2.5 2.7 2.6 2.6 0 0 0 1.8-.8zm5.3-7.1a3 3 0 0 1 5.5 2.1v6H249v-5.6c0-1.1-.5-1.7-1.3-1.7a1.6 1.6 0 0 0-1.1.4 1.9 1.9 0 0 0-.6 1.5v5.4h-2.4v-13.1h2.4zm10.7 4.2a2.3 2.3 0 0 0 2.4 2 2.4 2.4 0 0 0 2.1-1.2l2.2.6a4.9 4.9 0 0 1-9.3-2.1 4.6 4.6 0 0 1 4.8-4.8 4.7 4.7 0 0 1 4.9 5v.5zm4.5-1.5a2.1 2.1 0 0 0-2.3-1.9 2.1 2.1 0 0 0-2.2 1.9zm7.6-3.7v1.1a2.8 2.8 0 0 1 2.5-1.4 3.1 3.1 0 0 1 2.2.8 3.6 3.6 0 0 1 .8 2.8v5.8h-2.5v-5.6a1.8 1.8 0 0 0-.2-1.1 1.3 1.3 0 0 0-1.2-.6 1.6 1.6 0 0 0-1.6 1.8v5.5h-2.5v-9.1zm29.2 9.1h-2.9l-1-1.3a5.9 5.9 0 0 1-3.7 1.6 3.7 3.7 0 0 1-3.9-3.7c0-1.7.7-2.6 2.9-4a4 4 0 0 1-1.1-2.7c0-1.6 1.4-2.8 3.3-2.8a3 3 0 0 1 3.2 2.8 3.4 3.4 0 0 1-.8 2 6 6 0 0 1-1.4 1.2l1.8 2.4a11.9 11.9 0 0 0 1.9-2l1.7 1.5a22.8 22.8 0 0 1-2.2 2.2zm-7.4-5.7c-1.2.8-1.6 1.3-1.6 2.1a1.8 1.8 0 0 0 1.7 1.7 3.1 3.1 0 0 0 2-1.1zm1.9-4.4a.9.9 0 0 0-.9-.9 1 1 0 0 0-1 .9c0 .5.2.8.7 1.5s1.2-.9 1.2-1.5zm18.7 10.1h-2.7v-13.1h4c3.3 0 5 1.4 5 4.1a3.7 3.7 0 0 1-3.1 4l3.6 5h-3.2l-3.6-5.2zm1.2-6.8c1.5 0 2.4-.7 2.4-2a2 2 0 0 0-2.2-2.1h-1.4v4.1zm15.6-2.3h2.5v9.1H328v-1.3a3.8 3.8 0 0 1-3.2 1.6c-2.5 0-4.3-2-4.3-4.7s1.9-5 4.5-5a3.4 3.4 0 0 1 3 1.5zm-4.9 4.6a2.6 2.6 0 0 0 2.4 2.8 2.7 2.7 0 0 0 2.5-2.9 2.5 2.5 0 0 0-2.5-2.7 2.5 2.5 0 0 0-2.4 2.8zm24.4-4.6l-3 9.1h-2.6l-1.6-5.6-1.6 5.6h-2.6l-3-9.1h2.6l1.8 5.5 1.6-5.5h2.4l1.6 5.5 1.8-5.5zm14.4-4a4.9 4.9 0 0 1 3.3.8 3.4 3.4 0 0 1 1.3 2.7 3.2 3.2 0 0 1-.9 2.3 2.6 2.6 0 0 1-1.3.7 4.2 4.2 0 0 1 1.5.7 3.3 3.3 0 0 1 1 2.4 3.7 3.7 0 0 1-1.4 2.9 5.5 5.5 0 0 1-2.9.6h-4.8v-13.1zm-1.6 5.6h1.1q2.4 0 2.4-1.8a1.7 1.7 0 0 0-.8-1.5 4 4 0 0 0-1.7-.3h-1zm0 5.5h1.4a3.4 3.4 0 0 0 1.7-.3 1.7 1.7 0 0 0 .6-1.4 1.6 1.6 0 0 0-.7-1.5c-.4-.3-.8-.3-1.8-.3h-1.2zm16.9-7.1h2.5v9.1h-2.5v-1.3a3.9 3.9 0 0 1-3.2 1.6 4.5 4.5 0 0 1-4.4-4.7 4.7 4.7 0 0 1 4.6-5 3.6 3.6 0 0 1 3 1.5zm-4.9 4.6a2.5 2.5 0 0 0 2.4 2.8 2.7 2.7 0 0 0 2.5-2.9 2.5 2.5 0 0 0-2.5-2.7 2.5 2.5 0 0 0-2.4 2.8zm13.8-4.6v1.3a2.1 2.1 0 0 1 .8-1.2 3.3 3.3 0 0 1 1.5-.4h.3v2.6h-.6a1.7 1.7 0 0 0-1.6.9 2.4 2.4 0 0 0-.4 1.6v4.4h-2.5v-9.1zm-224.7-13.4c0 .9-1.1 1.7-2.2 1.7h-17.5c-1.4 0-2.3-.8-2.3-1.7s2.3-1.8 2.3-4-7-19.2-7-19.2l-3.8 2.3c-.3.2-.4.5-.4 1.1v11.3c0 4.1 4.4 6.4 4.4 8.5s-.9 1.7-2.3 1.7h-17.8c-1.4 0-2.2-.8-2.2-1.7s4.4-4.4 4.4-8.5v-55.9c0-4-4.4-6.4-4.4-8.5s.8-1.7 2.2-1.7h30.7c6.7 0 11 3 11 9.7v23.8c0 4.3-4.6 6.9-9.2 9.9 4.1 11.9 8.4 22.6 9.1 23.9 3 5.3 5 5.1 5 7.3zm-30.9-63.5v28.4l10-6.8c2.2-1.6 2.4-2.4 2.4-3.1v-17.2c0-.9-.4-1.3-1.4-1.3zm34.9 57.1v-60c0-5.4 4.2-8.2 9.6-8.2h19.9c6.1 0 10 4.2 10 8.7v58.9c0 4.2-3.8 8.7-10 8.7H175c-5.5 0-9.6-2.9-9.6-8.1zm14.3-3h11a.8.8 0 0 0 .7-.7v-52.7a.7.7 0 0 0-.7-.7h-11a.7.7 0 0 0-.7.7v52.7a.8.8 0 0 0 .7.7zm34 2.9v-18.6a2.7 2.7 0 0 1 2.7-2.9c2 0 7.6 3.8 9.2 5s1.7 1.5 1.7 4.1v9.5h10.4v-14a3.5 3.5 0 0 0-1.8-3.2l-16.7-11.5c-2.9-2-5.5-4.1-5.5-8.6v-20.1c0-5.1 4.3-7.8 9.6-7.8h16.9c6.1 0 10.1 4.1 10.1 8.3v15.7a2.8 2.8 0 0 1-2.3 3c-2.4 0-7.9-3.9-9.6-5s-1.7-1.5-1.7-4.1v-6.8h-9.4v12.5c0 1.4.3 2.2 1.9 3.4l16.9 11.6c3.3 2.2 5.2 4.3 5.2 8.6v20.9c0 4.1-4.8 8.2-9.6 8.2h-17.9c-6 0-10.1-4.1-10.1-8.2zm61.5-2c0 4.1 4.4 6.4 4.4 8.5s-.8 1.7-2.2 1.7h-17.8c-1.5 0-2.3-.8-2.3-1.7s4.4-4.4 4.4-8.5v-55.9c0-4-4.4-6.4-4.4-8.5s.8-1.7 2.3-1.7h17.8c1.4 0 2.2.8 2.2 1.7s-4.4 4.5-4.4 8.5zm10.7 10.2c-1.5 0-2.3-.8-2.3-1.7s4.4-4.4 4.4-8.5v-55.9c0-4-4.4-6.4-4.4-8.5s.8-1.7 2.3-1.7h35.4c2.4 0 3.4 1 3.4 3.4v11.6c0 1.5-.3 2-1.1 2.6s-9.5 6.6-10.7 6.6a2 2 0 0 1-1.8-2v-11.1h-8.3a1.3 1.3 0 0 0-1.3 1.2v24.8l9-5.7a5.3 5.3 0 0 1 2.7-1 2 2 0 0 1 1.9 2.2v9.3a3.3 3.3 0 0 1-1.9 3.4l-11.7 7.4v11.3a1.2 1.2 0 0 0 1.3 1.2h8.3v-6.4c0-1.5.3-2 1.2-2.6s9.5-6.6 10.7-6.6a2 2 0 0 1 1.7 2v21.3c0 2.4-1 3.4-3.4 3.4zm42.6-52.9a2.7 2.7 0 0 1 1.7-2.4c3.1-1.8 3.3-3.4 3.3-5.2v-1.8c0-1.7-2.4-1.1-2.4-2.9v-8.6c0-1.8.7-2.5 2.4-2.5h9.1c1.7 0 2.5.7 2.5 2.5v8.4c0 7.7-7.7 14.7-14 14.7-1.8 0-2.6-1-2.6-2.2zm22.5 44.7v-18.6a2.7 2.7 0 0 1 2.6-2.9c2 0 7.6 3.8 9.2 5s1.7 1.5 1.7 4.1v9.5H375v-14a3.6 3.6 0 0 0-1.9-3.2l-16.7-11.5c-2.9-2-5.4-4.1-5.4-8.6v-20.1c0-5.1 4.2-7.8 9.6-7.8h16.9c6.1 0 10 4.1 10 8.3v15.7c0 1.8-1.2 3-2.2 3s-7.9-3.9-9.6-5-1.8-1.5-1.8-4.1v-6.8h-9.4v12.5c0 1.4.3 2.2 2 3.4l16.8 11.6c3.4 2.2 5.2 4.3 5.2 8.6v20.9c0 4.1-4.7 8.2-9.6 8.2H361c-6 0-10-4.1-10-8.2z"/><path fill="#dc263f" d="M332.9 225.2s8.4 32.5-11.8 36.1c-22.9 4-14.1-28.8-5.2-41.3s22.8-48-3.4-70.7c0 0 4 29.7-17.7 28.5 0 0 9.1-17.6-21.4-42.5a64.2 64.2 0 0 1-7.9-7.6 43.2 43.2 0 0 1 3.5-62.3c.7-.4 1-.6.7-.6a67.9 67.9 0 0 0-41.4 13.8l-1.1.8h-.1a70 70 0 0 0-26.5 47 19.4 19.4 0 0 0-.2 2.4 4.9 4.9 0 0 0-.1 1.2c-.1 1.6-.2 3.1-.2 4.7a70.8 70.8 0 0 0 5.5 27.3l.9 2.4s4.3 10.6 1.1 18.8a14.1 14.1 0 0 1-26.2.1c-4.4-9.3-4.4-24.2 7-35.6 0 0-46.2 11-33.3 56 4.9 17.1 10.4 11.4 15.8 32 1 3.8 4.9 7.8 24.3-4.5s18.2-11.7 30.8-9.3 17.4-3.3 17.4-3.3-8.2 26.9-17.4 28.4c0 0 20.3 1 21.4 19.5.5 7.8.6 13.7 26.4 17 4.4.5 12.9 0 8.5 15.8s-12.6 17-12.6 17 29.2 7.9 63-19.8a45.9 45.9 0 0 0 .2-71.3zM500 0h500v500H500z"/><path fill="#fff" d="M614.7 429.6a1.8 1.8 0 0 0 3.5.2 1.4 1.4 0 0 0-.6-1.1l-1.5-.7c-2.9-1-3.9-2.1-3.9-4.1s1.7-3.9 4.3-3.9a4 4 0 0 1 4.4 4h-2.7a1.6 1.6 0 0 0-1.7-1.7 1.4 1.4 0 0 0-1.6 1.4 1.2 1.2 0 0 0 .8 1.2l1.5.7a7.2 7.2 0 0 1 2.7 1.4 3.6 3.6 0 0 1 1.1 2.6c0 2.4-1.8 4-4.5 4s-4.5-1.6-4.5-4.1zm19-.7a4.8 4.8 0 0 1-4.9 4.8 4.9 4.9 0 1 1 0-9.7 4.7 4.7 0 0 1 4.9 4.9zm-7.3 0a2.4 2.4 0 1 0 2.4-2.7 2.5 2.5 0 0 0-2.4 2.7zm18.5-4.6v5.8a3.1 3.1 0 0 1-1.1 2.7 4.4 4.4 0 0 1-2.9.9 4.5 4.5 0 0 1-3.1-1 3.4 3.4 0 0 1-.9-2.6v-5.8h2.5v5.6a1.5 1.5 0 0 0 1.5 1.7 1.4 1.4 0 0 0 1.5-1.5v-5.8zm6.3 6.4c0 .5.2.6.7.6h.5v2.1h-2c-1.2 0-1.7-.5-1.7-1.7v-5.3h-1v-2.1h1v-2.5h2.5v2.5h1.2v2.1h-1.2zm7-5.4a3.1 3.1 0 0 1 2.5-1.3 3.3 3.3 0 0 1 2.2.8 3.3 3.3 0 0 1 .8 2.6v6h-2.5v-5.6c0-1.1-.5-1.7-1.3-1.7a2.1 2.1 0 0 0-1.2.4 1.8 1.8 0 0 0-.5 1.5v5.4h-2.5v-13.1h2.5zm11.4 4.2a2.3 2.3 0 0 0 2.4 2 2.4 2.4 0 0 0 2.1-1.2l2.3.6a4.8 4.8 0 0 1-4.5 2.8 4.7 4.7 0 0 1-4.9-4.9 4.6 4.6 0 0 1 4.8-4.8 4.7 4.7 0 0 1 4.9 5v.5zm4.5-1.5a2.1 2.1 0 0 0-2.3-1.9 2.1 2.1 0 0 0-2.2 1.9zm8.4-3.7v1.3a2.1 2.1 0 0 1 .8-1.2 3.3 3.3 0 0 1 1.4-.4h.3v2.6h-.5a2 2 0 0 0-1.7.9c-.3.4-.3.8-.3 1.6v4.4H680v-9.1zm7.8 0v1.1a2.8 2.8 0 0 1 2.5-1.4 3.6 3.6 0 0 1 2.3.8 4.1 4.1 0 0 1 .8 2.8v5.8h-2.5v-5.6a3.1 3.1 0 0 0-.2-1.1 1.6 1.6 0 0 0-1.2-.6 1.7 1.7 0 0 0-1.7 1.8v5.5h-2.4v-9.1zm19.6 9.1h-2.7v-13.1h2.7v5.7l3.7-5.7h3.2l-4.3 6.3 4.3 6.8h-3.2l-3.7-5.8zm12.3-11.7a1.4 1.4 0 1 1-1.4-1.4 1.4 1.4 0 0 1 1.4 1.4zm-.1 11.7h-2.5v-9.1h2.5zm6.5-2.7c0 .5.2.6.7.6h.5v2.1h-2c-1.2 0-1.7-.5-1.7-1.7v-5.3h-1v-2.1h1v-2.5h2.5v2.5h1.2v2.1h-1.2zm12.1 1.7a5.3 5.3 0 0 1-3.5 1.3 4.9 4.9 0 0 1 0-9.7 5.3 5.3 0 0 1 3.6 1.5l-1.6 1.5a2.9 2.9 0 0 0-1.9-.8 2.4 2.4 0 0 0-2.4 2.6 2.5 2.5 0 0 0 2.5 2.7 2.6 2.6 0 0 0 1.8-.8zm5.3-7.1a3 3 0 0 1 5.5 2.1v6H749v-5.6c0-1.1-.5-1.7-1.3-1.7a1.6 1.6 0 0 0-1.1.4 1.9 1.9 0 0 0-.6 1.5v5.4h-2.4v-13.1h2.4zm10.7 4.2a2.3 2.3 0 0 0 2.4 2 2.4 2.4 0 0 0 2.1-1.2l2.2.6a4.9 4.9 0 0 1-9.3-2.1 4.6 4.6 0 0 1 4.8-4.8 4.7 4.7 0 0 1 4.9 5v.5zm4.5-1.5a2.1 2.1 0 0 0-2.3-1.9 2.1 2.1 0 0 0-2.2 1.9zm7.6-3.7v1.1a2.8 2.8 0 0 1 2.5-1.4 3.1 3.1 0 0 1 2.2.8 3.6 3.6 0 0 1 .8 2.8v5.8h-2.5v-5.6a1.8 1.8 0 0 0-.2-1.1 1.3 1.3 0 0 0-1.2-.6 1.6 1.6 0 0 0-1.6 1.8v5.5h-2.5v-9.1zm29.2 9.1h-2.9l-1-1.3a5.9 5.9 0 0 1-3.7 1.6 3.7 3.7 0 0 1-3.9-3.7c0-1.7.7-2.6 2.9-4a4 4 0 0 1-1.1-2.7c0-1.6 1.4-2.8 3.3-2.8a3 3 0 0 1 3.2 2.8 3.4 3.4 0 0 1-.8 2 6 6 0 0 1-1.4 1.2l1.8 2.4a11.9 11.9 0 0 0 1.9-2l1.7 1.5a22.8 22.8 0 0 1-2.2 2.2zm-7.4-5.7c-1.2.8-1.6 1.3-1.6 2.1a1.8 1.8 0 0 0 1.7 1.7 3.1 3.1 0 0 0 2-1.1zm1.9-4.4a.9.9 0 0 0-.9-.9 1 1 0 0 0-1 .9c0 .5.2.8.7 1.5s1.2-.9 1.2-1.5zm18.7 10.1h-2.7v-13.1h4c3.3 0 5 1.4 5 4.1a3.7 3.7 0 0 1-3.1 4l3.6 5h-3.2l-3.6-5.2zm1.2-6.8c1.5 0 2.4-.7 2.4-2a2 2 0 0 0-2.2-2.1h-1.4v4.1zm15.6-2.3h2.5v9.1H828v-1.3a3.8 3.8 0 0 1-3.2 1.6c-2.5 0-4.3-2-4.3-4.7s1.9-5 4.5-5a3.4 3.4 0 0 1 3 1.5zm-4.9 4.6a2.6 2.6 0 0 0 2.4 2.8 2.7 2.7 0 0 0 2.5-2.9 2.5 2.5 0 0 0-2.5-2.7 2.5 2.5 0 0 0-2.4 2.8zm24.4-4.6l-3 9.1h-2.6l-1.6-5.6-1.6 5.6h-2.6l-3-9.1h2.6l1.8 5.5 1.6-5.5h2.4l1.6 5.5 1.8-5.5zm14.4-4a4.9 4.9 0 0 1 3.3.8 3.4 3.4 0 0 1 1.3 2.7 3.2 3.2 0 0 1-.9 2.3 2.6 2.6 0 0 1-1.3.7 4.2 4.2 0 0 1 1.5.7 3.3 3.3 0 0 1 1 2.4 3.7 3.7 0 0 1-1.4 2.9 5.5 5.5 0 0 1-2.9.6h-4.8v-13.1zm-1.6 5.6h1.1q2.4 0 2.4-1.8a1.7 1.7 0 0 0-.8-1.5 4 4 0 0 0-1.7-.3h-1zm0 5.5h1.4a3.4 3.4 0 0 0 1.7-.3 1.7 1.7 0 0 0 .6-1.4 1.6 1.6 0 0 0-.7-1.5c-.4-.3-.8-.3-1.8-.3h-1.2zm16.9-7.1h2.5v9.1h-2.5v-1.3a3.9 3.9 0 0 1-3.2 1.6 4.5 4.5 0 0 1-4.4-4.7 4.7 4.7 0 0 1 4.6-5 3.6 3.6 0 0 1 3 1.5zm-4.9 4.6a2.5 2.5 0 0 0 2.4 2.8 2.7 2.7 0 0 0 2.5-2.9 2.5 2.5 0 0 0-2.5-2.7 2.5 2.5 0 0 0-2.4 2.8zm13.8-4.6v1.3a2.1 2.1 0 0 1 .8-1.2 3.3 3.3 0 0 1 1.5-.4h.3v2.6h-.6a1.7 1.7 0 0 0-1.6.9 2.4 2.4 0 0 0-.4 1.6v4.4h-2.5v-9.1zm-224.7-13.4c0 .9-1.1 1.7-2.2 1.7h-17.5c-1.4 0-2.3-.8-2.3-1.7s2.3-1.8 2.3-4-7-19.2-7-19.2l-3.8 2.3c-.3.2-.4.5-.4 1.1v11.3c0 4.1 4.4 6.4 4.4 8.5s-.9 1.7-2.3 1.7h-17.8c-1.4 0-2.2-.8-2.2-1.7s4.4-4.4 4.4-8.5v-55.9c0-4-4.4-6.4-4.4-8.5s.8-1.7 2.2-1.7h30.7c6.7 0 11 3 11 9.7v23.8c0 4.3-4.6 6.9-9.2 9.9 4.1 11.9 8.4 22.6 9.1 23.9 3 5.3 5 5.1 5 7.3zm-30.9-63.5v28.4l10-6.8c2.2-1.6 2.4-2.4 2.4-3.1v-17.2c0-.9-.4-1.3-1.4-1.3zm34.9 57.1v-60c0-5.4 4.2-8.2 9.6-8.2h19.9c6.1 0 10 4.2 10 8.7v58.9c0 4.2-3.8 8.7-10 8.7H675c-5.5 0-9.6-2.9-9.6-8.1zm14.3-3h11a.8.8 0 0 0 .7-.7v-52.7a.7.7 0 0 0-.7-.7h-11a.7.7 0 0 0-.7.7v52.7a.8.8 0 0 0 .7.7zm34 2.9v-18.6a2.7 2.7 0 0 1 2.7-2.9c2 0 7.6 3.8 9.2 5s1.7 1.5 1.7 4.1v9.5h10.4v-14a3.5 3.5 0 0 0-1.8-3.2l-16.7-11.5c-2.9-2-5.5-4.1-5.5-8.6v-20.1c0-5.1 4.3-7.8 9.6-7.8h16.9c6.1 0 10.1 4.1 10.1 8.3v15.7a2.8 2.8 0 0 1-2.3 3c-2.4 0-7.9-3.9-9.6-5s-1.7-1.5-1.7-4.1v-6.8h-9.4v12.5c0 1.4.3 2.2 1.9 3.4l16.9 11.6c3.3 2.2 5.2 4.3 5.2 8.6v20.9c0 4.1-4.8 8.2-9.6 8.2h-17.9c-6 0-10.1-4.1-10.1-8.2zm61.5-2c0 4.1 4.4 6.4 4.4 8.5s-.8 1.7-2.2 1.7h-17.8c-1.5 0-2.3-.8-2.3-1.7s4.4-4.4 4.4-8.5v-55.9c0-4-4.4-6.4-4.4-8.5s.8-1.7 2.3-1.7h17.8c1.4 0 2.2.8 2.2 1.7s-4.4 4.5-4.4 8.5zm10.7 10.2c-1.5 0-2.3-.8-2.3-1.7s4.4-4.4 4.4-8.5v-55.9c0-4-4.4-6.4-4.4-8.5s.8-1.7 2.3-1.7h35.4c2.4 0 3.4 1 3.4 3.4v11.6c0 1.5-.3 2-1.1 2.6s-9.5 6.6-10.7 6.6a2 2 0 0 1-1.8-2v-11.1h-8.3a1.3 1.3 0 0 0-1.3 1.2v24.8l9-5.7a5.3 5.3 0 0 1 2.7-1 2 2 0 0 1 1.9 2.2v9.3a3.3 3.3 0 0 1-1.9 3.4l-11.7 7.4v11.3a1.2 1.2 0 0 0 1.3 1.2h8.3v-6.4c0-1.5.3-2 1.2-2.6s9.5-6.6 10.7-6.6a2 2 0 0 1 1.7 2v21.3c0 2.4-1 3.4-3.4 3.4zm42.6-52.9a2.7 2.7 0 0 1 1.7-2.4c3.1-1.8 3.3-3.4 3.3-5.2v-1.8c0-1.7-2.4-1.1-2.4-2.9v-8.6c0-1.8.7-2.5 2.4-2.5h9.1c1.7 0 2.5.7 2.5 2.5v8.4c0 7.7-7.7 14.7-14 14.7-1.8 0-2.6-1-2.6-2.2zm22.5 44.7v-18.6a2.7 2.7 0 0 1 2.6-2.9c2 0 7.6 3.8 9.2 5s1.7 1.5 1.7 4.1v9.5H875v-14a3.6 3.6 0 0 0-1.9-3.2l-16.7-11.5c-2.9-2-5.4-4.1-5.4-8.6v-20.1c0-5.1 4.2-7.8 9.6-7.8h16.9c6.1 0 10 4.1 10 8.3v15.7c0 1.8-1.2 3-2.2 3s-7.9-3.9-9.6-5-1.8-1.5-1.8-4.1v-6.8h-9.4v12.5c0 1.4.3 2.2 2 3.4l16.8 11.6c3.4 2.2 5.2 4.3 5.2 8.6v20.9c0 4.1-4.7 8.2-9.6 8.2H861c-6 0-10-4.1-10-8.2zm-18.1-179.2s8.4 32.5-11.8 36.1c-22.9 4-14.1-28.8-5.2-41.3s22.8-48-3.4-70.7c0 0 4 29.7-17.7 28.5 0 0 9.1-17.6-21.4-42.5a64.2 64.2 0 0 1-7.9-7.6 43.2 43.2 0 0 1 3.5-62.3c.7-.4 1-.6.7-.6a67.9 67.9 0 0 0-41.4 13.8l-1.1.8h-.1a70 70 0 0 0-26.5 47 19.4 19.4 0 0 0-.2 2.4 4.9 4.9 0 0 0-.1 1.2c-.1 1.6-.2 3.1-.2 4.7a70.8 70.8 0 0 0 5.5 27.3l.9 2.4s4.3 10.6 1.1 18.8a14.1 14.1 0 0 1-26.2.1c-4.4-9.3-4.4-24.2 7-35.6 0 0-46.2 11-33.3 56 4.9 17.1 10.4 11.4 15.8 32 1 3.8 4.9 7.8 24.3-4.5s18.2-11.7 30.8-9.3 17.4-3.3 17.4-3.3-8.2 26.9-17.4 28.4c0 0 20.3 1 21.4 19.5.5 7.8.6 13.7 26.4 17 4.4.5 12.9 0 8.5 15.8s-12.6 17-12.6 17 29.2 7.9 63-19.8a45.9 45.9 0 0 0 .2-71.3z"/><path fill="#221f1c" d="M614.7 929.6a1.8 1.8 0 0 0 3.5.2 1.4 1.4 0 0 0-.6-1.1l-1.5-.7c-2.9-1-3.9-2.1-3.9-4.1s1.7-3.9 4.3-3.9a4 4 0 0 1 4.4 4h-2.7a1.6 1.6 0 0 0-1.7-1.7 1.4 1.4 0 0 0-1.6 1.4 1.2 1.2 0 0 0 .8 1.2l1.5.7a7.2 7.2 0 0 1 2.7 1.4 3.6 3.6 0 0 1 1.1 2.6c0 2.4-1.8 4-4.5 4s-4.5-1.6-4.5-4.1zm19-.7a4.8 4.8 0 0 1-4.9 4.8 4.9 4.9 0 1 1 0-9.7 4.7 4.7 0 0 1 4.9 4.9zm-7.3 0a2.4 2.4 0 1 0 2.4-2.7 2.5 2.5 0 0 0-2.4 2.7zm18.5-4.6v5.8a3.1 3.1 0 0 1-1.1 2.7 4.4 4.4 0 0 1-2.9.9 4.5 4.5 0 0 1-3.1-1 3.4 3.4 0 0 1-.9-2.6v-5.8h2.5v5.6a1.5 1.5 0 0 0 1.5 1.7 1.4 1.4 0 0 0 1.5-1.5v-5.8zm6.3 6.4c0 .5.2.6.7.6h.5v2.1h-2c-1.2 0-1.7-.5-1.7-1.7v-5.3h-1v-2.1h1v-2.5h2.5v2.5h1.2v2.1h-1.2zm7-5.4a3.1 3.1 0 0 1 2.5-1.3 3.3 3.3 0 0 1 2.2.8 3.3 3.3 0 0 1 .8 2.6v6h-2.5v-5.6c0-1.1-.5-1.7-1.3-1.7a2.1 2.1 0 0 0-1.2.4 1.8 1.8 0 0 0-.5 1.5v5.4h-2.5v-13.1h2.5zm11.4 4.2a2.3 2.3 0 0 0 2.4 2 2.4 2.4 0 0 0 2.1-1.2l2.3.6a4.8 4.8 0 0 1-4.5 2.8 4.7 4.7 0 0 1-4.9-4.9 4.6 4.6 0 0 1 4.8-4.8 4.7 4.7 0 0 1 4.9 5v.5zm4.5-1.5a2.1 2.1 0 0 0-2.3-1.9 2.1 2.1 0 0 0-2.2 1.9zm8.4-3.7v1.3a2.1 2.1 0 0 1 .8-1.2 3.3 3.3 0 0 1 1.4-.4h.3v2.6h-.5a2 2 0 0 0-1.7.9c-.3.4-.3.8-.3 1.6v4.4H680v-9.1zm7.8 0v1.1a2.8 2.8 0 0 1 2.5-1.4 3.6 3.6 0 0 1 2.3.8 4.1 4.1 0 0 1 .8 2.8v5.8h-2.5v-5.6a3.1 3.1 0 0 0-.2-1.1 1.6 1.6 0 0 0-1.2-.6 1.7 1.7 0 0 0-1.7 1.8v5.5h-2.4v-9.1zm19.6 9.1h-2.7v-13.1h2.7v5.7l3.7-5.7h3.2l-4.3 6.3 4.3 6.8h-3.2l-3.7-5.8zm12.3-11.7a1.4 1.4 0 1 1-1.4-1.4 1.4 1.4 0 0 1 1.4 1.4zm-.1 11.7h-2.5v-9.1h2.5zm6.5-2.7c0 .5.2.6.7.6h.5v2.1h-2c-1.2 0-1.7-.5-1.7-1.7v-5.3h-1v-2.1h1v-2.5h2.5v2.5h1.2v2.1h-1.2zm12.1 1.7a5.3 5.3 0 0 1-3.5 1.3 4.9 4.9 0 0 1 0-9.7 5.3 5.3 0 0 1 3.6 1.5l-1.6 1.5a2.9 2.9 0 0 0-1.9-.8 2.4 2.4 0 0 0-2.4 2.6 2.5 2.5 0 0 0 2.5 2.7 2.6 2.6 0 0 0 1.8-.8zm5.3-7.1a3 3 0 0 1 5.5 2.1v6H749v-5.6c0-1.1-.5-1.7-1.3-1.7a1.6 1.6 0 0 0-1.1.4 1.9 1.9 0 0 0-.6 1.5v5.4h-2.4v-13.1h2.4zm10.7 4.2a2.3 2.3 0 0 0 2.4 2 2.4 2.4 0 0 0 2.1-1.2l2.2.6a4.9 4.9 0 0 1-9.3-2.1 4.6 4.6 0 0 1 4.8-4.8 4.7 4.7 0 0 1 4.9 5v.5zm4.5-1.5a2.1 2.1 0 0 0-2.3-1.9 2.1 2.1 0 0 0-2.2 1.9zm7.6-3.7v1.1a2.8 2.8 0 0 1 2.5-1.4 3.1 3.1 0 0 1 2.2.8 3.6 3.6 0 0 1 .8 2.8v5.8h-2.5v-5.6a1.8 1.8 0 0 0-.2-1.1 1.3 1.3 0 0 0-1.2-.6 1.6 1.6 0 0 0-1.6 1.8v5.5h-2.5v-9.1zm29.2 9.1h-2.9l-1-1.3a5.9 5.9 0 0 1-3.7 1.6 3.7 3.7 0 0 1-3.9-3.7c0-1.7.7-2.6 2.9-4a4 4 0 0 1-1.1-2.7c0-1.6 1.4-2.8 3.3-2.8a3 3 0 0 1 3.2 2.8 3.4 3.4 0 0 1-.8 2 6 6 0 0 1-1.4 1.2l1.8 2.4a11.9 11.9 0 0 0 1.9-2l1.7 1.5a22.8 22.8 0 0 1-2.2 2.2zm-7.4-5.7c-1.2.8-1.6 1.3-1.6 2.1a1.8 1.8 0 0 0 1.7 1.7 3.1 3.1 0 0 0 2-1.1zm1.9-4.4a.9.9 0 0 0-.9-.9 1 1 0 0 0-1 .9c0 .5.2.8.7 1.5s1.2-.9 1.2-1.5zm18.7 10.1h-2.7v-13.1h4c3.3 0 5 1.4 5 4.1a3.7 3.7 0 0 1-3.1 4l3.6 5h-3.2l-3.6-5.2zm1.2-6.8c1.5 0 2.4-.7 2.4-2a2 2 0 0 0-2.2-2.1h-1.4v4.1zm15.6-2.3h2.5v9.1H828v-1.3a3.8 3.8 0 0 1-3.2 1.6c-2.5 0-4.3-2-4.3-4.7s1.9-5 4.5-5a3.4 3.4 0 0 1 3 1.5zm-4.9 4.6a2.6 2.6 0 0 0 2.4 2.8 2.7 2.7 0 0 0 2.5-2.9 2.5 2.5 0 0 0-2.5-2.7 2.5 2.5 0 0 0-2.4 2.8zm24.4-4.6l-3 9.1h-2.6l-1.6-5.6-1.6 5.6h-2.6l-3-9.1h2.6l1.8 5.5 1.6-5.5h2.4l1.6 5.5 1.8-5.5zm14.4-4a4.9 4.9 0 0 1 3.3.8 3.4 3.4 0 0 1 1.3 2.7 3.2 3.2 0 0 1-.9 2.3 2.6 2.6 0 0 1-1.3.7 4.2 4.2 0 0 1 1.5.7 3.3 3.3 0 0 1 1 2.4 3.7 3.7 0 0 1-1.4 2.9 5.5 5.5 0 0 1-2.9.6h-4.8v-13.1zm-1.6 5.6h1.1q2.4 0 2.4-1.8a1.7 1.7 0 0 0-.8-1.5 4 4 0 0 0-1.7-.3h-1zm0 5.5h1.4a3.4 3.4 0 0 0 1.7-.3 1.7 1.7 0 0 0 .6-1.4 1.6 1.6 0 0 0-.7-1.5c-.4-.3-.8-.3-1.8-.3h-1.2zm16.9-7.1h2.5v9.1h-2.5v-1.3a3.9 3.9 0 0 1-3.2 1.6 4.5 4.5 0 0 1-4.4-4.7 4.7 4.7 0 0 1 4.6-5 3.6 3.6 0 0 1 3 1.5zm-4.9 4.6a2.5 2.5 0 0 0 2.4 2.8 2.7 2.7 0 0 0 2.5-2.9 2.5 2.5 0 0 0-2.5-2.7 2.5 2.5 0 0 0-2.4 2.8zm13.8-4.6v1.3a2.1 2.1 0 0 1 .8-1.2 3.3 3.3 0 0 1 1.5-.4h.3v2.6h-.6a1.7 1.7 0 0 0-1.6.9 2.4 2.4 0 0 0-.4 1.6v4.4h-2.5v-9.1zm-224.7-13.4c0 .9-1.1 1.7-2.2 1.7h-17.5c-1.4 0-2.3-.8-2.3-1.7s2.3-1.8 2.3-4-7-19.2-7-19.2l-3.8 2.3c-.3.2-.4.5-.4 1.1v11.3c0 4.1 4.4 6.4 4.4 8.5s-.9 1.7-2.3 1.7h-17.8c-1.4 0-2.2-.8-2.2-1.7s4.4-4.4 4.4-8.5v-55.9c0-4-4.4-6.4-4.4-8.5s.8-1.7 2.2-1.7h30.7c6.7 0 11 3 11 9.7v23.8c0 4.3-4.6 6.9-9.2 9.9 4.1 11.9 8.4 22.6 9.1 23.9 3 5.3 5 5.1 5 7.3zm-30.9-63.5v28.4l10-6.8c2.2-1.6 2.4-2.4 2.4-3.1v-17.2c0-.9-.4-1.3-1.4-1.3zm34.9 57.1v-60c0-5.4 4.2-8.2 9.6-8.2h19.9c6.1 0 10 4.2 10 8.7v58.9c0 4.2-3.8 8.7-10 8.7H675c-5.5 0-9.6-2.9-9.6-8.1zm14.3-3h11a.8.8 0 0 0 .7-.7v-52.7a.7.7 0 0 0-.7-.7h-11a.7.7 0 0 0-.7.7v52.7a.8.8 0 0 0 .7.7zm34 2.9v-18.6a2.7 2.7 0 0 1 2.7-2.9c2 0 7.6 3.8 9.2 5s1.7 1.5 1.7 4.1v9.5h10.4v-14a3.5 3.5 0 0 0-1.8-3.2l-16.7-11.5c-2.9-2-5.5-4.1-5.5-8.6v-20.1c0-5.1 4.3-7.8 9.6-7.8h16.9c6.1 0 10.1 4.1 10.1 8.3v15.7a2.8 2.8 0 0 1-2.3 3c-2.4 0-7.9-3.9-9.6-5s-1.7-1.5-1.7-4.1v-6.8h-9.4v12.5c0 1.4.3 2.2 1.9 3.4l16.9 11.6c3.3 2.2 5.2 4.3 5.2 8.6v20.9c0 4.1-4.8 8.2-9.6 8.2h-17.9c-6 0-10.1-4.1-10.1-8.2zm61.5-2c0 4.1 4.4 6.4 4.4 8.5s-.8 1.7-2.2 1.7h-17.8c-1.5 0-2.3-.8-2.3-1.7s4.4-4.4 4.4-8.5v-55.9c0-4-4.4-6.4-4.4-8.5s.8-1.7 2.3-1.7h17.8c1.4 0 2.2.8 2.2 1.7s-4.4 4.5-4.4 8.5zm10.7 10.2c-1.5 0-2.3-.8-2.3-1.7s4.4-4.4 4.4-8.5v-55.9c0-4-4.4-6.4-4.4-8.5s.8-1.7 2.3-1.7h35.4c2.4 0 3.4 1 3.4 3.4v11.6c0 1.5-.3 2-1.1 2.6s-9.5 6.6-10.7 6.6a2 2 0 0 1-1.8-2v-11.1h-8.3a1.3 1.3 0 0 0-1.3 1.2v24.8l9-5.7a5.3 5.3 0 0 1 2.7-1 2 2 0 0 1 1.9 2.2v9.3a3.3 3.3 0 0 1-1.9 3.4l-11.7 7.4v11.3a1.2 1.2 0 0 0 1.3 1.2h8.3v-6.4c0-1.5.3-2 1.2-2.6s9.5-6.6 10.7-6.6a2 2 0 0 1 1.7 2v21.3c0 2.4-1 3.4-3.4 3.4zm42.6-52.9a2.7 2.7 0 0 1 1.7-2.4c3.1-1.8 3.3-3.4 3.3-5.2v-1.8c0-1.7-2.4-1.1-2.4-2.9v-8.6c0-1.8.7-2.5 2.4-2.5h9.1c1.7 0 2.5.7 2.5 2.5v8.4c0 7.7-7.7 14.7-14 14.7-1.8 0-2.6-1-2.6-2.2zm22.5 44.7v-18.6a2.7 2.7 0 0 1 2.6-2.9c2 0 7.6 3.8 9.2 5s1.7 1.5 1.7 4.1v9.5H875v-14a3.6 3.6 0 0 0-1.9-3.2l-16.7-11.5c-2.9-2-5.4-4.1-5.4-8.6v-20.1c0-5.1 4.2-7.8 9.6-7.8h16.9c6.1 0 10 4.1 10 8.3v15.7c0 1.8-1.2 3-2.2 3s-7.9-3.9-9.6-5-1.8-1.5-1.8-4.1v-6.8h-9.4v12.5c0 1.4.3 2.2 2 3.4l16.8 11.6c3.4 2.2 5.2 4.3 5.2 8.6v20.9c0 4.1-4.7 8.2-9.6 8.2H861c-6 0-10-4.1-10-8.2zm-18.1-179.2s8.4 32.5-11.8 36.1c-22.9 4-14.1-28.8-5.2-41.3s22.8-48-3.4-70.7c0 0 4 29.7-17.7 28.5 0 0 9.1-17.6-21.4-42.5a64.2 64.2 0 0 1-7.9-7.6 43.2 43.2 0 0 1 3.5-62.3c.7-.4 1-.6.7-.6a67.9 67.9 0 0 0-41.4 13.8l-1.1.8a.1.1 0 0 0-.1.1 70 70 0 0 0-26.5 47 19.4 19.4 0 0 0-.2 2.4 4.9 4.9 0 0 0-.1 1.2c-.1 1.6-.2 3.1-.2 4.7a70.8 70.8 0 0 0 5.5 27.3l.9 2.4s4.3 10.6 1.1 18.8a14.1 14.1 0 0 1-26.2.1c-4.4-9.3-4.4-24.2 7-35.6 0 0-46.2 11-33.3 56 4.9 17.1 10.4 11.4 15.8 32 1 3.8 4.9 7.8 24.3-4.5s18.2-11.7 30.8-9.3 17.4-3.3 17.4-3.3-8.2 26.9-17.4 28.4c0 0 20.3 1 21.4 19.5.5 7.8.6 13.7 26.4 17 4.4.5 12.9 0 8.5 15.8s-12.6 17-12.6 17 29.2 7.9 63-19.8a45.9 45.9 0 0 0 .2-71.4zM0 500h500v500H0z"/><path fill="#fff" d="M114.7 929.6a1.8 1.8 0 0 0 3.5.2 1.4 1.4 0 0 0-.6-1.1l-1.5-.7c-2.9-1-3.9-2.1-3.9-4.1s1.7-3.9 4.3-3.9a4 4 0 0 1 4.4 4h-2.7a1.6 1.6 0 0 0-1.7-1.7 1.4 1.4 0 0 0-1.6 1.4 1.2 1.2 0 0 0 .8 1.2l1.5.7a7.2 7.2 0 0 1 2.7 1.4 3.6 3.6 0 0 1 1.1 2.6c0 2.4-1.8 4-4.5 4s-4.5-1.6-4.5-4.1zm19-.7a4.8 4.8 0 0 1-4.9 4.8 4.9 4.9 0 1 1 0-9.7 4.7 4.7 0 0 1 4.9 4.9zm-7.3 0a2.4 2.4 0 1 0 2.4-2.7 2.5 2.5 0 0 0-2.4 2.7zm18.5-4.6v5.8a3.1 3.1 0 0 1-1.1 2.7 4.4 4.4 0 0 1-2.9.9 4.5 4.5 0 0 1-3.1-1 3.4 3.4 0 0 1-.9-2.6v-5.8h2.5v5.6a1.5 1.5 0 0 0 1.5 1.7 1.4 1.4 0 0 0 1.5-1.5v-5.8zm6.3 6.4c0 .5.2.6.7.6h.5v2.1h-2c-1.2 0-1.7-.5-1.7-1.7v-5.3h-1v-2.1h1v-2.5h2.5v2.5h1.2v2.1h-1.2zm7-5.4a3.1 3.1 0 0 1 2.5-1.3 3.3 3.3 0 0 1 2.2.8 3.3 3.3 0 0 1 .8 2.6v6h-2.5v-5.6c0-1.1-.5-1.7-1.3-1.7a2.1 2.1 0 0 0-1.2.4 1.8 1.8 0 0 0-.5 1.5v5.4h-2.5v-13.1h2.5zm11.4 4.2a2.3 2.3 0 0 0 2.4 2 2.4 2.4 0 0 0 2.1-1.2l2.3.6a4.8 4.8 0 0 1-4.5 2.8 4.7 4.7 0 0 1-4.9-4.9 4.6 4.6 0 0 1 4.8-4.8 4.7 4.7 0 0 1 4.9 5v.5zm4.5-1.5a2.1 2.1 0 0 0-2.3-1.9 2.1 2.1 0 0 0-2.2 1.9zm8.4-3.7v1.3a2.1 2.1 0 0 1 .8-1.2 3.3 3.3 0 0 1 1.4-.4h.3v2.6h-.5a2 2 0 0 0-1.7.9c-.3.4-.3.8-.3 1.6v4.4H180v-9.1zm7.8 0v1.1a2.8 2.8 0 0 1 2.5-1.4 3.6 3.6 0 0 1 2.3.8 4.1 4.1 0 0 1 .8 2.8v5.8h-2.5v-5.6a3.1 3.1 0 0 0-.2-1.1 1.6 1.6 0 0 0-1.2-.6 1.7 1.7 0 0 0-1.7 1.8v5.5h-2.4v-9.1zm19.6 9.1h-2.7v-13.1h2.7v5.7l3.7-5.7h3.2l-4.3 6.3 4.3 6.8h-3.2l-3.7-5.8zm12.3-11.7a1.4 1.4 0 1 1-1.4-1.4 1.4 1.4 0 0 1 1.4 1.4zm-.1 11.7h-2.5v-9.1h2.5zm6.5-2.7c0 .5.2.6.7.6h.5v2.1h-2c-1.2 0-1.7-.5-1.7-1.7v-5.3h-1v-2.1h1v-2.5h2.5v2.5h1.2v2.1h-1.2zm12.1 1.7a5.3 5.3 0 0 1-3.5 1.3 4.9 4.9 0 0 1 0-9.7 5.3 5.3 0 0 1 3.6 1.5l-1.6 1.5a2.9 2.9 0 0 0-1.9-.8 2.4 2.4 0 0 0-2.4 2.6 2.5 2.5 0 0 0 2.5 2.7 2.6 2.6 0 0 0 1.8-.8zm5.3-7.1a3 3 0 0 1 5.5 2.1v6H249v-5.6c0-1.1-.5-1.7-1.3-1.7a1.6 1.6 0 0 0-1.1.4 1.9 1.9 0 0 0-.6 1.5v5.4h-2.4v-13.1h2.4zm10.7 4.2a2.3 2.3 0 0 0 2.4 2 2.4 2.4 0 0 0 2.1-1.2l2.2.6a4.9 4.9 0 0 1-9.3-2.1 4.6 4.6 0 0 1 4.8-4.8 4.7 4.7 0 0 1 4.9 5v.5zm4.5-1.5a2.1 2.1 0 0 0-2.3-1.9 2.1 2.1 0 0 0-2.2 1.9zm7.6-3.7v1.1a2.8 2.8 0 0 1 2.5-1.4 3.1 3.1 0 0 1 2.2.8 3.6 3.6 0 0 1 .8 2.8v5.8h-2.5v-5.6a1.8 1.8 0 0 0-.2-1.1 1.3 1.3 0 0 0-1.2-.6 1.6 1.6 0 0 0-1.6 1.8v5.5h-2.5v-9.1zm29.2 9.1h-2.9l-1-1.3a5.9 5.9 0 0 1-3.7 1.6 3.7 3.7 0 0 1-3.9-3.7c0-1.7.7-2.6 2.9-4a4 4 0 0 1-1.1-2.7c0-1.6 1.4-2.8 3.3-2.8a3 3 0 0 1 3.2 2.8 3.4 3.4 0 0 1-.8 2 6 6 0 0 1-1.4 1.2l1.8 2.4a11.9 11.9 0 0 0 1.9-2l1.7 1.5a22.8 22.8 0 0 1-2.2 2.2zm-7.4-5.7c-1.2.8-1.6 1.3-1.6 2.1a1.8 1.8 0 0 0 1.7 1.7 3.1 3.1 0 0 0 2-1.1zm1.9-4.4a.9.9 0 0 0-.9-.9 1 1 0 0 0-1 .9c0 .5.2.8.7 1.5s1.2-.9 1.2-1.5zm18.7 10.1h-2.7v-13.1h4c3.3 0 5 1.4 5 4.1a3.7 3.7 0 0 1-3.1 4l3.6 5h-3.2l-3.6-5.2zm1.2-6.8c1.5 0 2.4-.7 2.4-2a2 2 0 0 0-2.2-2.1h-1.4v4.1zm15.6-2.3h2.5v9.1H328v-1.3a3.8 3.8 0 0 1-3.2 1.6c-2.5 0-4.3-2-4.3-4.7s1.9-5 4.5-5a3.4 3.4 0 0 1 3 1.5zm-4.9 4.6a2.6 2.6 0 0 0 2.4 2.8 2.7 2.7 0 0 0 2.5-2.9 2.5 2.5 0 0 0-2.5-2.7 2.5 2.5 0 0 0-2.4 2.8zm24.4-4.6l-3 9.1h-2.6l-1.6-5.6-1.6 5.6h-2.6l-3-9.1h2.6l1.8 5.5 1.6-5.5h2.4l1.6 5.5 1.8-5.5zm14.4-4a4.9 4.9 0 0 1 3.3.8 3.4 3.4 0 0 1 1.3 2.7 3.2 3.2 0 0 1-.9 2.3 2.6 2.6 0 0 1-1.3.7 4.2 4.2 0 0 1 1.5.7 3.3 3.3 0 0 1 1 2.4 3.7 3.7 0 0 1-1.4 2.9 5.5 5.5 0 0 1-2.9.6h-4.8v-13.1zm-1.6 5.6h1.1q2.4 0 2.4-1.8a1.7 1.7 0 0 0-.8-1.5 4 4 0 0 0-1.7-.3h-1zm0 5.5h1.4a3.4 3.4 0 0 0 1.7-.3 1.7 1.7 0 0 0 .6-1.4 1.6 1.6 0 0 0-.7-1.5c-.4-.3-.8-.3-1.8-.3h-1.2zm16.9-7.1h2.5v9.1h-2.5v-1.3a3.9 3.9 0 0 1-3.2 1.6 4.5 4.5 0 0 1-4.4-4.7 4.7 4.7 0 0 1 4.6-5 3.6 3.6 0 0 1 3 1.5zm-4.9 4.6a2.5 2.5 0 0 0 2.4 2.8 2.7 2.7 0 0 0 2.5-2.9 2.5 2.5 0 0 0-2.5-2.7 2.5 2.5 0 0 0-2.4 2.8zm13.8-4.6v1.3a2.1 2.1 0 0 1 .8-1.2 3.3 3.3 0 0 1 1.5-.4h.3v2.6h-.6a1.7 1.7 0 0 0-1.6.9 2.4 2.4 0 0 0-.4 1.6v4.4h-2.5v-9.1zm-224.7-13.4c0 .9-1.1 1.7-2.2 1.7h-17.5c-1.4 0-2.3-.8-2.3-1.7s2.3-1.8 2.3-4-7-19.2-7-19.2l-3.8 2.3c-.3.2-.4.5-.4 1.1v11.3c0 4.1 4.4 6.4 4.4 8.5s-.9 1.7-2.3 1.7h-17.8c-1.4 0-2.2-.8-2.2-1.7s4.4-4.4 4.4-8.5v-55.9c0-4-4.4-6.4-4.4-8.5s.8-1.7 2.2-1.7h30.7c6.7 0 11 3 11 9.7v23.8c0 4.3-4.6 6.9-9.2 9.9 4.1 11.9 8.4 22.6 9.1 23.9 3 5.3 5 5.1 5 7.3zm-30.9-63.5v28.4l10-6.8c2.2-1.6 2.4-2.4 2.4-3.1v-17.2c0-.9-.4-1.3-1.4-1.3zm34.9 57.1v-60c0-5.4 4.2-8.2 9.6-8.2h19.9c6.1 0 10 4.2 10 8.7v58.9c0 4.2-3.8 8.7-10 8.7H175c-5.5 0-9.6-2.9-9.6-8.1zm14.3-3h11a.8.8 0 0 0 .7-.7v-52.7a.7.7 0 0 0-.7-.7h-11a.7.7 0 0 0-.7.7v52.7a.8.8 0 0 0 .7.7zm34 2.9v-18.6a2.7 2.7 0 0 1 2.7-2.9c2 0 7.6 3.8 9.2 5s1.7 1.5 1.7 4.1v9.5h10.4v-14a3.5 3.5 0 0 0-1.8-3.2l-16.7-11.5c-2.9-2-5.5-4.1-5.5-8.6v-20.1c0-5.1 4.3-7.8 9.6-7.8h16.9c6.1 0 10.1 4.1 10.1 8.3v15.7a2.8 2.8 0 0 1-2.3 3c-2.4 0-7.9-3.9-9.6-5s-1.7-1.5-1.7-4.1v-6.8h-9.4v12.5c0 1.4.3 2.2 1.9 3.4l16.9 11.6c3.3 2.2 5.2 4.3 5.2 8.6v20.9c0 4.1-4.8 8.2-9.6 8.2h-17.9c-6 0-10.1-4.1-10.1-8.2zm61.5-2c0 4.1 4.4 6.4 4.4 8.5s-.8 1.7-2.2 1.7h-17.8c-1.5 0-2.3-.8-2.3-1.7s4.4-4.4 4.4-8.5v-55.9c0-4-4.4-6.4-4.4-8.5s.8-1.7 2.3-1.7h17.8c1.4 0 2.2.8 2.2 1.7s-4.4 4.5-4.4 8.5zm10.7 10.2c-1.5 0-2.3-.8-2.3-1.7s4.4-4.4 4.4-8.5v-55.9c0-4-4.4-6.4-4.4-8.5s.8-1.7 2.3-1.7h35.4c2.4 0 3.4 1 3.4 3.4v11.6c0 1.5-.3 2-1.1 2.6s-9.5 6.6-10.7 6.6a2 2 0 0 1-1.8-2v-11.1h-8.3a1.3 1.3 0 0 0-1.3 1.2v24.8l9-5.7a5.3 5.3 0 0 1 2.7-1 2 2 0 0 1 1.9 2.2v9.3a3.3 3.3 0 0 1-1.9 3.4l-11.7 7.4v11.3a1.2 1.2 0 0 0 1.3 1.2h8.3v-6.4c0-1.5.3-2 1.2-2.6s9.5-6.6 10.7-6.6a2 2 0 0 1 1.7 2v21.3c0 2.4-1 3.4-3.4 3.4zm42.6-52.9a2.7 2.7 0 0 1 1.7-2.4c3.1-1.8 3.3-3.4 3.3-5.2v-1.8c0-1.7-2.4-1.1-2.4-2.9v-8.6c0-1.8.7-2.5 2.4-2.5h9.1c1.7 0 2.5.7 2.5 2.5v8.4c0 7.7-7.7 14.7-14 14.7-1.8 0-2.6-1-2.6-2.2zm22.5 44.7v-18.6a2.7 2.7 0 0 1 2.6-2.9c2 0 7.6 3.8 9.2 5s1.7 1.5 1.7 4.1v9.5H375v-14a3.6 3.6 0 0 0-1.9-3.2l-16.7-11.5c-2.9-2-5.4-4.1-5.4-8.6v-20.1c0-5.1 4.2-7.8 9.6-7.8h16.9c6.1 0 10 4.1 10 8.3v15.7c0 1.8-1.2 3-2.2 3s-7.9-3.9-9.6-5-1.8-1.5-1.8-4.1v-6.8h-9.4v12.5c0 1.4.3 2.2 2 3.4l16.8 11.6c3.4 2.2 5.2 4.3 5.2 8.6v20.9c0 4.1-4.7 8.2-9.6 8.2H361c-6 0-10-4.1-10-8.2zm-18.1-179.2s8.4 32.5-11.8 36.1c-22.9 4-14.1-28.8-5.2-41.3s22.8-48-3.4-70.7c0 0 4 29.7-17.7 28.5 0 0 9.1-17.6-21.4-42.5a64.2 64.2 0 0 1-7.9-7.6 43.2 43.2 0 0 1 3.5-62.3c.7-.4 1-.6.7-.6a67.9 67.9 0 0 0-41.4 13.8l-1.1.8a.1.1 0 0 0-.1.1 70 70 0 0 0-26.5 47 19.4 19.4 0 0 0-.2 2.4 4.9 4.9 0 0 0-.1 1.2c-.1 1.6-.2 3.1-.2 4.7a70.8 70.8 0 0 0 5.5 27.3l.9 2.4s4.3 10.6 1.1 18.8a14.1 14.1 0 0 1-26.2.1c-4.4-9.3-4.4-24.2 7-35.6 0 0-46.2 11-33.3 56 4.9 17.1 10.4 11.4 15.8 32 1 3.8 4.9 7.8 24.3-4.5s18.2-11.7 30.8-9.3 17.4-3.3 17.4-3.3-8.2 26.9-17.4 28.4c0 0 20.3 1 21.4 19.5.5 7.8.6 13.7 26.4 17 4.4.5 12.9 0 8.5 15.8s-12.6 17-12.6 17 29.2 7.9 63-19.8a45.9 45.9 0 0 0 .2-71.4z"/></svg>