<svg height="1000" viewBox="0 0 1000 1000" width="1000" xmlns="http://www.w3.org/2000/svg"><path d="m114.7 429.6a1.8 1.8 0 0 0 3.5.2 1.4 1.4 0 0 0 -.6-1.1l-1.5-.7c-2.9-1-3.9-2.1-3.9-4.1s1.7-3.9 4.3-3.9a4 4 0 0 1 4.4 4h-2.7a1.6 1.6 0 0 0 -1.7-1.7 1.4 1.4 0 0 0 -1.6 1.4 1.2 1.2 0 0 0 .8 1.2l1.5.7a7.2 7.2 0 0 1 2.7 1.4 3.6 3.6 0 0 1 1.1 2.6c0 2.4-1.8 4-4.5 4s-4.5-1.6-4.5-4.1z" fill="#221f1c"/><path d="m133.7 428.9a4.8 4.8 0 0 1 -4.9 4.8 4.9 4.9 0 1 1 0-9.7 4.7 4.7 0 0 1 4.9 4.9zm-7.3 0a2.4 2.4 0 1 0 2.4-2.7 2.5 2.5 0 0 0 -2.4 2.7z" fill="#221f1c"/><path d="m144.9 424.3v5.8a3.1 3.1 0 0 1 -1.1 2.7 4.4 4.4 0 0 1 -2.9.9 4.5 4.5 0 0 1 -3.1-1 3.4 3.4 0 0 1 -.9-2.6v-5.8h2.5v5.6a1.5 1.5 0 0 0 1.5 1.7 1.4 1.4 0 0 0 1.5-1.5v-5.8z" fill="#221f1c"/><path d="m151.2 430.7c0 .5.2.6.7.6h.5v2.1h-2c-1.2 0-1.7-.5-1.7-1.7v-5.3h-1v-2.1h1v-2.5h2.5v2.5h1.2v2.1h-1.2z" fill="#221f1c"/><path d="m158.2 425.3a3.1 3.1 0 0 1 2.5-1.3 3.3 3.3 0 0 1 2.2.8 3.3 3.3 0 0 1 .8 2.6v6h-2.5v-5.6c0-1.1-.5-1.7-1.3-1.7a2.1 2.1 0 0 0 -1.2.4 1.8 1.8 0 0 0 -.5 1.5v5.4h-2.5v-13.1h2.5z" fill="#221f1c"/><path d="m169.6 429.5a2.3 2.3 0 0 0 2.4 2 2.4 2.4 0 0 0 2.1-1.2l2.3.6a4.8 4.8 0 0 1 -4.5 2.8 4.7 4.7 0 0 1 -4.9-4.9 4.6 4.6 0 0 1 4.8-4.8 4.7 4.7 0 0 1 4.9 5v.5zm4.5-1.5a2.1 2.1 0 0 0 -2.3-1.9 2.1 2.1 0 0 0 -2.2 1.9z" fill="#221f1c"/><path d="m182.5 424.3v1.3a2.1 2.1 0 0 1 .8-1.2 3.3 3.3 0 0 1 1.4-.4h.3v2.6h-.5a2 2 0 0 0 -1.7.9c-.3.4-.3.8-.3 1.6v4.4h-2.5v-9.1z" fill="#221f1c"/><path d="m190.3 424.3v1.1a2.8 2.8 0 0 1 2.5-1.4 3.6 3.6 0 0 1 2.3.8 4.1 4.1 0 0 1 .8 2.8v5.8h-2.5v-5.6a3.1 3.1 0 0 0 -.2-1.1 1.6 1.6 0 0 0 -1.2-.6 1.7 1.7 0 0 0 -1.7 1.8v5.5h-2.4v-9.1z" fill="#221f1c"/><path d="m209.9 433.4h-2.7v-13.1h2.7v5.7l3.7-5.7h3.2l-4.3 6.3 4.3 6.8h-3.2l-3.7-5.8z" fill="#221f1c"/><path d="m222.2 421.7a1.4 1.4 0 1 1 -1.4-1.4 1.4 1.4 0 0 1 1.4 1.4zm-.1 11.7h-2.5v-9.1h2.5z" fill="#221f1c"/><path d="m228.6 430.7c0 .5.2.6.7.6h.5v2.1h-2c-1.2 0-1.7-.5-1.7-1.7v-5.3h-1v-2.1h1v-2.5h2.5v2.5h1.2v2.1h-1.2z" fill="#221f1c"/><path d="m240.7 432.4a5.3 5.3 0 0 1 -3.5 1.3 4.9 4.9 0 0 1 0-9.7 5.3 5.3 0 0 1 3.6 1.5l-1.6 1.5a2.9 2.9 0 0 0 -1.9-.8 2.4 2.4 0 0 0 -2.4 2.6 2.5 2.5 0 0 0 2.5 2.7 2.6 2.6 0 0 0 1.8-.8z" fill="#221f1c"/><path d="m246 425.3a3 3 0 0 1 5.5 2.1v6h-2.5v-5.6c0-1.1-.5-1.7-1.3-1.7a1.6 1.6 0 0 0 -1.1.4 1.9 1.9 0 0 0 -.6 1.5v5.4h-2.4v-13.1h2.4z" fill="#221f1c"/><path d="m256.7 429.5a2.3 2.3 0 0 0 2.4 2 2.4 2.4 0 0 0 2.1-1.2l2.2.6a4.9 4.9 0 0 1 -9.3-2.1 4.6 4.6 0 0 1 4.8-4.8 4.7 4.7 0 0 1 4.9 5v.5zm4.5-1.5a2.1 2.1 0 0 0 -2.3-1.9 2.1 2.1 0 0 0 -2.2 1.9z" fill="#221f1c"/><path d="m268.8 424.3v1.1a2.8 2.8 0 0 1 2.5-1.4 3.1 3.1 0 0 1 2.2.8 3.6 3.6 0 0 1 .8 2.8v5.8h-2.5v-5.6a1.8 1.8 0 0 0 -.2-1.1 1.3 1.3 0 0 0 -1.2-.6 1.6 1.6 0 0 0 -1.6 1.8v5.5h-2.5v-9.1z" fill="#221f1c"/><path d="m298 433.4h-2.9l-1-1.3a5.9 5.9 0 0 1 -3.7 1.6 3.7 3.7 0 0 1 -3.9-3.7c0-1.7.7-2.6 2.9-4a4 4 0 0 1 -1.1-2.7c0-1.6 1.4-2.8 3.3-2.8a3 3 0 0 1 3.2 2.8 3.4 3.4 0 0 1 -.8 2 6 6 0 0 1 -1.4 1.2l1.8 2.4a11.9 11.9 0 0 0 1.9-2l1.7 1.5a22.8 22.8 0 0 1 -2.2 2.2zm-7.4-5.7c-1.2.8-1.6 1.3-1.6 2.1a1.8 1.8 0 0 0 1.7 1.7 3.1 3.1 0 0 0 2-1.1zm1.9-4.4a.9.9 0 0 0 -.9-.9 1 1 0 0 0 -1 .9c0 .5.2.8.7 1.5s1.2-.9 1.2-1.5z" fill="#221f1c"/><path d="m311.2 433.4h-2.7v-13.1h4c3.3 0 5 1.4 5 4.1a3.7 3.7 0 0 1 -3.1 4l3.6 5h-3.2l-3.6-5.2zm1.2-6.8c1.5 0 2.4-.7 2.4-2a2 2 0 0 0 -2.2-2.1h-1.4v4.1z" fill="#221f1c"/><path d="m328 424.3h2.5v9.1h-2.5v-1.3a3.8 3.8 0 0 1 -3.2 1.6c-2.5 0-4.3-2-4.3-4.7s1.9-5 4.5-5a3.4 3.4 0 0 1 3 1.5zm-4.9 4.6a2.6 2.6 0 0 0 2.4 2.8 2.7 2.7 0 0 0 2.5-2.9 2.5 2.5 0 0 0 -2.5-2.7 2.5 2.5 0 0 0 -2.4 2.8z" fill="#221f1c"/><path d="m347.5 424.3-3 9.1h-2.6l-1.6-5.6-1.6 5.6h-2.6l-3-9.1h2.6l1.8 5.5 1.6-5.5h2.4l1.6 5.5 1.8-5.5z" fill="#221f1c"/><path d="m361.9 420.3a4.9 4.9 0 0 1 3.3.8 3.4 3.4 0 0 1 1.3 2.7 3.2 3.2 0 0 1 -.9 2.3 2.6 2.6 0 0 1 -1.3.7 4.2 4.2 0 0 1 1.5.7 3.3 3.3 0 0 1 1 2.4 3.7 3.7 0 0 1 -1.4 2.9 5.5 5.5 0 0 1 -2.9.6h-4.8v-13.1zm-1.6 5.6h1.1q2.4 0 2.4-1.8a1.7 1.7 0 0 0 -.8-1.5 4 4 0 0 0 -1.7-.3h-1zm0 5.5h1.4a3.4 3.4 0 0 0 1.7-.3 1.7 1.7 0 0 0 .6-1.4 1.6 1.6 0 0 0 -.7-1.5c-.4-.3-.8-.3-1.8-.3h-1.2z" fill="#221f1c"/><path d="m377.2 424.3h2.5v9.1h-2.5v-1.3a3.9 3.9 0 0 1 -3.2 1.6 4.5 4.5 0 0 1 -4.4-4.7 4.7 4.7 0 0 1 4.6-5 3.6 3.6 0 0 1 3 1.5zm-4.9 4.6a2.5 2.5 0 0 0 2.4 2.8 2.7 2.7 0 0 0 2.5-2.9 2.5 2.5 0 0 0 -2.5-2.7 2.5 2.5 0 0 0 -2.4 2.8z" fill="#221f1c"/><path d="m386.1 424.3v1.3a2.1 2.1 0 0 1 .8-1.2 3.3 3.3 0 0 1 1.5-.4h.3v2.6h-.6a1.7 1.7 0 0 0 -1.6.9 2.4 2.4 0 0 0 -.4 1.6v4.4h-2.5v-9.1z" fill="#221f1c"/><path d="m161.4 410.9c0 .9-1.1 1.7-2.2 1.7h-17.5c-1.4 0-2.3-.8-2.3-1.7s2.3-1.8 2.3-4-7-19.2-7-19.2l-3.8 2.3c-.3.2-.4.5-.4 1.1v11.3c0 4.1 4.4 6.4 4.4 8.5s-.9 1.7-2.3 1.7h-17.8c-1.4 0-2.2-.8-2.2-1.7s4.4-4.4 4.4-8.5v-55.9c0-4-4.4-6.4-4.4-8.5s.8-1.7 2.2-1.7h30.7c6.7 0 11 3 11 9.7v23.8c0 4.3-4.6 6.9-9.2 9.9 4.1 11.9 8.4 22.6 9.1 23.9 3 5.3 5 5.1 5 7.3zm-30.9-63.5v28.4l10-6.8c2.2-1.6 2.4-2.4 2.4-3.1v-17.2c0-.9-.4-1.3-1.4-1.3z" fill="#221f1c"/><path d="m165.4 404.5v-60c0-5.4 4.2-8.2 9.6-8.2h19.9c6.1 0 10 4.2 10 8.7v58.9c0 4.2-3.8 8.7-10 8.7h-19.9c-5.5 0-9.6-2.9-9.6-8.1zm14.3-3h11a.8.8 0 0 0 .7-.7v-52.7a.7.7 0 0 0 -.7-.7h-11a.7.7 0 0 0 -.7.7v52.7a.8.8 0 0 0 .7.7z" fill="#221f1c"/><path d="m213.7 404.4v-18.6a2.7 2.7 0 0 1 2.7-2.9c2 0 7.6 3.8 9.2 5s1.7 1.5 1.7 4.1v9.5h10.4v-14a3.5 3.5 0 0 0 -1.8-3.2l-16.7-11.5c-2.9-2-5.5-4.1-5.5-8.6v-20.1c0-5.1 4.3-7.8 9.6-7.8h16.9c6.1 0 10.1 4.1 10.1 8.3v15.7a2.8 2.8 0 0 1 -2.3 3c-2.4 0-7.9-3.9-9.6-5s-1.7-1.5-1.7-4.1v-6.8h-9.4v12.5c0 1.4.3 2.2 1.9 3.4l16.9 11.6c3.3 2.2 5.2 4.3 5.2 8.6v20.9c0 4.1-4.8 8.2-9.6 8.2h-17.9c-6 0-10.1-4.1-10.1-8.2z" fill="#221f1c"/><path d="m275.2 402.4c0 4.1 4.4 6.4 4.4 8.5s-.8 1.7-2.2 1.7h-17.8c-1.5 0-2.3-.8-2.3-1.7s4.4-4.4 4.4-8.5v-55.9c0-4-4.4-6.4-4.4-8.5s.8-1.7 2.3-1.7h17.8c1.4 0 2.2.8 2.2 1.7s-4.4 4.5-4.4 8.5z" fill="#221f1c"/><path d="m285.9 412.6c-1.5 0-2.3-.8-2.3-1.7s4.4-4.4 4.4-8.5v-55.9c0-4-4.4-6.4-4.4-8.5s.8-1.7 2.3-1.7h35.4c2.4 0 3.4 1 3.4 3.4v11.6c0 1.5-.3 2-1.1 2.6s-9.5 6.6-10.7 6.6a2 2 0 0 1 -1.8-2v-11.1h-8.3a1.3 1.3 0 0 0 -1.3 1.2v24.8l9-5.7a5.3 5.3 0 0 1 2.7-1 2 2 0 0 1 1.9 2.2v9.3a3.3 3.3 0 0 1 -1.9 3.4l-11.7 7.4v11.3a1.2 1.2 0 0 0 1.3 1.2h8.3v-6.4c0-1.5.3-2 1.2-2.6s9.5-6.6 10.7-6.6a2 2 0 0 1 1.7 2v21.3c0 2.4-1 3.4-3.4 3.4z" fill="#221f1c"/><path d="m328.5 359.7a2.7 2.7 0 0 1 1.7-2.4c3.1-1.8 3.3-3.4 3.3-5.2v-1.8c0-1.7-2.4-1.1-2.4-2.9v-8.6c0-1.8.7-2.5 2.4-2.5h9.1c1.7 0 2.5.7 2.5 2.5v8.4c0 7.7-7.7 14.7-14 14.7-1.8 0-2.6-1-2.6-2.2z" fill="#221f1c"/><path d="m351 404.4v-18.6a2.7 2.7 0 0 1 2.6-2.9c2 0 7.6 3.8 9.2 5s1.7 1.5 1.7 4.1v9.5h10.5v-14a3.6 3.6 0 0 0 -1.9-3.2l-16.7-11.5c-2.9-2-5.4-4.1-5.4-8.6v-20.1c0-5.1 4.2-7.8 9.6-7.8h16.9c6.1 0 10 4.1 10 8.3v15.7c0 1.8-1.2 3-2.2 3s-7.9-3.9-9.6-5-1.8-1.5-1.8-4.1v-6.8h-9.4v12.5c0 1.4.3 2.2 2 3.4l16.8 11.6c3.4 2.2 5.2 4.3 5.2 8.6v20.9c0 4.1-4.7 8.2-9.6 8.2h-17.9c-6 0-10-4.1-10-8.2z" fill="#221f1c"/><path d="m332.9 225.2s8.4 32.5-11.8 36.1c-22.9 4-14.1-28.8-5.2-41.3s22.8-48-3.4-70.7c0 0 4 29.7-17.7 28.5 0 0 9.1-17.6-21.4-42.5a64.2 64.2 0 0 1 -7.9-7.6 43.2 43.2 0 0 1 3.5-62.3c.7-.4 1-.6.7-.6a67.9 67.9 0 0 0 -41.4 13.8l-1.1.8h-.1a70 70 0 0 0 -26.5 47 19.4 19.4 0 0 0 -.2 2.4 4.9 4.9 0 0 0 -.1 1.2c-.1 1.6-.2 3.1-.2 4.7a70.8 70.8 0 0 0 5.5 27.3l.9 2.4s4.3 10.6 1.1 18.8a14.1 14.1 0 0 1 -26.2.1c-4.4-9.3-4.4-24.2 7-35.6 0 0-46.2 11-33.3 56 4.9 17.1 10.4 11.4 15.8 32 1 3.8 4.9 7.8 24.3-4.5s18.2-11.7 30.8-9.3 17.4-3.3 17.4-3.3-8.2 26.9-17.4 28.4c0 0 20.3 1 21.4 19.5.5 7.8.6 13.7 26.4 17 4.4.5 12.9 0 8.5 15.8s-12.6 17-12.6 17 29.2 7.9 63-19.8a45.9 45.9 0 0 0 .2-71.3z" fill="#dc263f"/><path d="m500 0h500v500h-500z" fill="#dc263f"/><path d="m614.7 429.6a1.8 1.8 0 0 0 3.5.2 1.4 1.4 0 0 0 -.6-1.1l-1.5-.7c-2.9-1-3.9-2.1-3.9-4.1s1.7-3.9 4.3-3.9a4 4 0 0 1 4.4 4h-2.7a1.6 1.6 0 0 0 -1.7-1.7 1.4 1.4 0 0 0 -1.6 1.4 1.2 1.2 0 0 0 .8 1.2l1.5.7a7.2 7.2 0 0 1 2.7 1.4 3.6 3.6 0 0 1 1.1 2.6c0 2.4-1.8 4-4.5 4s-4.5-1.6-4.5-4.1z" fill="#fff"/><path d="m633.7 428.9a4.8 4.8 0 0 1 -4.9 4.8 4.9 4.9 0 1 1 0-9.7 4.7 4.7 0 0 1 4.9 4.9zm-7.3 0a2.4 2.4 0 1 0 2.4-2.7 2.5 2.5 0 0 0 -2.4 2.7z" fill="#fff"/><path d="m644.9 424.3v5.8a3.1 3.1 0 0 1 -1.1 2.7 4.4 4.4 0 0 1 -2.9.9 4.5 4.5 0 0 1 -3.1-1 3.4 3.4 0 0 1 -.9-2.6v-5.8h2.5v5.6a1.5 1.5 0 0 0 1.5 1.7 1.4 1.4 0 0 0 1.5-1.5v-5.8z" fill="#fff"/><path d="m651.2 430.7c0 .5.2.6.7.6h.5v2.1h-2c-1.2 0-1.7-.5-1.7-1.7v-5.3h-1v-2.1h1v-2.5h2.5v2.5h1.2v2.1h-1.2z" fill="#fff"/><path d="m658.2 425.3a3.1 3.1 0 0 1 2.5-1.3 3.3 3.3 0 0 1 2.2.8 3.3 3.3 0 0 1 .8 2.6v6h-2.5v-5.6c0-1.1-.5-1.7-1.3-1.7a2.1 2.1 0 0 0 -1.2.4 1.8 1.8 0 0 0 -.5 1.5v5.4h-2.5v-13.1h2.5z" fill="#fff"/><path d="m669.6 429.5a2.3 2.3 0 0 0 2.4 2 2.4 2.4 0 0 0 2.1-1.2l2.3.6a4.8 4.8 0 0 1 -4.5 2.8 4.7 4.7 0 0 1 -4.9-4.9 4.6 4.6 0 0 1 4.8-4.8 4.7 4.7 0 0 1 4.9 5v.5zm4.5-1.5a2.1 2.1 0 0 0 -2.3-1.9 2.1 2.1 0 0 0 -2.2 1.9z" fill="#fff"/><path d="m682.5 424.3v1.3a2.1 2.1 0 0 1 .8-1.2 3.3 3.3 0 0 1 1.4-.4h.3v2.6h-.5a2 2 0 0 0 -1.7.9c-.3.4-.3.8-.3 1.6v4.4h-2.5v-9.1z" fill="#fff"/><path d="m690.3 424.3v1.1a2.8 2.8 0 0 1 2.5-1.4 3.6 3.6 0 0 1 2.3.8 4.1 4.1 0 0 1 .8 2.8v5.8h-2.5v-5.6a3.1 3.1 0 0 0 -.2-1.1 1.6 1.6 0 0 0 -1.2-.6 1.7 1.7 0 0 0 -1.7 1.8v5.5h-2.4v-9.1z" fill="#fff"/><path d="m709.9 433.4h-2.7v-13.1h2.7v5.7l3.7-5.7h3.2l-4.3 6.3 4.3 6.8h-3.2l-3.7-5.8z" fill="#fff"/><path d="m722.2 421.7a1.4 1.4 0 1 1 -1.4-1.4 1.4 1.4 0 0 1 1.4 1.4zm-.1 11.7h-2.5v-9.1h2.5z" fill="#fff"/><path d="m728.6 430.7c0 .5.2.6.7.6h.5v2.1h-2c-1.2 0-1.7-.5-1.7-1.7v-5.3h-1v-2.1h1v-2.5h2.5v2.5h1.2v2.1h-1.2z" fill="#fff"/><path d="m740.7 432.4a5.3 5.3 0 0 1 -3.5 1.3 4.9 4.9 0 0 1 0-9.7 5.3 5.3 0 0 1 3.6 1.5l-1.6 1.5a2.9 2.9 0 0 0 -1.9-.8 2.4 2.4 0 0 0 -2.4 2.6 2.5 2.5 0 0 0 2.5 2.7 2.6 2.6 0 0 0 1.8-.8z" fill="#fff"/><path d="m746 425.3a3 3 0 0 1 5.5 2.1v6h-2.5v-5.6c0-1.1-.5-1.7-1.3-1.7a1.6 1.6 0 0 0 -1.1.4 1.9 1.9 0 0 0 -.6 1.5v5.4h-2.4v-13.1h2.4z" fill="#fff"/><path d="m756.7 429.5a2.3 2.3 0 0 0 2.4 2 2.4 2.4 0 0 0 2.1-1.2l2.2.6a4.9 4.9 0 0 1 -9.3-2.1 4.6 4.6 0 0 1 4.8-4.8 4.7 4.7 0 0 1 4.9 5v.5zm4.5-1.5a2.1 2.1 0 0 0 -2.3-1.9 2.1 2.1 0 0 0 -2.2 1.9z" fill="#fff"/><path d="m768.8 424.3v1.1a2.8 2.8 0 0 1 2.5-1.4 3.1 3.1 0 0 1 2.2.8 3.6 3.6 0 0 1 .8 2.8v5.8h-2.5v-5.6a1.8 1.8 0 0 0 -.2-1.1 1.3 1.3 0 0 0 -1.2-.6 1.6 1.6 0 0 0 -1.6 1.8v5.5h-2.5v-9.1z" fill="#fff"/><path d="m798 433.4h-2.9l-1-1.3a5.9 5.9 0 0 1 -3.7 1.6 3.7 3.7 0 0 1 -3.9-3.7c0-1.7.7-2.6 2.9-4a4 4 0 0 1 -1.1-2.7c0-1.6 1.4-2.8 3.3-2.8a3 3 0 0 1 3.2 2.8 3.4 3.4 0 0 1 -.8 2 6 6 0 0 1 -1.4 1.2l1.8 2.4a11.9 11.9 0 0 0 1.9-2l1.7 1.5a22.8 22.8 0 0 1 -2.2 2.2zm-7.4-5.7c-1.2.8-1.6 1.3-1.6 2.1a1.8 1.8 0 0 0 1.7 1.7 3.1 3.1 0 0 0 2-1.1zm1.9-4.4a.9.9 0 0 0 -.9-.9 1 1 0 0 0 -1 .9c0 .5.2.8.7 1.5s1.2-.9 1.2-1.5z" fill="#fff"/><path d="m811.2 433.4h-2.7v-13.1h4c3.3 0 5 1.4 5 4.1a3.7 3.7 0 0 1 -3.1 4l3.6 5h-3.2l-3.6-5.2zm1.2-6.8c1.5 0 2.4-.7 2.4-2a2 2 0 0 0 -2.2-2.1h-1.4v4.1z" fill="#fff"/><path d="m828 424.3h2.5v9.1h-2.5v-1.3a3.8 3.8 0 0 1 -3.2 1.6c-2.5 0-4.3-2-4.3-4.7s1.9-5 4.5-5a3.4 3.4 0 0 1 3 1.5zm-4.9 4.6a2.6 2.6 0 0 0 2.4 2.8 2.7 2.7 0 0 0 2.5-2.9 2.5 2.5 0 0 0 -2.5-2.7 2.5 2.5 0 0 0 -2.4 2.8z" fill="#fff"/><path d="m847.5 424.3-3 9.1h-2.6l-1.6-5.6-1.6 5.6h-2.6l-3-9.1h2.6l1.8 5.5 1.6-5.5h2.4l1.6 5.5 1.8-5.5z" fill="#fff"/><path d="m861.9 420.3a4.9 4.9 0 0 1 3.3.8 3.4 3.4 0 0 1 1.3 2.7 3.2 3.2 0 0 1 -.9 2.3 2.6 2.6 0 0 1 -1.3.7 4.2 4.2 0 0 1 1.5.7 3.3 3.3 0 0 1 1 2.4 3.7 3.7 0 0 1 -1.4 2.9 5.5 5.5 0 0 1 -2.9.6h-4.8v-13.1zm-1.6 5.6h1.1q2.4 0 2.4-1.8a1.7 1.7 0 0 0 -.8-1.5 4 4 0 0 0 -1.7-.3h-1zm0 5.5h1.4a3.4 3.4 0 0 0 1.7-.3 1.7 1.7 0 0 0 .6-1.4 1.6 1.6 0 0 0 -.7-1.5c-.4-.3-.8-.3-1.8-.3h-1.2z" fill="#fff"/><path d="m877.2 424.3h2.5v9.1h-2.5v-1.3a3.9 3.9 0 0 1 -3.2 1.6 4.5 4.5 0 0 1 -4.4-4.7 4.7 4.7 0 0 1 4.6-5 3.6 3.6 0 0 1 3 1.5zm-4.9 4.6a2.5 2.5 0 0 0 2.4 2.8 2.7 2.7 0 0 0 2.5-2.9 2.5 2.5 0 0 0 -2.5-2.7 2.5 2.5 0 0 0 -2.4 2.8z" fill="#fff"/><path d="m886.1 424.3v1.3a2.1 2.1 0 0 1 .8-1.2 3.3 3.3 0 0 1 1.5-.4h.3v2.6h-.6a1.7 1.7 0 0 0 -1.6.9 2.4 2.4 0 0 0 -.4 1.6v4.4h-2.5v-9.1z" fill="#fff"/><path d="m661.4 410.9c0 .9-1.1 1.7-2.2 1.7h-17.5c-1.4 0-2.3-.8-2.3-1.7s2.3-1.8 2.3-4-7-19.2-7-19.2l-3.8 2.3c-.3.2-.4.5-.4 1.1v11.3c0 4.1 4.4 6.4 4.4 8.5s-.9 1.7-2.3 1.7h-17.8c-1.4 0-2.2-.8-2.2-1.7s4.4-4.4 4.4-8.5v-55.9c0-4-4.4-6.4-4.4-8.5s.8-1.7 2.2-1.7h30.7c6.7 0 11 3 11 9.7v23.8c0 4.3-4.6 6.9-9.2 9.9 4.1 11.9 8.4 22.6 9.1 23.9 3 5.3 5 5.1 5 7.3zm-30.9-63.5v28.4l10-6.8c2.2-1.6 2.4-2.4 2.4-3.1v-17.2c0-.9-.4-1.3-1.4-1.3z" fill="#fff"/><path d="m665.4 404.5v-60c0-5.4 4.2-8.2 9.6-8.2h19.9c6.1 0 10 4.2 10 8.7v58.9c0 4.2-3.8 8.7-10 8.7h-19.9c-5.5 0-9.6-2.9-9.6-8.1zm14.3-3h11a.8.8 0 0 0 .7-.7v-52.7a.7.7 0 0 0 -.7-.7h-11a.7.7 0 0 0 -.7.7v52.7a.8.8 0 0 0 .7.7z" fill="#fff"/><path d="m713.7 404.4v-18.6a2.7 2.7 0 0 1 2.7-2.9c2 0 7.6 3.8 9.2 5s1.7 1.5 1.7 4.1v9.5h10.4v-14a3.5 3.5 0 0 0 -1.8-3.2l-16.7-11.5c-2.9-2-5.5-4.1-5.5-8.6v-20.1c0-5.1 4.3-7.8 9.6-7.8h16.9c6.1 0 10.1 4.1 10.1 8.3v15.7a2.8 2.8 0 0 1 -2.3 3c-2.4 0-7.9-3.9-9.6-5s-1.7-1.5-1.7-4.1v-6.8h-9.4v12.5c0 1.4.3 2.2 1.9 3.4l16.9 11.6c3.3 2.2 5.2 4.3 5.2 8.6v20.9c0 4.1-4.8 8.2-9.6 8.2h-17.9c-6 0-10.1-4.1-10.1-8.2z" fill="#fff"/><path d="m775.2 402.4c0 4.1 4.4 6.4 4.4 8.5s-.8 1.7-2.2 1.7h-17.8c-1.5 0-2.3-.8-2.3-1.7s4.4-4.4 4.4-8.5v-55.9c0-4-4.4-6.4-4.4-8.5s.8-1.7 2.3-1.7h17.8c1.4 0 2.2.8 2.2 1.7s-4.4 4.5-4.4 8.5z" fill="#fff"/><path d="m785.9 412.6c-1.5 0-2.3-.8-2.3-1.7s4.4-4.4 4.4-8.5v-55.9c0-4-4.4-6.4-4.4-8.5s.8-1.7 2.3-1.7h35.4c2.4 0 3.4 1 3.4 3.4v11.6c0 1.5-.3 2-1.1 2.6s-9.5 6.6-10.7 6.6a2 2 0 0 1 -1.8-2v-11.1h-8.3a1.3 1.3 0 0 0 -1.3 1.2v24.8l9-5.7a5.3 5.3 0 0 1 2.7-1 2 2 0 0 1 1.9 2.2v9.3a3.3 3.3 0 0 1 -1.9 3.4l-11.7 7.4v11.3a1.2 1.2 0 0 0 1.3 1.2h8.3v-6.4c0-1.5.3-2 1.2-2.6s9.5-6.6 10.7-6.6a2 2 0 0 1 1.7 2v21.3c0 2.4-1 3.4-3.4 3.4z" fill="#fff"/><path d="m828.5 359.7a2.7 2.7 0 0 1 1.7-2.4c3.1-1.8 3.3-3.4 3.3-5.2v-1.8c0-1.7-2.4-1.1-2.4-2.9v-8.6c0-1.8.7-2.5 2.4-2.5h9.1c1.7 0 2.5.7 2.5 2.5v8.4c0 7.7-7.7 14.7-14 14.7-1.8 0-2.6-1-2.6-2.2z" fill="#fff"/><path d="m851 404.4v-18.6a2.7 2.7 0 0 1 2.6-2.9c2 0 7.6 3.8 9.2 5s1.7 1.5 1.7 4.1v9.5h10.5v-14a3.6 3.6 0 0 0 -1.9-3.2l-16.7-11.5c-2.9-2-5.4-4.1-5.4-8.6v-20.1c0-5.1 4.2-7.8 9.6-7.8h16.9c6.1 0 10 4.1 10 8.3v15.7c0 1.8-1.2 3-2.2 3s-7.9-3.9-9.6-5-1.8-1.5-1.8-4.1v-6.8h-9.4v12.5c0 1.4.3 2.2 2 3.4l16.8 11.6c3.4 2.2 5.2 4.3 5.2 8.6v20.9c0 4.1-4.7 8.2-9.6 8.2h-17.9c-6 0-10-4.1-10-8.2z" fill="#fff"/><path d="m832.9 225.2s8.4 32.5-11.8 36.1c-22.9 4-14.1-28.8-5.2-41.3s22.8-48-3.4-70.7c0 0 4 29.7-17.7 28.5 0 0 9.1-17.6-21.4-42.5a64.2 64.2 0 0 1 -7.9-7.6 43.2 43.2 0 0 1 3.5-62.3c.7-.4 1-.6.7-.6a67.9 67.9 0 0 0 -41.4 13.8l-1.1.8h-.1a70 70 0 0 0 -26.5 47 19.4 19.4 0 0 0 -.2 2.4 4.9 4.9 0 0 0 -.1 1.2c-.1 1.6-.2 3.1-.2 4.7a70.8 70.8 0 0 0 5.5 27.3l.9 2.4s4.3 10.6 1.1 18.8a14.1 14.1 0 0 1 -26.2.1c-4.4-9.3-4.4-24.2 7-35.6 0 0-46.2 11-33.3 56 4.9 17.1 10.4 11.4 15.8 32 1 3.8 4.9 7.8 24.3-4.5s18.2-11.7 30.8-9.3 17.4-3.3 17.4-3.3-8.2 26.9-17.4 28.4c0 0 20.3 1 21.4 19.5.5 7.8.6 13.7 26.4 17 4.4.5 12.9 0 8.5 15.8s-12.6 17-12.6 17 29.2 7.9 63-19.8a45.9 45.9 0 0 0 .2-71.3z" fill="#fff"/><g fill="#221f1c"><path d="m614.7 929.6a1.8 1.8 0 0 0 3.5.2 1.4 1.4 0 0 0 -.6-1.1l-1.5-.7c-2.9-1-3.9-2.1-3.9-4.1s1.7-3.9 4.3-3.9a4 4 0 0 1 4.4 4h-2.7a1.6 1.6 0 0 0 -1.7-1.7 1.4 1.4 0 0 0 -1.6 1.4 1.2 1.2 0 0 0 .8 1.2l1.5.7a7.2 7.2 0 0 1 2.7 1.4 3.6 3.6 0 0 1 1.1 2.6c0 2.4-1.8 4-4.5 4s-4.5-1.6-4.5-4.1z"/><path d="m633.7 928.9a4.8 4.8 0 0 1 -4.9 4.8 4.9 4.9 0 1 1 0-9.7 4.7 4.7 0 0 1 4.9 4.9zm-7.3 0a2.4 2.4 0 1 0 2.4-2.7 2.5 2.5 0 0 0 -2.4 2.7z"/><path d="m644.9 924.3v5.8a3.1 3.1 0 0 1 -1.1 2.7 4.4 4.4 0 0 1 -2.9.9 4.5 4.5 0 0 1 -3.1-1 3.4 3.4 0 0 1 -.9-2.6v-5.8h2.5v5.6a1.5 1.5 0 0 0 1.5 1.7 1.4 1.4 0 0 0 1.5-1.5v-5.8z"/><path d="m651.2 930.7c0 .5.2.6.7.6h.5v2.1h-2c-1.2 0-1.7-.5-1.7-1.7v-5.3h-1v-2.1h1v-2.5h2.5v2.5h1.2v2.1h-1.2z"/><path d="m658.2 925.3a3.1 3.1 0 0 1 2.5-1.3 3.3 3.3 0 0 1 2.2.8 3.3 3.3 0 0 1 .8 2.6v6h-2.5v-5.6c0-1.1-.5-1.7-1.3-1.7a2.1 2.1 0 0 0 -1.2.4 1.8 1.8 0 0 0 -.5 1.5v5.4h-2.5v-13.1h2.5z"/><path d="m669.6 929.5a2.3 2.3 0 0 0 2.4 2 2.4 2.4 0 0 0 2.1-1.2l2.3.6a4.8 4.8 0 0 1 -4.5 2.8 4.7 4.7 0 0 1 -4.9-4.9 4.6 4.6 0 0 1 4.8-4.8 4.7 4.7 0 0 1 4.9 5v.5zm4.5-1.5a2.1 2.1 0 0 0 -2.3-1.9 2.1 2.1 0 0 0 -2.2 1.9z"/><path d="m682.5 924.3v1.3a2.1 2.1 0 0 1 .8-1.2 3.3 3.3 0 0 1 1.4-.4h.3v2.6h-.5a2 2 0 0 0 -1.7.9c-.3.4-.3.8-.3 1.6v4.4h-2.5v-9.1z"/><path d="m690.3 924.3v1.1a2.8 2.8 0 0 1 2.5-1.4 3.6 3.6 0 0 1 2.3.8 4.1 4.1 0 0 1 .8 2.8v5.8h-2.5v-5.6a3.1 3.1 0 0 0 -.2-1.1 1.6 1.6 0 0 0 -1.2-.6 1.7 1.7 0 0 0 -1.7 1.8v5.5h-2.4v-9.1z"/><path d="m709.9 933.4h-2.7v-13.1h2.7v5.7l3.7-5.7h3.2l-4.3 6.3 4.3 6.8h-3.2l-3.7-5.8z"/><path d="m722.2 921.7a1.4 1.4 0 1 1 -1.4-1.4 1.4 1.4 0 0 1 1.4 1.4zm-.1 11.7h-2.5v-9.1h2.5z"/><path d="m728.6 930.7c0 .5.2.6.7.6h.5v2.1h-2c-1.2 0-1.7-.5-1.7-1.7v-5.3h-1v-2.1h1v-2.5h2.5v2.5h1.2v2.1h-1.2z"/><path d="m740.7 932.4a5.3 5.3 0 0 1 -3.5 1.3 4.9 4.9 0 0 1 0-9.7 5.3 5.3 0 0 1 3.6 1.5l-1.6 1.5a2.9 2.9 0 0 0 -1.9-.8 2.4 2.4 0 0 0 -2.4 2.6 2.5 2.5 0 0 0 2.5 2.7 2.6 2.6 0 0 0 1.8-.8z"/><path d="m746 925.3a3 3 0 0 1 5.5 2.1v6h-2.5v-5.6c0-1.1-.5-1.7-1.3-1.7a1.6 1.6 0 0 0 -1.1.4 1.9 1.9 0 0 0 -.6 1.5v5.4h-2.4v-13.1h2.4z"/><path d="m756.7 929.5a2.3 2.3 0 0 0 2.4 2 2.4 2.4 0 0 0 2.1-1.2l2.2.6a4.9 4.9 0 0 1 -9.3-2.1 4.6 4.6 0 0 1 4.8-4.8 4.7 4.7 0 0 1 4.9 5v.5zm4.5-1.5a2.1 2.1 0 0 0 -2.3-1.9 2.1 2.1 0 0 0 -2.2 1.9z"/><path d="m768.8 924.3v1.1a2.8 2.8 0 0 1 2.5-1.4 3.1 3.1 0 0 1 2.2.8 3.6 3.6 0 0 1 .8 2.8v5.8h-2.5v-5.6a1.8 1.8 0 0 0 -.2-1.1 1.3 1.3 0 0 0 -1.2-.6 1.6 1.6 0 0 0 -1.6 1.8v5.5h-2.5v-9.1z"/><path d="m798 933.4h-2.9l-1-1.3a5.9 5.9 0 0 1 -3.7 1.6 3.7 3.7 0 0 1 -3.9-3.7c0-1.7.7-2.6 2.9-4a4 4 0 0 1 -1.1-2.7c0-1.6 1.4-2.8 3.3-2.8a3 3 0 0 1 3.2 2.8 3.4 3.4 0 0 1 -.8 2 6 6 0 0 1 -1.4 1.2l1.8 2.4a11.9 11.9 0 0 0 1.9-2l1.7 1.5a22.8 22.8 0 0 1 -2.2 2.2zm-7.4-5.7c-1.2.8-1.6 1.3-1.6 2.1a1.8 1.8 0 0 0 1.7 1.7 3.1 3.1 0 0 0 2-1.1zm1.9-4.4a.9.9 0 0 0 -.9-.9 1 1 0 0 0 -1 .9c0 .5.2.8.7 1.5s1.2-.9 1.2-1.5z"/><path d="m811.2 933.4h-2.7v-13.1h4c3.3 0 5 1.4 5 4.1a3.7 3.7 0 0 1 -3.1 4l3.6 5h-3.2l-3.6-5.2zm1.2-6.8c1.5 0 2.4-.7 2.4-2a2 2 0 0 0 -2.2-2.1h-1.4v4.1z"/><path d="m828 924.3h2.5v9.1h-2.5v-1.3a3.8 3.8 0 0 1 -3.2 1.6c-2.5 0-4.3-2-4.3-4.7s1.9-5 4.5-5a3.4 3.4 0 0 1 3 1.5zm-4.9 4.6a2.6 2.6 0 0 0 2.4 2.8 2.7 2.7 0 0 0 2.5-2.9 2.5 2.5 0 0 0 -2.5-2.7 2.5 2.5 0 0 0 -2.4 2.8z"/><path d="m847.5 924.3-3 9.1h-2.6l-1.6-5.6-1.6 5.6h-2.6l-3-9.1h2.6l1.8 5.5 1.6-5.5h2.4l1.6 5.5 1.8-5.5z"/><path d="m861.9 920.3a4.9 4.9 0 0 1 3.3.8 3.4 3.4 0 0 1 1.3 2.7 3.2 3.2 0 0 1 -.9 2.3 2.6 2.6 0 0 1 -1.3.7 4.2 4.2 0 0 1 1.5.7 3.3 3.3 0 0 1 1 2.4 3.7 3.7 0 0 1 -1.4 2.9 5.5 5.5 0 0 1 -2.9.6h-4.8v-13.1zm-1.6 5.6h1.1q2.4 0 2.4-1.8a1.7 1.7 0 0 0 -.8-1.5 4 4 0 0 0 -1.7-.3h-1zm0 5.5h1.4a3.4 3.4 0 0 0 1.7-.3 1.7 1.7 0 0 0 .6-1.4 1.6 1.6 0 0 0 -.7-1.5c-.4-.3-.8-.3-1.8-.3h-1.2z"/><path d="m877.2 924.3h2.5v9.1h-2.5v-1.3a3.9 3.9 0 0 1 -3.2 1.6 4.5 4.5 0 0 1 -4.4-4.7 4.7 4.7 0 0 1 4.6-5 3.6 3.6 0 0 1 3 1.5zm-4.9 4.6a2.5 2.5 0 0 0 2.4 2.8 2.7 2.7 0 0 0 2.5-2.9 2.5 2.5 0 0 0 -2.5-2.7 2.5 2.5 0 0 0 -2.4 2.8z"/><path d="m886.1 924.3v1.3a2.1 2.1 0 0 1 .8-1.2 3.3 3.3 0 0 1 1.5-.4h.3v2.6h-.6a1.7 1.7 0 0 0 -1.6.9 2.4 2.4 0 0 0 -.4 1.6v4.4h-2.5v-9.1z"/><path d="m661.4 910.9c0 .9-1.1 1.7-2.2 1.7h-17.5c-1.4 0-2.3-.8-2.3-1.7s2.3-1.8 2.3-4-7-19.2-7-19.2l-3.8 2.3c-.3.2-.4.5-.4 1.1v11.3c0 4.1 4.4 6.4 4.4 8.5s-.9 1.7-2.3 1.7h-17.8c-1.4 0-2.2-.8-2.2-1.7s4.4-4.4 4.4-8.5v-55.9c0-4-4.4-6.4-4.4-8.5s.8-1.7 2.2-1.7h30.7c6.7 0 11 3 11 9.7v23.8c0 4.3-4.6 6.9-9.2 9.9 4.1 11.9 8.4 22.6 9.1 23.9 3 5.3 5 5.1 5 7.3zm-30.9-63.5v28.4l10-6.8c2.2-1.6 2.4-2.4 2.4-3.1v-17.2c0-.9-.4-1.3-1.4-1.3z"/><path d="m665.4 904.5v-60c0-5.4 4.2-8.2 9.6-8.2h19.9c6.1 0 10 4.2 10 8.7v58.9c0 4.2-3.8 8.7-10 8.7h-19.9c-5.5 0-9.6-2.9-9.6-8.1zm14.3-3h11a.8.8 0 0 0 .7-.7v-52.7a.7.7 0 0 0 -.7-.7h-11a.7.7 0 0 0 -.7.7v52.7a.8.8 0 0 0 .7.7z"/><path d="m713.7 904.4v-18.6a2.7 2.7 0 0 1 2.7-2.9c2 0 7.6 3.8 9.2 5s1.7 1.5 1.7 4.1v9.5h10.4v-14a3.5 3.5 0 0 0 -1.8-3.2l-16.7-11.5c-2.9-2-5.5-4.1-5.5-8.6v-20.1c0-5.1 4.3-7.8 9.6-7.8h16.9c6.1 0 10.1 4.1 10.1 8.3v15.7a2.8 2.8 0 0 1 -2.3 3c-2.4 0-7.9-3.9-9.6-5s-1.7-1.5-1.7-4.1v-6.8h-9.4v12.5c0 1.4.3 2.2 1.9 3.4l16.9 11.6c3.3 2.2 5.2 4.3 5.2 8.6v20.9c0 4.1-4.8 8.2-9.6 8.2h-17.9c-6 0-10.1-4.1-10.1-8.2z"/><path d="m775.2 902.4c0 4.1 4.4 6.4 4.4 8.5s-.8 1.7-2.2 1.7h-17.8c-1.5 0-2.3-.8-2.3-1.7s4.4-4.4 4.4-8.5v-55.9c0-4-4.4-6.4-4.4-8.5s.8-1.7 2.3-1.7h17.8c1.4 0 2.2.8 2.2 1.7s-4.4 4.5-4.4 8.5z"/><path d="m785.9 912.6c-1.5 0-2.3-.8-2.3-1.7s4.4-4.4 4.4-8.5v-55.9c0-4-4.4-6.4-4.4-8.5s.8-1.7 2.3-1.7h35.4c2.4 0 3.4 1 3.4 3.4v11.6c0 1.5-.3 2-1.1 2.6s-9.5 6.6-10.7 6.6a2 2 0 0 1 -1.8-2v-11.1h-8.3a1.3 1.3 0 0 0 -1.3 1.2v24.8l9-5.7a5.3 5.3 0 0 1 2.7-1 2 2 0 0 1 1.9 2.2v9.3a3.3 3.3 0 0 1 -1.9 3.4l-11.7 7.4v11.3a1.2 1.2 0 0 0 1.3 1.2h8.3v-6.4c0-1.5.3-2 1.2-2.6s9.5-6.6 10.7-6.6a2 2 0 0 1 1.7 2v21.3c0 2.4-1 3.4-3.4 3.4z"/><path d="m828.5 859.7a2.7 2.7 0 0 1 1.7-2.4c3.1-1.8 3.3-3.4 3.3-5.2v-1.8c0-1.7-2.4-1.1-2.4-2.9v-8.6c0-1.8.7-2.5 2.4-2.5h9.1c1.7 0 2.5.7 2.5 2.5v8.4c0 7.7-7.7 14.7-14 14.7-1.8 0-2.6-1-2.6-2.2z"/><path d="m851 904.4v-18.6a2.7 2.7 0 0 1 2.6-2.9c2 0 7.6 3.8 9.2 5s1.7 1.5 1.7 4.1v9.5h10.5v-14a3.6 3.6 0 0 0 -1.9-3.2l-16.7-11.5c-2.9-2-5.4-4.1-5.4-8.6v-20.1c0-5.1 4.2-7.8 9.6-7.8h16.9c6.1 0 10 4.1 10 8.3v15.7c0 1.8-1.2 3-2.2 3s-7.9-3.9-9.6-5-1.8-1.5-1.8-4.1v-6.8h-9.4v12.5c0 1.4.3 2.2 2 3.4l16.8 11.6c3.4 2.2 5.2 4.3 5.2 8.6v20.9c0 4.1-4.7 8.2-9.6 8.2h-17.9c-6 0-10-4.1-10-8.2z"/><path d="m832.9 725.2s8.4 32.5-11.8 36.1c-22.9 4-14.1-28.8-5.2-41.3s22.8-48-3.4-70.7c0 0 4 29.7-17.7 28.5 0 0 9.1-17.6-21.4-42.5a64.2 64.2 0 0 1 -7.9-7.6 43.2 43.2 0 0 1 3.5-62.3c.7-.4 1-.6.7-.6a67.9 67.9 0 0 0 -41.4 13.8l-1.1.8a.1.1 0 0 0 -.1.1 70 70 0 0 0 -26.5 47 19.4 19.4 0 0 0 -.2 2.4 4.9 4.9 0 0 0 -.1 1.2c-.1 1.6-.2 3.1-.2 4.7a70.8 70.8 0 0 0 5.5 27.3l.9 2.4s4.3 10.6 1.1 18.8a14.1 14.1 0 0 1 -26.2.1c-4.4-9.3-4.4-24.2 7-35.6 0 0-46.2 11-33.3 56 4.9 17.1 10.4 11.4 15.8 32 1 3.8 4.9 7.8 24.3-4.5s18.2-11.7 30.8-9.3 17.4-3.3 17.4-3.3-8.2 26.9-17.4 28.4c0 0 20.3 1 21.4 19.5.5 7.8.6 13.7 26.4 17 4.4.5 12.9 0 8.5 15.8s-12.6 17-12.6 17 29.2 7.9 63-19.8a45.9 45.9 0 0 0 .2-71.4z"/><path d="m0 500h500v500h-500z"/></g><path d="m114.7 929.6a1.8 1.8 0 0 0 3.5.2 1.4 1.4 0 0 0 -.6-1.1l-1.5-.7c-2.9-1-3.9-2.1-3.9-4.1s1.7-3.9 4.3-3.9a4 4 0 0 1 4.4 4h-2.7a1.6 1.6 0 0 0 -1.7-1.7 1.4 1.4 0 0 0 -1.6 1.4 1.2 1.2 0 0 0 .8 1.2l1.5.7a7.2 7.2 0 0 1 2.7 1.4 3.6 3.6 0 0 1 1.1 2.6c0 2.4-1.8 4-4.5 4s-4.5-1.6-4.5-4.1z" fill="#fff"/><path d="m133.7 928.9a4.8 4.8 0 0 1 -4.9 4.8 4.9 4.9 0 1 1 0-9.7 4.7 4.7 0 0 1 4.9 4.9zm-7.3 0a2.4 2.4 0 1 0 2.4-2.7 2.5 2.5 0 0 0 -2.4 2.7z" fill="#fff"/><path d="m144.9 924.3v5.8a3.1 3.1 0 0 1 -1.1 2.7 4.4 4.4 0 0 1 -2.9.9 4.5 4.5 0 0 1 -3.1-1 3.4 3.4 0 0 1 -.9-2.6v-5.8h2.5v5.6a1.5 1.5 0 0 0 1.5 1.7 1.4 1.4 0 0 0 1.5-1.5v-5.8z" fill="#fff"/><path d="m151.2 930.7c0 .5.2.6.7.6h.5v2.1h-2c-1.2 0-1.7-.5-1.7-1.7v-5.3h-1v-2.1h1v-2.5h2.5v2.5h1.2v2.1h-1.2z" fill="#fff"/><path d="m158.2 925.3a3.1 3.1 0 0 1 2.5-1.3 3.3 3.3 0 0 1 2.2.8 3.3 3.3 0 0 1 .8 2.6v6h-2.5v-5.6c0-1.1-.5-1.7-1.3-1.7a2.1 2.1 0 0 0 -1.2.4 1.8 1.8 0 0 0 -.5 1.5v5.4h-2.5v-13.1h2.5z" fill="#fff"/><path d="m169.6 929.5a2.3 2.3 0 0 0 2.4 2 2.4 2.4 0 0 0 2.1-1.2l2.3.6a4.8 4.8 0 0 1 -4.5 2.8 4.7 4.7 0 0 1 -4.9-4.9 4.6 4.6 0 0 1 4.8-4.8 4.7 4.7 0 0 1 4.9 5v.5zm4.5-1.5a2.1 2.1 0 0 0 -2.3-1.9 2.1 2.1 0 0 0 -2.2 1.9z" fill="#fff"/><path d="m182.5 924.3v1.3a2.1 2.1 0 0 1 .8-1.2 3.3 3.3 0 0 1 1.4-.4h.3v2.6h-.5a2 2 0 0 0 -1.7.9c-.3.4-.3.8-.3 1.6v4.4h-2.5v-9.1z" fill="#fff"/><path d="m190.3 924.3v1.1a2.8 2.8 0 0 1 2.5-1.4 3.6 3.6 0 0 1 2.3.8 4.1 4.1 0 0 1 .8 2.8v5.8h-2.5v-5.6a3.1 3.1 0 0 0 -.2-1.1 1.6 1.6 0 0 0 -1.2-.6 1.7 1.7 0 0 0 -1.7 1.8v5.5h-2.4v-9.1z" fill="#fff"/><path d="m209.9 933.4h-2.7v-13.1h2.7v5.7l3.7-5.7h3.2l-4.3 6.3 4.3 6.8h-3.2l-3.7-5.8z" fill="#fff"/><path d="m222.2 921.7a1.4 1.4 0 1 1 -1.4-1.4 1.4 1.4 0 0 1 1.4 1.4zm-.1 11.7h-2.5v-9.1h2.5z" fill="#fff"/><path d="m228.6 930.7c0 .5.2.6.7.6h.5v2.1h-2c-1.2 0-1.7-.5-1.7-1.7v-5.3h-1v-2.1h1v-2.5h2.5v2.5h1.2v2.1h-1.2z" fill="#fff"/><path d="m240.7 932.4a5.3 5.3 0 0 1 -3.5 1.3 4.9 4.9 0 0 1 0-9.7 5.3 5.3 0 0 1 3.6 1.5l-1.6 1.5a2.9 2.9 0 0 0 -1.9-.8 2.4 2.4 0 0 0 -2.4 2.6 2.5 2.5 0 0 0 2.5 2.7 2.6 2.6 0 0 0 1.8-.8z" fill="#fff"/><path d="m246 925.3a3 3 0 0 1 5.5 2.1v6h-2.5v-5.6c0-1.1-.5-1.7-1.3-1.7a1.6 1.6 0 0 0 -1.1.4 1.9 1.9 0 0 0 -.6 1.5v5.4h-2.4v-13.1h2.4z" fill="#fff"/><path d="m256.7 929.5a2.3 2.3 0 0 0 2.4 2 2.4 2.4 0 0 0 2.1-1.2l2.2.6a4.9 4.9 0 0 1 -9.3-2.1 4.6 4.6 0 0 1 4.8-4.8 4.7 4.7 0 0 1 4.9 5v.5zm4.5-1.5a2.1 2.1 0 0 0 -2.3-1.9 2.1 2.1 0 0 0 -2.2 1.9z" fill="#fff"/><path d="m268.8 924.3v1.1a2.8 2.8 0 0 1 2.5-1.4 3.1 3.1 0 0 1 2.2.8 3.6 3.6 0 0 1 .8 2.8v5.8h-2.5v-5.6a1.8 1.8 0 0 0 -.2-1.1 1.3 1.3 0 0 0 -1.2-.6 1.6 1.6 0 0 0 -1.6 1.8v5.5h-2.5v-9.1z" fill="#fff"/><path d="m298 933.4h-2.9l-1-1.3a5.9 5.9 0 0 1 -3.7 1.6 3.7 3.7 0 0 1 -3.9-3.7c0-1.7.7-2.6 2.9-4a4 4 0 0 1 -1.1-2.7c0-1.6 1.4-2.8 3.3-2.8a3 3 0 0 1 3.2 2.8 3.4 3.4 0 0 1 -.8 2 6 6 0 0 1 -1.4 1.2l1.8 2.4a11.9 11.9 0 0 0 1.9-2l1.7 1.5a22.8 22.8 0 0 1 -2.2 2.2zm-7.4-5.7c-1.2.8-1.6 1.3-1.6 2.1a1.8 1.8 0 0 0 1.7 1.7 3.1 3.1 0 0 0 2-1.1zm1.9-4.4a.9.9 0 0 0 -.9-.9 1 1 0 0 0 -1 .9c0 .5.2.8.7 1.5s1.2-.9 1.2-1.5z" fill="#fff"/><path d="m311.2 933.4h-2.7v-13.1h4c3.3 0 5 1.4 5 4.1a3.7 3.7 0 0 1 -3.1 4l3.6 5h-3.2l-3.6-5.2zm1.2-6.8c1.5 0 2.4-.7 2.4-2a2 2 0 0 0 -2.2-2.1h-1.4v4.1z" fill="#fff"/><path d="m328 924.3h2.5v9.1h-2.5v-1.3a3.8 3.8 0 0 1 -3.2 1.6c-2.5 0-4.3-2-4.3-4.7s1.9-5 4.5-5a3.4 3.4 0 0 1 3 1.5zm-4.9 4.6a2.6 2.6 0 0 0 2.4 2.8 2.7 2.7 0 0 0 2.5-2.9 2.5 2.5 0 0 0 -2.5-2.7 2.5 2.5 0 0 0 -2.4 2.8z" fill="#fff"/><path d="m347.5 924.3-3 9.1h-2.6l-1.6-5.6-1.6 5.6h-2.6l-3-9.1h2.6l1.8 5.5 1.6-5.5h2.4l1.6 5.5 1.8-5.5z" fill="#fff"/><path d="m361.9 920.3a4.9 4.9 0 0 1 3.3.8 3.4 3.4 0 0 1 1.3 2.7 3.2 3.2 0 0 1 -.9 2.3 2.6 2.6 0 0 1 -1.3.7 4.2 4.2 0 0 1 1.5.7 3.3 3.3 0 0 1 1 2.4 3.7 3.7 0 0 1 -1.4 2.9 5.5 5.5 0 0 1 -2.9.6h-4.8v-13.1zm-1.6 5.6h1.1q2.4 0 2.4-1.8a1.7 1.7 0 0 0 -.8-1.5 4 4 0 0 0 -1.7-.3h-1zm0 5.5h1.4a3.4 3.4 0 0 0 1.7-.3 1.7 1.7 0 0 0 .6-1.4 1.6 1.6 0 0 0 -.7-1.5c-.4-.3-.8-.3-1.8-.3h-1.2z" fill="#fff"/><path d="m377.2 924.3h2.5v9.1h-2.5v-1.3a3.9 3.9 0 0 1 -3.2 1.6 4.5 4.5 0 0 1 -4.4-4.7 4.7 4.7 0 0 1 4.6-5 3.6 3.6 0 0 1 3 1.5zm-4.9 4.6a2.5 2.5 0 0 0 2.4 2.8 2.7 2.7 0 0 0 2.5-2.9 2.5 2.5 0 0 0 -2.5-2.7 2.5 2.5 0 0 0 -2.4 2.8z" fill="#fff"/><path d="m386.1 924.3v1.3a2.1 2.1 0 0 1 .8-1.2 3.3 3.3 0 0 1 1.5-.4h.3v2.6h-.6a1.7 1.7 0 0 0 -1.6.9 2.4 2.4 0 0 0 -.4 1.6v4.4h-2.5v-9.1z" fill="#fff"/><path d="m161.4 910.9c0 .9-1.1 1.7-2.2 1.7h-17.5c-1.4 0-2.3-.8-2.3-1.7s2.3-1.8 2.3-4-7-19.2-7-19.2l-3.8 2.3c-.3.2-.4.5-.4 1.1v11.3c0 4.1 4.4 6.4 4.4 8.5s-.9 1.7-2.3 1.7h-17.8c-1.4 0-2.2-.8-2.2-1.7s4.4-4.4 4.4-8.5v-55.9c0-4-4.4-6.4-4.4-8.5s.8-1.7 2.2-1.7h30.7c6.7 0 11 3 11 9.7v23.8c0 4.3-4.6 6.9-9.2 9.9 4.1 11.9 8.4 22.6 9.1 23.9 3 5.3 5 5.1 5 7.3zm-30.9-63.5v28.4l10-6.8c2.2-1.6 2.4-2.4 2.4-3.1v-17.2c0-.9-.4-1.3-1.4-1.3z" fill="#fff"/><path d="m165.4 904.5v-60c0-5.4 4.2-8.2 9.6-8.2h19.9c6.1 0 10 4.2 10 8.7v58.9c0 4.2-3.8 8.7-10 8.7h-19.9c-5.5 0-9.6-2.9-9.6-8.1zm14.3-3h11a.8.8 0 0 0 .7-.7v-52.7a.7.7 0 0 0 -.7-.7h-11a.7.7 0 0 0 -.7.7v52.7a.8.8 0 0 0 .7.7z" fill="#fff"/><path d="m213.7 904.4v-18.6a2.7 2.7 0 0 1 2.7-2.9c2 0 7.6 3.8 9.2 5s1.7 1.5 1.7 4.1v9.5h10.4v-14a3.5 3.5 0 0 0 -1.8-3.2l-16.7-11.5c-2.9-2-5.5-4.1-5.5-8.6v-20.1c0-5.1 4.3-7.8 9.6-7.8h16.9c6.1 0 10.1 4.1 10.1 8.3v15.7a2.8 2.8 0 0 1 -2.3 3c-2.4 0-7.9-3.9-9.6-5s-1.7-1.5-1.7-4.1v-6.8h-9.4v12.5c0 1.4.3 2.2 1.9 3.4l16.9 11.6c3.3 2.2 5.2 4.3 5.2 8.6v20.9c0 4.1-4.8 8.2-9.6 8.2h-17.9c-6 0-10.1-4.1-10.1-8.2z" fill="#fff"/><path d="m275.2 902.4c0 4.1 4.4 6.4 4.4 8.5s-.8 1.7-2.2 1.7h-17.8c-1.5 0-2.3-.8-2.3-1.7s4.4-4.4 4.4-8.5v-55.9c0-4-4.4-6.4-4.4-8.5s.8-1.7 2.3-1.7h17.8c1.4 0 2.2.8 2.2 1.7s-4.4 4.5-4.4 8.5z" fill="#fff"/><path d="m285.9 912.6c-1.5 0-2.3-.8-2.3-1.7s4.4-4.4 4.4-8.5v-55.9c0-4-4.4-6.4-4.4-8.5s.8-1.7 2.3-1.7h35.4c2.4 0 3.4 1 3.4 3.4v11.6c0 1.5-.3 2-1.1 2.6s-9.5 6.6-10.7 6.6a2 2 0 0 1 -1.8-2v-11.1h-8.3a1.3 1.3 0 0 0 -1.3 1.2v24.8l9-5.7a5.3 5.3 0 0 1 2.7-1 2 2 0 0 1 1.9 2.2v9.3a3.3 3.3 0 0 1 -1.9 3.4l-11.7 7.4v11.3a1.2 1.2 0 0 0 1.3 1.2h8.3v-6.4c0-1.5.3-2 1.2-2.6s9.5-6.6 10.7-6.6a2 2 0 0 1 1.7 2v21.3c0 2.4-1 3.4-3.4 3.4z" fill="#fff"/><path d="m328.5 859.7a2.7 2.7 0 0 1 1.7-2.4c3.1-1.8 3.3-3.4 3.3-5.2v-1.8c0-1.7-2.4-1.1-2.4-2.9v-8.6c0-1.8.7-2.5 2.4-2.5h9.1c1.7 0 2.5.7 2.5 2.5v8.4c0 7.7-7.7 14.7-14 14.7-1.8 0-2.6-1-2.6-2.2z" fill="#fff"/><path d="m351 904.4v-18.6a2.7 2.7 0 0 1 2.6-2.9c2 0 7.6 3.8 9.2 5s1.7 1.5 1.7 4.1v9.5h10.5v-14a3.6 3.6 0 0 0 -1.9-3.2l-16.7-11.5c-2.9-2-5.4-4.1-5.4-8.6v-20.1c0-5.1 4.2-7.8 9.6-7.8h16.9c6.1 0 10 4.1 10 8.3v15.7c0 1.8-1.2 3-2.2 3s-7.9-3.9-9.6-5-1.8-1.5-1.8-4.1v-6.8h-9.4v12.5c0 1.4.3 2.2 2 3.4l16.8 11.6c3.4 2.2 5.2 4.3 5.2 8.6v20.9c0 4.1-4.7 8.2-9.6 8.2h-17.9c-6 0-10-4.1-10-8.2z" fill="#fff"/><path d="m332.9 725.2s8.4 32.5-11.8 36.1c-22.9 4-14.1-28.8-5.2-41.3s22.8-48-3.4-70.7c0 0 4 29.7-17.7 28.5 0 0 9.1-17.6-21.4-42.5a64.2 64.2 0 0 1 -7.9-7.6 43.2 43.2 0 0 1 3.5-62.3c.7-.4 1-.6.7-.6a67.9 67.9 0 0 0 -41.4 13.8l-1.1.8a.1.1 0 0 0 -.1.1 70 70 0 0 0 -26.5 47 19.4 19.4 0 0 0 -.2 2.4 4.9 4.9 0 0 0 -.1 1.2c-.1 1.6-.2 3.1-.2 4.7a70.8 70.8 0 0 0 5.5 27.3l.9 2.4s4.3 10.6 1.1 18.8a14.1 14.1 0 0 1 -26.2.1c-4.4-9.3-4.4-24.2 7-35.6 0 0-46.2 11-33.3 56 4.9 17.1 10.4 11.4 15.8 32 1 3.8 4.9 7.8 24.3-4.5s18.2-11.7 30.8-9.3 17.4-3.3 17.4-3.3-8.2 26.9-17.4 28.4c0 0 20.3 1 21.4 19.5.5 7.8.6 13.7 26.4 17 4.4.5 12.9 0 8.5 15.8s-12.6 17-12.6 17 29.2 7.9 63-19.8a45.9 45.9 0 0 0 .2-71.4z" fill="#fff"/></svg>