<svg id="Layer_1" data-name="Layer 1" xmlns="http://www.w3.org/2000/svg" viewBox="0 0 444 90.79"><defs><style>.cls-1{fill:#fff;}</style></defs><path class="cls-1" d="M157.62,220.47v30.62h-2.76a22.52,22.52,0,0,0-4.2-9.2q-11.62,13-29.56,13C95.47,254.9,78,237,78,211.14c0-27.85,17.61-47,43-47,11.69,0,23.12,5,29.69,12.88a33.28,33.28,0,0,0,3.42-11.3h2.75l.79,33.24h-2.76c-1.31-8-3.54-14.45-6.83-19.18-5.12-7.62-14.85-12.35-25-12.35-18.92,0-30.22,16.16-30.22,43.23,0,24.7,12.08,40.6,30.87,40.6a34.07,34.07,0,0,0,17.48-5.13c6.7-4.2,12.35-14.71,13.66-25.62Z" transform="translate(-78 -164.1)"/><path class="cls-1" d="M240.14,253.32H165.78v-3h2.62c10.38-.13,11.3-1.71,11.17-19.84v-43c.13-17.74-.66-19.05-11.82-18.79h-2v-3h42v3h-3.94c-11.17-.26-12,1.05-11.69,18.79v45.86c-.4,15.77.39,16.82,13.14,17h6.56c15,.66,20.76-4.47,25.89-22.87h3Z" transform="translate(-78 -164.1)"/><path class="cls-1" d="M405.58,253.32c-4.07-2.76-11.56-11.83-19.18-23-12.49-17.22-15.11-19.71-20-19.32h-3.54v19.58c-.27,18,.79,19.71,11.17,19.71h4.2v3H336.34v-3h2.75c10.39,0,11.44-1.71,11.17-19.71v-43.1c.27-17.74-.65-19.05-11.82-18.79h-1.58v-3l12.62-.66c7.22-.39,16.55-.65,20-.65,12.74,0,21.41,1.7,27.46,5.52,7,4.2,10.38,10,10.38,17.21,0,12-9.33,20.36-25,22.2,4.73,2.63,10.65,9.33,20,22.08,10.39,14.06,17.09,18.92,26.15,18.92h.66v3ZM364.32,208h6.05c15.89-.26,22.73-6.31,22.73-20,0-8.81-3-15.11-8.68-17.74-3.54-1.84-8.67-2.63-15.89-2.63-1.71,0-3.16.13-5.65.26v40.21Z" transform="translate(-78 -164.1)"/><path class="cls-1" d="M455.38,221.13l-2.23,5.52C448.68,237,448,239.26,448,242.28c0,4.73,3.54,8,8.54,8h1.05v3h-26v-3l1.19-.13c7-1.58,9.32-4.34,14.32-17.35l3.15-7.49,25.36-61h2.5l29.3,69.77C513.2,248.06,514,249,521.21,250.3H522v3H487.57v-3h1.06c7.35,0,9.72-1.05,9.72-4.6,0-1.58,0-1.58-3-8.41l-6.7-16.16Zm16.69-40.34-15.5,37.32h31Z" transform="translate(-78 -164.1)"/><path class="cls-1" d="M260.25,242.28c0-2.51.47-4.5,3.19-11.07H260l-.68,1.61c-5,13-7.35,15.77-14.32,17.35l-1.18.13v3h26v-3h-1C263.8,250.3,260.25,247,260.25,242.28Z" transform="translate(-78 -164.1)"/><polygon class="cls-1" points="195.12 43.59 206.3 16.69 217.47 43.59 230.54 43.59 212.34 0.26 209.84 0.26 191.82 43.59 195.12 43.59"/><path class="cls-1" d="M319.64,234.14l-1.23-2.93H305l2.52,6.08c3,6.83,3,6.83,3,8.41,0,3.55-2.37,4.6-9.73,4.6H299.8v3h34.43v-3h-.79C326.21,249,325.42,248.06,319.64,234.14Z" transform="translate(-78 -164.1)"/><path class="cls-1" d="M252.09,226.56V213H262v2.78h-6.54v2.61h5.26v2.75h-5.26v2.65H262v2.78Z" transform="translate(-78 -164.1)"/><path class="cls-1" d="M268.79,226.56h-4.86V213H269c4.78,0,7.49,2.65,7.49,6.69S273.76,226.56,268.79,226.56Zm0-10.81h-1.43v8.05H269c2.49,0,4.06-1.28,4.06-4S271.64,215.75,268.81,215.75Z" transform="translate(-78 -164.1)"/><path class="cls-1" d="M278.3,226.56V213h3.45v13.57Z" transform="translate(-78 -164.1)"/><path class="cls-1" d="M291.46,215.88v10.68H288V215.88h-4.32V213h12.09v2.89Z" transform="translate(-78 -164.1)"/><path class="cls-1" d="M297.28,226.56V213h3.45v13.57Z" transform="translate(-78 -164.1)"/><path class="cls-1" d="M309.68,226.89c-4,0-7.08-2.5-7.08-7.08a6.85,6.85,0,0,1,7.12-7.14c4,0,7.1,2.47,7.1,7.05A6.9,6.9,0,0,1,309.68,226.89Zm0-11.45c-2.3,0-3.61,1.74-3.61,4.28s1.35,4.39,3.67,4.39,3.61-1.76,3.61-4.3S312,215.44,309.68,215.44Z" transform="translate(-78 -164.1)"/><path class="cls-1" d="M328,213h3.24v13.7h-3.67l-5.71-8.92v8.79h-3.24V213h3.74l5.64,8.82Z" transform="translate(-78 -164.1)"/></svg>