<svg xmlns="http://www.w3.org/2000/svg" width="300" height="300" viewBox="0 0 300 300"><path d="M111.5 191.8v-6h.8v6zm9.6 0l-3.5-4.8v4.8h-.8v-6h.8l3.4 4.7v-4.7h.8v6zm6.7 0v-5.3h-1.9v-.7h4.6v.7h-1.9v5.3zm6.8 0v-6h4v.7h-3.2v1.9h3.1v.7h-3.1v2h3.2v.7zm11.8 0l-1.5-2.4h-1.2v2.4h-.8v-6h2.4a1.8 1.8 0 0 1 1.9 1.8 1.7 1.7 0 0 1-1.5 1.8l1.6 2.4zm0-4.2a1.1 1.1 0 0 0-1.2-1.1h-1.5v2.3h1.5a1.2 1.2 0 0 0 1.2-1.2zm5.1 4.2v-6h.8v6zm5.1-3a3 3 0 1 1 3 3.1 2.9 2.9 0 0 1-3-3.1zm5.2 0a2.2 2.2 0 0 0-2.2-2.4 2.4 2.4 0 0 0 0 4.8 2.2 2.2 0 0 0 2.2-2.4zm8.6 3l-1.6-2.4h-1.2v2.4h-.7v-6h2.4a1.8 1.8 0 0 1 .3 3.6l1.6 2.4zm0-4.2a1.1 1.1 0 0 0-1.2-1.1h-1.6v2.3h1.6a1.2 1.2 0 0 0 1.2-1.2zm4.8 3.4l.4-.6a2.6 2.6 0 0 0 1.9.8c1.1 0 1.4-.5 1.4-1s-3.6-.7-3.6-2.8.9-1.7 2.1-1.7a2.9 2.9 0 0 1 2.1.8l-.4.6a2.3 2.3 0 0 0-1.7-.7c-.8 0-1.3.4-1.3.9s3.6.6 3.6 2.8-.6 1.8-2.2 1.8a3.1 3.1 0 0 1-2.3-.9zm-32.756-75.455l3.323-3.323 3.338 3.338-3.324 3.323zm2.408-6.495l.919-.92.933.933-.92.92zm-8.823-.078l.92-.92.933.934-.92.92zm17.645.055l.92-.92.933.934-.92.919z"/><path d="M145.8 120.5l-8.8-8.8 1.4 15.5h14.7l1.5-15.5-8.8 8.8zM23.9 162.3c.2 0 .3.1.3.2a.3.3 0 0 1-.3.3h-7.7a.3.3 0 0 1-.3-.3c0-.1.1-.2.3-.2h2.5v-15.7l-5.3 15.7c-.2.6-.3.9-.5.9s-.2 0-.4-.4l-5.9-16.3v13.1c0 2.4.7 2.7 2.2 2.7h.4c.2 0 .3.1.3.2a.3.3 0 0 1-.3.3H3.4a.3.3 0 0 1-.3-.3c0-.1.1-.2.3-.2h.4c1.1 0 2.3-.3 2.3-2v-15.1c-.4-.9-.6-.9-1-.9H3.5c-.1 0-.2-.1-.2-.3s0-.2.2-.2h5l5.6 15.3 5.1-15.3h4.3a.3.3 0 0 1 .3.3c0 .1-.1.2-.3.2h-2.1v18zm27.3 0c.2 0 .3.1.3.2a.3.3 0 0 1-.3.3h-8c-.3 0-.3-.2-.3-.3s0-.2.2-.2h1.6c.8 0 1.1-.1 1.1-.6a1.3 1.3 0 0 0-.1-.6l-1.9-5.3h-5.9l-1 3.1a8.7 8.7 0 0 0-.5 2.3c0 .7.4 1.1 1.3 1.1h1l.2.2c0 .1-.1.3-.2.3h-6.1a.3.3 0 0 1-.3-.3c0-.1.1-.2.3-.2h.5a2.7 2.7 0 0 0 2.9-2.1l5.4-16c.1-.5.3-.9.5-.9s.2.1.4.5l6.1 16.9c.5 1.4.8 1.5 1.3 1.6zm-10.5-14.9l-2.6 7.9h5.5zm22.5-1.6v13.8c0 2.4.7 2.7 2.2 2.7h.5l.2.2c0 .1-.1.3-.2.3H60c-.1 0-.2-.2-.2-.3l.2-.2h.5c1.2 0 2.2-.3 2.2-2v-15.1c-.5-.9-.7-.9-1.1-.9h-1.4a.3.3 0 0 1-.3-.3c0-.1 0-.2.3-.2h4.9l9.6 14.6v-12.2c0-1.6-1-1.9-2.2-1.9h-.4a.3.3 0 0 1-.3-.3c0-.1.1-.2.3-.2h5.8c.2 0 .3.1.3.2a.3.3 0 0 1-.3.3h-.4c-1.5 0-2.2.3-2.2 2.6v15.9c0 .3-.1.4-.3.4a.7.7 0 0 1-.6-.4zm24.5 7.4c0-5.2 3.9-9.9 9.3-9.9s9.3 4.7 9.3 9.9-3.9 9.8-9.3 9.8-9.3-4.7-9.3-9.8zm15.8 0c0-4.7-1.6-9.4-6.5-9.4s-6.6 4.7-6.6 9.4 1.6 9.3 6.6 9.3 6.5-4.6 6.5-9.3zm15.9-7.4v13.8c0 2.4.7 2.7 2.2 2.7h.5l.2.2c0 .1-.1.3-.2.3h-5.9a.5.5 0 0 1-.3-.3l.3-.2h.5c1.1 0 2.2-.3 2.2-2v-15.1c-.5-.9-.8-.9-1.1-.9h-1.4a.3.3 0 0 1-.3-.3c0-.1 0-.2.3-.2h4.9l9.6 14.6v-12.2c0-1.6-1-1.9-2.2-1.9h-.4a.3.3 0 0 1-.3-.3c0-.1.1-.2.3-.2h5.8c.2 0 .3.1.3.2a.3.3 0 0 1-.3.3h-.4c-1.5 0-2.3.3-2.3 2.6v15.9c0 .3 0 .4-.2.4a.7.7 0 0 1-.6-.4zm47.3 16.5c.2 0 .3.1.3.2a.3.3 0 0 1-.3.3H159a.3.3 0 0 1-.3-.3c0-.1.1-.2.3-.2h2.6v-18H159a.3.3 0 0 1-.3-.3c0-.1.1-.2.3-.2h7.1c2.9 0 7.3.5 7.3 4.7s-6.8 5.1-9.2 5.2v8.6zm-2.3-9.1c2.5 0 6.2-.1 6.2-4.4s-3.8-4.5-6.4-4.5v8.9zm26.2 9.1c.2 0 .3.1.3.2a.3.3 0 0 1-.3.3H183c-.3 0-.4-.1-.4-.3s.1-.2.3-.2h2.6v-18h-2.6a.3.3 0 0 1-.3-.3c0-.1.1-.2.3-.2h7.2c2.9 0 6.9.6 6.9 4.5s-2.2 4.4-4.6 4.8c4.4.8 4.4 3.5 4.4 6.3s.1 3 1.6 3a3 3 0 0 0 1.2-.3h.2l.2.2c0 .1-.1.1-.2.2a2.7 2.7 0 0 1-1.9.5c-3.5 0-3.7-2.3-3.8-4.4s-.2-5.2-4.6-5.2h-1.4v9zm-1.5-9.5c2.2 0 5.1-.2 5.1-4.1s-3.1-4.4-6.1-4.4v8.5zm27.8 9.5c.2 0 .3.1.3.2a.3.3 0 0 1-.3.3h-7.7a.3.3 0 0 1-.3-.3c0-.1.1-.2.3-.2h2.6v-18h-2.6a.3.3 0 0 1-.3-.3c0-.1.1-.2.3-.2h7.7c.2 0 .3.1.3.2a.3.3 0 0 1-.3.3h-2.5v18zm13.5-16.5v13.8c0 2.4.7 2.7 2.2 2.7h.5l.2.2c0 .1-.1.3-.2.3h-5.9c-.1 0-.2-.2-.2-.3l.2-.2h.5c1.2 0 2.2-.3 2.2-2v-15.1c-.4-.9-.7-.9-1.1-.9h-1.4a.3.3 0 0 1-.3-.3c0-.1.1-.2.3-.2h4.9l9.7 14.6v-12.2c0-1.6-1.1-1.9-2.3-1.9h-.4a.3.3 0 0 1-.3-.3c0-.1.1-.2.3-.2h5.8c.2 0 .3.1.3.2a.3.3 0 0 1-.3.3h-.4c-1.5 0-2.2.3-2.2 2.6v15.9c0 .3-.1.4-.3.4a.7.7 0 0 1-.6-.4zm34.3 17.2a9.6 9.6 0 0 1-9.8-9.8c0-5.2 3.6-9.9 9.3-9.9a7.1 7.1 0 0 1 4.4 1.4c.4.2.6.4.9.4a.4.4 0 0 0 .4-.4c0-.2-.1-.5-.1-.8s.1-.2.3-.2.3.1.3.4a22.3 22.3 0 0 0 1.6 4.3v.2c0 .1-.1.2-.3.2s-.2-.1-.4-.3c-2.2-3.5-4.7-4.7-7.1-4.7-4.8 0-6.6 4.7-6.6 9.1s2.4 9.6 7.3 9.6a7.5 7.5 0 0 0 6.7-4.2.2.2 0 0 1 .2-.2h.2c0 .1.1.1.1.2h-.1a7.6 7.6 0 0 1-7.3 4.7zm26.9-.7c3.9 0 4.5-2.2 4.8-4.4 0-.3 0-.5.3-.5s.2.2.2.5-.3 2.3-.3 4a2.8 2.8 0 0 0 .1.9h-14.5a.3.3 0 0 1-.3-.3c0-.1.1-.2.3-.2h2.6v-18h-2.6a.3.3 0 0 1-.3-.3c0-.1.1-.2.3-.2h14.5v2.1a20.5 20.5 0 0 1 .2 2.7c0 .2 0 .4-.2.4s-.3-.1-.3-.4c-.2-2.2-.3-4.3-5-4.3h-4v7.7h1.2c3.3 0 3.2-1.6 3.2-3s.1-.5.3-.5.2.2.2.4-.1 1.9-.1 3.3.1 2.6.1 3.6 0 .5-.2.5-.3-.3-.3-.5c-.2-2.3-.3-3.3-3.2-3.3h-1.2v9.8zm-148.574-9.238l2.758-2.758 2.778 2.78-2.757 2.757z"/></svg>