<svg xmlns="http://www.w3.org/2000/svg" width="250" height="250" viewBox="0 0 250 250"><path fill="#2a92c1" d="M239.1 61.4a2.3 2.3 0 0 1 2.6 2.6v122.1a2.3 2.3 0 0 1-2.6 2.5H10.9a2.3 2.3 0 0 1-2.6-2.6V64a2.3 2.3 0 0 1 2.6-2.6h228.2m.1-4.3H10.8C6.7 57.1 4 59.8 4 64v122.1a6.4 6.4 0 0 0 6.8 6.8h228.4a6.4 6.4 0 0 0 6.8-6.8V63.9a6.4 6.4 0 0 0-6.8-6.8z"/><path fill="#2a92c1" d="M213.7 138.7v37.1h-19.2v-37.1h-11.6v-11.5h42.5v11.5zM118.6 122c15.4 0 22.7-5.3 22.7-18.5V72.7h-18v32.7c0 3.5-2.2 5-4.8 5s-4.8-1.4-4.8-5V72.7H95.2v30.8c0 12.3 7.2 18.5 23.4 18.5zm60.3 53.8v-48.6h-18.5V145h-10.1v-17.8h-18.5v48.6h18.5V157h10.1v18.8zm-72.8 1.5a52.6 52.6 0 0 0 20.4-3.9v-25.3h-22.4v9.7h5.8v8.2a18.4 18.4 0 0 1-2.8.3c-7.3 0-9.7-5.9-9.7-14.7s3.9-13.4 9.8-13.4a17.1 17.1 0 0 1 11.5 4.7l8.4-9.7c-5.5-4.8-12.1-7.4-21.2-7.4-16.2 0-27.4 9.4-27.4 25.8s10.3 25.7 27.6 25.7zm-51.4-1.5H74v-48.6H54.7zm-4 0v-12.1H35.1v-36.5h-19v48.6zM171 121.3c12.7 0 24.8-7.2 24.8-24.8S185 72.7 172 72.7h-25.1v48.6H171m-3.8-38c3.5 0 9.6.5 9.6 13.2s-5.3 14-9.5 14h-1.9V83.3h1.8m-91.7 38c8.9 0 16.2-4.4 16.2-14.6 0-6.2-4.1-10-8.4-11.7 4.5-2 7-5.5 7-10.1 0-7.9-5.8-12.2-14.9-12.2H45.8v48.6h29.7m-6.4-38.6c2.5 0 4.4 1.4 4.4 4.7s-1.8 5.1-4.4 5.1h-5.3v-9.8h5.3m.6 17.9c2.3 0 4.6 1.1 4.6 5.2s-2.2 5.3-4.6 5.3h-5.9v-10.5h5.9M223 170.8a2.5 2.5 0 0 0-2-.9 3 3 0 0 0-2.1 5.1 2.8 2.8 0 0 0 2.1.8 2.4 2.4 0 0 0 2-.8 2.9 2.9 0 0 0 0-4.2zm-.3 3.9a2.8 2.8 0 0 1-1.7.7 2.4 2.4 0 0 1-1.7-.7 2.5 2.5 0 0 1-.8-1.8 2.8 2.8 0 0 1 2.5-2.5 2.5 2.5 0 0 1 1.7.8 2.4 2.4 0 0 1 .7 1.7 2.9 2.9 0 0 1-.7 1.8zm-.2-2.5a1 1 0 0 0-.4-.7 1.2 1.2 0 0 0-.9-.3h-1.6v3.4h.7v-1.4h.8l.6 1.4h.7l-.6-1.5a1.1 1.1 0 0 0 .7-.9zm-1.4.5h-.8v-1h.8c.4 0 .6.2.6.5s-.2.5-.6.5zm2.5 3.2h.6l1.8-6h-.5zm4.8-1.5l-1-4.4h-1v5.8h.6v-5.3l1.2 5.3h.4l1.2-5.3v5.3h.6V170h-1zm3.6-4.4h-1.1v5.8h1.1c1.2 0 1.9-.7 1.9-2.9s-.7-2.9-1.9-2.9zm-.1 5.2h-.4v-4.7h.4c.9 0 1.4.4 1.4 2.4s-.5 2.3-1.4 2.3z"/></svg>