<svg xmlns="http://www.w3.org/2000/svg" width="250" height="250" viewBox="0 0 250 250"><path d="M31 114.2V18.8a12.4 12.4 0 0 1 .6-4.3 9 9 0 0 1 8.9-6.3h149.7c5.4 0 9.4 3.8 9.7 9.4v108.2c-.1 1.4.4 1.3 1.4.8s4.3-2.8 7.1-2.8a9.6 9.6 0 0 1 9.2 5.5 10.2 10.2 0 0 1-.5 11.1 11 11 0 0 1-3.9 3.5l-11.7 6.6a2.6 2.6 0 0 0-1.6 2.8v57a9.9 9.9 0 0 1-4 8.4 9 9 0 0 1-5.7 1.8h-25.6a3.3 3.3 0 0 0-2.8 1.2c-10.9 11.2-24 18.2-39.7 19.8-18.3 1.8-34.4-3.5-48.4-15.4-1.6-1.4-3.2-2.9-4.7-4.5a3.3 3.3 0 0 0-2.7-1.1c-8.4 0-16.7-.2-25.1.1A10 10 0 0 1 31 210.3c.1-32 0-64.1 0-96.1zm12.9.1v91.2c-.1 1.1.3 1.6 1.5 1.6h11.5c1.1 0 1.4-.3.8-1.3-6-11.3-8.4-23.4-8.4-36.1a20 20 0 0 1 5.5-13.9 43.3 43.3 0 0 1 14.5-9.8c12.9-5.7 26.6-7.8 40.6-8.4a139.5 139.5 0 0 1 22.4.8c11 1.4 21.6 3.7 31.6 8.5a2.3 2.3 0 0 0 2.5-.1c6.2-3.7 12.4-7.4 18.7-10.9a3.4 3.4 0 0 0 2-3.4V24.1c0-2.5 0-2.5-2.5-2.5H46.3c-2.4 0-2.4 0-2.4 2.5zM62 188c5.3 22.1 26.5 44.4 56.3 42.8s46.6-24.4 50.4-42.7c-16.5 9.5-34.6 12.1-53.1 12.1S78.8 197.6 62 188zm91-33.5a56.7 56.7 0 0 0-9.6-2.8 131.3 131.3 0 0 0-48-1.6c-9.1 1.3-17.9 3.6-26 8a21.7 21.7 0 0 0-7.7 6.1c-2.8 3.8-2.6 6.7.7 10.1s7.2 5.5 11.3 7.4a1.6 1.6 0 0 0 2.3-.5 60.6 60.6 0 0 1 15.7-12.4 26 26 0 0 1 11.9-3.4c6.5-.2 12.2 2 17.6 5.4a2.9 2.9 0 0 0 3.5.1l23.2-13.5zm-66.1 29.1l1.9.5c10.1 2.3 20.3 2.7 30.5 2.7l2-.2a.9.9 0 0 0 .9-.5c1.1-1.7 2.8-2.6 4.4-3.7 6.6-4.2 13.6-8 20.5-11.9 15.2-8.5 30.3-17.2 45.4-25.7l15.8-9c.8-.5 1.5-1.1.9-2s-1.2-.2-1.8.2l-48.5 28-32.4 18.8a6.5 6.5 0 0 1-7.3-.1l-4.4-2.7c-4.3-2.5-8.9-3.9-13.9-2.7s-9.4 4.8-14 8.3zm100.2-.6c0-7.5-.1-15.1 0-22.6 0-1.3-.3-1.6-1.5-.9a36.2 36.2 0 0 1-4.3 2.4c-.5.4-.8.7-.6 1.4a46.1 46.1 0 0 1 .7 11.7 74.1 74.1 0 0 1-8.1 30.6c-.6 1.1-.5 1.5.9 1.5h11c1.4 0 1.9-.4 1.9-1.9-.1-7.4 0-14.8 0-22.2zm-49.7 3.8v.4a86.8 86.8 0 0 0 10.1-2.3c6.4-1.8 12.7-4.1 18.1-8.2 2.1-1.7 4.2-3.5 5-6.3.2-.7.6-1.5 0-2s-1.2.2-1.7.5l-19.1 10.9z"/><path d="M141.8 82.1c-.5 4.5-1 9-1.4 13.6-.3 2.7-.7 5.4-.9 8.1a2 2 0 0 1-2.1 1.9H130a1.7 1.7 0 0 1-1.9-2.1c.4-4 .7-7.9 1.1-11.9.7-7 1.4-14 2-21 .4-3.2.7-6.5 1-9.8a2.1 2.1 0 0 1 2.4-2.1c2.8 0 5.6.1 8.4 0a2.7 2.7 0 0 1 2.9 2.3c2.2 8.2 4.6 16.3 6.9 24.5.1.5.3 1 .6 2 1.1-3.6 2-6.8 2.9-10 1.6-5.6 3.2-11.1 4.7-16.6a2.7 2.7 0 0 1 2.9-2.2h8.2c1.9.1 2.5.6 2.6 2.4.9 9 1.7 18 2.6 27 .5 4.7.9 9.5 1.4 14.3.3 2.6-.1 3.2-2.7 3.2h-6.2c-1.8-.1-2.3-.5-2.5-2.3-.7-6.2-1.3-12.4-1.9-18.6a15.9 15.9 0 0 0-.6-3c-.2.8-.5 1.6-.7 2.5l-5.1 18.8c-.6 2.2-1 2.5-3.2 2.5h-4.7c-2.2 0-2.6-.3-3.2-2.5l-5.4-19.9a4.9 4.9 0 0 1-.4-1.1zm-23.1 23.6c-1.2 0-2.4-.1-3.6 0a2.6 2.6 0 0 1-2.6-1.8c-.4-1.4-1-2.8-1.5-4.3a1.8 1.8 0 0 0-2-1.4H96.6a1.7 1.7 0 0 0-1.9 1.3c-.5 1.5-1.1 2.9-1.6 4.4a2.3 2.3 0 0 1-2.6 1.8c-2.3-.1-4.7 0-7.1 0s-2.4-.7-1.7-2.5c3.4-9.3 6.7-18.6 10.1-27.8 1.7-4.8 3.4-9.5 5.2-14.2.7-2 1.2-2.3 3.4-2.4h4.6c2.4 0 2.9.3 3.7 2.5 2.2 5.9 4.4 11.7 6.5 17.6 3 8.1 5.9 16.1 8.8 24.2.7 1.9.3 2.5-1.8 2.6zM103 74.8l-.4.2L99 86.5c-.3 1 .2 1.1 1 1.1h5.7c1 0 1.2-.5.9-1.4zm-39.1 7.1V61.3c0-2.1.4-2.4 2.4-2.5h6.4c2.5.1 3 .6 3 3 .1 6.6 0 13.1 0 19.6s.1 14.1 0 21.2-3 12-9.5 14.8-12.7.4-16.2-4.5a2 2 0 0 1 .2-3l4.4-4.4c1-1.1 1.9-1.2 3-.2s2.6 1.9 4.3 1.1 2-2.3 2-4.1z"/></svg>