<svg enable-background="new 0 0 250 250" viewBox="0 0 250 250" xmlns="http://www.w3.org/2000/svg"><path d="m107.3 131.1c.5 3.3 3.3 5.6 7 5.6 3 0 6-1.1 8-2.5v5.1c-2 1.1-4.9 2.1-8.4 2.1-6.8 0-11.8-4.9-11.8-12 0-6.8 4.9-11.9 11.5-11.9s10.9 5 10.9 11.1c0 .9-.1 1.8-.3 2.6h-16.9zm0-4h12.4c-.1-3.2-2.7-5.4-6-5.4-3.4 0-6.1 2.4-6.4 5.4z"/><path d="m129.5 140.8v-18.6h-3.9v-4.4h4.1v-5.4l4.9-1.1v6.5h4.2v4.4h-4.2v18.6z"/><path d="m144.2 140.8v-18.6h-3.9v-4.4h4.2v-5.4l4.9-1.1v6.5h4.1v4.4h-4.1v18.6z"/><path d="m168.5 123.5c-1.5-1-3.4-1.6-5.2-1.6s-3 1-3 2.2c0 1 .6 1.5 1.7 2.2l3.7 2.2c2.9 1.7 3.8 3.8 3.8 6.1 0 4-3 6.8-8.2 6.8-2.1 0-4.1-.5-6-1.3v-5.3c1.2 1 3.6 2.1 5.7 2.1s3.2-1 3.2-2.4c0-.9-.5-1.7-2-2.5l-3.9-2.3c-2.4-1.4-3.3-3.5-3.3-5.7 0-3.8 2.9-6.6 8.1-6.6 1.8 0 3.6.3 5.3.9z"/><path d="m195.6 118.9c2.1-.9 4.3-1.4 6.6-1.4 5.7 0 9.4 2.7 9.4 9.2v14.2h-5.1v-2.1c-1.2 1.5-3.2 2.6-5.6 2.6-5 0-7.8-3.5-7.8-7.6 0-4 3.2-7.5 7.9-7.5 2.2 0 4.3 1 5.5 2.2v-1.9c0-3.3-2.2-4.6-4.8-4.6-2.1 0-4.3.7-6 1.8v-4.9zm6.7 18.6c2.3 0 4.2-1.6 4.2-3.7s-1.9-3.7-4.2-3.7-4.1 1.7-4.1 3.7 1.8 3.7 4.1 3.7z"/><path d="m218.3 117.9 4.7 16.7 4.8-13.7-1.1-3h5.1l6.3 16.7 4.6-16.7h5.4l-7 23h-5.4l-5.4-14.1-4.9 14.1h-5.4l-7-23z"/><path d="m97.7 108.6v32.2h-5.1v-31.1z"/><path d="m189.8 108.6v32.2h-5.1v-31.1z"/><path d="m56.8 163.5h-27.1v-70.6h-27.8v83.2h37.8z"/><path d="m10.5 86.5h27.1v70.6h27.8v-83.2h-37.9z"/></svg>