<?xml version="1.0" encoding="utf-8"?>
<!-- Generator: Adobe Illustrator 23.0.3, SVG Export Plug-In . SVG Version: 6.00 Build 0)  -->
<svg version="1.1" id="Layer_1" xmlns="http://www.w3.org/2000/svg" xmlns:xlink="http://www.w3.org/1999/xlink" x="0px" y="0px"
	 viewBox="0 0 250 250" style="enable-background:new 0 0 250 250;" xml:space="preserve">
<style type="text/css">
	.st0{fill:#686868;}
</style>
<g>
	<g>
		<path d="M79.5,94.1h9.3c4.2,0,6.5,2.8,6.5,6.2c0,3.3-2.3,6.1-6.5,6.1h-4.5v6.3h-4.8V94.1z M88.1,98.1h-3.9v4.2h3.9
			c1.3,0,2.2-0.8,2.2-2.1C90.3,99,89.4,98.1,88.1,98.1z"/>
		<path d="M108.9,109.9h-7.7l-0.9,2.8H95l7-18.5h6l7,18.5h-5.2L108.9,109.9z M102.4,105.8h5.2l-2.6-7.5L102.4,105.8z"/>
		<path d="M124.2,106.4h-2.4v6.3h-4.8V94.1h9.3c4.1,0,6.5,2.7,6.5,6.2c0,3.2-2,4.9-3.7,5.6l3.8,6.8h-5.5L124.2,106.4z M125.5,98.1
			h-3.8v4.2h3.8c1.3,0,2.3-0.8,2.3-2.1C127.8,99,126.8,98.1,125.5,98.1z"/>
		<path d="M134.8,94.1h4.8v18.5h-4.8V94.1z"/>
		<path d="M144.1,106.5c1.3,1.3,3.4,2.4,5.9,2.4c1.6,0,2.6-0.7,2.6-1.6c0-1.1-1.2-1.5-3.2-1.9c-3.1-0.6-7.3-1.4-7.3-5.8
			c0-3.1,2.6-5.8,7.4-5.8c3,0,5.6,0.9,7.5,2.6l-2.6,3.4c-1.6-1.3-3.6-1.9-5.2-1.9c-1.6,0-2.2,0.6-2.2,1.4c0,1,1.1,1.3,3.2,1.7
			c3.1,0.6,7.3,1.5,7.3,5.7c0,3.7-2.8,6.2-7.7,6.2c-3.8,0-6.4-1.2-8.2-2.9L144.1,106.5z"/>
		<path d="M172.2,105.2h-7.7v7.5h-4.8V94.1h4.8v6.9h7.7v-6.9h4.8v18.5h-4.8V105.2z"/>
		<path d="M78.5,130.6c0-5.7,4.3-9.6,9.9-9.6c4.6,0,7,2.5,8.2,5l-4.1,1.9c-0.6-1.5-2.2-2.7-4.1-2.7c-2.9,0-5,2.3-5,5.4
			c0,3,2.1,5.4,5,5.4c1.9,0,3.5-1.2,4.1-2.7l4.1,1.9c-1.2,2.4-3.6,5-8.2,5C82.9,140.2,78.5,136.3,78.5,130.6z"/>
		<path d="M107.7,121c5.7,0,9.9,3.9,9.9,9.6c0,5.6-4.2,9.6-9.9,9.6c-5.7,0-9.9-3.9-9.9-9.6C97.8,125,102,121,107.7,121z
			 M107.7,125.2c-3.1,0-5.1,2.3-5.1,5.4c0,3,2,5.4,5.1,5.4c3.1,0,5-2.4,5-5.4C112.7,127.6,110.7,125.2,107.7,125.2z"/>
		<path d="M119.4,121.3h4.8v14.4h7.5v4.2h-12.2V121.3z"/>
		<path d="M134.7,121.3h4.8v14.4h7.5v4.2h-12.2V121.3z"/>
		<path d="M149.4,121.3H163v4h-8.8v3.1h8.6v4.1h-8.6v3.3h8.8v4h-13.6V121.3z"/>
		<path d="M165.4,130.6c0-5.7,4.3-9.6,9.9-9.6c4.6,0,7,2.5,8.2,5l-4.1,1.9c-0.6-1.5-2.2-2.7-4.1-2.7c-2.9,0-5,2.3-5,5.4
			c0,3,2.1,5.4,5,5.4c1.9,0,3.5-1.2,4.1-2.7l4.1,1.9c-1.2,2.4-3.6,5-8.2,5C169.7,140.2,165.4,136.3,165.4,130.6z"/>
		<path d="M189.7,125.5h-5.2v-4.2h15.2v4.2h-5.2v14.4h-4.8V125.5z"/>
		<path d="M202,121.3h4.8v18.5H202V121.3z"/>
		<path d="M208.7,121.3h5.4l4.6,13.4l4.6-13.4h5.4l-7,18.5h-6L208.7,121.3z"/>
		<path d="M230,121.3h13.6v4h-8.8v3.1h8.6v4.1h-8.6v3.3h8.8v4H230V121.3z"/>
	</g>
	<g>
		<path class="st0" d="M82.4,148.4c1.6,0,2.7,0.8,3.2,1.7l-1.6,0.8c-0.3-0.5-0.9-0.8-1.6-0.8c-1.2,0-2.1,0.9-2.1,2.1
			c0,1.2,0.9,2.1,2.1,2.1c0.6,0,1.1-0.2,1.4-0.4v-0.6h-1.7v-1.5h3.6v2.8c-0.8,0.8-1.9,1.4-3.3,1.4c-2.2,0-4.1-1.4-4.1-3.7
			S80.1,148.4,82.4,148.4z"/>
		<path class="st0" d="M89.7,153.3h-1v2.4h-1.9v-7.1h3.8c1.7,0,2.6,1,2.6,2.4c0,1.2-0.8,1.9-1.5,2.1l1.5,2.6H91L89.7,153.3z
			 M90.2,150.1h-1.5v1.6h1.5c0.5,0,0.9-0.3,0.9-0.8C91.2,150.4,90.8,150.1,90.2,150.1z"/>
		<path class="st0" d="M98.3,148.4c2.3,0,4,1.5,4,3.7c0,2.2-1.7,3.7-4,3.7c-2.3,0-4-1.5-4-3.7C94.2,149.9,96,148.4,98.3,148.4z
			 M98.3,150.1c-1.2,0-2,0.9-2,2.1c0,1.2,0.8,2.1,2,2.1c1.2,0,2-0.9,2-2.1C100.3,151,99.5,150.1,98.3,150.1z"/>
		<path class="st0" d="M108,151.2l-1.1,4.5h-2l-2.1-7.1h2.2l1.1,4.8l1.3-4.8h1.5l1.3,4.8l1.1-4.8h2.2l-2.1,7.1h-2L108,151.2z"/>
		<path class="st0" d="M121.4,153.3h-1v2.4h-1.9v-7.1h3.8c1.7,0,2.6,1,2.6,2.4c0,1.2-0.8,1.9-1.5,2.1l1.5,2.6h-2.2L121.4,153.3z
			 M122,150.1h-1.5v1.6h1.5c0.5,0,0.9-0.3,0.9-0.8C122.9,150.4,122.5,150.1,122,150.1z"/>
		<path class="st0" d="M129.8,148.4c2.3,0,4,1.5,4,3.7c0,2.2-1.7,3.7-4,3.7c-2.3,0-4-1.5-4-3.7C125.8,149.9,127.5,148.4,129.8,148.4
			z M129.8,150.1c-1.2,0-2,0.9-2,2.1c0,1.2,0.8,2.1,2,2.1c1.2,0,2-0.9,2-2.1C131.8,151,131,150.1,129.8,150.1z"/>
		<path class="st0" d="M138.8,148.4c2.3,0,4,1.5,4,3.7c0,2.2-1.7,3.7-4,3.7c-2.3,0-4-1.5-4-3.7C134.8,149.9,136.5,148.4,138.8,148.4
			z M138.8,150.1c-1.2,0-2,0.9-2,2.1c0,1.2,0.8,2.1,2,2.1c1.2,0,2-0.9,2-2.1C140.8,151,140,150.1,138.8,150.1z"/>
		<path class="st0" d="M145.6,150.1h-2.1v-1.6h6.1v1.6h-2.1v5.5h-1.9V150.1z"/>
		<path class="st0" d="M151.3,153.3c0.5,0.5,1.4,0.9,2.4,0.9c0.7,0,1.1-0.3,1.1-0.6c0-0.4-0.5-0.6-1.3-0.7c-1.2-0.2-3-0.5-3-2.2
			c0-1.2,1.1-2.2,3-2.2c1.2,0,2.2,0.3,3,1l-1.1,1.3c-0.6-0.5-1.5-0.7-2.1-0.7c-0.6,0-0.9,0.2-0.9,0.6c0,0.4,0.5,0.5,1.3,0.7
			c1.2,0.2,2.9,0.6,2.9,2.2c0,1.4-1.1,2.4-3.1,2.4c-1.5,0-2.6-0.4-3.3-1.1L151.3,153.3z"/>
		<path class="st0" d="M169.4,151.2l-1.1,4.5h-2l-2.1-7.1h2.2l1.1,4.8l1.3-4.8h1.5l1.3,4.8l1.1-4.8h2.2l-2.1,7.1h-2L169.4,151.2z"/>
		<path class="st0" d="M176.2,148.5h5.5v1.5h-3.6v1.2h3.5v1.6h-3.5v1.3h3.6v1.5h-5.5V148.5z"/>
		<path class="st0" d="M188.2,154.6h-3.1l-0.4,1.1h-2.1l2.8-7.1h2.4l2.8,7.1h-2.1L188.2,154.6z M185.6,153h2.1l-1.1-2.9L185.6,153z"
			/>
		<path class="st0" d="M189.9,148.5h2.2l1.8,5.1l1.9-5.1h2.2l-2.8,7.1h-2.4L189.9,148.5z"/>
		<path class="st0" d="M199,148.5h5.5v1.5h-3.6v1.2h3.5v1.6h-3.5v1.3h3.6v1.5H199V148.5z"/>
		<path class="st0" d="M209.5,148.5h1.9v5.5h3v1.6h-4.9V148.5z"/>
		<path class="st0" d="M216.1,148.5h1.9v7.1h-1.9V148.5z"/>
		<path class="st0" d="M221.7,151.4v4.3h-1.9v-7.1h2l3,4.1v-4.1h1.9v7.1h-1.9L221.7,151.4z"/>
		<path class="st0" d="M230.7,153l-0.5,0.6v2.1h-1.9v-7.1h1.9v2.9l2.3-2.9h2.4l-2.9,3.3l3.1,3.8h-2.4L230.7,153z"/>
		<path class="st0" d="M236.3,153.3c0.5,0.5,1.4,0.9,2.4,0.9c0.7,0,1.1-0.3,1.1-0.6c0-0.4-0.5-0.6-1.3-0.7c-1.2-0.2-3-0.5-3-2.2
			c0-1.2,1.1-2.2,3-2.2c1.2,0,2.2,0.3,3,1l-1.1,1.3c-0.6-0.5-1.5-0.7-2.1-0.7c-0.6,0-0.9,0.2-0.9,0.6c0,0.4,0.5,0.5,1.3,0.7
			c1.2,0.2,2.9,0.6,2.9,2.2c0,1.4-1.1,2.4-3.1,2.4c-1.5,0-2.6-0.4-3.3-1.1L236.3,153.3z"/>
	</g>
	<g>
		<path d="M37.5,93.6c-17.8,0-32.3,14.1-32.3,31.5c0,7.4,2.6,14.2,7,19.6c0.7,0.6,6.5,5.1,7.6-4.2v-30.2h12.9
			c0,0,10.7,0.2,10.7,10.3S33.8,131,33.8,131h-7.5v8.3c0,0-0.2,16.8,12.3,17.1c0.6,0,1,0,1.4,0.1c16.6-1.3,29.7-14.9,29.7-31.4
			C69.8,107.7,55.3,93.6,37.5,93.6z"/>
		<path d="M31.8,116.3c0.3,0,0.8,0.1,1.3,0.2c-1-0.2-1.8-0.2-1.8-0.2h-5.1v9h3.1C29.2,122.5,29.8,119.2,31.8,116.3z"/>
		<g>
			<path class="st0" d="M42.6,116.1c4.4-1.4,8.2,1.6,9.9,2.9l4.2-4.5c0,0-6.7-7.8-17.9-3.5c-0.3,0.1-0.6,0.2-0.9,0.4
				C39.7,112.3,41.6,113.7,42.6,116.1z"/>
			<path class="st0" d="M52.8,131.2c0,0-9.1,8.2-15.3-0.6c-0.1-0.1-0.2-0.3-0.3-0.5c-1.8,0.7-3.3,0.8-3.3,0.8h-3.7
				c0.8,2.6,2.6,6.7,9.3,8.8c6.6,2.1,12.9,0.4,17.3-4.2L52.8,131.2z"/>
			<path class="st0" d="M36.7,120.5c0-3.6-3.6-4.1-4.9-4.2c-2,2.9-2.6,6.2-2.6,9H32C32,125.3,36.7,125.2,36.7,120.5z"/>
		</g>
	</g>
	<rect x="157.9" y="153.7" class="st0" width="2" height="2"/>
	<rect x="242.8" y="153.7" class="st0" width="2" height="2"/>
</g>
</svg>
