<svg xmlns="http://www.w3.org/2000/svg" id="Layer_1" viewBox="0 0 250 250" width="250" height="250"><style>.st0{fill:#686868}</style><path d="M79.5 94.1h9.3c4.2 0 6.5 2.8 6.5 6.2 0 3.3-2.3 6.1-6.5 6.1h-4.5v6.3h-4.8V94.1zm8.6 4h-3.9v4.2h3.9c1.3 0 2.2-.8 2.2-2.1 0-1.2-.9-2.1-2.2-2.1zm20.8 11.8h-7.7l-.9 2.8H95l7-18.5h6l7 18.5h-5.2l-.9-2.8zm-6.5-4.1h5.2l-2.6-7.5-2.6 7.5zm21.8.6h-2.4v6.3H117V94.1h9.3c4.1 0 6.5 2.7 6.5 6.2 0 3.2-2 4.9-3.7 5.6l3.8 6.8h-5.5l-3.2-6.3zm1.3-8.3h-3.8v4.2h3.8c1.3 0 2.3-.8 2.3-2.1 0-1.2-1-2.1-2.3-2.1zm9.3-4h4.8v18.5h-4.8V94.1zm9.3 12.4c1.3 1.3 3.4 2.4 5.9 2.4 1.6 0 2.6-.7 2.6-1.6 0-1.1-1.2-1.5-3.2-1.9-3.1-.6-7.3-1.4-7.3-5.8 0-3.1 2.6-5.8 7.4-5.8 3 0 5.6.9 7.5 2.6l-2.6 3.4c-1.6-1.3-3.6-1.9-5.2-1.9s-2.2.6-2.2 1.4c0 1 1.1 1.3 3.2 1.7 3.1.6 7.3 1.5 7.3 5.7 0 3.7-2.8 6.2-7.7 6.2-3.8 0-6.4-1.2-8.2-2.9l2.5-3.5zm28.1-1.3h-7.7v7.5h-4.8V94.1h4.8v6.9h7.7v-6.9h4.8v18.5h-4.8v-7.4zm-93.7 25.4c0-5.7 4.3-9.6 9.9-9.6 4.6 0 7 2.5 8.2 5l-4.1 1.9c-.6-1.5-2.2-2.7-4.1-2.7-2.9 0-5 2.3-5 5.4 0 3 2.1 5.4 5 5.4 1.9 0 3.5-1.2 4.1-2.7l4.1 1.9c-1.2 2.4-3.6 5-8.2 5-5.5 0-9.9-3.9-9.9-9.6zm29.2-9.6c5.7 0 9.9 3.9 9.9 9.6 0 5.6-4.2 9.6-9.9 9.6s-9.9-3.9-9.9-9.6c0-5.6 4.2-9.6 9.9-9.6zm0 4.2c-3.1 0-5.1 2.3-5.1 5.4 0 3 2 5.4 5.1 5.4 3.1 0 5-2.4 5-5.4 0-3-2-5.4-5-5.4zm11.7-3.9h4.8v14.4h7.5v4.2h-12.2v-18.6zm15.3 0h4.8v14.4h7.5v4.2h-12.2v-18.6zm14.7 0H163v4h-8.8v3.1h8.6v4.1h-8.6v3.3h8.8v4h-13.6v-18.5zm16 9.3c0-5.7 4.3-9.6 9.9-9.6 4.6 0 7 2.5 8.2 5l-4.1 1.9c-.6-1.5-2.2-2.7-4.1-2.7-2.9 0-5 2.3-5 5.4 0 3 2.1 5.4 5 5.4 1.9 0 3.5-1.2 4.1-2.7l4.1 1.9c-1.2 2.4-3.6 5-8.2 5-5.6 0-9.9-3.9-9.9-9.6zm24.3-5.1h-5.2v-4.2h15.2v4.2h-5.2v14.4h-4.8v-14.4zm12.3-4.2h4.8v18.5H202v-18.5zm6.7 0h5.4l4.6 13.4 4.6-13.4h5.4l-7 18.5h-6l-7-18.5zm21.3 0h13.6v4h-8.8v3.1h8.6v4.1h-8.6v3.3h8.8v4H230v-18.5z"/><path d="M82.4 148.4c1.6 0 2.7.8 3.2 1.7l-1.6.8c-.3-.5-.9-.8-1.6-.8-1.2 0-2.1.9-2.1 2.1 0 1.2.9 2.1 2.1 2.1.6 0 1.1-.2 1.4-.4v-.6h-1.7v-1.5h3.6v2.8c-.8.8-1.9 1.4-3.3 1.4-2.2 0-4.1-1.4-4.1-3.7s1.8-3.9 4.1-3.9zm7.3 4.9h-1v2.4h-1.9v-7.1h3.8c1.7 0 2.6 1 2.6 2.4 0 1.2-.8 1.9-1.5 2.1l1.5 2.6H91l-1.3-2.4zm.5-3.2h-1.5v1.6h1.5c.5 0 .9-.3.9-.8.1-.5-.3-.8-.9-.8zm8.1-1.7c2.3 0 4 1.5 4 3.7s-1.7 3.7-4 3.7-4-1.5-4-3.7c-.1-2.2 1.7-3.7 4-3.7zm0 1.7c-1.2 0-2 .9-2 2.1 0 1.2.8 2.1 2 2.1s2-.9 2-2.1c0-1.2-.8-2.1-2-2.1zm9.7 1.1l-1.1 4.5h-2l-2.1-7.1h2.2l1.1 4.8 1.3-4.8h1.5l1.3 4.8 1.1-4.8h2.2l-2.1 7.1h-2l-1.4-4.5zm13.4 2.1h-1v2.4h-1.9v-7.1h3.8c1.7 0 2.6 1 2.6 2.4 0 1.2-.8 1.9-1.5 2.1l1.5 2.6h-2.2l-1.3-2.4zm.6-3.2h-1.5v1.6h1.5c.5 0 .9-.3.9-.8s-.4-.8-.9-.8zm7.8-1.7c2.3 0 4 1.5 4 3.7s-1.7 3.7-4 3.7-4-1.5-4-3.7 1.7-3.7 4-3.7zm0 1.7c-1.2 0-2 .9-2 2.1 0 1.2.8 2.1 2 2.1s2-.9 2-2.1c0-1.2-.8-2.1-2-2.1zm9-1.7c2.3 0 4 1.5 4 3.7s-1.7 3.7-4 3.7-4-1.5-4-3.7 1.7-3.7 4-3.7zm0 1.7c-1.2 0-2 .9-2 2.1 0 1.2.8 2.1 2 2.1s2-.9 2-2.1c0-1.2-.8-2.1-2-2.1zm6.8 0h-2.1v-1.6h6.1v1.6h-2.1v5.5h-1.9v-5.5zm5.7 3.2c.5.5 1.4.9 2.4.9.7 0 1.1-.3 1.1-.6 0-.4-.5-.6-1.3-.7-1.2-.2-3-.5-3-2.2 0-1.2 1.1-2.2 3-2.2 1.2 0 2.2.3 3 1l-1.1 1.3c-.6-.5-1.5-.7-2.1-.7-.6 0-.9.2-.9.6 0 .4.5.5 1.3.7 1.2.2 2.9.6 2.9 2.2 0 1.4-1.1 2.4-3.1 2.4-1.5 0-2.6-.4-3.3-1.1l1.1-1.6zm18.1-2.1l-1.1 4.5h-2l-2.1-7.1h2.2l1.1 4.8 1.3-4.8h1.5l1.3 4.8 1.1-4.8h2.2l-2.1 7.1h-2l-1.4-4.5zm6.8-2.7h5.5v1.5h-3.6v1.2h3.5v1.6h-3.5v1.3h3.6v1.5h-5.5v-7.1zm12 6.1h-3.1l-.4 1.1h-2.1l2.8-7.1h2.4l2.8 7.1h-2.1l-.3-1.1zm-2.6-1.6h2.1l-1.1-2.9-1 2.9zm4.3-4.5h2.2l1.8 5.1 1.9-5.1h2.2l-2.8 7.1h-2.4l-2.9-7.1zm9.1 0h5.5v1.5h-3.6v1.2h3.5v1.6h-3.5v1.3h3.6v1.5H199v-7.1zm10.5 0h1.9v5.5h3v1.6h-4.9v-7.1zm6.6 0h1.9v7.1h-1.9v-7.1zm5.6 2.9v4.3h-1.9v-7.1h2l3 4.1v-4.1h1.9v7.1h-1.9l-3.1-4.3zm9 1.6l-.5.6v2.1h-1.9v-7.1h1.9v2.9l2.3-2.9h2.4l-2.9 3.3 3.1 3.8h-2.4l-2-2.7zm5.6.3c.5.5 1.4.9 2.4.9.7 0 1.1-.3 1.1-.6 0-.4-.5-.6-1.3-.7-1.2-.2-3-.5-3-2.2 0-1.2 1.1-2.2 3-2.2 1.2 0 2.2.3 3 1l-1.1 1.3c-.6-.5-1.5-.7-2.1-.7-.6 0-.9.2-.9.6 0 .4.5.5 1.3.7 1.2.2 2.9.6 2.9 2.2 0 1.4-1.1 2.4-3.1 2.4-1.5 0-2.6-.4-3.3-1.1l1.1-1.6z" class="st0"/><path d="M37.5 93.6c-17.8 0-32.3 14.1-32.3 31.5 0 7.4 2.6 14.2 7 19.6.7.6 6.5 5.1 7.6-4.2v-30.2h12.9s10.7.2 10.7 10.3-9.6 10.4-9.6 10.4h-7.5v8.3s-.2 16.8 12.3 17.1c.6 0 1 0 1.4.1 16.6-1.3 29.7-14.9 29.7-31.4.1-17.4-14.4-31.5-32.2-31.5z"/><path d="M31.8 116.3c.3 0 .8.1 1.3.2-1-.2-1.8-.2-1.8-.2h-5.1v9h3.1c-.1-2.8.5-6.1 2.5-9z"/><path d="M42.6 116.1c4.4-1.4 8.2 1.6 9.9 2.9l4.2-4.5s-6.7-7.8-17.9-3.5c-.3.1-.6.2-.9.4 1.8.9 3.7 2.3 4.7 4.7zm10.2 15.1s-9.1 8.2-15.3-.6c-.1-.1-.2-.3-.3-.5-1.8.7-3.3.8-3.3.8h-3.7c.8 2.6 2.6 6.7 9.3 8.8 6.6 2.1 12.9.4 17.3-4.2l-4-4.3zm-16.1-10.7c0-3.6-3.6-4.1-4.9-4.2-2 2.9-2.6 6.2-2.6 9H32s4.7-.1 4.7-4.8zm121.2 33.2h2v2h-2zm84.9 0h2v2h-2z" class="st0"/></svg>