<?xml version="1.0" encoding="utf-8"?>
<!-- Generator: Adobe Illustrator 23.0.2, SVG Export Plug-In . SVG Version: 6.00 Build 0)  -->
<svg version="1.1" id="Layer_1" xmlns="http://www.w3.org/2000/svg" xmlns:xlink="http://www.w3.org/1999/xlink" x="0px" y="0px"
	 viewBox="0 0 250 250" style="enable-background:new 0 0 250 250;" xml:space="preserve">
<path d="M239.1,61.4c1.3-0.2,2.4,0.7,2.6,2c0,0.2,0,0.4,0,0.6v122.1c0.1,1.3-0.8,2.4-2.1,2.5c-0.2,0-0.4,0-0.5,0H10.9
	c-1.3,0.2-2.4-0.7-2.6-2c0-0.2,0-0.4,0-0.6V64c-0.2-1.3,0.7-2.4,2-2.6c0.2,0,0.4,0,0.6,0H239.1 M239.2,57.1H10.8
	C6.7,57.1,4,59.8,4,64v122.1c-0.2,3.5,2.4,6.6,6,6.8c0.3,0,0.6,0,0.8,0h228.4c3.5,0.2,6.6-2.4,6.8-6c0-0.3,0-0.6,0-0.8V63.9
	c0.2-3.5-2.4-6.6-6-6.8C239.8,57.1,239.5,57.1,239.2,57.1z"/>
<path d="M213.7,138.7v37.1h-19.2v-37.1h-11.6v-11.5h42.5v11.5L213.7,138.7z M118.6,122c15.4,0,22.7-5.3,22.7-18.5V72.7h-18v32.7
	c0,3.5-2.2,5-4.8,5s-4.8-1.4-4.8-5V72.7H95.2v30.8C95.2,115.8,102.4,122,118.6,122z M178.9,175.8v-48.6h-18.5V145h-10.1v-17.8h-18.5
	v48.6h18.5V157h10.1v18.8H178.9z M106.1,177.3c7,0.1,13.9-1.3,20.4-3.9v-25.3h-22.4v9.7h5.8v8.2c-0.9,0.2-1.9,0.3-2.8,0.3
	c-7.3,0-9.7-5.9-9.7-14.7s3.9-13.4,9.8-13.4c4.3,0.1,8.4,1.7,11.5,4.7l8.4-9.7c-5.5-4.8-12.1-7.4-21.2-7.4
	c-16.2,0-27.4,9.4-27.4,25.8S88.8,177.3,106.1,177.3z M54.7,175.8H74v-48.6H54.7L54.7,175.8z M50.7,175.8v-12.1H35.1v-36.5h-19v48.6
	L50.7,175.8z M171,121.3c12.7,0,24.8-7.2,24.8-24.8S185,72.7,172,72.7h-25.1v48.6L171,121.3 M167.2,83.3c3.5,0,9.6,0.5,9.6,13.2
	s-5.3,14-9.5,14h-1.9V83.3L167.2,83.3 M75.5,121.3c8.9,0,16.2-4.4,16.2-14.6c0-6.2-4.1-10-8.4-11.7c4.5-2,7-5.5,7-10.1
	c0-7.9-5.8-12.2-14.9-12.2H45.8v48.6L75.5,121.3 M69.1,82.7c2.5,0,4.4,1.4,4.4,4.7s-1.8,5.1-4.4,5.1h-5.3v-9.8L69.1,82.7
	 M69.7,100.6c2.3,0,4.6,1.1,4.6,5.2s-2.2,5.3-4.6,5.3h-5.9v-10.5H69.7 M223,170.8c-0.5-0.6-1.2-0.9-2-0.9c-1.7,0-3,1.4-3,3
	c0,0.8,0.3,1.5,0.9,2.1c0.6,0.5,1.3,0.8,2.1,0.8c0.8,0.1,1.5-0.2,2-0.8c1.2-1.1,1.2-2.9,0.1-4.1C223.1,170.9,223,170.8,223,170.8
	L223,170.8z M222.7,174.7c-0.5,0.4-1.1,0.7-1.7,0.7c-0.6,0-1.2-0.3-1.7-0.7c-0.5-0.5-0.8-1.1-0.8-1.8c0.1-1.3,1.2-2.4,2.5-2.5
	c0.6,0,1.3,0.3,1.7,0.8c0.4,0.5,0.7,1.1,0.7,1.7C223.4,173.6,223.1,174.2,222.7,174.7z M222.5,172.2c0-0.3-0.2-0.5-0.4-0.7
	c-0.2-0.2-0.6-0.3-0.9-0.3h-1.6v3.4h0.7v-1.4h0.8l0.6,1.4h0.7l-0.6-1.5C222.2,173,222.5,172.6,222.5,172.2z M221.1,172.7h-0.8v-1
	h0.8c0.4,0,0.6,0.2,0.6,0.5S221.5,172.7,221.1,172.7z M223.6,175.9h0.6l1.8-6h-0.5L223.6,175.9z M228.4,174.4l-1-4.4h-1v5.8h0.6
	v-5.3l1.2,5.3h0.4l1.2-5.3v5.3h0.6V170h-1L228.4,174.4z M232,170h-1.1v5.8h1.1c1.2,0,1.9-0.7,1.9-2.9S233.2,170,232,170L232,170z
	 M231.9,175.2h-0.4v-4.7h0.4c0.9,0,1.4,0.4,1.4,2.4S232.8,175.2,231.9,175.2z"/>
</svg>
