<svg xmlns="http://www.w3.org/2000/svg" width="250" height="250" viewBox="0 0 250 250"><path d="M240.9 94H155c-1.6 0-2.5-.7-2.6-1.9a1.9 1.9 0 0 1 1.8-2.2H245v82.7H5V89.8h93.7a2.2 2.2 0 0 1 2 2 2.2 2.2 0 0 1-1.9 2.2H9.1v74.4h231.8z"/><path d="M80.1 117.6H77v-13.1h25.6a47.8 47.8 0 0 1 8.4.8c5.5.9 9.1 4.2 10.8 9.6a18.5 18.5 0 0 1-1.1 14.4 11.5 11.5 0 0 1-4.1 4.4c2 4.2 3.9 8.3 5.8 12.6h2.9v13.1h-14.9l-9-22.4h-5v9.3h3v13H77v-13h3.1zm16.3-1.1V127h4.4c3.2-.1 4.9-1.7 5.1-5s-1.4-5.2-4-5.4a50 50 0 0 0-5.5-.1zm-73.3-12h22.5a39.5 39.5 0 0 1 8.4 1.1 19 19 0 0 1 12.6 10.5c5.3 11.1 5.1 22.2-.3 33.1-2.9 5.9-8.1 8.9-14.5 9.8a49.2 49.2 0 0 1-6.7.4H23v-13.1h3.2v-28.7h-3.1zm19.3 41.9a32.7 32.7 0 0 0 4.5-.4c3-.7 4.3-3 5.1-5.7a37.4 37.4 0 0 0 .5-14.9 10.2 10.2 0 0 0-2.2-5.5c-2.1-2.6-5-2.4-7.9-2.2zm88.3-16.9a30.3 30.3 0 0 1 7.1-18.6c4.7-5.6 10.9-7.9 18.1-7.4 9.8.8 15.8 6.6 19.2 15.3 4.2 10.9 3.5 21.6-2.9 31.6-4.4 7-11.2 10.3-19.5 9.8s-14.1-4.8-18-11.9c-2.7-5-4-10.5-4-18.8zm27.8 3.4V116h-8.7v16.9h-6l10.3 17.9 10.4-17.9zm29.6-15.3h-3.9v-13.1H213a19.5 19.5 0 0 1 7.9 1.5 13.7 13.7 0 0 1 7.9 7.6 20.2 20.2 0 0 1-.2 17c-2.3 5-6.5 7.5-11.9 8-3.5.3-7.1.1-10.7.2h-1.6v7.4h4v13.1h-24.2v-13h3.9zm16.3 9.2h4.2c3.4 0 5-1.5 5.1-4.9s-.8-4.2-2.4-4.8-4.6-.4-6.9-.5zm-69.5-30.9h1.5a8.3 8.3 0 0 0 4.4-2.4l6.7-6.4c3.2-3 6.7-5.6 11.1-6.3a12 12 0 0 1 9.9 2.9c.2.2.5.5.4.8s.6 1.6 1.3 2.2 1.5 1 .7 1.7-1.2 0-1.7-.4-1.5-1.4-2.7-1.3a7.4 7.4 0 0 1-2.7-1c-3.8-2-7.3-1.4-10.6 1.2s-8.1 6.5-12.2 9.9a13.8 13.8 0 0 1-6 2.8c-1.7.2-3.3 0-4.3-1.7-.9.4-1.7.9-2.6 1.2a2.6 2.6 0 0 1-3.6-2.8 17.5 17.5 0 0 1 2.3-6.4l.3-1-.2-.2-.9.6a20.8 20.8 0 0 0-5.9 9 1.6 1.6 0 0 1-1.5 1.2l-3.6.4c.6-1.4 1.1-2.7 1.7-3.9h-.2c-.9.6-1.7 1.4-2.5 2a14.9 14.9 0 0 1-2.5 1.3 3.9 3.9 0 0 1-5.5-3.6 14.3 14.3 0 0 1 1.5-6.4c.6-1.4 1.3-2.8 2.1-4.4l-5.8-1.3a13.9 13.9 0 0 0-9.4 1.1 3.9 3.9 0 0 1-3 .4.9.9 0 0 0-.8.2l-2.1 1.2c-.6.3-1.2.4-1.4-.3a1.4 1.4 0 0 1 .5-1.1 24.7 24.7 0 0 0 4.2-3 11.6 11.6 0 0 1 9.6-2.7 75.4 75.4 0 0 1 8.2 2l1.7.4a40 40 0 0 1 3.2-2.9 6.6 6.6 0 0 1 7-.7 2.5 2.5 0 0 1 1 3.8 7.9 7.9 0 0 1-7.4 3.9 1.8 1.8 0 0 0-1.1.4c-1.5 2.8-3 5.5-3.4 8.7v1.6a6.9 6.9 0 0 0 1.7-.5 25.3 25.3 0 0 0 6.7-5.5 6.5 6.5 0 0 0 1.1-2.2c1.1-2.5 2.2-5 3.4-7.4a5.3 5.3 0 0 1 2.8-2.9 2.1 2.1 0 0 1 2.5.1 2 2 0 0 1 .3 2.4 21.6 21.6 0 0 1-2 3.6c-.8 1.2-1.9 2.3-2.6 3.6a17.7 17.7 0 0 1 1.7-1.2 8.6 8.6 0 0 1 2.9-1.1 2.3 2.3 0 0 1 2.7 2.9 14.3 14.3 0 0 1-1.4 3.4c-.4.9-1.1 1.8-1.5 2.7a6.8 6.8 0 0 0-.7 2c1.5.1 1.8-.3 2.1-1.5a11.1 11.1 0 0 1 6.4-8.3 4.7 4.7 0 0 1 1.7-.3c2.2 0 3.2 1.3 2.6 3.4s-2.2 3.5-4.1 4.6l-2 1.1zm.1-3.1c2.5-1 3.4-2.2 2.9-4-1.6 1-2.2 2.5-2.9 4zm-14-12a2.8 2.8 0 0 0-3.8 1.4c1.4-.2 2.7-.2 3.8-1.4z"/></svg>