<svg xmlns="http://www.w3.org/2000/svg" width="250" height="250" viewBox="0 0 250 250"><path fill="#fff" d="M125.6 56.9h-.6a22.9 22.9 0 0 0-1 2.3c-3 9.2-5.9 18.4-8.9 27.5a6.7 6.7 0 0 0 0 4.2c2.8 10 5.5 20 8.3 29.9.4 1.5 1 2.9 1.6 4.7.5-.7 1-1 1.1-1.4 3-11.1 5.8-22.1 9-33.1a10.4 10.4 0 0 0-.3-6.3c-2.7-8-5.3-16-8-24zm-83 123.3a14.6 14.6 0 0 0 6.4.5c1.9 0 3.9.6 5.6-.3l-4.3-8.1 6.4-19.9 8.3 25-3.6 3.1a27.7 27.7 0 0 0 6.3.2c1.9-.1 4 .7 6.2-.8-3.2-1.7-4.2-4.4-5.2-7.3-2.9-9-5.9-17.9-8.9-26.8-.3-1.1-.8-2.2-1.4-4l-4.5 13.5c-1.4 4.4-2.4 8.8-4.5 13.4-2.6-8-5.1-15.5-7.6-22.9-.3-1-.3-2.2-1.8-2.6-.5 1.6-.9 3.1-1.3 4.6l-7.5 23.5c-1 3.2-1.6 6.8-5.5 8.5 2 1.4 3.9 1 5.6.9s3.7.8 5.3-1.2c-2.6-.6-4.7-1.4-4.8-4.3 2.1-7.3 4.5-14.5 7.1-22.3 2.8 8.6 5.4 16.5 8 24.6zm142.8-.9c-4.1-.2-6.4-2.7-8.4-5.4s-5.1-7.5-7.6-11.3c1.6-1.3 3.1-2.4 4.3-3.6a8.5 8.5 0 0 0-2.8-14 25.9 25.9 0 0 0-3.7-1.1c-5.6-1.2-11.3-.5-16.9-.6-.3 0-.6.5-1.1.8 4.4 1.9 4.4 1.9 4.4 6.5v23.5c0 3.8-.1 3.9-3.8 5.4-.2.1-.2.4-.3.6 2.1.8 10.3 1 14.2.2v-1.4l-4.3-.5c-1.3-5.2-.3-10.3-.7-15.2l5.5.4 6.7 10.5a17.4 17.4 0 0 0 3 4c3.1 2.6 6.8 3.2 10.8 2.3zM98.9 67h-.6a22.2 22.2 0 0 0-1 3.1c-.8 4.2-1.2 8.5-2.4 12.6a7.3 7.3 0 0 0 1.3 6.6c7.9 11.7 15.7 23.5 23.5 35.2a3.1 3.1 0 0 0 .9.7l.4-.3q-10.9-29-22.1-57.9zm53.8-.2h-.8c-7.3 19.3-14.7 38.7-22.3 58.6 2.4-2.1 23.7-33.6 27-39.6zm-33.9 79.3v31.8l-4 1.9c.4.3.7.8.9.8h24.5a6.4 6.4 0 0 0 1.9-.7c-.1-3.3.4-6.6-.3-10.2l-1.8.5c.1 3.4-.3 6.5-3.9 8.3h-8.3c-1.6.1-2.9-.4-3.5-1.8v-13.8h5c2.8 1.2 1.9 4.4 3.4 6.5.8-2.1 1.1-11.4.6-14.1-.1-.2-.5-.4-.8-.6-1.9 6.5-2.8 7.2-8.3 6v-14a10.3 10.3 0 0 1 3.1-1.3h8.3c2.6 2.2 2.6 2.3 3.5 6.4a11.9 11.9 0 0 0 1 1.8 21.5 21.5 0 0 0 0-10.4h-23.4a6.2 6.2 0 0 0-2.1.8zm-28.7 19.6h4.1a14 14 0 0 0 7.9-2.1c3.8-2.1 5.4-5.6 5.4-9.8s-2-7-5.7-8.8a18.3 18.3 0 0 0-7.6-1.7c-3.9-.2-7.7-.1-11.6 0a6.9 6.9 0 0 0-2.1.5c4.4 2.7 4.4 2.7 4.4 7.9 0 7.3 0 14.6.1 22a6.4 6.4 0 0 1-1.2 4.3c-.9.9-2.5.8-3.3 2.7a62.5 62.5 0 0 0 7.5 0c2.3-.2 4.8 1 7.2-1.1l-4.7-1.6a7.4 7.4 0 0 1-.4-1.8zm138.3-21.8a3.4 3.4 0 0 0-2.7 2.3c-3.3 8.8-6.7 17.6-10.1 26.4-1 2.7-2 5.4-4.7 7-.1 0 0 .4 0 .6 3 .9 7.8.8 10.2-.4l-4-1.8c-1.6-4.3 1.7-7.7 2.6-11.5h12c1 2.6 2 5 2.8 7.3s.9 3.5-2.2 5.4c-.2.1-.4.5-.6.7 2.4 1 9.5 1 12.3.1-.3-.5-.4-.9-.8-1.2a10.6 10.6 0 0 1-3-4.7c-3.1-8.3-6.3-16.5-9.4-24.8zm-212.5 34a18.3 18.3 0 0 1-.7-3.2c-.1-8.5-.1-17 0-25.6a4.1 4.1 0 0 1 3-4.3l1.2-.9a18.9 18.9 0 0 0-6.6-.6c-2.1.1-4.4-.6-6.8.7l3.8 2.2v31.2c-1 1.6-2.9 1.3-3.6 3.3 2.4.1 4.6.1 6.7 0s4.4.6 6.8-.7zm178.7-31.8v31.8l-4.2 2c.5.3.8.6 1.1.6l11.4.2a5.6 5.6 0 0 0 1.2-.4c-.2-.4-.2-.8-.4-.8-3.3-.6-3.9-2.8-3.8-5.8q.2-11.7 0-23.4c-.1-3 .5-5.2 3.8-5.8.1 0 .2-.4.4-.6s-.5-.6-.8-.6h-11.9c-.3 0-.6.5-1 .8zm-41.7-47.5l-3.1 4.8-17.3 25.9c-.5.8-1.4 1.6-1 3l23.8-21.9-1-5.7zm-33.6 33.6c-3.1-6.7-19.3-30.8-21.6-33-.7 3.8-1.4 7.5-2 11.3zm29-12.3c2 2.3 3.8 4.5 5.5 6.7s3 4.6 5.3 6.7c0-4-2.8-17.2-4.1-19.7zm-52.9-6.6c-.8 3.7-1.6 6.8-2.1 9.9s-1.7 6.3-1.6 10.5l10.7-14zm24.8 73.3h-.9c-.2 1.8-.4 3.6-.6 5.7l-1.9-.4c0-1.5.1-2.8 0-4.1a3.5 3.5 0 0 0-.8-1.3l-.7.2c.4 2.1-.9 4.3.9 6.2h3.6a8.6 8.6 0 0 0 .4-6.3zm13.5 6.5l.6-.6a24 24 0 0 1-1.6-2.7l1.5-2.9-.6-.5-2.1 1.9c-.6-.7-.8-2-2.5-1.5l1.5 2.8-1.8 3.2c1.9.8 1.8-1.3 2.9-1.6zm8.5-.4l.6.5 2.5-2c.8.5.8 2.4 2.7 1.4l-1.9-2.8c.6-1 1.1-2 1.7-2.9l-.6-.5-2 1.9c-1-.4-1-2.5-2.9-1.5l1.8 2.7zm-39.8-6.1c.2 2.3-.7 4.4.9 6.4h3.8c-.2-1.9-1.6-.9-2.4-1.2s.4-3.6-.7-5.2z"/><path d="M125.6 56.9l1.2 3.7c2.7 8 5.3 16 8 24a10.4 10.4 0 0 1 .3 6.3c-3.2 11-6 22-9 33.1-.1.4-.6.7-1.1 1.4-.6-1.8-1.2-3.2-1.6-4.7-2.8-9.9-5.5-19.9-8.3-29.9a6.7 6.7 0 0 1 0-4.2c3-9.1 5.9-18.3 8.9-27.5a22.9 22.9 0 0 1 1-2.3zm-83 123.3l4.3-2.7c-2.6-8.1-5.2-16-8-24.6-2.6 7.8-5 15-7.1 22.3.1 2.9 2.2 3.7 4.8 4.3-1.6 2-3.6 1.1-5.3 1.2s-3.6.5-5.6-.9c3.9-1.7 4.5-5.3 5.5-8.5l7.5-23.5c.4-1.5.8-3 1.3-4.6 1.5.4 1.5 1.6 1.8 2.6 2.5 7.4 5 14.9 7.6 22.9 2.1-4.6 3.1-9 4.5-13.4l4.5-13.5c.6 1.8 1.1 2.9 1.4 4 3 8.9 6 17.8 8.9 26.8 1 2.9 2 5.6 5.2 7.3-2.2 1.5-4.3.7-6.2.8a27.7 27.7 0 0 1-6.3-.2l3.6-3.1-8.3-25-6.4 19.9 4.3 8.1c-1.7.9-3.7.3-5.6.3a14.6 14.6 0 0 1-6.4-.5zm142.8-.9l-.7 1.1c-4 .9-7.7.3-10.8-2.3a17.4 17.4 0 0 1-3-4l-6.7-10.5-5.5-.4c.4 4.9-.6 10 .7 15.2l4.3.5v1.4c-3.9.8-12.1.6-14.2-.2.1-.2.1-.5.3-.6 3.7-1.5 3.8-1.6 3.8-5.4v-23.5c0-4.6 0-4.6-4.4-6.5.5-.3.8-.8 1.1-.8 5.6.1 11.3-.6 16.9.6a25.9 25.9 0 0 1 3.7 1.1 8.5 8.5 0 0 1 2.8 14c-1.2 1.2-2.7 2.3-4.3 3.6 2.5 3.8 4.8 7.7 7.6 11.3s4.3 5.2 8.4 5.4zM159 161.2c2.2 0 4.2.2 6.2 0a5.8 5.8 0 0 0 3.4-1.7c2.5-2.9 2.8-6.2 1.6-9.8s-3.5-4.5-6.5-4.8a12.8 12.8 0 0 0-3.9.7c-1.2 2.8-1.4 7-.8 15.6zM98.9 67Q110 95.8 121 124.8l-.4.3a3.1 3.1 0 0 1-.9-.7c-7.8-11.7-15.6-23.5-23.5-35.2a7.3 7.3 0 0 1-1.3-6.6c1.2-4.1 1.6-8.4 2.4-12.6a22.2 22.2 0 0 1 1-3.1zm53.8-.2l3.9 19c-3.3 6-24.6 37.5-27 39.6 7.6-19.9 15-39.3 22.3-58.6zm-33.9 79.3l-4.2-2a6.2 6.2 0 0 1 2.1-.8h23.4a21.5 21.5 0 0 1 0 10.4 11.9 11.9 0 0 1-1-1.8c-.9-4.1-.9-4.2-3.5-6.4h-8.3a10.3 10.3 0 0 0-3.1 1.3v14c5.5 1.2 6.4.5 8.3-6 .3.2.7.4.8.6.5 2.7.2 12-.6 14.1-1.5-2.1-.6-5.3-3.4-6.5h-5v13.9c.6 1.4 1.9 1.9 3.5 1.8h8.3c3.6-1.8 4-4.9 3.9-8.3l1.8-.5c.7 3.6.2 6.9.3 10.2a6.4 6.4 0 0 1-1.9.7h-24.5c-.2 0-.5-.5-.9-.8l4-1.9zm-28.7 19.6v10.5a7.4 7.4 0 0 0 .4 1.8l4.7 1.6c-2.4 2.1-4.9.9-7.2 1.1a62.5 62.5 0 0 1-7.5 0c.8-1.9 2.4-1.8 3.3-2.7a6.4 6.4 0 0 0 1.2-4.3c-.1-7.4-.1-14.7-.1-22 0-5.2 0-5.2-4.4-7.9a6.9 6.9 0 0 1 2.1-.5c3.9-.1 7.7-.2 11.6 0a18.3 18.3 0 0 1 7.6 1.7c3.7 1.8 5.7 4.7 5.7 8.8s-1.6 7.7-5.4 9.8a14 14 0 0 1-7.9 2.1zm.2-1.6h4.3c4.1-.2 6.6-2.9 7-6.8.1-1 0-2.1.1-3.2a8.4 8.4 0 0 0-4-8.4l-3.9-.9-3.5 1.3zm138.1-20.2l2.4 5.5c3.1 8.3 6.3 16.5 9.4 24.8a10.6 10.6 0 0 0 3 4.7c.4.3.5.7.8 1.2-2.8.9-9.9.9-12.3-.1.2-.2.4-.6.6-.7 3.1-1.9 3.3-2.2 2.2-5.4s-1.8-4.7-2.8-7.3h-12c-.9 3.8-4.2 7.2-2.6 11.5l4 1.8c-2.4 1.2-7.2 1.3-10.2.4 0-.2-.1-.6 0-.6 2.7-1.6 3.7-4.3 4.7-7 3.4-8.8 6.8-17.6 10.1-26.4a3.4 3.4 0 0 1 2.7-2.4zm-2.7 6.9l-5.4 14.1h5.2c1.8-.1 3.6.3 5.4-.5zM15.9 177.9l3.8 2.1c-2.4 1.3-4.7.6-6.8.7s-4.3.1-6.7 0c.7-2 2.6-1.7 3.6-3.3v-31.2L6 144c2.4-1.3 4.7-.6 6.8-.7a18.9 18.9 0 0 1 6.6.6l-1.2.9a4.1 4.1 0 0 0-3 4.3c-.1 8.6-.1 17.1 0 25.6a18.3 18.3 0 0 0 .7 3.2zm178.7-31.8l-4.2-2c.4-.3.7-.8 1-.8h11.9c.3 0 .5.4.8.6s-.3.6-.4.6c-3.3.6-3.9 2.8-3.8 5.8q.2 11.7 0 23.4c-.1 3 .5 5.2 3.8 5.8.2 0 .2.4.4.8a5.6 5.6 0 0 1-1.2.4l-11.4-.2c-.3 0-.6-.3-1.1-.6l4.2-2zm-41.7-47.5l1.4 6.1 1 5.7-23.8 21.9c-.4-1.4.5-2.2 1-3l17.3-25.9zm-33.6 33.6l-23.6-21.7c.6-3.8 1.3-7.5 2-11.3 2.3 2.2 18.5 26.3 21.6 33zm29-12.3l6.7-6.3c1.3 2.5 4.1 15.7 4.1 19.7-2.3-2.1-3.6-4.6-5.3-6.7s-3.5-4.4-5.5-6.7zm-52.9-6.6l7 6.4-10.7 14c-.1-4.2 1.1-7.3 1.6-10.5s1.3-6.2 2.1-9.9zm24.8 73.3a8.6 8.6 0 0 1-.4 6.3h-3.6c-1.8-1.9-.5-4.1-.9-6.2l.7-.2a3.5 3.5 0 0 1 .8 1.3c.1 1.3 0 2.6 0 4.1l1.9.4c.2-2.1.4-3.9.6-5.7zm13.5 6.5l-2.1-1.9c-1.1.3-1 2.4-2.9 1.6l1.8-3.2-1.5-2.8c1.7-.5 1.9.8 2.5 1.5l2.1-1.9.6.5-1.5 2.9a24 24 0 0 0 1.6 2.7zm8.5-.4l1.9-3.2-1.8-2.7c1.9-1 1.9 1.1 2.9 1.5l2-1.9.6.5c-.6.9-1.1 1.9-1.7 2.9l1.9 2.8c-1.9 1-1.9-.9-2.7-1.4l-2.5 2zm-39.8-6.1h1.6c1.1 1.6.1 3.5.7 5.2s2.2-.7 2.4 1.2h-3.8c-1.6-2-.7-4.1-.9-6.4z"/><path fill="#fff" d="M159 161.2c-.6-8.6-.4-12.8.8-15.6a12.8 12.8 0 0 1 3.9-.7c3 .3 5.4 1.6 6.5 4.8s.9 6.9-1.6 9.8a5.8 5.8 0 0 1-3.4 1.7c-2 .2-4 0-6.2 0zm-68.7 2.9v-18l3.5-1.3 3.9.9a8.4 8.4 0 0 1 4 8.4c-.1 1.1 0 2.2-.1 3.2-.4 3.9-2.9 6.6-7 6.8zm135.4-13.3l5.2 13.6c-1.8.8-3.6.4-5.4.5h-5.2z"/></svg>