<svg id="Layer_1" data-name="Layer 1" xmlns="http://www.w3.org/2000/svg" width="300" height="300" viewBox="0 0 300 300"><title>client-logo-11</title><path d="M111.5,191.8v-6h.8v6Z"/><path d="M121.1,191.8l-3.5-4.8v4.8h-.8v-6h.8l3.4,4.7v-4.7h.8v6Z"/><path d="M127.8,191.8v-5.3h-1.9v-.7h4.6v.7h-1.9v5.3Z"/><path d="M134.6,191.8v-6h4v.7h-3.2v1.9h3.1v.7h-3.1v2h3.2v.7Z"/><path d="M146.4,191.8l-1.5-2.4h-1.2v2.4h-.8v-6h2.4a1.8,1.8,0,0,1,1.9,1.8,1.7,1.7,0,0,1-1.5,1.8l1.6,2.4Zm0-4.2a1.1,1.1,0,0,0-1.2-1.1h-1.5v2.3h1.5A1.2,1.2,0,0,0,146.4,187.6Z"/><path d="M151.5,191.8v-6h.8v6Z"/><path d="M156.6,188.8a3,3,0,1,1,3,3.1A2.9,2.9,0,0,1,156.6,188.8Zm5.2,0a2.2,2.2,0,0,0-2.2-2.4,2.4,2.4,0,0,0,0,4.8A2.2,2.2,0,0,0,161.8,188.8Z"/><path d="M170.4,191.8l-1.6-2.4h-1.2v2.4h-.7v-6h2.4a1.8,1.8,0,0,1,.3,3.6l1.6,2.4Zm0-4.2a1.1,1.1,0,0,0-1.2-1.1h-1.6v2.3h1.6A1.2,1.2,0,0,0,170.4,187.6Z"/><path d="M175.2,191l.4-.6a2.6,2.6,0,0,0,1.9.8c1.1,0,1.4-.5,1.4-1s-3.6-.7-3.6-2.8.9-1.7,2.1-1.7a2.9,2.9,0,0,1,2.1.8l-.4.6a2.3,2.3,0,0,0-1.7-.7c-.8,0-1.3.4-1.3.9s3.6.6,3.6,2.8-.6,1.8-2.2,1.8A3.1,3.1,0,0,1,175.2,191Z"/><rect x="143.4" y="113.2" width="4.7" height="4.72" transform="translate(-39 136.9) rotate(-45)"/><rect x="145.1" y="108.4" width="1.3" height="1.32" transform="translate(-34.4 135) rotate(-45)"/><rect x="136.3" y="108.4" width="1.3" height="1.32" transform="translate(-37 128.7) rotate(-45)"/><rect x="153.9" y="108.4" width="1.3" height="1.32" transform="translate(-31.8 141.2) rotate(-45)"/><polygon points="145.8 120.5 137 111.7 138.4 127.2 145.7 127.2 145.8 127.2 153.1 127.2 154.6 111.7 145.8 120.5"/><path d="M23.9,162.3c.2,0,.3.1.3.2a.3.3,0,0,1-.3.3H16.2a.3.3,0,0,1-.3-.3c0-.1.1-.2.3-.2h2.5V146.6l-5.3,15.7c-.2.6-.3.9-.5.9s-.2,0-.4-.4L6.6,146.5v13.1c0,2.4.7,2.7,2.2,2.7h.4c.2,0,.3.1.3.2a.3.3,0,0,1-.3.3H3.4a.3.3,0,0,1-.3-.3c0-.1.1-.2.3-.2h.4c1.1,0,2.3-.3,2.3-2V145.2c-.4-.9-.6-.9-1-.9H3.5c-.1,0-.2-.1-.2-.3s0-.2.2-.2h5l5.6,15.3,5.1-15.3h4.3a.3.3,0,0,1,.3.3c0,.1-.1.2-.3.2H21.4v18Z"/><path d="M51.2,162.3c.2,0,.3.1.3.2a.3.3,0,0,1-.3.3h-8c-.3,0-.3-.2-.3-.3s0-.2.2-.2h1.6c.8,0,1.1-.1,1.1-.6a1.3,1.3,0,0,0-.1-.6l-1.9-5.3H37.9l-1,3.1a8.7,8.7,0,0,0-.5,2.3c0,.7.4,1.1,1.3,1.1h1l.2.2c0,.1-.1.3-.2.3H32.6a.3.3,0,0,1-.3-.3c0-.1.1-.2.3-.2h.5a2.7,2.7,0,0,0,2.9-2.1l5.4-16c.1-.5.3-.9.5-.9s.2.1.4.5l6.1,16.9c.5,1.4.8,1.5,1.3,1.6ZM40.7,147.4l-2.6,7.9h5.5Z"/><path d="M63.2,145.8v13.8c0,2.4.7,2.7,2.2,2.7h.5l.2.2c0,.1-.1.3-.2.3H60c-.1,0-.2-.2-.2-.3l.2-.2h.5c1.2,0,2.2-.3,2.2-2V145.2c-.5-.9-.7-.9-1.1-.9H60.2a.3.3,0,0,1-.3-.3c0-.1,0-.2.3-.2h4.9l9.6,14.6V146.2c0-1.6-1-1.9-2.2-1.9h-.4a.3.3,0,0,1-.3-.3c0-.1.1-.2.3-.2h5.8c.2,0,.3.1.3.2a.3.3,0,0,1-.3.3h-.4c-1.5,0-2.2.3-2.2,2.6v15.9c0,.3-.1.4-.3.4a.7.7,0,0,1-.6-.4Z"/><path d="M87.7,153.2c0-5.2,3.9-9.9,9.3-9.9s9.3,4.7,9.3,9.9S102.4,163,97,163,87.7,158.3,87.7,153.2Zm15.8,0c0-4.7-1.6-9.4-6.5-9.4s-6.6,4.7-6.6,9.4,1.6,9.3,6.6,9.3S103.5,157.9,103.5,153.2Z"/><path d="M119.4,145.8v13.8c0,2.4.7,2.7,2.2,2.7h.5l.2.2c0,.1-.1.3-.2.3h-5.9a.5.5,0,0,1-.3-.3l.3-.2h.5c1.1,0,2.2-.3,2.2-2V145.2c-.5-.9-.8-.9-1.1-.9h-1.4a.3.3,0,0,1-.3-.3c0-.1,0-.2.3-.2h4.9l9.6,14.6V146.2c0-1.6-1-1.9-2.2-1.9h-.4a.3.3,0,0,1-.3-.3c0-.1.1-.2.3-.2h5.8c.2,0,.3.1.3.2a.3.3,0,0,1-.3.3h-.4c-1.5,0-2.3.3-2.3,2.6v15.9c0,.3,0,.4-.2.4a.7.7,0,0,1-.6-.4Z"/><path d="M166.7,162.3c.2,0,.3.1.3.2a.3.3,0,0,1-.3.3H159a.3.3,0,0,1-.3-.3c0-.1.1-.2.3-.2h2.6v-18H159a.3.3,0,0,1-.3-.3c0-.1.1-.2.3-.2h7.1c2.9,0,7.3.5,7.3,4.7s-6.8,5.1-9.2,5.2v8.6Zm-2.3-9.1c2.5,0,6.2-.1,6.2-4.4s-3.8-4.5-6.4-4.5v8.9Z"/><path d="M190.6,162.3c.2,0,.3.1.3.2a.3.3,0,0,1-.3.3H183c-.3,0-.4-.1-.4-.3s.1-.2.3-.2h2.6v-18h-2.6a.3.3,0,0,1-.3-.3c0-.1.1-.2.3-.2h7.2c2.9,0,6.9.6,6.9,4.5s-2.2,4.4-4.6,4.8c4.4.8,4.4,3.5,4.4,6.3s.1,3,1.6,3a3,3,0,0,0,1.2-.3h.2l.2.2c0,.1-.1.1-.2.2a2.7,2.7,0,0,1-1.9.5c-3.5,0-3.7-2.3-3.8-4.4s-.2-5.2-4.6-5.2h-1.4v9Zm-1.5-9.5c2.2,0,5.1-.2,5.1-4.1s-3.1-4.4-6.1-4.4v8.5Z"/><path d="M216.9,162.3c.2,0,.3.1.3.2a.3.3,0,0,1-.3.3h-7.7a.3.3,0,0,1-.3-.3c0-.1.1-.2.3-.2h2.6v-18h-2.6a.3.3,0,0,1-.3-.3c0-.1.1-.2.3-.2h7.7c.2,0,.3.1.3.2a.3.3,0,0,1-.3.3h-2.5v18Z"/><path d="M230.4,145.8v13.8c0,2.4.7,2.7,2.2,2.7h.5l.2.2c0,.1-.1.3-.2.3h-5.9c-.1,0-.2-.2-.2-.3l.2-.2h.5c1.2,0,2.2-.3,2.2-2V145.2c-.4-.9-.7-.9-1.1-.9h-1.4a.3.3,0,0,1-.3-.3c0-.1.1-.2.3-.2h4.9l9.7,14.6V146.2c0-1.6-1.1-1.9-2.3-1.9h-.4a.3.3,0,0,1-.3-.3c0-.1.1-.2.3-.2h5.8c.2,0,.3.1.3.2a.3.3,0,0,1-.3.3h-.4c-1.5,0-2.2.3-2.2,2.6v15.9c0,.3-.1.4-.3.4a.7.7,0,0,1-.6-.4Z"/><path d="M264.7,163a9.6,9.6,0,0,1-9.8-9.8c0-5.2,3.6-9.9,9.3-9.9a7.1,7.1,0,0,1,4.4,1.4c.4.2.6.4.9.4a.4.4,0,0,0,.4-.4c0-.2-.1-.5-.1-.8s.1-.2.3-.2.3.1.3.4a22.3,22.3,0,0,0,1.6,4.3v.2c0,.1-.1.2-.3.2s-.2-.1-.4-.3c-2.2-3.5-4.7-4.7-7.1-4.7-4.8,0-6.6,4.7-6.6,9.1s2.4,9.6,7.3,9.6a7.5,7.5,0,0,0,6.7-4.2.2.2,0,0,1,.2-.2h.2c0,.1.1.1.1.2h-.1A7.6,7.6,0,0,1,264.7,163Z"/><path d="M291.6,162.3c3.9,0,4.5-2.2,4.8-4.4,0-.3,0-.5.3-.5s.2.2.2.5-.3,2.3-.3,4a2.8,2.8,0,0,0,.1.9H282.2a.3.3,0,0,1-.3-.3c0-.1.1-.2.3-.2h2.6v-18h-2.6a.3.3,0,0,1-.3-.3c0-.1.1-.2.3-.2h14.5v2.1a20.5,20.5,0,0,1,.2,2.7c0,.2,0,.4-.2.4s-.3-.1-.3-.4c-.2-2.2-.3-4.3-5-4.3h-4V152h1.2c3.3,0,3.2-1.6,3.2-3s.1-.5.3-.5.2.2.2.4-.1,1.9-.1,3.3.1,2.6.1,3.6,0,.5-.2.5-.3-.3-.3-.5c-.2-2.3-.3-3.3-3.2-3.3h-1.2v9.8Z"/><rect x="143.8" y="151.1" width="3.9" height="3.93" transform="translate(-65.5 147.9) rotate(-45)"/></svg>