<?xml version="1.0" encoding="utf-8"?>
<!-- Generator: Adobe Illustrator 23.0.2, SVG Export Plug-In . SVG Version: 6.00 Build 0)  -->
<svg version="1.1" id="Layer_1" xmlns="http://www.w3.org/2000/svg" xmlns:xlink="http://www.w3.org/1999/xlink" x="0px" y="0px"
	 viewBox="0 0 250 250" style="enable-background:new 0 0 250 250;" xml:space="preserve">
<g transform="translate(216.5 -105)">
	<path d="M-209.2,202.1h18.9c0.2,0.1,0.2,0.2,0.2,0.4c0.1,4,0.1,6.3,0.1,6.9l-0.2,0.2h-1.7c-1.5,0-2.6,1.7-3.3,5.2
		c-0.1,0.3-0.1,0.5-0.1,0.8c-0.1,15.2-0.1,25.8-0.1,32.1c0.3,1.6,0.9,2.4,1.6,2.4h0.7c5.4,0,9.1-5.1,11.1-15.4h3.3
		c0.1,0.1,0.2,0.2,0.2,0.4v22.1c0,0.3-0.1,0.4-0.2,0.4h-30.5c-0.2,0-0.2-0.1-0.2-0.4v-6.8c0-0.2,0.1-0.3,0.2-0.3h0.6
		c2.4,0,3.7-2,4.2-6v-27.2c0-3.3-0.9-5.6-2.8-6.9c-1.9-1.3-2.2-0.9-2.2-1.1v-6.4C-209.4,202.2-209.3,202.1-209.2,202.1z"/>
	<path d="M-174.5,202.3h29c0.1,0,0.2,0.1,0.2,0.3v20.2c0,0.3-0.1,0.4-0.2,0.4h-3.2c-0.5-1.7-0.8-3.4-0.9-5.2
		c-1.3-5.6-3.7-8.5-7.1-8.5h-0.4l-3.5,0.4V226l1.1,0.2h0.5c1.7-0.4,2.5-1.8,2.5-4.3c0.1,0,0.1-0.4,0.1-1.1v-1.9
		c0.1-0.3,0.1-0.4,0.2-0.4h3.4c0.1,0,0.2,0.2,0.2,0.4v22.2c0,0.3-0.1,0.4-0.2,0.4h-3.3c-0.1,0-0.2-0.1-0.2-0.4v-0.5
		c0-3.7-0.9-6-2.7-6.9h-1.7v17h5.5c2.4-1.3,4.2-3.6,5-6.2c0.7-2.5,1.1-5,1.3-7.5h3.4c0.1,0.1,0.2,0.2,0.2,0.4V257
		c0,0.3-0.1,0.4-0.2,0.4h-7.4l-21.7,0.2V251c0-0.2,0.1-0.3,0.3-0.3c0,0,0,0,0,0c2.4,0,3.9-1.6,4.6-4.7c0.2-0.8,0.3-1.5,0.3-2.3
		v-26.5c0-3.4-1-5.7-3-7.1c-2-1.4-2.2-0.9-2.2-1.1v-6.4C-174.7,202.4-174.6,202.3-174.5,202.3z"/>
	<path d="M-118.4,202.2h3.4c0.1,0,0.2,0.2,0.2,0.4v21.7c0,0.3-0.1,0.4-0.2,0.4h-3.5c-0.1-0.1-0.4-1.7-1-4.7c-1.7-5.8-4-8.8-7.1-8.8
		c-3.1,0-4,2.5-4.8,7.5c-0.4,3.6-0.6,7.3-0.6,10.9c0.3,10.9,0.7,16.3,1.3,16.3c1.1,2.8,2.4,4.2,3.8,4.2h0.3c2,0,3.3-1.7,4.1-5.1
		c0.1-0.6,0.2-1.1,0.2-1.7v-0.6c-0.4-3.2-1.2-4.8-2.5-4.8c-0.2,0-0.5-0.2-0.5-0.4v-6.6c0-0.2,0.1-0.4,0.2-0.4h14.6
		c0.1,0.1,0.1,0.2,0.1,0.4v6.6l-1.7,2.4c-0.6,1.2-0.8,2.5-0.8,3.8v13.7c0,0.2,0,0.3-0.2,0.3h-4.3c-0.2,0-0.2-0.1-0.2-0.3v-2.1
		c-0.1-1.1-0.4-1.7-0.9-1.7s-2.4,1.2-6.3,3.6l-2.3,0.3h-0.7c-5.6,0-9.9-5.7-13.1-17.2c-0.6-3.5-1-7.1-1-10.7
		c0-8.8,2.1-16.2,6.2-22.3c2.8-3.2,5.5-4.7,8-4.7s4.3,1.1,7.4,3.4c0.2,0,0.2,0,0.2,0.2s1.5-1.5,1.5-3.4
		C-118.6,200.9-118.5,202.2-118.4,202.2z"/>
	<path d="M-90.2,202.3h6.3c0.1,0.2,3,14,8.6,41.4c0.6,3.2,1.4,5.2,2.5,6c0.9,0.7,2,1.2,3.1,1.3v6.4c0,0.2-0.1,0.4-0.2,0.4h-18.8
		c-0.1,0-0.2-0.2-0.2-0.4v-6.2c0-0.2,0.1-0.4,0.2-0.4h2.4c1,0,1.6-1.3,2-4.1s-1.2-6.1-1.7-6.6h-9c-1,2.1-1.5,4.3-1.6,6.6
		c0,2.8,0.6,4.1,2,4.1h1.9l0.2,0.2c0,1.5-0.1,2.6-0.1,3.2v3.2c0,0.2,0,0.4-0.2,0.4h-13.6c-0.1,0-0.2-0.2-0.2-0.4v-6.2
		c0-0.2,0.1-0.4,0.2-0.4h0.6c2.6,0,4.3-1.5,5.1-4.4C-94.3,218.9-90.8,204.2-90.2,202.3L-90.2,202.3z M-93.2,231.9
		c0,0.8,0.3,1.1,0.7,1.1h4.2c0.6,0,0.9-0.4,0.9-1.3c-1.4-7.7-2.3-11.6-2.6-11.6h-0.1c-0.3,0-0.8,1.9-1.6,5.6
		C-92.5,229.4-92.8,230.1-93.2,231.9z"/>
	<path d="M-56.1,202.4c1.8,0,4.2,1.1,7.1,3.2h0.2c0.9,0,1.3-1,1.3-3l0.2-0.2h3.3c0.1,0.1,0.2,0.2,0.2,0.4v24c0,0.2-0.1,0.3-0.2,0.3
		h-3.1c-0.3-1.9-0.5-3.9-0.6-5.8c-1.4-7.1-3.5-10.6-6.2-10.6H-54c-2.8,0-4.6,2.8-5.5,8.6c-0.4,4-0.6,7.9-0.6,11.9
		c0,8.4,1.1,13.9,3.2,16.5c0.9,0.7,2,1.1,3.1,1.1h0.1c2.9,0,4.8-2.7,5.8-8c0-0.7,0.1-1.4,0.3-2.1h3.6l0.2,0.2c0,4.5-1.1,9-3.1,13.1
		c-1.1,2.2-2.9,4-5.2,5l-2.6,0.8c-6.8,0-11.7-6.1-14.6-18.2c-0.6-3.6-1-7.2-1-10.8c0.2-5.6,1.3-11.2,3.3-16.4
		C-63.9,205.8-60.3,202.4-56.1,202.4L-56.1,202.4z"/>
	<path d="M-39.4,202.3h19.5c0.1,0,0.2,0.1,0.2,0.3v6.2c0,0.2-0.7,0.6-1.9,1.2c-0.6,1.1-0.8,2.3-0.8,3.5c2.2,8,3.4,12,3.7,12h0.2
		c0.5,0,1-1.4,1.6-4.1c1.5-4.9,2.2-7.7,2.2-8.5c0-2.5-0.9-3.7-2.7-3.7v-6.6c0-0.2,0.1-0.3,0.2-0.3h12.5c0.1,0,0.2,0.1,0.2,0.3v6.2
		c0,0.4-0.9,0.8-2.8,1.2c-1.7,1.4-2.9,3.3-3.3,5.4c-3.8,12.9-5.7,19.8-5.8,20.7s-0.3,3.9-0.3,5.6v1.1c0,5.3,1.8,7.9,5.3,7.9v6.6
		c0,0.2-0.1,0.4-0.2,0.4h-19.3c-0.1,0-0.2-0.2-0.2-0.4v-6.2c0-0.3,0.1-0.4,0.2-0.4c2,0.2,3.8-1.1,4.3-3c0.4-1.8,0.6-3.6,0.6-5.4
		c0.1-2.7-0.3-5.4-1.3-7.9c-3.5-12.5-5.6-19.6-6.3-21.1s-3.7-4.1-5.9-4.1v-6.6C-39.6,202.4-39.5,202.3-39.4,202.3L-39.4,202.3z"/>
	<path d="M15.1,228l-1.3,11.3l11.4-3.2l1.2,8.3l-10.5,0.7l6.9,9.1l-7.4,4l-4.7-9.6l-4.3,9.6l-7.6-4l6.7-9.1l-10.3-0.8l1.3-8.2
		l11.2,3.2L6.4,228H15.1z"/>
</g>
</svg>
