<svg xmlns="http://www.w3.org/2000/svg" width="300" height="300" viewBox="0 0 300 300"><path fill="#75bf1e" d="M142.8 157.2h9.5v2.39h-9.5zm0-7.2h9.5v2.39h-9.5zm-28.6-33.4h2.4v42.97h-2.4z"/><path fill="#75bf1e" fill-rule="evenodd" d="M119 103.5l-3.6 8.3h7.1l-3.5-8.3z"/><path fill="#75bf1e" fill-rule="evenodd" d="M150 5a145 145 0 1 0 145 145A145 145 0 0 0 150 5zm76.4 183.2a2.4 2.4 0 0 1-2.4 2.4h-54.4l3.8 19.1h5.2a2.3 2.3 0 0 1 2.4 2.4v7.1h4.8v4.8h-71.6v-4.8h4.8v-7.1a2.3 2.3 0 0 1 2.4-2.4h5.2l3.8-19.1H76a2.4 2.4 0 0 1-2.4-2.4v-105a7.2 7.2 0 0 1 7.2-7.2h138.4a7.2 7.2 0 0 1 7.2 7.2z"/><path fill="#75bf1e" fill-rule="evenodd" d="M150 106.1v20h-4.8v-20l-15.4 25.7c5.2 1.7 11.7 5.8 12.9 13.4h9.9c1.1-7.6 7.6-11.7 12.8-13.4z"/><path fill="#75bf1e" fill-rule="evenodd" d="M90.3 159.5h19.1v-45.3a2.4 2.4 0 0 1 .2-.9l7.2-16.8a2.3 2.3 0 0 1 3.1-1.2 2.5 2.5 0 0 1 1.3 1.2l7.1 16.8a1.3 1.3 0 0 1 .2.9v7.2h-4.8v-4.8h-2.3v42.9h2.3v-19h4.8v19h9.6v-11.9c0-9.7-11.9-11.9-12.4-12a2.3 2.3 0 0 1-1.9-2.7 1.1 1.1 0 0 1 .3-.8l21.5-35.8a2.5 2.5 0 0 1 4.1 0l21.4 35.8a2.2 2.2 0 0 1-.8 3.2 1.1 1.1 0 0 1-.8.3c-.5.1-12.3 2.3-12.3 12v11.9h9.5v-19h4.8v19h14.3V150h-9.5v-4.8h9.5v-11.9h-9.5v-4.8h9.5v-11.9h-9.5v-4.8h9.5v-9.5h-14.3v19.1h-4.8V99.9a2.4 2.4 0 0 1 2.4-2.4h19.1a2.4 2.4 0 0 1 2.4 2.4v59.6h19.1V92.7H90.3z"/></svg>