<?xml version="1.0" encoding="utf-8"?>
<!-- Generator: Adobe Illustrator 23.0.3, SVG Export Plug-In . SVG Version: 6.00 Build 0)  -->
<svg version="1.1" id="Layer_1" xmlns="http://www.w3.org/2000/svg" xmlns:xlink="http://www.w3.org/1999/xlink" x="0px" y="0px"
	 viewBox="0 0 300 300" style="enable-background:new 0 0 300 300;" xml:space="preserve">
<style type="text/css">
	.st0{fill:#FFFFFF;}
	.st1{fill-rule:evenodd;clip-rule:evenodd;fill:#FFFFFF;}
</style>
<path class="st0" d="M142.8,157.2h9.5v2.4h-9.5V157.2z M142.8,150h9.5v2.4h-9.5V150z M114.2,116.6h2.4v43h-2.4V116.6z"/>
<path class="st1" d="M119,103.5l-3.6,8.3h7.1L119,103.5z"/>
<path class="st1" d="M150,5C69.9,5,5,69.9,5,150s64.9,145,145,145s145-64.9,145-145S230.1,5,150,5z M226.4,188.2
	c0,1.3-1.1,2.4-2.4,2.4h-54.4l3.8,19.1h5.2c1.3-0.1,2.3,0.9,2.4,2.2c0,0.1,0,0.1,0,0.2v7.1h4.8v4.8h-71.6v-4.8h4.8v-7.1
	c-0.1-1.3,0.9-2.3,2.2-2.4c0.1,0,0.1,0,0.2,0h5.2l3.8-19.1H76c-1.3,0-2.4-1.1-2.4-2.4v-105c0-4,3.2-7.2,7.2-7.2h138.4
	c4,0,7.2,3.2,7.2,7.2L226.4,188.2z"/>
<path class="st1" d="M150,106.1v20h-4.8v-20l-15.4,25.7c5.2,1.7,11.7,5.8,12.9,13.4h9.9c1.1-7.6,7.6-11.7,12.8-13.4L150,106.1z"/>
<path class="st1" d="M90.3,159.5h19.1v-45.3c0-0.3,0.1-0.6,0.2-0.9l7.2-16.8c0.5-1.2,1.8-1.7,3-1.2c0,0,0.1,0,0.1,0
	c0.6,0.2,1,0.7,1.3,1.2l7.1,16.8c0.2,0.3,0.2,0.6,0.2,0.9v7.2h-4.8v-4.8h-2.3v42.9h2.3v-19h4.8v19h9.6v-11.9
	c0-9.7-11.9-11.9-12.4-12c-1.3-0.2-2.1-1.4-1.9-2.6c0,0,0,0,0-0.1c0-0.3,0.1-0.6,0.3-0.8l21.5-35.8c0.8-1.1,2.3-1.4,3.5-0.6
	c0.2,0.2,0.5,0.4,0.6,0.6l21.4,35.8c0.7,1,0.4,2.4-0.6,3.1c-0.1,0.1-0.2,0.1-0.2,0.1c-0.2,0.2-0.5,0.3-0.8,0.3
	c-0.5,0.1-12.3,2.3-12.3,12v11.9h9.5v-19h4.8v19h14.3V150h-9.5v-4.8h9.5v-11.9h-9.5v-4.8h9.5v-11.9h-9.5v-4.8h9.5v-9.5h-14.3v19.1
	h-4.8V99.9c0-1.3,1.1-2.4,2.4-2.4h19.1c1.3,0,2.4,1.1,2.4,2.4v59.6h19.1V92.7H90.3V159.5z"/>
</svg>
