<?xml version="1.0" encoding="utf-8"?>
<!-- Generator: Adobe Illustrator 23.0.3, SVG Export Plug-In . SVG Version: 6.00 Build 0)  -->
<svg version="1.1" id="Layer_1" xmlns="http://www.w3.org/2000/svg" xmlns:xlink="http://www.w3.org/1999/xlink" x="0px" y="0px"
	 viewBox="0 0 300 300" style="enable-background:new 0 0 300 300;" xml:space="preserve">
<style type="text/css">
	.st0{fill-rule:evenodd;clip-rule:evenodd;fill:#FFFFFF;}
</style>
<path class="st0" d="M93.7,118.6c-3.7,0-6.7,3-6.7,6.7c0,3.7,3,6.7,6.7,6.7l0,0c3.7,0,6.7-3,6.7-6.7
	C100.4,121.6,97.4,118.6,93.7,118.6z M175,134.5c-13.8-13.8-36.1-13.8-49.9-0.1c0,0-0.1,0.1-0.1,0.1c-3.3,3.2-5.9,7.1-7.7,11.4
	c-3.6,8.7-3.6,18.4,0,27.1c1.8,4.3,4.4,8.2,7.7,11.4c3.3,3.3,7.2,5.9,11.5,7.7c8.6,3.6,18.4,3.6,27,0c4.3-1.8,8.2-4.4,11.5-7.7
	c6.7-6.6,10.4-15.6,10.4-25c0-4.6-0.9-9.2-2.7-13.5C180.9,141.6,178.3,137.7,175,134.5z M172.1,168.6c-1.2,2.9-3,5.5-5.2,7.7
	c-2.2,2.3-4.9,4-7.8,5.2c-5.8,2.4-12.4,2.4-18.2,0c-2.9-1.1-5.5-2.9-7.7-5.2c-2.3-2.2-4.1-4.8-5.3-7.7c-1.2-2.9-1.8-6-1.8-9.2
	c0-3.1,0.6-6.2,1.8-9.1c3.7-8.9,12.4-14.7,22.1-14.7c3.1,0,6.2,0.6,9.1,1.8c2.9,1.2,5.6,3,7.8,5.2c2.2,2.2,4,4.8,5.2,7.7
	c1.2,2.9,1.8,6,1.8,9.1C173.9,162.6,173.3,165.7,172.1,168.6L172.1,168.6z"/>
<path class="st0" d="M150,5C69.9,5,5,69.9,5,150s64.9,145,145,145s145-64.9,145-145S230.1,5,150,5z M228,198.4
	c0,5.4-4.3,9.7-9.7,9.7c0,0-0.1,0-0.1,0H81.8c-5.4,0.1-9.7-4.2-9.8-9.6c0,0,0-0.1,0-0.1v-77.9c0-5.1,3.9-9.3,8.9-9.7H117l2.5-12.7
	c0.7-3.6,3.8-6.2,7.4-6.2h46.2c3.6,0,6.7,2.6,7.4,6.2l2.5,12.7h36c5.1,0.4,9,4.6,9,9.7V198.4z"/>
</svg>
