<svg xmlns="http://www.w3.org/2000/svg" width="300" height="300" viewBox="0 0 300 300"><path fill="#75bf1e" fill-rule="evenodd" d="M93.7 118.6a6.7 6.7 0 0 0 0 13.4 6.7 6.7 0 0 0 0-13.4zm81.3 15.9a35.3 35.3 0 0 0-50 0 34.3 34.3 0 0 0-7.7 11.4 35.4 35.4 0 0 0 0 27.1 34.3 34.3 0 0 0 7.7 11.4 36.8 36.8 0 0 0 11.5 7.7 35.1 35.1 0 0 0 27 0 36.8 36.8 0 0 0 11.5-7.7 34.9 34.9 0 0 0 10.4-25 33.9 33.9 0 0 0-2.7-13.5 34.3 34.3 0 0 0-7.7-11.4zm-2.9 34.1a23.8 23.8 0 0 1-5.2 7.7 22.7 22.7 0 0 1-7.8 5.2 23.9 23.9 0 0 1-18.2 0 21.4 21.4 0 0 1-7.7-5.2 22.6 22.6 0 0 1-5.3-7.7 24.7 24.7 0 0 1-1.8-9.2 25 25 0 0 1 1.8-9.1 24 24 0 0 1 22.1-14.7 22.4 22.4 0 0 1 9.1 1.8 24.2 24.2 0 0 1 7.8 5.2 23.8 23.8 0 0 1 5.2 7.7 25 25 0 0 1 1.8 9.1 24.7 24.7 0 0 1-1.8 9.2z"/><path fill="#75bf1e" fill-rule="evenodd" d="M150 5a145 145 0 1 0 145 145A145 145 0 0 0 150 5zm78 193.4a9.7 9.7 0 0 1-9.8 9.7H81.8a9.7 9.7 0 0 1-9.8-9.7v-77.9a9.7 9.7 0 0 1 8.9-9.7H117l2.5-12.7a7.6 7.6 0 0 1 7.4-6.2h46.2a7.6 7.6 0 0 1 7.4 6.2l2.5 12.7h36a9.7 9.7 0 0 1 9 9.7z"/></svg>