<svg xmlns="http://www.w3.org/2000/svg" width="300" height="300" viewBox="0 0 300 300"><path fill="#75bf1e" d="M105.7 131.2h64.4v8.11h-64.4z"/><path fill="#75bf1e" fill-rule="evenodd" d="M150 5a145 145 0 1 0 145 145A145 145 0 0 0 150 5zm28.8 222.3l-34.1-59.1v59.1H132v-59.1l-34.2 59.1H83.2l41.2-71.3v-5.8h27.9v5.7l41.2 71.4zm38-122.4h-3.1a4.5 4.5 0 0 0-4.5 4.5v15.5a4.5 4.5 0 0 0 4.5 4.5h3.1v2.7a3.8 3.8 0 0 1-3.8 3.8h-14.3a3.8 3.8 0 0 1-3.8-3.8v-.9H187a2.9 2.9 0 0 1-2.9-2.9v-2h-5.4v21.1h-77.1a4.4 4.4 0 0 1-4.4-4.3V94.3a4.7 4.7 0 0 1 4.6-4.6h54.6a1.9 1.9 0 0 0 .4-1.2c0-1.5-1.9-3.2-4.2-3.2h-34a6.3 6.3 0 0 1 0-12.5h44.3c3.3 0 5.7 3.4 5.7 6.8v7.3a13.5 13.5 0 0 0 .4 2.9h9.7V108h5.4v-2a2.9 2.9 0 0 1 2.9-3h7.9v-.8a3.8 3.8 0 0 1 3.8-3.8H213a3.8 3.8 0 0 1 3.8 3.8z"/></svg>