<?xml version="1.0" encoding="utf-8"?>
<!-- Generator: Adobe Illustrator 23.0.3, SVG Export Plug-In . SVG Version: 6.00 Build 0)  -->
<svg version="1.1" id="Layer_1" xmlns="http://www.w3.org/2000/svg" xmlns:xlink="http://www.w3.org/1999/xlink" x="0px" y="0px"
	 viewBox="0 0 300 300" style="enable-background:new 0 0 300 300;" xml:space="preserve">
<style type="text/css">
	.st0{fill:#FFFFFF;}
	.st1{fill-rule:evenodd;clip-rule:evenodd;fill:#FFFFFF;}
</style>
<path class="st0" d="M105.7,131.2h64.4v8.1h-64.4L105.7,131.2z"/>
<path class="st1" d="M150,5C69.9,5,5,69.9,5,150s64.9,145,145,145s145-64.9,145-145S230.1,5,150,5z M178.8,227.3l-34.1-59.1v59.1
	H132v-59.1l-34.2,59.1H83.2l41.2-71.3v-5.8h27.9v5.7l41.2,71.4L178.8,227.3z M216.8,104.9h-3.1c-2.5,0-4.5,2-4.5,4.5v15.5
	c0,2.5,2,4.5,4.5,4.5h3.1v2.7c0,2.1-1.7,3.8-3.8,3.8l0,0h-14.3c-2.1,0-3.8-1.7-3.8-3.8l0,0v-0.9H187c-1.6,0-2.9-1.3-2.9-2.9v-2h-5.4
	v21.1h-77.1c-2.4,0-4.3-1.9-4.4-4.3V94.3c0.1-2.5,2.1-4.5,4.6-4.6h54.6c0.3-0.3,0.4-0.8,0.4-1.2c0-1.5-1.9-3.2-4.2-3.2h-34
	c-3.5-0.4-5.9-3.6-5.5-7c0.4-2.9,2.6-5.1,5.5-5.5h44.3c3.3,0,5.7,3.4,5.7,6.8v7.3c0,1,0.2,2,0.4,2.9h9.7V108h5.4v-2
	c-0.1-1.6,1.2-2.9,2.8-3c0,0,0.1,0,0.1,0h7.9v-0.8c0-2.1,1.7-3.8,3.8-3.8l0,0H213c2.1,0,3.8,1.7,3.8,3.8v0V104.9z"/>
</svg>
